%TF.GenerationSoftware,KiCad,Pcbnew,7.0.10*%
%TF.CreationDate,2025-02-05T15:49:07-05:00*%
%TF.ProjectId,pcb2,70636232-2e6b-4696-9361-645f70636258,rev?*%
%TF.SameCoordinates,Original*%
%TF.FileFunction,Legend,Top*%
%TF.FilePolarity,Positive*%
%FSLAX46Y46*%
G04 Gerber Fmt 4.6, Leading zero omitted, Abs format (unit mm)*
G04 Created by KiCad (PCBNEW 7.0.10) date 2025-02-05 15:49:07*
%MOMM*%
%LPD*%
G01*
G04 APERTURE LIST*
%ADD10C,0.150000*%
%ADD11C,0.125000*%
%ADD12C,0.300000*%
%ADD13C,0.120000*%
%ADD14C,0.127000*%
%ADD15C,0.200000*%
G04 APERTURE END LIST*
D10*
X157850000Y-101350000D02*
X157650000Y-100900000D01*
X156850000Y-105650000D02*
X156550000Y-106050000D01*
X156550000Y-101150000D02*
X156250000Y-101550000D01*
X161950000Y-100750000D02*
X162350000Y-101050000D01*
X162350000Y-101050000D02*
X161950000Y-100750000D01*
X156250000Y-101550000D02*
X156700000Y-101350000D01*
X156850000Y-101550000D02*
X156250000Y-101550000D01*
X156550000Y-103950000D02*
X156550000Y-101150000D01*
X156550000Y-103250000D02*
X156550000Y-106050000D01*
X160250000Y-101050000D02*
X157450000Y-101050000D01*
X149800000Y-93750000D02*
X169825000Y-93750000D01*
X169825000Y-113750000D01*
X149800000Y-113750000D01*
X149800000Y-93750000D01*
X156550000Y-106050000D02*
X156850000Y-105650000D01*
X161950000Y-101350000D02*
X161950000Y-100750000D01*
X157650000Y-101200000D02*
X157850000Y-100750000D01*
X159550000Y-101050000D02*
X162350000Y-101050000D01*
X161950000Y-100750000D02*
X162150000Y-101200000D01*
X162350000Y-101050000D02*
X161950000Y-101350000D01*
X156850000Y-105650000D02*
X156400000Y-105850000D01*
X157450000Y-101050000D02*
X157850000Y-101350000D01*
X156550000Y-106050000D02*
X156250000Y-105650000D01*
X156550000Y-101150000D02*
X156850000Y-101550000D01*
X157850000Y-100750000D02*
X157850000Y-101350000D01*
X156250000Y-105650000D02*
X156850000Y-105650000D01*
X156400000Y-101350000D02*
X156850000Y-101550000D01*
X156700000Y-105850000D02*
X156250000Y-105650000D01*
X156250000Y-101550000D02*
X156550000Y-101150000D01*
X162150000Y-100900000D02*
X161950000Y-101350000D01*
X157450000Y-101050000D02*
X157850000Y-100750000D01*
X157850000Y-101350000D02*
X157450000Y-101050000D01*
D11*
X150410404Y-107423569D02*
X150434214Y-107352141D01*
X150434214Y-107352141D02*
X150458023Y-107328331D01*
X150458023Y-107328331D02*
X150505642Y-107304522D01*
X150505642Y-107304522D02*
X150577071Y-107304522D01*
X150577071Y-107304522D02*
X150624690Y-107328331D01*
X150624690Y-107328331D02*
X150648500Y-107352141D01*
X150648500Y-107352141D02*
X150672309Y-107399760D01*
X150672309Y-107399760D02*
X150672309Y-107590236D01*
X150672309Y-107590236D02*
X150172309Y-107590236D01*
X150172309Y-107590236D02*
X150172309Y-107423569D01*
X150172309Y-107423569D02*
X150196119Y-107375950D01*
X150196119Y-107375950D02*
X150219928Y-107352141D01*
X150219928Y-107352141D02*
X150267547Y-107328331D01*
X150267547Y-107328331D02*
X150315166Y-107328331D01*
X150315166Y-107328331D02*
X150362785Y-107352141D01*
X150362785Y-107352141D02*
X150386595Y-107375950D01*
X150386595Y-107375950D02*
X150410404Y-107423569D01*
X150410404Y-107423569D02*
X150410404Y-107590236D01*
X150672309Y-107090236D02*
X150338976Y-107090236D01*
X150434214Y-107090236D02*
X150386595Y-107066426D01*
X150386595Y-107066426D02*
X150362785Y-107042617D01*
X150362785Y-107042617D02*
X150338976Y-106994998D01*
X150338976Y-106994998D02*
X150338976Y-106947379D01*
X150672309Y-106566426D02*
X150410404Y-106566426D01*
X150410404Y-106566426D02*
X150362785Y-106590236D01*
X150362785Y-106590236D02*
X150338976Y-106637855D01*
X150338976Y-106637855D02*
X150338976Y-106733093D01*
X150338976Y-106733093D02*
X150362785Y-106780712D01*
X150648500Y-106566426D02*
X150672309Y-106614045D01*
X150672309Y-106614045D02*
X150672309Y-106733093D01*
X150672309Y-106733093D02*
X150648500Y-106780712D01*
X150648500Y-106780712D02*
X150600880Y-106804521D01*
X150600880Y-106804521D02*
X150553261Y-106804521D01*
X150553261Y-106804521D02*
X150505642Y-106780712D01*
X150505642Y-106780712D02*
X150481833Y-106733093D01*
X150481833Y-106733093D02*
X150481833Y-106614045D01*
X150481833Y-106614045D02*
X150458023Y-106566426D01*
X150648500Y-106137855D02*
X150672309Y-106185474D01*
X150672309Y-106185474D02*
X150672309Y-106280712D01*
X150672309Y-106280712D02*
X150648500Y-106328331D01*
X150648500Y-106328331D02*
X150600880Y-106352140D01*
X150600880Y-106352140D02*
X150410404Y-106352140D01*
X150410404Y-106352140D02*
X150362785Y-106328331D01*
X150362785Y-106328331D02*
X150338976Y-106280712D01*
X150338976Y-106280712D02*
X150338976Y-106185474D01*
X150338976Y-106185474D02*
X150362785Y-106137855D01*
X150362785Y-106137855D02*
X150410404Y-106114045D01*
X150410404Y-106114045D02*
X150458023Y-106114045D01*
X150458023Y-106114045D02*
X150505642Y-106352140D01*
X150672309Y-105685474D02*
X150172309Y-105685474D01*
X150648500Y-105685474D02*
X150672309Y-105733093D01*
X150672309Y-105733093D02*
X150672309Y-105828331D01*
X150672309Y-105828331D02*
X150648500Y-105875950D01*
X150648500Y-105875950D02*
X150624690Y-105899760D01*
X150624690Y-105899760D02*
X150577071Y-105923569D01*
X150577071Y-105923569D02*
X150434214Y-105923569D01*
X150434214Y-105923569D02*
X150386595Y-105899760D01*
X150386595Y-105899760D02*
X150362785Y-105875950D01*
X150362785Y-105875950D02*
X150338976Y-105828331D01*
X150338976Y-105828331D02*
X150338976Y-105733093D01*
X150338976Y-105733093D02*
X150362785Y-105685474D01*
X150648500Y-105256903D02*
X150672309Y-105304522D01*
X150672309Y-105304522D02*
X150672309Y-105399760D01*
X150672309Y-105399760D02*
X150648500Y-105447379D01*
X150648500Y-105447379D02*
X150600880Y-105471188D01*
X150600880Y-105471188D02*
X150410404Y-105471188D01*
X150410404Y-105471188D02*
X150362785Y-105447379D01*
X150362785Y-105447379D02*
X150338976Y-105399760D01*
X150338976Y-105399760D02*
X150338976Y-105304522D01*
X150338976Y-105304522D02*
X150362785Y-105256903D01*
X150362785Y-105256903D02*
X150410404Y-105233093D01*
X150410404Y-105233093D02*
X150458023Y-105233093D01*
X150458023Y-105233093D02*
X150505642Y-105471188D01*
X150338976Y-105018808D02*
X150672309Y-105018808D01*
X150386595Y-105018808D02*
X150362785Y-104994998D01*
X150362785Y-104994998D02*
X150338976Y-104947379D01*
X150338976Y-104947379D02*
X150338976Y-104875951D01*
X150338976Y-104875951D02*
X150362785Y-104828332D01*
X150362785Y-104828332D02*
X150410404Y-104804522D01*
X150410404Y-104804522D02*
X150672309Y-104804522D01*
X150624690Y-103899761D02*
X150648500Y-103923570D01*
X150648500Y-103923570D02*
X150672309Y-103994999D01*
X150672309Y-103994999D02*
X150672309Y-104042618D01*
X150672309Y-104042618D02*
X150648500Y-104114046D01*
X150648500Y-104114046D02*
X150600880Y-104161665D01*
X150600880Y-104161665D02*
X150553261Y-104185475D01*
X150553261Y-104185475D02*
X150458023Y-104209284D01*
X150458023Y-104209284D02*
X150386595Y-104209284D01*
X150386595Y-104209284D02*
X150291357Y-104185475D01*
X150291357Y-104185475D02*
X150243738Y-104161665D01*
X150243738Y-104161665D02*
X150196119Y-104114046D01*
X150196119Y-104114046D02*
X150172309Y-104042618D01*
X150172309Y-104042618D02*
X150172309Y-103994999D01*
X150172309Y-103994999D02*
X150196119Y-103923570D01*
X150196119Y-103923570D02*
X150219928Y-103899761D01*
X150672309Y-103614046D02*
X150648500Y-103661665D01*
X150648500Y-103661665D02*
X150624690Y-103685475D01*
X150624690Y-103685475D02*
X150577071Y-103709284D01*
X150577071Y-103709284D02*
X150434214Y-103709284D01*
X150434214Y-103709284D02*
X150386595Y-103685475D01*
X150386595Y-103685475D02*
X150362785Y-103661665D01*
X150362785Y-103661665D02*
X150338976Y-103614046D01*
X150338976Y-103614046D02*
X150338976Y-103542618D01*
X150338976Y-103542618D02*
X150362785Y-103494999D01*
X150362785Y-103494999D02*
X150386595Y-103471189D01*
X150386595Y-103471189D02*
X150434214Y-103447380D01*
X150434214Y-103447380D02*
X150577071Y-103447380D01*
X150577071Y-103447380D02*
X150624690Y-103471189D01*
X150624690Y-103471189D02*
X150648500Y-103494999D01*
X150648500Y-103494999D02*
X150672309Y-103542618D01*
X150672309Y-103542618D02*
X150672309Y-103614046D01*
X150672309Y-103161665D02*
X150648500Y-103209284D01*
X150648500Y-103209284D02*
X150624690Y-103233094D01*
X150624690Y-103233094D02*
X150577071Y-103256903D01*
X150577071Y-103256903D02*
X150434214Y-103256903D01*
X150434214Y-103256903D02*
X150386595Y-103233094D01*
X150386595Y-103233094D02*
X150362785Y-103209284D01*
X150362785Y-103209284D02*
X150338976Y-103161665D01*
X150338976Y-103161665D02*
X150338976Y-103090237D01*
X150338976Y-103090237D02*
X150362785Y-103042618D01*
X150362785Y-103042618D02*
X150386595Y-103018808D01*
X150386595Y-103018808D02*
X150434214Y-102994999D01*
X150434214Y-102994999D02*
X150577071Y-102994999D01*
X150577071Y-102994999D02*
X150624690Y-103018808D01*
X150624690Y-103018808D02*
X150648500Y-103042618D01*
X150648500Y-103042618D02*
X150672309Y-103090237D01*
X150672309Y-103090237D02*
X150672309Y-103161665D01*
X150672309Y-102780713D02*
X150172309Y-102780713D01*
X150481833Y-102733094D02*
X150672309Y-102590237D01*
X150338976Y-102590237D02*
X150529452Y-102780713D01*
X150648500Y-102185475D02*
X150672309Y-102233094D01*
X150672309Y-102233094D02*
X150672309Y-102328332D01*
X150672309Y-102328332D02*
X150648500Y-102375951D01*
X150648500Y-102375951D02*
X150600880Y-102399760D01*
X150600880Y-102399760D02*
X150410404Y-102399760D01*
X150410404Y-102399760D02*
X150362785Y-102375951D01*
X150362785Y-102375951D02*
X150338976Y-102328332D01*
X150338976Y-102328332D02*
X150338976Y-102233094D01*
X150338976Y-102233094D02*
X150362785Y-102185475D01*
X150362785Y-102185475D02*
X150410404Y-102161665D01*
X150410404Y-102161665D02*
X150458023Y-102161665D01*
X150458023Y-102161665D02*
X150505642Y-102399760D01*
X150219928Y-101590237D02*
X150196119Y-101566428D01*
X150196119Y-101566428D02*
X150172309Y-101518809D01*
X150172309Y-101518809D02*
X150172309Y-101399761D01*
X150172309Y-101399761D02*
X150196119Y-101352142D01*
X150196119Y-101352142D02*
X150219928Y-101328333D01*
X150219928Y-101328333D02*
X150267547Y-101304523D01*
X150267547Y-101304523D02*
X150315166Y-101304523D01*
X150315166Y-101304523D02*
X150386595Y-101328333D01*
X150386595Y-101328333D02*
X150672309Y-101614047D01*
X150672309Y-101614047D02*
X150672309Y-101304523D01*
X150172309Y-100995000D02*
X150172309Y-100947381D01*
X150172309Y-100947381D02*
X150196119Y-100899762D01*
X150196119Y-100899762D02*
X150219928Y-100875952D01*
X150219928Y-100875952D02*
X150267547Y-100852143D01*
X150267547Y-100852143D02*
X150362785Y-100828333D01*
X150362785Y-100828333D02*
X150481833Y-100828333D01*
X150481833Y-100828333D02*
X150577071Y-100852143D01*
X150577071Y-100852143D02*
X150624690Y-100875952D01*
X150624690Y-100875952D02*
X150648500Y-100899762D01*
X150648500Y-100899762D02*
X150672309Y-100947381D01*
X150672309Y-100947381D02*
X150672309Y-100995000D01*
X150672309Y-100995000D02*
X150648500Y-101042619D01*
X150648500Y-101042619D02*
X150624690Y-101066428D01*
X150624690Y-101066428D02*
X150577071Y-101090238D01*
X150577071Y-101090238D02*
X150481833Y-101114047D01*
X150481833Y-101114047D02*
X150362785Y-101114047D01*
X150362785Y-101114047D02*
X150267547Y-101090238D01*
X150267547Y-101090238D02*
X150219928Y-101066428D01*
X150219928Y-101066428D02*
X150196119Y-101042619D01*
X150196119Y-101042619D02*
X150172309Y-100995000D01*
X150219928Y-100637857D02*
X150196119Y-100614048D01*
X150196119Y-100614048D02*
X150172309Y-100566429D01*
X150172309Y-100566429D02*
X150172309Y-100447381D01*
X150172309Y-100447381D02*
X150196119Y-100399762D01*
X150196119Y-100399762D02*
X150219928Y-100375953D01*
X150219928Y-100375953D02*
X150267547Y-100352143D01*
X150267547Y-100352143D02*
X150315166Y-100352143D01*
X150315166Y-100352143D02*
X150386595Y-100375953D01*
X150386595Y-100375953D02*
X150672309Y-100661667D01*
X150672309Y-100661667D02*
X150672309Y-100352143D01*
X150172309Y-99899763D02*
X150172309Y-100137858D01*
X150172309Y-100137858D02*
X150410404Y-100161667D01*
X150410404Y-100161667D02*
X150386595Y-100137858D01*
X150386595Y-100137858D02*
X150362785Y-100090239D01*
X150362785Y-100090239D02*
X150362785Y-99971191D01*
X150362785Y-99971191D02*
X150386595Y-99923572D01*
X150386595Y-99923572D02*
X150410404Y-99899763D01*
X150410404Y-99899763D02*
X150458023Y-99875953D01*
X150458023Y-99875953D02*
X150577071Y-99875953D01*
X150577071Y-99875953D02*
X150624690Y-99899763D01*
X150624690Y-99899763D02*
X150648500Y-99923572D01*
X150648500Y-99923572D02*
X150672309Y-99971191D01*
X150672309Y-99971191D02*
X150672309Y-100090239D01*
X150672309Y-100090239D02*
X150648500Y-100137858D01*
X150648500Y-100137858D02*
X150624690Y-100161667D01*
X151477309Y-107530712D02*
X150977309Y-107530712D01*
X150977309Y-107530712D02*
X151334452Y-107364045D01*
X151334452Y-107364045D02*
X150977309Y-107197379D01*
X150977309Y-107197379D02*
X151477309Y-107197379D01*
X151477309Y-106959283D02*
X150977309Y-106959283D01*
X150977309Y-106959283D02*
X151334452Y-106792616D01*
X151334452Y-106792616D02*
X150977309Y-106625950D01*
X150977309Y-106625950D02*
X151477309Y-106625950D01*
X151477309Y-106102140D02*
X151239214Y-106268806D01*
X151477309Y-106387854D02*
X150977309Y-106387854D01*
X150977309Y-106387854D02*
X150977309Y-106197378D01*
X150977309Y-106197378D02*
X151001119Y-106149759D01*
X151001119Y-106149759D02*
X151024928Y-106125949D01*
X151024928Y-106125949D02*
X151072547Y-106102140D01*
X151072547Y-106102140D02*
X151143976Y-106102140D01*
X151143976Y-106102140D02*
X151191595Y-106125949D01*
X151191595Y-106125949D02*
X151215404Y-106149759D01*
X151215404Y-106149759D02*
X151239214Y-106197378D01*
X151239214Y-106197378D02*
X151239214Y-106387854D01*
X151477309Y-105887854D02*
X150977309Y-105887854D01*
X151477309Y-105268807D02*
X150977309Y-105268807D01*
X151429690Y-104744998D02*
X151453500Y-104768807D01*
X151453500Y-104768807D02*
X151477309Y-104840236D01*
X151477309Y-104840236D02*
X151477309Y-104887855D01*
X151477309Y-104887855D02*
X151453500Y-104959283D01*
X151453500Y-104959283D02*
X151405880Y-105006902D01*
X151405880Y-105006902D02*
X151358261Y-105030712D01*
X151358261Y-105030712D02*
X151263023Y-105054521D01*
X151263023Y-105054521D02*
X151191595Y-105054521D01*
X151191595Y-105054521D02*
X151096357Y-105030712D01*
X151096357Y-105030712D02*
X151048738Y-105006902D01*
X151048738Y-105006902D02*
X151001119Y-104959283D01*
X151001119Y-104959283D02*
X150977309Y-104887855D01*
X150977309Y-104887855D02*
X150977309Y-104840236D01*
X150977309Y-104840236D02*
X151001119Y-104768807D01*
X151001119Y-104768807D02*
X151024928Y-104744998D01*
X151477309Y-104530712D02*
X150977309Y-104530712D01*
X150977309Y-104530712D02*
X151334452Y-104364045D01*
X151334452Y-104364045D02*
X150977309Y-104197379D01*
X150977309Y-104197379D02*
X151477309Y-104197379D01*
X151286833Y-103959283D02*
X151286833Y-103578331D01*
X151143976Y-103125949D02*
X151477309Y-103125949D01*
X150953500Y-103244997D02*
X151310642Y-103364044D01*
X151310642Y-103364044D02*
X151310642Y-103054521D01*
X151024928Y-102887854D02*
X151001119Y-102864045D01*
X151001119Y-102864045D02*
X150977309Y-102816426D01*
X150977309Y-102816426D02*
X150977309Y-102697378D01*
X150977309Y-102697378D02*
X151001119Y-102649759D01*
X151001119Y-102649759D02*
X151024928Y-102625950D01*
X151024928Y-102625950D02*
X151072547Y-102602140D01*
X151072547Y-102602140D02*
X151120166Y-102602140D01*
X151120166Y-102602140D02*
X151191595Y-102625950D01*
X151191595Y-102625950D02*
X151477309Y-102911664D01*
X151477309Y-102911664D02*
X151477309Y-102602140D01*
X150977309Y-102173569D02*
X150977309Y-102268807D01*
X150977309Y-102268807D02*
X151001119Y-102316426D01*
X151001119Y-102316426D02*
X151024928Y-102340236D01*
X151024928Y-102340236D02*
X151096357Y-102387855D01*
X151096357Y-102387855D02*
X151191595Y-102411664D01*
X151191595Y-102411664D02*
X151382071Y-102411664D01*
X151382071Y-102411664D02*
X151429690Y-102387855D01*
X151429690Y-102387855D02*
X151453500Y-102364045D01*
X151453500Y-102364045D02*
X151477309Y-102316426D01*
X151477309Y-102316426D02*
X151477309Y-102221188D01*
X151477309Y-102221188D02*
X151453500Y-102173569D01*
X151453500Y-102173569D02*
X151429690Y-102149760D01*
X151429690Y-102149760D02*
X151382071Y-102125950D01*
X151382071Y-102125950D02*
X151263023Y-102125950D01*
X151263023Y-102125950D02*
X151215404Y-102149760D01*
X151215404Y-102149760D02*
X151191595Y-102173569D01*
X151191595Y-102173569D02*
X151167785Y-102221188D01*
X151167785Y-102221188D02*
X151167785Y-102316426D01*
X151167785Y-102316426D02*
X151191595Y-102364045D01*
X151191595Y-102364045D02*
X151215404Y-102387855D01*
X151215404Y-102387855D02*
X151263023Y-102411664D01*
X151191595Y-101840236D02*
X151167785Y-101887855D01*
X151167785Y-101887855D02*
X151143976Y-101911665D01*
X151143976Y-101911665D02*
X151096357Y-101935474D01*
X151096357Y-101935474D02*
X151072547Y-101935474D01*
X151072547Y-101935474D02*
X151024928Y-101911665D01*
X151024928Y-101911665D02*
X151001119Y-101887855D01*
X151001119Y-101887855D02*
X150977309Y-101840236D01*
X150977309Y-101840236D02*
X150977309Y-101744998D01*
X150977309Y-101744998D02*
X151001119Y-101697379D01*
X151001119Y-101697379D02*
X151024928Y-101673570D01*
X151024928Y-101673570D02*
X151072547Y-101649760D01*
X151072547Y-101649760D02*
X151096357Y-101649760D01*
X151096357Y-101649760D02*
X151143976Y-101673570D01*
X151143976Y-101673570D02*
X151167785Y-101697379D01*
X151167785Y-101697379D02*
X151191595Y-101744998D01*
X151191595Y-101744998D02*
X151191595Y-101840236D01*
X151191595Y-101840236D02*
X151215404Y-101887855D01*
X151215404Y-101887855D02*
X151239214Y-101911665D01*
X151239214Y-101911665D02*
X151286833Y-101935474D01*
X151286833Y-101935474D02*
X151382071Y-101935474D01*
X151382071Y-101935474D02*
X151429690Y-101911665D01*
X151429690Y-101911665D02*
X151453500Y-101887855D01*
X151453500Y-101887855D02*
X151477309Y-101840236D01*
X151477309Y-101840236D02*
X151477309Y-101744998D01*
X151477309Y-101744998D02*
X151453500Y-101697379D01*
X151453500Y-101697379D02*
X151429690Y-101673570D01*
X151429690Y-101673570D02*
X151382071Y-101649760D01*
X151382071Y-101649760D02*
X151286833Y-101649760D01*
X151286833Y-101649760D02*
X151239214Y-101673570D01*
X151239214Y-101673570D02*
X151215404Y-101697379D01*
X151215404Y-101697379D02*
X151191595Y-101744998D01*
X151191595Y-101364046D02*
X151167785Y-101411665D01*
X151167785Y-101411665D02*
X151143976Y-101435475D01*
X151143976Y-101435475D02*
X151096357Y-101459284D01*
X151096357Y-101459284D02*
X151072547Y-101459284D01*
X151072547Y-101459284D02*
X151024928Y-101435475D01*
X151024928Y-101435475D02*
X151001119Y-101411665D01*
X151001119Y-101411665D02*
X150977309Y-101364046D01*
X150977309Y-101364046D02*
X150977309Y-101268808D01*
X150977309Y-101268808D02*
X151001119Y-101221189D01*
X151001119Y-101221189D02*
X151024928Y-101197380D01*
X151024928Y-101197380D02*
X151072547Y-101173570D01*
X151072547Y-101173570D02*
X151096357Y-101173570D01*
X151096357Y-101173570D02*
X151143976Y-101197380D01*
X151143976Y-101197380D02*
X151167785Y-101221189D01*
X151167785Y-101221189D02*
X151191595Y-101268808D01*
X151191595Y-101268808D02*
X151191595Y-101364046D01*
X151191595Y-101364046D02*
X151215404Y-101411665D01*
X151215404Y-101411665D02*
X151239214Y-101435475D01*
X151239214Y-101435475D02*
X151286833Y-101459284D01*
X151286833Y-101459284D02*
X151382071Y-101459284D01*
X151382071Y-101459284D02*
X151429690Y-101435475D01*
X151429690Y-101435475D02*
X151453500Y-101411665D01*
X151453500Y-101411665D02*
X151477309Y-101364046D01*
X151477309Y-101364046D02*
X151477309Y-101268808D01*
X151477309Y-101268808D02*
X151453500Y-101221189D01*
X151453500Y-101221189D02*
X151429690Y-101197380D01*
X151429690Y-101197380D02*
X151382071Y-101173570D01*
X151382071Y-101173570D02*
X151286833Y-101173570D01*
X151286833Y-101173570D02*
X151239214Y-101197380D01*
X151239214Y-101197380D02*
X151215404Y-101221189D01*
X151215404Y-101221189D02*
X151191595Y-101268808D01*
X151143976Y-100625952D02*
X151477309Y-100506904D01*
X151477309Y-100506904D02*
X151143976Y-100387857D01*
X150977309Y-100102143D02*
X150977309Y-100054524D01*
X150977309Y-100054524D02*
X151001119Y-100006905D01*
X151001119Y-100006905D02*
X151024928Y-99983095D01*
X151024928Y-99983095D02*
X151072547Y-99959286D01*
X151072547Y-99959286D02*
X151167785Y-99935476D01*
X151167785Y-99935476D02*
X151286833Y-99935476D01*
X151286833Y-99935476D02*
X151382071Y-99959286D01*
X151382071Y-99959286D02*
X151429690Y-99983095D01*
X151429690Y-99983095D02*
X151453500Y-100006905D01*
X151453500Y-100006905D02*
X151477309Y-100054524D01*
X151477309Y-100054524D02*
X151477309Y-100102143D01*
X151477309Y-100102143D02*
X151453500Y-100149762D01*
X151453500Y-100149762D02*
X151429690Y-100173571D01*
X151429690Y-100173571D02*
X151382071Y-100197381D01*
X151382071Y-100197381D02*
X151286833Y-100221190D01*
X151286833Y-100221190D02*
X151167785Y-100221190D01*
X151167785Y-100221190D02*
X151072547Y-100197381D01*
X151072547Y-100197381D02*
X151024928Y-100173571D01*
X151024928Y-100173571D02*
X151001119Y-100149762D01*
X151001119Y-100149762D02*
X150977309Y-100102143D01*
X151782309Y-106054523D02*
X152139452Y-106054523D01*
X152139452Y-106054523D02*
X152210880Y-106078332D01*
X152210880Y-106078332D02*
X152258500Y-106125951D01*
X152258500Y-106125951D02*
X152282309Y-106197380D01*
X152282309Y-106197380D02*
X152282309Y-106244999D01*
X152282309Y-105578333D02*
X152282309Y-105816428D01*
X152282309Y-105816428D02*
X151782309Y-105816428D01*
X152234690Y-105125952D02*
X152258500Y-105149761D01*
X152258500Y-105149761D02*
X152282309Y-105221190D01*
X152282309Y-105221190D02*
X152282309Y-105268809D01*
X152282309Y-105268809D02*
X152258500Y-105340237D01*
X152258500Y-105340237D02*
X152210880Y-105387856D01*
X152210880Y-105387856D02*
X152163261Y-105411666D01*
X152163261Y-105411666D02*
X152068023Y-105435475D01*
X152068023Y-105435475D02*
X151996595Y-105435475D01*
X151996595Y-105435475D02*
X151901357Y-105411666D01*
X151901357Y-105411666D02*
X151853738Y-105387856D01*
X151853738Y-105387856D02*
X151806119Y-105340237D01*
X151806119Y-105340237D02*
X151782309Y-105268809D01*
X151782309Y-105268809D02*
X151782309Y-105221190D01*
X151782309Y-105221190D02*
X151806119Y-105149761D01*
X151806119Y-105149761D02*
X151829928Y-105125952D01*
X151782309Y-104768809D02*
X152139452Y-104768809D01*
X152139452Y-104768809D02*
X152210880Y-104792618D01*
X152210880Y-104792618D02*
X152258500Y-104840237D01*
X152258500Y-104840237D02*
X152282309Y-104911666D01*
X152282309Y-104911666D02*
X152282309Y-104959285D01*
X152282309Y-104292619D02*
X152282309Y-104530714D01*
X152282309Y-104530714D02*
X151782309Y-104530714D01*
X152234690Y-103840238D02*
X152258500Y-103864047D01*
X152258500Y-103864047D02*
X152282309Y-103935476D01*
X152282309Y-103935476D02*
X152282309Y-103983095D01*
X152282309Y-103983095D02*
X152258500Y-104054523D01*
X152258500Y-104054523D02*
X152210880Y-104102142D01*
X152210880Y-104102142D02*
X152163261Y-104125952D01*
X152163261Y-104125952D02*
X152068023Y-104149761D01*
X152068023Y-104149761D02*
X151996595Y-104149761D01*
X151996595Y-104149761D02*
X151901357Y-104125952D01*
X151901357Y-104125952D02*
X151853738Y-104102142D01*
X151853738Y-104102142D02*
X151806119Y-104054523D01*
X151806119Y-104054523D02*
X151782309Y-103983095D01*
X151782309Y-103983095D02*
X151782309Y-103935476D01*
X151782309Y-103935476D02*
X151806119Y-103864047D01*
X151806119Y-103864047D02*
X151829928Y-103840238D01*
X151782309Y-103483095D02*
X152139452Y-103483095D01*
X152139452Y-103483095D02*
X152210880Y-103506904D01*
X152210880Y-103506904D02*
X152258500Y-103554523D01*
X152258500Y-103554523D02*
X152282309Y-103625952D01*
X152282309Y-103625952D02*
X152282309Y-103673571D01*
X152282309Y-103006905D02*
X152282309Y-103245000D01*
X152282309Y-103245000D02*
X151782309Y-103245000D01*
X152234690Y-102554524D02*
X152258500Y-102578333D01*
X152258500Y-102578333D02*
X152282309Y-102649762D01*
X152282309Y-102649762D02*
X152282309Y-102697381D01*
X152282309Y-102697381D02*
X152258500Y-102768809D01*
X152258500Y-102768809D02*
X152210880Y-102816428D01*
X152210880Y-102816428D02*
X152163261Y-102840238D01*
X152163261Y-102840238D02*
X152068023Y-102864047D01*
X152068023Y-102864047D02*
X151996595Y-102864047D01*
X151996595Y-102864047D02*
X151901357Y-102840238D01*
X151901357Y-102840238D02*
X151853738Y-102816428D01*
X151853738Y-102816428D02*
X151806119Y-102768809D01*
X151806119Y-102768809D02*
X151782309Y-102697381D01*
X151782309Y-102697381D02*
X151782309Y-102649762D01*
X151782309Y-102649762D02*
X151806119Y-102578333D01*
X151806119Y-102578333D02*
X151829928Y-102554524D01*
X151782309Y-102197381D02*
X152139452Y-102197381D01*
X152139452Y-102197381D02*
X152210880Y-102221190D01*
X152210880Y-102221190D02*
X152258500Y-102268809D01*
X152258500Y-102268809D02*
X152282309Y-102340238D01*
X152282309Y-102340238D02*
X152282309Y-102387857D01*
X152282309Y-101721191D02*
X152282309Y-101959286D01*
X152282309Y-101959286D02*
X151782309Y-101959286D01*
X152234690Y-101268810D02*
X152258500Y-101292619D01*
X152258500Y-101292619D02*
X152282309Y-101364048D01*
X152282309Y-101364048D02*
X152282309Y-101411667D01*
X152282309Y-101411667D02*
X152258500Y-101483095D01*
X152258500Y-101483095D02*
X152210880Y-101530714D01*
X152210880Y-101530714D02*
X152163261Y-101554524D01*
X152163261Y-101554524D02*
X152068023Y-101578333D01*
X152068023Y-101578333D02*
X151996595Y-101578333D01*
X151996595Y-101578333D02*
X151901357Y-101554524D01*
X151901357Y-101554524D02*
X151853738Y-101530714D01*
X151853738Y-101530714D02*
X151806119Y-101483095D01*
X151806119Y-101483095D02*
X151782309Y-101411667D01*
X151782309Y-101411667D02*
X151782309Y-101364048D01*
X151782309Y-101364048D02*
X151806119Y-101292619D01*
X151806119Y-101292619D02*
X151829928Y-101268810D01*
D12*
X171049757Y-104718861D02*
X170978328Y-104861719D01*
X170978328Y-104861719D02*
X170978328Y-105076004D01*
X170978328Y-105076004D02*
X171049757Y-105290290D01*
X171049757Y-105290290D02*
X171192614Y-105433147D01*
X171192614Y-105433147D02*
X171335471Y-105504576D01*
X171335471Y-105504576D02*
X171621185Y-105576004D01*
X171621185Y-105576004D02*
X171835471Y-105576004D01*
X171835471Y-105576004D02*
X172121185Y-105504576D01*
X172121185Y-105504576D02*
X172264042Y-105433147D01*
X172264042Y-105433147D02*
X172406900Y-105290290D01*
X172406900Y-105290290D02*
X172478328Y-105076004D01*
X172478328Y-105076004D02*
X172478328Y-104933147D01*
X172478328Y-104933147D02*
X172406900Y-104718861D01*
X172406900Y-104718861D02*
X172335471Y-104647433D01*
X172335471Y-104647433D02*
X171835471Y-104647433D01*
X171835471Y-104647433D02*
X171835471Y-104933147D01*
X170978328Y-103790290D02*
X171335471Y-103790290D01*
X171192614Y-104147433D02*
X171335471Y-103790290D01*
X171335471Y-103790290D02*
X171192614Y-103433147D01*
X171621185Y-104004576D02*
X171335471Y-103790290D01*
X171335471Y-103790290D02*
X171621185Y-103576004D01*
X170978328Y-102647433D02*
X171335471Y-102647433D01*
X171192614Y-103004576D02*
X171335471Y-102647433D01*
X171335471Y-102647433D02*
X171192614Y-102290290D01*
X171621185Y-102861719D02*
X171335471Y-102647433D01*
X171335471Y-102647433D02*
X171621185Y-102433147D01*
X170978328Y-101504576D02*
X171335471Y-101504576D01*
X171192614Y-101861719D02*
X171335471Y-101504576D01*
X171335471Y-101504576D02*
X171192614Y-101147433D01*
X171621185Y-101718862D02*
X171335471Y-101504576D01*
X171335471Y-101504576D02*
X171621185Y-101290290D01*
D10*
X171488095Y-109404819D02*
X171488095Y-108404819D01*
X171488095Y-108881009D02*
X172059523Y-108881009D01*
X172059523Y-109404819D02*
X172059523Y-108404819D01*
X172964285Y-108738152D02*
X172964285Y-109404819D01*
X172726190Y-108357200D02*
X172488095Y-109071485D01*
X172488095Y-109071485D02*
X173107142Y-109071485D01*
X159783333Y-107389580D02*
X159735714Y-107437200D01*
X159735714Y-107437200D02*
X159592857Y-107484819D01*
X159592857Y-107484819D02*
X159497619Y-107484819D01*
X159497619Y-107484819D02*
X159354762Y-107437200D01*
X159354762Y-107437200D02*
X159259524Y-107341961D01*
X159259524Y-107341961D02*
X159211905Y-107246723D01*
X159211905Y-107246723D02*
X159164286Y-107056247D01*
X159164286Y-107056247D02*
X159164286Y-106913390D01*
X159164286Y-106913390D02*
X159211905Y-106722914D01*
X159211905Y-106722914D02*
X159259524Y-106627676D01*
X159259524Y-106627676D02*
X159354762Y-106532438D01*
X159354762Y-106532438D02*
X159497619Y-106484819D01*
X159497619Y-106484819D02*
X159592857Y-106484819D01*
X159592857Y-106484819D02*
X159735714Y-106532438D01*
X159735714Y-106532438D02*
X159783333Y-106580057D01*
X160116667Y-106484819D02*
X160735714Y-106484819D01*
X160735714Y-106484819D02*
X160402381Y-106865771D01*
X160402381Y-106865771D02*
X160545238Y-106865771D01*
X160545238Y-106865771D02*
X160640476Y-106913390D01*
X160640476Y-106913390D02*
X160688095Y-106961009D01*
X160688095Y-106961009D02*
X160735714Y-107056247D01*
X160735714Y-107056247D02*
X160735714Y-107294342D01*
X160735714Y-107294342D02*
X160688095Y-107389580D01*
X160688095Y-107389580D02*
X160640476Y-107437200D01*
X160640476Y-107437200D02*
X160545238Y-107484819D01*
X160545238Y-107484819D02*
X160259524Y-107484819D01*
X160259524Y-107484819D02*
X160164286Y-107437200D01*
X160164286Y-107437200D02*
X160116667Y-107389580D01*
X146588095Y-111054819D02*
X146588095Y-110054819D01*
X146588095Y-110531009D02*
X147159523Y-110531009D01*
X147159523Y-111054819D02*
X147159523Y-110054819D01*
X147540476Y-110054819D02*
X148159523Y-110054819D01*
X148159523Y-110054819D02*
X147826190Y-110435771D01*
X147826190Y-110435771D02*
X147969047Y-110435771D01*
X147969047Y-110435771D02*
X148064285Y-110483390D01*
X148064285Y-110483390D02*
X148111904Y-110531009D01*
X148111904Y-110531009D02*
X148159523Y-110626247D01*
X148159523Y-110626247D02*
X148159523Y-110864342D01*
X148159523Y-110864342D02*
X148111904Y-110959580D01*
X148111904Y-110959580D02*
X148064285Y-111007200D01*
X148064285Y-111007200D02*
X147969047Y-111054819D01*
X147969047Y-111054819D02*
X147683333Y-111054819D01*
X147683333Y-111054819D02*
X147588095Y-111007200D01*
X147588095Y-111007200D02*
X147540476Y-110959580D01*
X167048095Y-92254819D02*
X167048095Y-91254819D01*
X167048095Y-91731009D02*
X167619523Y-91731009D01*
X167619523Y-92254819D02*
X167619523Y-91254819D01*
X168048095Y-91350057D02*
X168095714Y-91302438D01*
X168095714Y-91302438D02*
X168190952Y-91254819D01*
X168190952Y-91254819D02*
X168429047Y-91254819D01*
X168429047Y-91254819D02*
X168524285Y-91302438D01*
X168524285Y-91302438D02*
X168571904Y-91350057D01*
X168571904Y-91350057D02*
X168619523Y-91445295D01*
X168619523Y-91445295D02*
X168619523Y-91540533D01*
X168619523Y-91540533D02*
X168571904Y-91683390D01*
X168571904Y-91683390D02*
X168000476Y-92254819D01*
X168000476Y-92254819D02*
X168619523Y-92254819D01*
X162859580Y-103166666D02*
X162907200Y-103214285D01*
X162907200Y-103214285D02*
X162954819Y-103357142D01*
X162954819Y-103357142D02*
X162954819Y-103452380D01*
X162954819Y-103452380D02*
X162907200Y-103595237D01*
X162907200Y-103595237D02*
X162811961Y-103690475D01*
X162811961Y-103690475D02*
X162716723Y-103738094D01*
X162716723Y-103738094D02*
X162526247Y-103785713D01*
X162526247Y-103785713D02*
X162383390Y-103785713D01*
X162383390Y-103785713D02*
X162192914Y-103738094D01*
X162192914Y-103738094D02*
X162097676Y-103690475D01*
X162097676Y-103690475D02*
X162002438Y-103595237D01*
X162002438Y-103595237D02*
X161954819Y-103452380D01*
X161954819Y-103452380D02*
X161954819Y-103357142D01*
X161954819Y-103357142D02*
X162002438Y-103214285D01*
X162002438Y-103214285D02*
X162050057Y-103166666D01*
X162050057Y-102785713D02*
X162002438Y-102738094D01*
X162002438Y-102738094D02*
X161954819Y-102642856D01*
X161954819Y-102642856D02*
X161954819Y-102404761D01*
X161954819Y-102404761D02*
X162002438Y-102309523D01*
X162002438Y-102309523D02*
X162050057Y-102261904D01*
X162050057Y-102261904D02*
X162145295Y-102214285D01*
X162145295Y-102214285D02*
X162240533Y-102214285D01*
X162240533Y-102214285D02*
X162383390Y-102261904D01*
X162383390Y-102261904D02*
X162954819Y-102833332D01*
X162954819Y-102833332D02*
X162954819Y-102214285D01*
X153004819Y-99133333D02*
X153719104Y-99133333D01*
X153719104Y-99133333D02*
X153861961Y-99180952D01*
X153861961Y-99180952D02*
X153957200Y-99276190D01*
X153957200Y-99276190D02*
X154004819Y-99419047D01*
X154004819Y-99419047D02*
X154004819Y-99514285D01*
X153100057Y-98704761D02*
X153052438Y-98657142D01*
X153052438Y-98657142D02*
X153004819Y-98561904D01*
X153004819Y-98561904D02*
X153004819Y-98323809D01*
X153004819Y-98323809D02*
X153052438Y-98228571D01*
X153052438Y-98228571D02*
X153100057Y-98180952D01*
X153100057Y-98180952D02*
X153195295Y-98133333D01*
X153195295Y-98133333D02*
X153290533Y-98133333D01*
X153290533Y-98133333D02*
X153433390Y-98180952D01*
X153433390Y-98180952D02*
X154004819Y-98752380D01*
X154004819Y-98752380D02*
X154004819Y-98133333D01*
X153004819Y-109033333D02*
X153719104Y-109033333D01*
X153719104Y-109033333D02*
X153861961Y-109080952D01*
X153861961Y-109080952D02*
X153957200Y-109176190D01*
X153957200Y-109176190D02*
X154004819Y-109319047D01*
X154004819Y-109319047D02*
X154004819Y-109414285D01*
X154004819Y-108033333D02*
X154004819Y-108604761D01*
X154004819Y-108319047D02*
X153004819Y-108319047D01*
X153004819Y-108319047D02*
X153147676Y-108414285D01*
X153147676Y-108414285D02*
X153242914Y-108509523D01*
X153242914Y-108509523D02*
X153290533Y-108604761D01*
X151078095Y-92224819D02*
X151078095Y-91224819D01*
X151078095Y-91701009D02*
X151649523Y-91701009D01*
X151649523Y-92224819D02*
X151649523Y-91224819D01*
X152649523Y-92224819D02*
X152078095Y-92224819D01*
X152363809Y-92224819D02*
X152363809Y-91224819D01*
X152363809Y-91224819D02*
X152268571Y-91367676D01*
X152268571Y-91367676D02*
X152173333Y-91462914D01*
X152173333Y-91462914D02*
X152078095Y-91510533D01*
X164909580Y-105116666D02*
X164957200Y-105164285D01*
X164957200Y-105164285D02*
X165004819Y-105307142D01*
X165004819Y-105307142D02*
X165004819Y-105402380D01*
X165004819Y-105402380D02*
X164957200Y-105545237D01*
X164957200Y-105545237D02*
X164861961Y-105640475D01*
X164861961Y-105640475D02*
X164766723Y-105688094D01*
X164766723Y-105688094D02*
X164576247Y-105735713D01*
X164576247Y-105735713D02*
X164433390Y-105735713D01*
X164433390Y-105735713D02*
X164242914Y-105688094D01*
X164242914Y-105688094D02*
X164147676Y-105640475D01*
X164147676Y-105640475D02*
X164052438Y-105545237D01*
X164052438Y-105545237D02*
X164004819Y-105402380D01*
X164004819Y-105402380D02*
X164004819Y-105307142D01*
X164004819Y-105307142D02*
X164052438Y-105164285D01*
X164052438Y-105164285D02*
X164100057Y-105116666D01*
X165004819Y-104164285D02*
X165004819Y-104735713D01*
X165004819Y-104449999D02*
X164004819Y-104449999D01*
X164004819Y-104449999D02*
X164147676Y-104545237D01*
X164147676Y-104545237D02*
X164242914Y-104640475D01*
X164242914Y-104640475D02*
X164290533Y-104735713D01*
D13*
X157884285Y-101585817D02*
X157884285Y-101974388D01*
X157884285Y-101974388D02*
X157907142Y-102020102D01*
X157907142Y-102020102D02*
X157930000Y-102042960D01*
X157930000Y-102042960D02*
X157975714Y-102065817D01*
X157975714Y-102065817D02*
X158067142Y-102065817D01*
X158067142Y-102065817D02*
X158112857Y-102042960D01*
X158112857Y-102042960D02*
X158135714Y-102020102D01*
X158135714Y-102020102D02*
X158158571Y-101974388D01*
X158158571Y-101974388D02*
X158158571Y-101585817D01*
X158638571Y-102065817D02*
X158364285Y-102065817D01*
X158501428Y-102065817D02*
X158501428Y-101585817D01*
X158501428Y-101585817D02*
X158455714Y-101654388D01*
X158455714Y-101654388D02*
X158409999Y-101700102D01*
X158409999Y-101700102D02*
X158364285Y-101722960D01*
%TO.C,G\u002A\u002A\u002A*%
G36*
X168767767Y-106619011D02*
G01*
X168793525Y-106644771D01*
X168818776Y-106670028D01*
X168843448Y-106694709D01*
X168867472Y-106718746D01*
X168890775Y-106742065D01*
X168913287Y-106764598D01*
X168934939Y-106786272D01*
X168955658Y-106807017D01*
X168975374Y-106826762D01*
X168994016Y-106845436D01*
X169011515Y-106862969D01*
X169027798Y-106879288D01*
X169042795Y-106894325D01*
X169056436Y-106908007D01*
X169068650Y-106920263D01*
X169079365Y-106931024D01*
X169088512Y-106940218D01*
X169096020Y-106947773D01*
X169101817Y-106953620D01*
X169105834Y-106957688D01*
X169107999Y-106959905D01*
X169108380Y-106960319D01*
X169107408Y-106961343D01*
X169104541Y-106964262D01*
X169099849Y-106969005D01*
X169093402Y-106975501D01*
X169085271Y-106983679D01*
X169075528Y-106993469D01*
X169064242Y-107004798D01*
X169051485Y-107017598D01*
X169037327Y-107031796D01*
X169021840Y-107047322D01*
X169005093Y-107064105D01*
X168987157Y-107082073D01*
X168968104Y-107101157D01*
X168948003Y-107121286D01*
X168926926Y-107142387D01*
X168904944Y-107164391D01*
X168882127Y-107187227D01*
X168858545Y-107210824D01*
X168834270Y-107235111D01*
X168809373Y-107260016D01*
X168783923Y-107285470D01*
X168767767Y-107301627D01*
X168427153Y-107642238D01*
X168262307Y-107477392D01*
X168097461Y-107312546D01*
X168107745Y-107298745D01*
X168129951Y-107266641D01*
X168149778Y-107233190D01*
X168167192Y-107198538D01*
X168182160Y-107162832D01*
X168194648Y-107126217D01*
X168204623Y-107088840D01*
X168212051Y-107050848D01*
X168216899Y-107012385D01*
X168219133Y-106973599D01*
X168218720Y-106934636D01*
X168215626Y-106895642D01*
X168209818Y-106856763D01*
X168209498Y-106855053D01*
X168201199Y-106818086D01*
X168190345Y-106781515D01*
X168177067Y-106745635D01*
X168161495Y-106710742D01*
X168143760Y-106677132D01*
X168123992Y-106645099D01*
X168105584Y-106619197D01*
X168097292Y-106608261D01*
X168262223Y-106443330D01*
X168427153Y-106278400D01*
X168767767Y-106619011D01*
G37*
G36*
X168745523Y-103674446D02*
G01*
X168745523Y-103815557D01*
X167791574Y-103815557D01*
X167740185Y-103815558D01*
X167689486Y-103815562D01*
X167639550Y-103815567D01*
X167590446Y-103815575D01*
X167542247Y-103815585D01*
X167495022Y-103815596D01*
X167448844Y-103815610D01*
X167403782Y-103815626D01*
X167359908Y-103815643D01*
X167317293Y-103815662D01*
X167276008Y-103815683D01*
X167236124Y-103815706D01*
X167197711Y-103815730D01*
X167160842Y-103815756D01*
X167125586Y-103815783D01*
X167092015Y-103815812D01*
X167060199Y-103815841D01*
X167030211Y-103815873D01*
X167002119Y-103815905D01*
X166975997Y-103815939D01*
X166951914Y-103815974D01*
X166929942Y-103816010D01*
X166910151Y-103816047D01*
X166892613Y-103816084D01*
X166877399Y-103816123D01*
X166864579Y-103816163D01*
X166854224Y-103816203D01*
X166846406Y-103816244D01*
X166841196Y-103816286D01*
X166838664Y-103816328D01*
X166838416Y-103816347D01*
X166839800Y-103816706D01*
X166843822Y-103817686D01*
X166850414Y-103819273D01*
X166859507Y-103821449D01*
X166871032Y-103824199D01*
X166884922Y-103827506D01*
X166901109Y-103831355D01*
X166919523Y-103835728D01*
X166940097Y-103840610D01*
X166962762Y-103845985D01*
X166987450Y-103851837D01*
X167014092Y-103858148D01*
X167042621Y-103864904D01*
X167072967Y-103872088D01*
X167105062Y-103879684D01*
X167138839Y-103887676D01*
X167174229Y-103896046D01*
X167211163Y-103904781D01*
X167249573Y-103913862D01*
X167289390Y-103923274D01*
X167330547Y-103933001D01*
X167372976Y-103943027D01*
X167416606Y-103953335D01*
X167461371Y-103963910D01*
X167507203Y-103974735D01*
X167554031Y-103985793D01*
X167601789Y-103997070D01*
X167650408Y-104008548D01*
X167699820Y-104020211D01*
X167749956Y-104032044D01*
X167792017Y-104041969D01*
X168744828Y-104266802D01*
X168745181Y-104415063D01*
X168745236Y-104438609D01*
X168745279Y-104459530D01*
X168745308Y-104477981D01*
X168745321Y-104494118D01*
X168745316Y-104508096D01*
X168745291Y-104520071D01*
X168745243Y-104530199D01*
X168745171Y-104538633D01*
X168745072Y-104545531D01*
X168744944Y-104551048D01*
X168744785Y-104555338D01*
X168744593Y-104558558D01*
X168744365Y-104560862D01*
X168744099Y-104562407D01*
X168743794Y-104563348D01*
X168743446Y-104563840D01*
X168743096Y-104564027D01*
X168741624Y-104564381D01*
X168737513Y-104565357D01*
X168730834Y-104566939D01*
X168721655Y-104569111D01*
X168710043Y-104571857D01*
X168696068Y-104575159D01*
X168679798Y-104579003D01*
X168661302Y-104583372D01*
X168640648Y-104588250D01*
X168617905Y-104593620D01*
X168593142Y-104599467D01*
X168566427Y-104605774D01*
X168537828Y-104612525D01*
X168507415Y-104619703D01*
X168475255Y-104627294D01*
X168441418Y-104635280D01*
X168405972Y-104643645D01*
X168368985Y-104652374D01*
X168330527Y-104661449D01*
X168290665Y-104670856D01*
X168249468Y-104680576D01*
X168207006Y-104690595D01*
X168163345Y-104700897D01*
X168118556Y-104711464D01*
X168072706Y-104722281D01*
X168025865Y-104733332D01*
X167978100Y-104744601D01*
X167929481Y-104756070D01*
X167880075Y-104767725D01*
X167829952Y-104779548D01*
X167789897Y-104788997D01*
X166839137Y-105013264D01*
X167792330Y-105013612D01*
X168745523Y-105013961D01*
X168745523Y-105155071D01*
X168745523Y-105296181D01*
X167650000Y-105296181D01*
X166554477Y-105296181D01*
X166554477Y-105050393D01*
X166554477Y-104804604D01*
X167423736Y-104610839D01*
X167472203Y-104600034D01*
X167519998Y-104589378D01*
X167567049Y-104578885D01*
X167613284Y-104568573D01*
X167658631Y-104558456D01*
X167703019Y-104548553D01*
X167746375Y-104538877D01*
X167788627Y-104529446D01*
X167829705Y-104520276D01*
X167869535Y-104511382D01*
X167908046Y-104502781D01*
X167945165Y-104494488D01*
X167980822Y-104486520D01*
X168014945Y-104478894D01*
X168047460Y-104471624D01*
X168078297Y-104464727D01*
X168107384Y-104458220D01*
X168134648Y-104452117D01*
X168160018Y-104446436D01*
X168183422Y-104441192D01*
X168204788Y-104436402D01*
X168224044Y-104432081D01*
X168241118Y-104428246D01*
X168255939Y-104424912D01*
X168268434Y-104422096D01*
X168278531Y-104419814D01*
X168286160Y-104418081D01*
X168291247Y-104416915D01*
X168293721Y-104416331D01*
X168293963Y-104416263D01*
X168292672Y-104415917D01*
X168288740Y-104414980D01*
X168282237Y-104413469D01*
X168273236Y-104411399D01*
X168261808Y-104408787D01*
X168248024Y-104405648D01*
X168231957Y-104402000D01*
X168213678Y-104397857D01*
X168193258Y-104393237D01*
X168170769Y-104388155D01*
X168146284Y-104382627D01*
X168119872Y-104376670D01*
X168091607Y-104370300D01*
X168061559Y-104363532D01*
X168029801Y-104356383D01*
X167996404Y-104348870D01*
X167961439Y-104341007D01*
X167924978Y-104332812D01*
X167887094Y-104324300D01*
X167847857Y-104315487D01*
X167807338Y-104306390D01*
X167765611Y-104297025D01*
X167722746Y-104287408D01*
X167678815Y-104277555D01*
X167633889Y-104267481D01*
X167588041Y-104257204D01*
X167541342Y-104246740D01*
X167493863Y-104236104D01*
X167445676Y-104225312D01*
X167425052Y-104220694D01*
X166555172Y-104025935D01*
X166554821Y-103779635D01*
X166554470Y-103533335D01*
X167649996Y-103533335D01*
X168745523Y-103533335D01*
X168745523Y-103674446D01*
G37*
G36*
X168745523Y-101502864D02*
G01*
X168745523Y-101643975D01*
X167791574Y-101643975D01*
X167740185Y-101643976D01*
X167689486Y-101643980D01*
X167639550Y-101643985D01*
X167590446Y-101643993D01*
X167542247Y-101644003D01*
X167495022Y-101644015D01*
X167448844Y-101644028D01*
X167403782Y-101644044D01*
X167359908Y-101644061D01*
X167317293Y-101644080D01*
X167276008Y-101644101D01*
X167236124Y-101644124D01*
X167197711Y-101644148D01*
X167160842Y-101644174D01*
X167125586Y-101644201D01*
X167092015Y-101644230D01*
X167060199Y-101644260D01*
X167030211Y-101644291D01*
X167002119Y-101644323D01*
X166975997Y-101644357D01*
X166951914Y-101644392D01*
X166929942Y-101644428D01*
X166910151Y-101644465D01*
X166892613Y-101644503D01*
X166877399Y-101644541D01*
X166864579Y-101644581D01*
X166854224Y-101644621D01*
X166846406Y-101644662D01*
X166841196Y-101644704D01*
X166838664Y-101644746D01*
X166838416Y-101644765D01*
X166839800Y-101645124D01*
X166843822Y-101646105D01*
X166850414Y-101647691D01*
X166859507Y-101649867D01*
X166871032Y-101652617D01*
X166884922Y-101655924D01*
X166901109Y-101659773D01*
X166919523Y-101664146D01*
X166940097Y-101669029D01*
X166962762Y-101674403D01*
X166987450Y-101680255D01*
X167014092Y-101686567D01*
X167042621Y-101693323D01*
X167072967Y-101700507D01*
X167105062Y-101708102D01*
X167138839Y-101716094D01*
X167174229Y-101724465D01*
X167211163Y-101733199D01*
X167249573Y-101742280D01*
X167289390Y-101751693D01*
X167330547Y-101761420D01*
X167372976Y-101771445D01*
X167416606Y-101781754D01*
X167461371Y-101792328D01*
X167507203Y-101803153D01*
X167554031Y-101814211D01*
X167601789Y-101825488D01*
X167650408Y-101836966D01*
X167699820Y-101848629D01*
X167749956Y-101860462D01*
X167792017Y-101870387D01*
X168744828Y-102095220D01*
X168745181Y-102243481D01*
X168745236Y-102267027D01*
X168745279Y-102287948D01*
X168745308Y-102306399D01*
X168745321Y-102322536D01*
X168745316Y-102336514D01*
X168745291Y-102348489D01*
X168745243Y-102358617D01*
X168745171Y-102367052D01*
X168745072Y-102373949D01*
X168744944Y-102379466D01*
X168744785Y-102383756D01*
X168744593Y-102386976D01*
X168744365Y-102389281D01*
X168744099Y-102390825D01*
X168743794Y-102391766D01*
X168743446Y-102392258D01*
X168743096Y-102392445D01*
X168741624Y-102392799D01*
X168737513Y-102393775D01*
X168730834Y-102395358D01*
X168721655Y-102397529D01*
X168710043Y-102400275D01*
X168696068Y-102403577D01*
X168679798Y-102407421D01*
X168661302Y-102411790D01*
X168640648Y-102416668D01*
X168617905Y-102422038D01*
X168593142Y-102427885D01*
X168566427Y-102434192D01*
X168537828Y-102440943D01*
X168507415Y-102448122D01*
X168475255Y-102455712D01*
X168441418Y-102463698D01*
X168405972Y-102472064D01*
X168368985Y-102480792D01*
X168330527Y-102489868D01*
X168290665Y-102499274D01*
X168249468Y-102508994D01*
X168207006Y-102519014D01*
X168163345Y-102529315D01*
X168118556Y-102539882D01*
X168072706Y-102550700D01*
X168025865Y-102561750D01*
X167978100Y-102573019D01*
X167929481Y-102584488D01*
X167880075Y-102596143D01*
X167829952Y-102607967D01*
X167789897Y-102617415D01*
X166839137Y-102841682D01*
X167792330Y-102842030D01*
X168745523Y-102842379D01*
X168745523Y-102983489D01*
X168745523Y-103124599D01*
X167650000Y-103124599D01*
X166554477Y-103124599D01*
X166554477Y-102878811D01*
X166554477Y-102633023D01*
X167423736Y-102439257D01*
X167472203Y-102428452D01*
X167519998Y-102417796D01*
X167567049Y-102407303D01*
X167613284Y-102396991D01*
X167658631Y-102386875D01*
X167703019Y-102376971D01*
X167746375Y-102367295D01*
X167788627Y-102357864D01*
X167829705Y-102348694D01*
X167869535Y-102339800D01*
X167908046Y-102331199D01*
X167945165Y-102322906D01*
X167980822Y-102314939D01*
X168014945Y-102307312D01*
X168047460Y-102300042D01*
X168078297Y-102293145D01*
X168107384Y-102286638D01*
X168134648Y-102280535D01*
X168160018Y-102274854D01*
X168183422Y-102269610D01*
X168204788Y-102264820D01*
X168224044Y-102260499D01*
X168241118Y-102256664D01*
X168255939Y-102253330D01*
X168268434Y-102250514D01*
X168278531Y-102248232D01*
X168286160Y-102246500D01*
X168291247Y-102245333D01*
X168293721Y-102244749D01*
X168293963Y-102244681D01*
X168292672Y-102244335D01*
X168288740Y-102243398D01*
X168282237Y-102241887D01*
X168273236Y-102239817D01*
X168261808Y-102237205D01*
X168248024Y-102234067D01*
X168231957Y-102230418D01*
X168213678Y-102226276D01*
X168193258Y-102221655D01*
X168170769Y-102216573D01*
X168146284Y-102211046D01*
X168119872Y-102205089D01*
X168091607Y-102198718D01*
X168061559Y-102191950D01*
X168029801Y-102184802D01*
X167996404Y-102177288D01*
X167961439Y-102169425D01*
X167924978Y-102161230D01*
X167887094Y-102152718D01*
X167847857Y-102143905D01*
X167807338Y-102134808D01*
X167765611Y-102125443D01*
X167722746Y-102115826D01*
X167678815Y-102105973D01*
X167633889Y-102095900D01*
X167588041Y-102085623D01*
X167541342Y-102075158D01*
X167493863Y-102064522D01*
X167445676Y-102053730D01*
X167425052Y-102049112D01*
X166555172Y-101854354D01*
X166554821Y-101608053D01*
X166554470Y-101361753D01*
X167649996Y-101361753D01*
X168745523Y-101361753D01*
X168745523Y-101502864D01*
G37*
G36*
X168745181Y-99875330D02*
G01*
X168745225Y-99895940D01*
X168745260Y-99915762D01*
X168745289Y-99934619D01*
X168745309Y-99952336D01*
X168745322Y-99968737D01*
X168745327Y-99983646D01*
X168745324Y-99996887D01*
X168745314Y-100008284D01*
X168745296Y-100017660D01*
X168745270Y-100024840D01*
X168745237Y-100029649D01*
X168745196Y-100031909D01*
X168745181Y-100032065D01*
X168743710Y-100032481D01*
X168739799Y-100033389D01*
X168733734Y-100034731D01*
X168725802Y-100036448D01*
X168716287Y-100038479D01*
X168705476Y-100040767D01*
X168693654Y-100043251D01*
X168681107Y-100045872D01*
X168668121Y-100048572D01*
X168654982Y-100051290D01*
X168641975Y-100053968D01*
X168629386Y-100056547D01*
X168617500Y-100058966D01*
X168606604Y-100061167D01*
X168596984Y-100063091D01*
X168588924Y-100064678D01*
X168582711Y-100065869D01*
X168578639Y-100066604D01*
X168561286Y-100069249D01*
X168541781Y-100071752D01*
X168520751Y-100074038D01*
X168502171Y-100075753D01*
X168498172Y-100076049D01*
X168491556Y-100076483D01*
X168482484Y-100077046D01*
X168471117Y-100077730D01*
X168457614Y-100078524D01*
X168442136Y-100079421D01*
X168424844Y-100080411D01*
X168405897Y-100081486D01*
X168385456Y-100082635D01*
X168363681Y-100083852D01*
X168340733Y-100085125D01*
X168316771Y-100086447D01*
X168291957Y-100087809D01*
X168266450Y-100089201D01*
X168240411Y-100090614D01*
X168214000Y-100092041D01*
X168187377Y-100093471D01*
X168160703Y-100094895D01*
X168141456Y-100095918D01*
X168118709Y-100097143D01*
X168098496Y-100098281D01*
X168080571Y-100099360D01*
X168064690Y-100100406D01*
X168050607Y-100101447D01*
X168038077Y-100102510D01*
X168026856Y-100103623D01*
X168016698Y-100104813D01*
X168007360Y-100106106D01*
X167998594Y-100107531D01*
X167990158Y-100109114D01*
X167981806Y-100110882D01*
X167973292Y-100112864D01*
X167964372Y-100115086D01*
X167960722Y-100116026D01*
X167931956Y-100124591D01*
X167905433Y-100134789D01*
X167881139Y-100146632D01*
X167859060Y-100160130D01*
X167839182Y-100175292D01*
X167821490Y-100192129D01*
X167805971Y-100210651D01*
X167792611Y-100230869D01*
X167785888Y-100243291D01*
X167779637Y-100257006D01*
X167774061Y-100271949D01*
X167769093Y-100288386D01*
X167764667Y-100306586D01*
X167760716Y-100326815D01*
X167757173Y-100349341D01*
X167754730Y-100368018D01*
X167754340Y-100371610D01*
X167753991Y-100375697D01*
X167753682Y-100380463D01*
X167753407Y-100386088D01*
X167753165Y-100392753D01*
X167752951Y-100400642D01*
X167752761Y-100409935D01*
X167752594Y-100420814D01*
X167752444Y-100433461D01*
X167752310Y-100448058D01*
X167752186Y-100464786D01*
X167752071Y-100483827D01*
X167751960Y-100505362D01*
X167751897Y-100518910D01*
X167751301Y-100651332D01*
X168248412Y-100651332D01*
X168745523Y-100651332D01*
X168745523Y-100801479D01*
X168745523Y-100951627D01*
X167649951Y-100951627D01*
X166801734Y-100951627D01*
X166554378Y-100951627D01*
X166554788Y-100651332D01*
X166801734Y-100651332D01*
X167152972Y-100651332D01*
X167504210Y-100651332D01*
X167503613Y-100509873D01*
X167503484Y-100483260D01*
X167503331Y-100458873D01*
X167503157Y-100436773D01*
X167502961Y-100417024D01*
X167502744Y-100399687D01*
X167502508Y-100384825D01*
X167502252Y-100372501D01*
X167501979Y-100362777D01*
X167501688Y-100355716D01*
X167501417Y-100351731D01*
X167498496Y-100324299D01*
X167495207Y-100299382D01*
X167491499Y-100276731D01*
X167487320Y-100256097D01*
X167482616Y-100237233D01*
X167477336Y-100219890D01*
X167471427Y-100203819D01*
X167469000Y-100197981D01*
X167457395Y-100174131D01*
X167443943Y-100152352D01*
X167428611Y-100132609D01*
X167411365Y-100114865D01*
X167392172Y-100099085D01*
X167370999Y-100085232D01*
X167358415Y-100078379D01*
X167340673Y-100070486D01*
X167320349Y-100063558D01*
X167297439Y-100057595D01*
X167271940Y-100052596D01*
X167243847Y-100048561D01*
X167213159Y-100045489D01*
X167179871Y-100043380D01*
X167143979Y-100042233D01*
X167120312Y-100042005D01*
X167104832Y-100042031D01*
X167091695Y-100042179D01*
X167080464Y-100042462D01*
X167070704Y-100042896D01*
X167061979Y-100043497D01*
X167053852Y-100044278D01*
X167053690Y-100044296D01*
X167024176Y-100048410D01*
X166996919Y-100054006D01*
X166971794Y-100061138D01*
X166948671Y-100069862D01*
X166927423Y-100080232D01*
X166907922Y-100092304D01*
X166890040Y-100106131D01*
X166874012Y-100121387D01*
X166863702Y-100133132D01*
X166854384Y-100145741D01*
X166845997Y-100159398D01*
X166838483Y-100174286D01*
X166831782Y-100190589D01*
X166825835Y-100208491D01*
X166820584Y-100228175D01*
X166815968Y-100249825D01*
X166811929Y-100273626D01*
X166808407Y-100299760D01*
X166805344Y-100328412D01*
X166804541Y-100337133D01*
X166804271Y-100341574D01*
X166804011Y-100348683D01*
X166803761Y-100358349D01*
X166803523Y-100370459D01*
X166803299Y-100384903D01*
X166803089Y-100401567D01*
X166802896Y-100420339D01*
X166802721Y-100441109D01*
X166802565Y-100463764D01*
X166802430Y-100488192D01*
X166802363Y-100502922D01*
X166801734Y-100651332D01*
X166554788Y-100651332D01*
X166554876Y-100587032D01*
X166554929Y-100548938D01*
X166554981Y-100513520D01*
X166555034Y-100480673D01*
X166555088Y-100450294D01*
X166555143Y-100422278D01*
X166555200Y-100396520D01*
X166555261Y-100372917D01*
X166555325Y-100351363D01*
X166555394Y-100331754D01*
X166555469Y-100313986D01*
X166555549Y-100297955D01*
X166555636Y-100283555D01*
X166555731Y-100270684D01*
X166555834Y-100259235D01*
X166555946Y-100249105D01*
X166556068Y-100240190D01*
X166556201Y-100232385D01*
X166556345Y-100225585D01*
X166556501Y-100219686D01*
X166556670Y-100214584D01*
X166556852Y-100210175D01*
X166557049Y-100206354D01*
X166557261Y-100203016D01*
X166557488Y-100200057D01*
X166557662Y-100198108D01*
X166561320Y-100163451D01*
X166565540Y-100131374D01*
X166570348Y-100101729D01*
X166575772Y-100074365D01*
X166581838Y-100049135D01*
X166588574Y-100025890D01*
X166589477Y-100023077D01*
X166600804Y-99992443D01*
X166614324Y-99963510D01*
X166630021Y-99936294D01*
X166647879Y-99910808D01*
X166667883Y-99887066D01*
X166690017Y-99865082D01*
X166714265Y-99844869D01*
X166740611Y-99826441D01*
X166769040Y-99809812D01*
X166799535Y-99794996D01*
X166832080Y-99782007D01*
X166866660Y-99770858D01*
X166884663Y-99765990D01*
X166920849Y-99757728D01*
X166957848Y-99751152D01*
X166995953Y-99746231D01*
X167035461Y-99742936D01*
X167076665Y-99741235D01*
X167119860Y-99741098D01*
X167125178Y-99741185D01*
X167167225Y-99742670D01*
X167206987Y-99745556D01*
X167244593Y-99749870D01*
X167280175Y-99755640D01*
X167313865Y-99762891D01*
X167345794Y-99771653D01*
X167376093Y-99781951D01*
X167404893Y-99793813D01*
X167424643Y-99803270D01*
X167446821Y-99815421D01*
X167466817Y-99828324D01*
X167484998Y-99842317D01*
X167501727Y-99857736D01*
X167517369Y-99874919D01*
X167532290Y-99894201D01*
X167546855Y-99915921D01*
X167547130Y-99916358D01*
X167559241Y-99937281D01*
X167570890Y-99960647D01*
X167581967Y-99986143D01*
X167592363Y-100013453D01*
X167601968Y-100042264D01*
X167610674Y-100072260D01*
X167618370Y-100103129D01*
X167624949Y-100134554D01*
X167627091Y-100146337D01*
X167628153Y-100152159D01*
X167629082Y-100156743D01*
X167629760Y-100159544D01*
X167630036Y-100160144D01*
X167630361Y-100158680D01*
X167630963Y-100154931D01*
X167631772Y-100149371D01*
X167632717Y-100142473D01*
X167633368Y-100137536D01*
X167638084Y-100104874D01*
X167643496Y-100074204D01*
X167649566Y-100045681D01*
X167656261Y-100019460D01*
X167663544Y-99995695D01*
X167669541Y-99979142D01*
X167680451Y-99954820D01*
X167693443Y-99932336D01*
X167708492Y-99911713D01*
X167725573Y-99892976D01*
X167744660Y-99876147D01*
X167765729Y-99861250D01*
X167788754Y-99848309D01*
X167813711Y-99837348D01*
X167824731Y-99833350D01*
X167836549Y-99829560D01*
X167848903Y-99826112D01*
X167862123Y-99822943D01*
X167876540Y-99819989D01*
X167892481Y-99817187D01*
X167910279Y-99814473D01*
X167930261Y-99811784D01*
X167948062Y-99809606D01*
X167956011Y-99808685D01*
X167963755Y-99807827D01*
X167971475Y-99807023D01*
X167979355Y-99806259D01*
X167987576Y-99805524D01*
X167996319Y-99804807D01*
X168005768Y-99804096D01*
X168016103Y-99803380D01*
X168027508Y-99802647D01*
X168040163Y-99801886D01*
X168054251Y-99801084D01*
X168069954Y-99800231D01*
X168087454Y-99799316D01*
X168106933Y-99798325D01*
X168128572Y-99797249D01*
X168152554Y-99796075D01*
X168179061Y-99794791D01*
X168190115Y-99794259D01*
X168219559Y-99792839D01*
X168246401Y-99791536D01*
X168270818Y-99790336D01*
X168292985Y-99789231D01*
X168313080Y-99788207D01*
X168331277Y-99787255D01*
X168347752Y-99786362D01*
X168362683Y-99785519D01*
X168376245Y-99784713D01*
X168388614Y-99783934D01*
X168399967Y-99783169D01*
X168410478Y-99782409D01*
X168420325Y-99781643D01*
X168429684Y-99780857D01*
X168438730Y-99780043D01*
X168447639Y-99779188D01*
X168456589Y-99778281D01*
X168465754Y-99777312D01*
X168475311Y-99776269D01*
X168477203Y-99776059D01*
X168528117Y-99769349D01*
X168579722Y-99760424D01*
X168632231Y-99749240D01*
X168685858Y-99735753D01*
X168717022Y-99727013D01*
X168744828Y-99718933D01*
X168745181Y-99875330D01*
G37*
G36*
X168745523Y-99221452D02*
G01*
X168745523Y-99372295D01*
X167650000Y-99372295D01*
X166554477Y-99372295D01*
X166554477Y-99221452D01*
X166554477Y-99070609D01*
X167650000Y-99070609D01*
X168745523Y-99070609D01*
X168745523Y-99221452D01*
G37*
G36*
X167306110Y-107414232D02*
G01*
X167310956Y-107417943D01*
X167317675Y-107422748D01*
X167325758Y-107428312D01*
X167334695Y-107434297D01*
X167343976Y-107440366D01*
X167353091Y-107446184D01*
X167361530Y-107451413D01*
X167368782Y-107455717D01*
X167370032Y-107456429D01*
X167404222Y-107474185D01*
X167439867Y-107489666D01*
X167476703Y-107502783D01*
X167514466Y-107513448D01*
X167552892Y-107521571D01*
X167572841Y-107524733D01*
X167611326Y-107528746D01*
X167650051Y-107530042D01*
X167688828Y-107528651D01*
X167727469Y-107524604D01*
X167765786Y-107517930D01*
X167803590Y-107508659D01*
X167840694Y-107496822D01*
X167876908Y-107482449D01*
X167898161Y-107472606D01*
X167922910Y-107459922D01*
X167945522Y-107447077D01*
X167966631Y-107433685D01*
X167986873Y-107419363D01*
X167989814Y-107417157D01*
X168002222Y-107407778D01*
X168166724Y-107572276D01*
X168184552Y-107590107D01*
X168201841Y-107607407D01*
X168218489Y-107624075D01*
X168234394Y-107640006D01*
X168249455Y-107655100D01*
X168263570Y-107669254D01*
X168276637Y-107682366D01*
X168288554Y-107694333D01*
X168299220Y-107705053D01*
X168308532Y-107714425D01*
X168316388Y-107722345D01*
X168322688Y-107728712D01*
X168327328Y-107733423D01*
X168330208Y-107736376D01*
X168331225Y-107737469D01*
X168331226Y-107737472D01*
X168330255Y-107738496D01*
X168327387Y-107741415D01*
X168322695Y-107746158D01*
X168316248Y-107752654D01*
X168308117Y-107760832D01*
X168298374Y-107770622D01*
X168287088Y-107781952D01*
X168274331Y-107794751D01*
X168260174Y-107808949D01*
X168244686Y-107824475D01*
X168227939Y-107841258D01*
X168210003Y-107859227D01*
X168190950Y-107878311D01*
X168170849Y-107898439D01*
X168149772Y-107919541D01*
X168127790Y-107941545D01*
X168104973Y-107964381D01*
X168081391Y-107987978D01*
X168057116Y-108012264D01*
X168032219Y-108037170D01*
X168006769Y-108062624D01*
X167990613Y-108078781D01*
X167649999Y-108419392D01*
X167309040Y-108078433D01*
X166968080Y-107737473D01*
X167133023Y-107572530D01*
X167297967Y-107407586D01*
X167306110Y-107414232D01*
G37*
G36*
X167990613Y-105841857D02*
G01*
X168016371Y-105867617D01*
X168041622Y-105892874D01*
X168066294Y-105917555D01*
X168090317Y-105941592D01*
X168113619Y-105964911D01*
X168136131Y-105987443D01*
X168157781Y-106009117D01*
X168178500Y-106029862D01*
X168198215Y-106049607D01*
X168216856Y-106068281D01*
X168234353Y-106085814D01*
X168250635Y-106102133D01*
X168265631Y-106117170D01*
X168279271Y-106130852D01*
X168291483Y-106143108D01*
X168302198Y-106153869D01*
X168311343Y-106163063D01*
X168318849Y-106170618D01*
X168324645Y-106176465D01*
X168328660Y-106180533D01*
X168330823Y-106182750D01*
X168331203Y-106183164D01*
X168330236Y-106184207D01*
X168327405Y-106187116D01*
X168322813Y-106191787D01*
X168316561Y-106198118D01*
X168308752Y-106206008D01*
X168299487Y-106215353D01*
X168288867Y-106226051D01*
X168276995Y-106238001D01*
X168263972Y-106251098D01*
X168249900Y-106265242D01*
X168234880Y-106280330D01*
X168219015Y-106296258D01*
X168202406Y-106312926D01*
X168185155Y-106330230D01*
X168167363Y-106348068D01*
X168166940Y-106348493D01*
X168145896Y-106369585D01*
X168126726Y-106388795D01*
X168109341Y-106406208D01*
X168093650Y-106421911D01*
X168079566Y-106435992D01*
X168066998Y-106448536D01*
X168055859Y-106459631D01*
X168046057Y-106469363D01*
X168037506Y-106477819D01*
X168030114Y-106485086D01*
X168023793Y-106491249D01*
X168018454Y-106496397D01*
X168014008Y-106500615D01*
X168010366Y-106503990D01*
X168007437Y-106506609D01*
X168005134Y-106508559D01*
X168003368Y-106509926D01*
X168002047Y-106510797D01*
X168001085Y-106511258D01*
X168000391Y-106511397D01*
X167999877Y-106511299D01*
X167999601Y-106511153D01*
X167997347Y-106509626D01*
X167993363Y-106506839D01*
X167988173Y-106503161D01*
X167982299Y-106498962D01*
X167981042Y-106498058D01*
X167948354Y-106476202D01*
X167914496Y-106456825D01*
X167879422Y-106439912D01*
X167843088Y-106425446D01*
X167805450Y-106413408D01*
X167766463Y-106403782D01*
X167726084Y-106396551D01*
X167714647Y-106394969D01*
X167706399Y-106394141D01*
X167695921Y-106393462D01*
X167683736Y-106392938D01*
X167670372Y-106392569D01*
X167656354Y-106392360D01*
X167642207Y-106392314D01*
X167628458Y-106392434D01*
X167615633Y-106392723D01*
X167604256Y-106393184D01*
X167594855Y-106393821D01*
X167590914Y-106394224D01*
X167550047Y-106400407D01*
X167510453Y-106409058D01*
X167472102Y-106420188D01*
X167434962Y-106433811D01*
X167399003Y-106449938D01*
X167364193Y-106468581D01*
X167330501Y-106489752D01*
X167310617Y-106503816D01*
X167305602Y-106507437D01*
X167301374Y-106510341D01*
X167298449Y-106512181D01*
X167297408Y-106512656D01*
X167296285Y-106511691D01*
X167293327Y-106508879D01*
X167288658Y-106504344D01*
X167282401Y-106498212D01*
X167274683Y-106490606D01*
X167265628Y-106481652D01*
X167255360Y-106471475D01*
X167244003Y-106460198D01*
X167231683Y-106447947D01*
X167218524Y-106434846D01*
X167204651Y-106421020D01*
X167190187Y-106406594D01*
X167175259Y-106391692D01*
X167159990Y-106376439D01*
X167144506Y-106360960D01*
X167128930Y-106345379D01*
X167113387Y-106329821D01*
X167098002Y-106314410D01*
X167082900Y-106299272D01*
X167068205Y-106284531D01*
X167054041Y-106270312D01*
X167040534Y-106256739D01*
X167027808Y-106243937D01*
X167015987Y-106232030D01*
X167005197Y-106221144D01*
X166995561Y-106211404D01*
X166987205Y-106202932D01*
X166980253Y-106195855D01*
X166974830Y-106190298D01*
X166971059Y-106186384D01*
X166969067Y-106184238D01*
X166968774Y-106183857D01*
X166969746Y-106182780D01*
X166972614Y-106179809D01*
X166977307Y-106175015D01*
X166983755Y-106168469D01*
X166991888Y-106160242D01*
X167001633Y-106150405D01*
X167012921Y-106139028D01*
X167025681Y-106126184D01*
X167039841Y-106111943D01*
X167055332Y-106096376D01*
X167072083Y-106079555D01*
X167090022Y-106061549D01*
X167109079Y-106042431D01*
X167129183Y-106022271D01*
X167150264Y-106001141D01*
X167172250Y-105979111D01*
X167195072Y-105956252D01*
X167218657Y-105932636D01*
X167242936Y-105908334D01*
X167267838Y-105883416D01*
X167293291Y-105857954D01*
X167309387Y-105841857D01*
X167650000Y-105501246D01*
X167990613Y-105841857D01*
G37*
G36*
X167037692Y-106443245D02*
G01*
X167202539Y-106608092D01*
X167192040Y-106622132D01*
X167172329Y-106650492D01*
X167154024Y-106680857D01*
X167137395Y-106712691D01*
X167122714Y-106745460D01*
X167110252Y-106778631D01*
X167105885Y-106792098D01*
X167095499Y-106830338D01*
X167087827Y-106868971D01*
X167082857Y-106907860D01*
X167080579Y-106946870D01*
X167080984Y-106985863D01*
X167084061Y-107024704D01*
X167089801Y-107063256D01*
X167098193Y-107101384D01*
X167109228Y-107138950D01*
X167122894Y-107175818D01*
X167136438Y-107206225D01*
X167153259Y-107238675D01*
X167171536Y-107269159D01*
X167191098Y-107297396D01*
X167193052Y-107299997D01*
X167196777Y-107304942D01*
X167199790Y-107308979D01*
X167201750Y-107311652D01*
X167202337Y-107312512D01*
X167201371Y-107313504D01*
X167198540Y-107316361D01*
X167193946Y-107320979D01*
X167187690Y-107327258D01*
X167179875Y-107335095D01*
X167170602Y-107344389D01*
X167159972Y-107355037D01*
X167148088Y-107366938D01*
X167135051Y-107379991D01*
X167120963Y-107394092D01*
X167105925Y-107409141D01*
X167090039Y-107425036D01*
X167073408Y-107441674D01*
X167056131Y-107458954D01*
X167038312Y-107476774D01*
X167037591Y-107477496D01*
X166872844Y-107642238D01*
X166531885Y-107301278D01*
X166190926Y-106960319D01*
X166531886Y-106619359D01*
X166872846Y-106278399D01*
X167037692Y-106443245D01*
G37*
%TO.C,C3*%
X159912164Y-105460000D02*
X160127836Y-105460000D01*
X159912164Y-106180000D02*
X160127836Y-106180000D01*
%TO.C,C2*%
X162700000Y-104872164D02*
X162700000Y-105087836D01*
X161980000Y-104872164D02*
X161980000Y-105087836D01*
%TO.C,J2*%
X154680000Y-97380000D02*
X154680000Y-96050000D01*
X156010000Y-97380000D02*
X154680000Y-97380000D01*
X157280000Y-97380000D02*
X164960000Y-97380000D01*
X157280000Y-97380000D02*
X157280000Y-94720000D01*
X164960000Y-97380000D02*
X164960000Y-94720000D01*
X157280000Y-94720000D02*
X164960000Y-94720000D01*
%TO.C,J1*%
X164940000Y-110120000D02*
X164940000Y-111450000D01*
X163610000Y-110120000D02*
X164940000Y-110120000D01*
X162340000Y-110120000D02*
X154660000Y-110120000D01*
X162340000Y-110120000D02*
X162340000Y-112780000D01*
X154660000Y-110120000D02*
X154660000Y-112780000D01*
X162340000Y-112780000D02*
X154660000Y-112780000D01*
%TO.C,C1*%
X163710000Y-104862164D02*
X163710000Y-105077836D01*
X162990000Y-104862164D02*
X162990000Y-105077836D01*
D14*
%TO.C,U1*%
X158522500Y-102495000D02*
X159032500Y-102495000D01*
X158522500Y-104995000D02*
X159032500Y-104995000D01*
X161012500Y-102495000D02*
X161522500Y-102495000D01*
X161522500Y-104995000D02*
X161012500Y-104995000D01*
D15*
X158122500Y-102945000D02*
G75*
G03*
X157922500Y-102945000I-100000J0D01*
G01*
X157922500Y-102945000D02*
G75*
G03*
X158122500Y-102945000I100000J0D01*
G01*
%TD*%
M02*
