%TF.GenerationSoftware,KiCad,Pcbnew,7.0.10*%
%TF.CreationDate,2025-02-05T15:49:07-05:00*%
%TF.ProjectId,pcb2,70636232-2e6b-4696-9361-645f70636258,rev?*%
%TF.SameCoordinates,Original*%
%TF.FileFunction,Copper,L1,Top*%
%TF.FilePolarity,Positive*%
%FSLAX46Y46*%
G04 Gerber Fmt 4.6, Leading zero omitted, Abs format (unit mm)*
G04 Created by KiCad (PCBNEW 7.0.10) date 2025-02-05 15:49:07*
%MOMM*%
%LPD*%
G01*
G04 APERTURE LIST*
G04 Aperture macros list*
%AMRoundRect*
0 Rectangle with rounded corners*
0 $1 Rounding radius*
0 $2 $3 $4 $5 $6 $7 $8 $9 X,Y pos of 4 corners*
0 Add a 4 corners polygon primitive as box body*
4,1,4,$2,$3,$4,$5,$6,$7,$8,$9,$2,$3,0*
0 Add four circle primitives for the rounded corners*
1,1,$1+$1,$2,$3*
1,1,$1+$1,$4,$5*
1,1,$1+$1,$6,$7*
1,1,$1+$1,$8,$9*
0 Add four rect primitives between the rounded corners*
20,1,$1+$1,$2,$3,$4,$5,0*
20,1,$1+$1,$4,$5,$6,$7,0*
20,1,$1+$1,$6,$7,$8,$9,0*
20,1,$1+$1,$8,$9,$2,$3,0*%
G04 Aperture macros list end*
%TA.AperFunction,NonConductor*%
%ADD10C,0.200000*%
%TD*%
%TA.AperFunction,SMDPad,CuDef*%
%ADD11RoundRect,0.140000X-0.140000X-0.170000X0.140000X-0.170000X0.140000X0.170000X-0.140000X0.170000X0*%
%TD*%
%TA.AperFunction,SMDPad,CuDef*%
%ADD12RoundRect,0.140000X-0.170000X0.140000X-0.170000X-0.140000X0.170000X-0.140000X0.170000X0.140000X0*%
%TD*%
%TA.AperFunction,ComponentPad*%
%ADD13R,1.700000X1.700000*%
%TD*%
%TA.AperFunction,ComponentPad*%
%ADD14O,1.700000X1.700000*%
%TD*%
%TA.AperFunction,SMDPad,CuDef*%
%ADD15RoundRect,0.087500X-0.207500X-0.087500X0.207500X-0.087500X0.207500X0.087500X-0.207500X0.087500X0*%
%TD*%
%TA.AperFunction,SMDPad,CuDef*%
%ADD16RoundRect,0.087500X-0.087500X-0.207500X0.087500X-0.207500X0.087500X0.207500X-0.087500X0.207500X0*%
%TD*%
%TA.AperFunction,ViaPad*%
%ADD17C,0.800000*%
%TD*%
%TA.AperFunction,Conductor*%
%ADD18C,0.250000*%
%TD*%
G04 APERTURE END LIST*
D10*
X153320000Y-111720000D02*
G75*
G03*
X150320000Y-111720000I-1500000J0D01*
G01*
X150320000Y-111720000D02*
G75*
G03*
X153320000Y-111720000I1500000J0D01*
G01*
X153340000Y-95770000D02*
G75*
G03*
X150340000Y-95770000I-1500000J0D01*
G01*
X150340000Y-95770000D02*
G75*
G03*
X153340000Y-95770000I1500000J0D01*
G01*
X169310000Y-111720000D02*
G75*
G03*
X166310000Y-111720000I-1500000J0D01*
G01*
X166310000Y-111720000D02*
G75*
G03*
X169310000Y-111720000I1500000J0D01*
G01*
X169310000Y-95800000D02*
G75*
G03*
X166310000Y-95800000I-1500000J0D01*
G01*
X166310000Y-95800000D02*
G75*
G03*
X169310000Y-95800000I1500000J0D01*
G01*
D11*
%TO.P,C3,1*%
%TO.N,+3.3V*%
X159540000Y-105820000D03*
%TO.P,C3,2*%
%TO.N,GND*%
X160500000Y-105820000D03*
%TD*%
D12*
%TO.P,C2,1*%
%TO.N,+3.3V*%
X162340000Y-104500000D03*
%TO.P,C2,2*%
%TO.N,GND*%
X162340000Y-105460000D03*
%TD*%
D13*
%TO.P,J2,1,Pin_1*%
%TO.N,SDO*%
X156010000Y-96050000D03*
D14*
%TO.P,J2,2,Pin_2*%
%TO.N,SDA*%
X158550000Y-96050000D03*
%TO.P,J2,3,Pin_3*%
%TO.N,SCLK*%
X161090000Y-96050000D03*
%TO.P,J2,4,Pin_4*%
%TO.N,CS*%
X163630000Y-96050000D03*
%TD*%
D13*
%TO.P,J1,1,Pin_1*%
%TO.N,+3.3V*%
X163610000Y-111450000D03*
D14*
%TO.P,J1,2,Pin_2*%
%TO.N,GND*%
X161070000Y-111450000D03*
%TO.P,J1,3,Pin_3*%
%TO.N,INT1*%
X158530000Y-111450000D03*
%TO.P,J1,4,Pin_4*%
%TO.N,INT2*%
X155990000Y-111450000D03*
%TD*%
D12*
%TO.P,C1,1*%
%TO.N,+3.3V*%
X163350000Y-104490000D03*
%TO.P,C1,2*%
%TO.N,GND*%
X163350000Y-105450000D03*
%TD*%
D15*
%TO.P,U1,1,AP_SDO/AP_AD0*%
%TO.N,SDO*%
X158857500Y-102995000D03*
%TO.P,U1,2,RESV_2*%
%TO.N,GND*%
X158857500Y-103495000D03*
%TO.P,U1,3,RESV_3*%
X158857500Y-103995000D03*
%TO.P,U1,4,INT1/INT*%
%TO.N,INT1*%
X158857500Y-104495000D03*
D16*
%TO.P,U1,5,VDDIO*%
%TO.N,+3.3V*%
X159522500Y-104660000D03*
%TO.P,U1,6,GND*%
%TO.N,GND*%
X160022500Y-104660000D03*
%TO.P,U1,7,RESV_7*%
X160522500Y-104660000D03*
D15*
%TO.P,U1,8,VDD*%
%TO.N,+3.3V*%
X161187500Y-104495000D03*
%TO.P,U1,9,INT2/FSYNC/CLKIN*%
%TO.N,INT2*%
X161187500Y-103995000D03*
%TO.P,U1,10,RESV_10*%
%TO.N,GND*%
X161187500Y-103495000D03*
%TO.P,U1,11,RESV_11*%
X161187500Y-102995000D03*
D16*
%TO.P,U1,12,AP_CS*%
%TO.N,CS*%
X160522500Y-102830000D03*
%TO.P,U1,13,AP_SCL/AP_SCLK*%
%TO.N,SCLK*%
X160022500Y-102830000D03*
%TO.P,U1,14,AP_SDA/AP_SDIO/AP_SDI*%
%TO.N,SDA*%
X159522500Y-102830000D03*
%TD*%
D17*
%TO.N,GND*%
X161300000Y-106600000D03*
X162350000Y-106450000D03*
X157700000Y-104000000D03*
X163350000Y-106475000D03*
X162300000Y-103000000D03*
%TO.N,INT2*%
X160319298Y-103774634D03*
%TD*%
D18*
%TO.N,+3.3V*%
X159540000Y-105820000D02*
X159540000Y-106340000D01*
X163650000Y-111410000D02*
X163610000Y-111450000D01*
X159540000Y-106340000D02*
X163610000Y-110410000D01*
X164100000Y-104750000D02*
X164100000Y-109800000D01*
X163340000Y-104500000D02*
X163350000Y-104490000D01*
X162335000Y-104495000D02*
X162340000Y-104500000D01*
X163650000Y-110250000D02*
X163650000Y-111410000D01*
X159522500Y-105802500D02*
X159540000Y-105820000D01*
X163840000Y-104490000D02*
X164100000Y-104750000D01*
X164100000Y-109800000D02*
X163650000Y-110250000D01*
X161187500Y-104495000D02*
X162335000Y-104495000D01*
X162340000Y-104500000D02*
X163340000Y-104500000D01*
X163350000Y-104490000D02*
X163840000Y-104490000D01*
X163610000Y-110410000D02*
X163610000Y-111450000D01*
X159522500Y-104660000D02*
X159522500Y-105802500D01*
%TO.N,GND*%
X161187500Y-102995000D02*
X162295000Y-102995000D01*
X163340000Y-105460000D02*
X163350000Y-105450000D01*
X160800000Y-106600000D02*
X161300000Y-106600000D01*
X160500000Y-105820000D02*
X160500000Y-106300000D01*
X160522500Y-104660000D02*
X160522500Y-105797500D01*
X157705000Y-103995000D02*
X158857500Y-103995000D01*
X161230000Y-105820000D02*
X160500000Y-105820000D01*
X162340000Y-105460000D02*
X163340000Y-105460000D01*
X158857500Y-103995000D02*
X158857500Y-103495000D01*
X162340000Y-106440000D02*
X162340000Y-105460000D01*
X157700000Y-104000000D02*
X157705000Y-103995000D01*
X161590000Y-105460000D02*
X161230000Y-105820000D01*
X162340000Y-105460000D02*
X161590000Y-105460000D01*
X163350000Y-106475000D02*
X163350000Y-105450000D01*
X160022500Y-104660000D02*
X160522500Y-104660000D01*
X162350000Y-106450000D02*
X162340000Y-106440000D01*
X161187500Y-103495000D02*
X161187500Y-102995000D01*
X162295000Y-102995000D02*
X162300000Y-103000000D01*
X160500000Y-106300000D02*
X160800000Y-106600000D01*
X160522500Y-105797500D02*
X160500000Y-105820000D01*
%TO.N,INT2*%
X160539664Y-103995000D02*
X160319298Y-103774634D01*
X161187500Y-103995000D02*
X160539664Y-103995000D01*
%TO.N,CS*%
X160522500Y-100927500D02*
X160522500Y-102830000D01*
X163630000Y-97820000D02*
X160522500Y-100927500D01*
X163630000Y-96050000D02*
X163630000Y-97820000D01*
%TO.N,SCLK*%
X161090000Y-96050000D02*
X161150000Y-96110000D01*
X161150000Y-96110000D02*
X161150000Y-97800000D01*
X161150000Y-97800000D02*
X160022500Y-98927500D01*
X160022500Y-98927500D02*
X160022500Y-102830000D01*
%TO.N,SDA*%
X159522500Y-98822500D02*
X159522500Y-102830000D01*
X158550000Y-96050000D02*
X158550000Y-97850000D01*
X158550000Y-97850000D02*
X159522500Y-98822500D01*
%TO.N,SDO*%
X156010000Y-97860000D02*
X158857500Y-100707500D01*
X158857500Y-100707500D02*
X158857500Y-102995000D01*
X156010000Y-96050000D02*
X156010000Y-97860000D01*
%TO.N,INT1*%
X158530000Y-104822500D02*
X158530000Y-111450000D01*
X158857500Y-104495000D02*
X158530000Y-104822500D01*
%TD*%
M02*
