%TF.GenerationSoftware,KiCad,Pcbnew,7.0.10*%
%TF.CreationDate,2025-02-05T15:49:07-05:00*%
%TF.ProjectId,pcb2,70636232-2e6b-4696-9361-645f70636258,rev?*%
%TF.SameCoordinates,Original*%
%TF.FileFunction,Legend,Bot*%
%TF.FilePolarity,Positive*%
%FSLAX46Y46*%
G04 Gerber Fmt 4.6, Leading zero omitted, Abs format (unit mm)*
G04 Created by KiCad (PCBNEW 7.0.10) date 2025-02-05 15:49:07*
%MOMM*%
%LPD*%
G01*
G04 APERTURE LIST*
%ADD10C,0.300000*%
G04 APERTURE END LIST*
D10*
X161103220Y-102966567D02*
X161246078Y-102895138D01*
X161246078Y-102895138D02*
X161460363Y-102895138D01*
X161460363Y-102895138D02*
X161674649Y-102966567D01*
X161674649Y-102966567D02*
X161817506Y-103109424D01*
X161817506Y-103109424D02*
X161888935Y-103252281D01*
X161888935Y-103252281D02*
X161960363Y-103537995D01*
X161960363Y-103537995D02*
X161960363Y-103752281D01*
X161960363Y-103752281D02*
X161888935Y-104037995D01*
X161888935Y-104037995D02*
X161817506Y-104180852D01*
X161817506Y-104180852D02*
X161674649Y-104323710D01*
X161674649Y-104323710D02*
X161460363Y-104395138D01*
X161460363Y-104395138D02*
X161317506Y-104395138D01*
X161317506Y-104395138D02*
X161103220Y-104323710D01*
X161103220Y-104323710D02*
X161031792Y-104252281D01*
X161031792Y-104252281D02*
X161031792Y-103752281D01*
X161031792Y-103752281D02*
X161317506Y-103752281D01*
X160174649Y-102895138D02*
X160174649Y-103252281D01*
X160531792Y-103109424D02*
X160174649Y-103252281D01*
X160174649Y-103252281D02*
X159817506Y-103109424D01*
X160388935Y-103537995D02*
X160174649Y-103252281D01*
X160174649Y-103252281D02*
X159960363Y-103537995D01*
X159031792Y-102895138D02*
X159031792Y-103252281D01*
X159388935Y-103109424D02*
X159031792Y-103252281D01*
X159031792Y-103252281D02*
X158674649Y-103109424D01*
X159246078Y-103537995D02*
X159031792Y-103252281D01*
X159031792Y-103252281D02*
X158817506Y-103537995D01*
X157888935Y-102895138D02*
X157888935Y-103252281D01*
X158246078Y-103109424D02*
X157888935Y-103252281D01*
X157888935Y-103252281D02*
X157531792Y-103109424D01*
X158103221Y-103537995D02*
X157888935Y-103252281D01*
X157888935Y-103252281D02*
X157674649Y-103537995D01*
%TO.C,G\u002A\u002A\u002A*%
G36*
X166500752Y-104650698D02*
G01*
X166504145Y-104653952D01*
X166509609Y-104659280D01*
X166517056Y-104666596D01*
X166526398Y-104675810D01*
X166537547Y-104686837D01*
X166550415Y-104699588D01*
X166564914Y-104713976D01*
X166580956Y-104729913D01*
X166598454Y-104747313D01*
X166617319Y-104766087D01*
X166637463Y-104786148D01*
X166658798Y-104807408D01*
X166681238Y-104829781D01*
X166704692Y-104853178D01*
X166729075Y-104877512D01*
X166754297Y-104902696D01*
X166780270Y-104928642D01*
X166806908Y-104955263D01*
X166834121Y-104982470D01*
X167166983Y-105315335D01*
X166478164Y-106004222D01*
X166447968Y-106034421D01*
X166409145Y-106073247D01*
X166370930Y-106111467D01*
X166333381Y-106149019D01*
X166296561Y-106185843D01*
X166260530Y-106221878D01*
X166225349Y-106257063D01*
X166191079Y-106291337D01*
X166157780Y-106324641D01*
X166125512Y-106356911D01*
X166094338Y-106388090D01*
X166064317Y-106418114D01*
X166035511Y-106446924D01*
X166007980Y-106474459D01*
X165981785Y-106500658D01*
X165956986Y-106525460D01*
X165933644Y-106548805D01*
X165911821Y-106570631D01*
X165891577Y-106590879D01*
X165872972Y-106609487D01*
X165856068Y-106626394D01*
X165840925Y-106641540D01*
X165827604Y-106654864D01*
X165816165Y-106666305D01*
X165806670Y-106675802D01*
X165799179Y-106683295D01*
X165793753Y-106688724D01*
X165790453Y-106692026D01*
X165789339Y-106693141D01*
X165788870Y-106692694D01*
X165786342Y-106690198D01*
X165781690Y-106685575D01*
X165774989Y-106678900D01*
X165766311Y-106670246D01*
X165755732Y-106659688D01*
X165743325Y-106647300D01*
X165729164Y-106633155D01*
X165713324Y-106617329D01*
X165695878Y-106599895D01*
X165676901Y-106580927D01*
X165656466Y-106560499D01*
X165634649Y-106538686D01*
X165611522Y-106515562D01*
X165587160Y-106491201D01*
X165561636Y-106465676D01*
X165535026Y-106439063D01*
X165507403Y-106411435D01*
X165478841Y-106382866D01*
X165449414Y-106353430D01*
X165419197Y-106323202D01*
X165388262Y-106292256D01*
X165356686Y-106260665D01*
X165324540Y-106228504D01*
X165291900Y-106195847D01*
X165258840Y-106162769D01*
X165225434Y-106129343D01*
X165191755Y-106095643D01*
X165157878Y-106061743D01*
X165123877Y-106027719D01*
X165089826Y-105993643D01*
X165055799Y-105959589D01*
X165021869Y-105925633D01*
X164988113Y-105891848D01*
X164954602Y-105858309D01*
X164921412Y-105825088D01*
X164888616Y-105792262D01*
X164856288Y-105759902D01*
X164824503Y-105728085D01*
X164793335Y-105696883D01*
X164762857Y-105666372D01*
X164733144Y-105636624D01*
X164704269Y-105607715D01*
X164676308Y-105579718D01*
X164649333Y-105552708D01*
X164623419Y-105526758D01*
X164598641Y-105501943D01*
X164575071Y-105478337D01*
X164552785Y-105456014D01*
X164531856Y-105435048D01*
X164512358Y-105415513D01*
X164494366Y-105397483D01*
X164477953Y-105381033D01*
X164463194Y-105366237D01*
X164450162Y-105353168D01*
X164438932Y-105341901D01*
X164429578Y-105332510D01*
X164422173Y-105325069D01*
X164416793Y-105319653D01*
X164413510Y-105316334D01*
X164412399Y-105315188D01*
X164412409Y-105315171D01*
X164413718Y-105313778D01*
X164417160Y-105310256D01*
X164422626Y-105304711D01*
X164430012Y-105297251D01*
X164439209Y-105287983D01*
X164450112Y-105277012D01*
X164462613Y-105264446D01*
X164476606Y-105250392D01*
X164491983Y-105234957D01*
X164508639Y-105218247D01*
X164526466Y-105200368D01*
X164545357Y-105181429D01*
X164565207Y-105161536D01*
X164585908Y-105140795D01*
X164607353Y-105119313D01*
X164629435Y-105097198D01*
X164652049Y-105074555D01*
X164675086Y-105051493D01*
X164698441Y-105028116D01*
X164722007Y-105004534D01*
X164745676Y-104980851D01*
X164769342Y-104957175D01*
X164792899Y-104933613D01*
X164816240Y-104910272D01*
X164839257Y-104887258D01*
X164861844Y-104864678D01*
X164883895Y-104842640D01*
X164905302Y-104821249D01*
X164925959Y-104800612D01*
X164945759Y-104780837D01*
X164964595Y-104762031D01*
X164982361Y-104744299D01*
X164998950Y-104727749D01*
X165014254Y-104712488D01*
X165028168Y-104698622D01*
X165040585Y-104686259D01*
X165051397Y-104675504D01*
X165060499Y-104666466D01*
X165067782Y-104659250D01*
X165073142Y-104653963D01*
X165076470Y-104650713D01*
X165077659Y-104649606D01*
X165078837Y-104650284D01*
X165081844Y-104652521D01*
X165085888Y-104655778D01*
X165087132Y-104656794D01*
X165093040Y-104661387D01*
X165100925Y-104667276D01*
X165110271Y-104674094D01*
X165120563Y-104681472D01*
X165131284Y-104689043D01*
X165141918Y-104696437D01*
X165151949Y-104703288D01*
X165160860Y-104709227D01*
X165179193Y-104720947D01*
X165204130Y-104736062D01*
X165229765Y-104750747D01*
X165255480Y-104764669D01*
X165280656Y-104777497D01*
X165304675Y-104788897D01*
X165326920Y-104798537D01*
X165333635Y-104801323D01*
X165339627Y-104803887D01*
X165343960Y-104805829D01*
X165345989Y-104806867D01*
X165347089Y-104807497D01*
X165351072Y-104809319D01*
X165357267Y-104811911D01*
X165365179Y-104815082D01*
X165374312Y-104818646D01*
X165384172Y-104822413D01*
X165394263Y-104826196D01*
X165404090Y-104829804D01*
X165413157Y-104833051D01*
X165420970Y-104835748D01*
X165427032Y-104837706D01*
X165427180Y-104837751D01*
X165431901Y-104839207D01*
X165438721Y-104841336D01*
X165446748Y-104843858D01*
X165455093Y-104846494D01*
X165475163Y-104852537D01*
X165507220Y-104861087D01*
X165541422Y-104869021D01*
X165577167Y-104876221D01*
X165613853Y-104882567D01*
X165650879Y-104887943D01*
X165687643Y-104892228D01*
X165694377Y-104892802D01*
X165706098Y-104893497D01*
X165720148Y-104894075D01*
X165736038Y-104894534D01*
X165753275Y-104894872D01*
X165771368Y-104895087D01*
X165789826Y-104895177D01*
X165808157Y-104895140D01*
X165825871Y-104894974D01*
X165842475Y-104894678D01*
X165857478Y-104894249D01*
X165870389Y-104893685D01*
X165880717Y-104892985D01*
X165883202Y-104892767D01*
X165912883Y-104889665D01*
X165943715Y-104885605D01*
X165975081Y-104880706D01*
X166006364Y-104875085D01*
X166036944Y-104868860D01*
X166066203Y-104862149D01*
X166093523Y-104855069D01*
X166118286Y-104847738D01*
X166123489Y-104846084D01*
X166132610Y-104843192D01*
X166141387Y-104840420D01*
X166148479Y-104838192D01*
X166176982Y-104828683D01*
X166216680Y-104813622D01*
X166257115Y-104796306D01*
X166297764Y-104776998D01*
X166338102Y-104755964D01*
X166377603Y-104733467D01*
X166415742Y-104709774D01*
X166451995Y-104685148D01*
X166460031Y-104679400D01*
X166470730Y-104671643D01*
X166479800Y-104664933D01*
X166486992Y-104659459D01*
X166492058Y-104655406D01*
X166494749Y-104652963D01*
X166497269Y-104650685D01*
X166499518Y-104649606D01*
X166500752Y-104650698D01*
G37*
G36*
X162527739Y-103717602D02*
G01*
X162527739Y-105766735D01*
X162263951Y-105766735D01*
X162000162Y-105766735D01*
X162000054Y-103981791D01*
X162000054Y-103980481D01*
X162000047Y-103889954D01*
X162000038Y-103801375D01*
X162000026Y-103714781D01*
X162000012Y-103630205D01*
X161999996Y-103547683D01*
X161999977Y-103467251D01*
X161999956Y-103388943D01*
X161999932Y-103312795D01*
X161999907Y-103238842D01*
X161999879Y-103167118D01*
X161999848Y-103097659D01*
X161999816Y-103030500D01*
X161999782Y-102965676D01*
X161999745Y-102903223D01*
X161999706Y-102843175D01*
X161999666Y-102785567D01*
X161999623Y-102730436D01*
X161999579Y-102677814D01*
X161999532Y-102627739D01*
X161999483Y-102580245D01*
X161999433Y-102535367D01*
X161999381Y-102493141D01*
X161999327Y-102453601D01*
X161999271Y-102416782D01*
X161999213Y-102382720D01*
X161999154Y-102351450D01*
X161999093Y-102323007D01*
X161999030Y-102297426D01*
X161998966Y-102274742D01*
X161998900Y-102254990D01*
X161998832Y-102238206D01*
X161998763Y-102224424D01*
X161998693Y-102213680D01*
X161998621Y-102206008D01*
X161998547Y-102201445D01*
X161998472Y-102200025D01*
X161998393Y-102200310D01*
X161997690Y-102203165D01*
X161996277Y-102209029D01*
X161994169Y-102217840D01*
X161991380Y-102229536D01*
X161987926Y-102244058D01*
X161983820Y-102261343D01*
X161979077Y-102281330D01*
X161973712Y-102303958D01*
X161967738Y-102329166D01*
X161961171Y-102356893D01*
X161954024Y-102387077D01*
X161946313Y-102419657D01*
X161938052Y-102454572D01*
X161929255Y-102491761D01*
X161919936Y-102531162D01*
X161910111Y-102572715D01*
X161899793Y-102616357D01*
X161888997Y-102662029D01*
X161877738Y-102709668D01*
X161866030Y-102759214D01*
X161853888Y-102810605D01*
X161841325Y-102863780D01*
X161828357Y-102918678D01*
X161814998Y-102975238D01*
X161801262Y-103033397D01*
X161787163Y-103093096D01*
X161772717Y-103154273D01*
X161757938Y-103216867D01*
X161742840Y-103280816D01*
X161727438Y-103346060D01*
X161711746Y-103412536D01*
X161695779Y-103480184D01*
X161679550Y-103548944D01*
X161663075Y-103618752D01*
X161646368Y-103689549D01*
X161629444Y-103761273D01*
X161612316Y-103833862D01*
X161595000Y-103907256D01*
X161577510Y-103981394D01*
X161570703Y-104010250D01*
X161553279Y-104084108D01*
X161536036Y-104157200D01*
X161518989Y-104229463D01*
X161502151Y-104300838D01*
X161485537Y-104371263D01*
X161469161Y-104440677D01*
X161453039Y-104509017D01*
X161437184Y-104576224D01*
X161421611Y-104642236D01*
X161406335Y-104706991D01*
X161391369Y-104770429D01*
X161376728Y-104832488D01*
X161362428Y-104893108D01*
X161348481Y-104952225D01*
X161334903Y-105009781D01*
X161321707Y-105065713D01*
X161308910Y-105119959D01*
X161296524Y-105172460D01*
X161284565Y-105223153D01*
X161273046Y-105271978D01*
X161261983Y-105318872D01*
X161251389Y-105363776D01*
X161241279Y-105406627D01*
X161231668Y-105447365D01*
X161222571Y-105485928D01*
X161214000Y-105522254D01*
X161205972Y-105556284D01*
X161198499Y-105587955D01*
X161191598Y-105617206D01*
X161185282Y-105643977D01*
X161179566Y-105668205D01*
X161174463Y-105689830D01*
X161169990Y-105708790D01*
X161166159Y-105725024D01*
X161162986Y-105738471D01*
X161160485Y-105749070D01*
X161158670Y-105756760D01*
X161157556Y-105761478D01*
X161157158Y-105763164D01*
X161156293Y-105766744D01*
X160878779Y-105766343D01*
X160601265Y-105765941D01*
X160181310Y-103986161D01*
X160174240Y-103956198D01*
X160156805Y-103882311D01*
X160139550Y-103809188D01*
X160122489Y-103736893D01*
X160105637Y-103665485D01*
X160089008Y-103595027D01*
X160072618Y-103525579D01*
X160056479Y-103457203D01*
X160040607Y-103389960D01*
X160025017Y-103323911D01*
X160009722Y-103259117D01*
X159994737Y-103195641D01*
X159980077Y-103133542D01*
X159965755Y-103072883D01*
X159951788Y-103013724D01*
X159938188Y-102956127D01*
X159924971Y-102900153D01*
X159912151Y-102845864D01*
X159899742Y-102793320D01*
X159887759Y-102742582D01*
X159876217Y-102693713D01*
X159865129Y-102646774D01*
X159854511Y-102601825D01*
X159844376Y-102558927D01*
X159834739Y-102518143D01*
X159825616Y-102479534D01*
X159817019Y-102443160D01*
X159808964Y-102409082D01*
X159801465Y-102377364D01*
X159794537Y-102348064D01*
X159788194Y-102321245D01*
X159782450Y-102296968D01*
X159777320Y-102275295D01*
X159772819Y-102256285D01*
X159768960Y-102240002D01*
X159765759Y-102226505D01*
X159763230Y-102215857D01*
X159761387Y-102208118D01*
X159760245Y-102203350D01*
X159759819Y-102201614D01*
X159759767Y-102202032D01*
X159759683Y-102205263D01*
X159759601Y-102211645D01*
X159759521Y-102221163D01*
X159759444Y-102233801D01*
X159759368Y-102249540D01*
X159759294Y-102268366D01*
X159759222Y-102290262D01*
X159759153Y-102315211D01*
X159759085Y-102343196D01*
X159759019Y-102374203D01*
X159758956Y-102408213D01*
X159758895Y-102445211D01*
X159758836Y-102485180D01*
X159758779Y-102528104D01*
X159758724Y-102573966D01*
X159758672Y-102622750D01*
X159758621Y-102674439D01*
X159758573Y-102729018D01*
X159758527Y-102786469D01*
X159758484Y-102846777D01*
X159758442Y-102909924D01*
X159758403Y-102975895D01*
X159758367Y-103044673D01*
X159758332Y-103116241D01*
X159758300Y-103190584D01*
X159758270Y-103267684D01*
X159758243Y-103347525D01*
X159758218Y-103430091D01*
X159758196Y-103515366D01*
X159758175Y-103603333D01*
X159758158Y-103693975D01*
X159758143Y-103787276D01*
X159758130Y-103883221D01*
X159758119Y-103981791D01*
X159757957Y-105766735D01*
X159493374Y-105766735D01*
X159228790Y-105766735D01*
X159228790Y-103717605D01*
X159228790Y-101668475D01*
X159689519Y-101668475D01*
X159733066Y-101668475D01*
X159775485Y-101668477D01*
X159814935Y-101668482D01*
X159851525Y-101668490D01*
X159885363Y-101668501D01*
X159916555Y-101668517D01*
X159945210Y-101668537D01*
X159971434Y-101668563D01*
X159995336Y-101668596D01*
X160017022Y-101668635D01*
X160036601Y-101668681D01*
X160054179Y-101668736D01*
X160069864Y-101668800D01*
X160083764Y-101668873D01*
X160095985Y-101668957D01*
X160106637Y-101669051D01*
X160115825Y-101669156D01*
X160123658Y-101669274D01*
X160130243Y-101669404D01*
X160135687Y-101669548D01*
X160140099Y-101669705D01*
X160143584Y-101669878D01*
X160146252Y-101670065D01*
X160148209Y-101670269D01*
X160149563Y-101670489D01*
X160150421Y-101670726D01*
X160150891Y-101670982D01*
X160151081Y-101671255D01*
X160151216Y-101671837D01*
X160151990Y-101675255D01*
X160153436Y-101681673D01*
X160155539Y-101691026D01*
X160158284Y-101703251D01*
X160161657Y-101718283D01*
X160165645Y-101736058D01*
X160170231Y-101756511D01*
X160175403Y-101779578D01*
X160181146Y-101805196D01*
X160187444Y-101833298D01*
X160194284Y-101863822D01*
X160201652Y-101896702D01*
X160209533Y-101931875D01*
X160217912Y-101969276D01*
X160226775Y-102008841D01*
X160236108Y-102050505D01*
X160245897Y-102094205D01*
X160256126Y-102139875D01*
X160266782Y-102187451D01*
X160277850Y-102236870D01*
X160289316Y-102288067D01*
X160301164Y-102340977D01*
X160313382Y-102395536D01*
X160325954Y-102451680D01*
X160338867Y-102509344D01*
X160352105Y-102568465D01*
X160365654Y-102628977D01*
X160379500Y-102690817D01*
X160393628Y-102753920D01*
X160408025Y-102818221D01*
X160422675Y-102883658D01*
X160437564Y-102950164D01*
X160452678Y-103017676D01*
X160468003Y-103086130D01*
X160483523Y-103155461D01*
X160499225Y-103225604D01*
X160515094Y-103296496D01*
X160524225Y-103337289D01*
X160540002Y-103407762D01*
X160555604Y-103477451D01*
X160571017Y-103546290D01*
X160586228Y-103614217D01*
X160601220Y-103681165D01*
X160615980Y-103747071D01*
X160630494Y-103811871D01*
X160644747Y-103875499D01*
X160658724Y-103937893D01*
X160672411Y-103998987D01*
X160685794Y-104058717D01*
X160698859Y-104117019D01*
X160711590Y-104173828D01*
X160723974Y-104229080D01*
X160735996Y-104282711D01*
X160747641Y-104334656D01*
X160758895Y-104384851D01*
X160769744Y-104433231D01*
X160780173Y-104479733D01*
X160790169Y-104524292D01*
X160799715Y-104566843D01*
X160808798Y-104607323D01*
X160817404Y-104645666D01*
X160825518Y-104681809D01*
X160833126Y-104715686D01*
X160840213Y-104747235D01*
X160846765Y-104776390D01*
X160852767Y-104803087D01*
X160858205Y-104827262D01*
X160863065Y-104848850D01*
X160867331Y-104867787D01*
X160870990Y-104884009D01*
X160874028Y-104897451D01*
X160876429Y-104908049D01*
X160878179Y-104915738D01*
X160879265Y-104920455D01*
X160879671Y-104922134D01*
X160880620Y-104923812D01*
X160881353Y-104923181D01*
X160882171Y-104919751D01*
X160882308Y-104919119D01*
X160883085Y-104915610D01*
X160884531Y-104909100D01*
X160886632Y-104899653D01*
X160889373Y-104887334D01*
X160892741Y-104872208D01*
X160896721Y-104854339D01*
X160901298Y-104833791D01*
X160906459Y-104810629D01*
X160912188Y-104784918D01*
X160918471Y-104756721D01*
X160925294Y-104726104D01*
X160932643Y-104693131D01*
X160940503Y-104657867D01*
X160948860Y-104620375D01*
X160957700Y-104580720D01*
X160967007Y-104538968D01*
X160976768Y-104495182D01*
X160986969Y-104449427D01*
X160997594Y-104401767D01*
X161008630Y-104352267D01*
X161020062Y-104300992D01*
X161031876Y-104248005D01*
X161044057Y-104193372D01*
X161056592Y-104137157D01*
X161069465Y-104079424D01*
X161082662Y-104020238D01*
X161096169Y-103959663D01*
X161109972Y-103897764D01*
X161124056Y-103834606D01*
X161138406Y-103770252D01*
X161153009Y-103704768D01*
X161167850Y-103638217D01*
X161182915Y-103570665D01*
X161198189Y-103502175D01*
X161213658Y-103432813D01*
X161229307Y-103362643D01*
X161245122Y-103291729D01*
X161606971Y-101669269D01*
X162067355Y-101668869D01*
X162527739Y-101668469D01*
X162527739Y-103717602D01*
G37*
G36*
X158466028Y-103717602D02*
G01*
X158466028Y-105766735D01*
X158202239Y-105766735D01*
X157938450Y-105766735D01*
X157938343Y-103981791D01*
X157938343Y-103980481D01*
X157938336Y-103889954D01*
X157938326Y-103801375D01*
X157938315Y-103714781D01*
X157938301Y-103630205D01*
X157938284Y-103547683D01*
X157938265Y-103467251D01*
X157938244Y-103388943D01*
X157938221Y-103312795D01*
X157938195Y-103238842D01*
X157938167Y-103167118D01*
X157938137Y-103097659D01*
X157938104Y-103030500D01*
X157938070Y-102965676D01*
X157938033Y-102903223D01*
X157937995Y-102843175D01*
X157937954Y-102785567D01*
X157937911Y-102730436D01*
X157937867Y-102677814D01*
X157937820Y-102627739D01*
X157937772Y-102580245D01*
X157937721Y-102535367D01*
X157937669Y-102493141D01*
X157937615Y-102453601D01*
X157937559Y-102416782D01*
X157937502Y-102382720D01*
X157937442Y-102351450D01*
X157937381Y-102323007D01*
X157937319Y-102297426D01*
X157937254Y-102274742D01*
X157937188Y-102254990D01*
X157937121Y-102238206D01*
X157937052Y-102224424D01*
X157936981Y-102213680D01*
X157936909Y-102206008D01*
X157936836Y-102201445D01*
X157936761Y-102200025D01*
X157936682Y-102200310D01*
X157935978Y-102203165D01*
X157934565Y-102209029D01*
X157932457Y-102217840D01*
X157929669Y-102229536D01*
X157926214Y-102244058D01*
X157922108Y-102261343D01*
X157917365Y-102281330D01*
X157912000Y-102303958D01*
X157906026Y-102329166D01*
X157899459Y-102356893D01*
X157892313Y-102387077D01*
X157884601Y-102419657D01*
X157876340Y-102454572D01*
X157867543Y-102491761D01*
X157858224Y-102531162D01*
X157848399Y-102572715D01*
X157838081Y-102616357D01*
X157827286Y-102662029D01*
X157816027Y-102709668D01*
X157804319Y-102759214D01*
X157792176Y-102810605D01*
X157779613Y-102863780D01*
X157766645Y-102918678D01*
X157753286Y-102975238D01*
X157739550Y-103033397D01*
X157725452Y-103093096D01*
X157711006Y-103154273D01*
X157696227Y-103216867D01*
X157681129Y-103280816D01*
X157665726Y-103346060D01*
X157650034Y-103412536D01*
X157634067Y-103480184D01*
X157617838Y-103548944D01*
X157601364Y-103618752D01*
X157584657Y-103689549D01*
X157567732Y-103761273D01*
X157550605Y-103833862D01*
X157533289Y-103907256D01*
X157515799Y-103981394D01*
X157508991Y-104010250D01*
X157491567Y-104084108D01*
X157474325Y-104157200D01*
X157457277Y-104229463D01*
X157440439Y-104300838D01*
X157423825Y-104371263D01*
X157407450Y-104440677D01*
X157391327Y-104509017D01*
X157375473Y-104576224D01*
X157359900Y-104642236D01*
X157344623Y-104706991D01*
X157329657Y-104770429D01*
X157315017Y-104832488D01*
X157300716Y-104893108D01*
X157286769Y-104952225D01*
X157273191Y-105009781D01*
X157259996Y-105065713D01*
X157247198Y-105119959D01*
X157234812Y-105172460D01*
X157222853Y-105223153D01*
X157211334Y-105271978D01*
X157200271Y-105318872D01*
X157189677Y-105363776D01*
X157179568Y-105406627D01*
X157169957Y-105447365D01*
X157160859Y-105485928D01*
X157152288Y-105522254D01*
X157144260Y-105556284D01*
X157136788Y-105587955D01*
X157129886Y-105617206D01*
X157123570Y-105643977D01*
X157117854Y-105668205D01*
X157112752Y-105689830D01*
X157108278Y-105708790D01*
X157104448Y-105725024D01*
X157101274Y-105738471D01*
X157098773Y-105749070D01*
X157096958Y-105756760D01*
X157095845Y-105761478D01*
X157095446Y-105763164D01*
X157094581Y-105766744D01*
X156817067Y-105766343D01*
X156539553Y-105765941D01*
X156119598Y-103986161D01*
X156112528Y-103956198D01*
X156095093Y-103882311D01*
X156077838Y-103809188D01*
X156060777Y-103736893D01*
X156043925Y-103665485D01*
X156027297Y-103595027D01*
X156010906Y-103525579D01*
X155994767Y-103457203D01*
X155978896Y-103389960D01*
X155963305Y-103323911D01*
X155948010Y-103259117D01*
X155933025Y-103195641D01*
X155918365Y-103133542D01*
X155904044Y-103072883D01*
X155890076Y-103013724D01*
X155876476Y-102956127D01*
X155863259Y-102900153D01*
X155850439Y-102845864D01*
X155838030Y-102793320D01*
X155826047Y-102742582D01*
X155814505Y-102693713D01*
X155803417Y-102646774D01*
X155792799Y-102601825D01*
X155782664Y-102558927D01*
X155773028Y-102518143D01*
X155763904Y-102479534D01*
X155755307Y-102443160D01*
X155747252Y-102409082D01*
X155739754Y-102377364D01*
X155732825Y-102348064D01*
X155726482Y-102321245D01*
X155720738Y-102296968D01*
X155715609Y-102275295D01*
X155711107Y-102256285D01*
X155707249Y-102240002D01*
X155704048Y-102226505D01*
X155701519Y-102215857D01*
X155699676Y-102208118D01*
X155698534Y-102203350D01*
X155698107Y-102201614D01*
X155698055Y-102202032D01*
X155697971Y-102205263D01*
X155697890Y-102211645D01*
X155697810Y-102221163D01*
X155697732Y-102233801D01*
X155697656Y-102249540D01*
X155697582Y-102268366D01*
X155697510Y-102290262D01*
X155697441Y-102315211D01*
X155697373Y-102343196D01*
X155697308Y-102374203D01*
X155697244Y-102408213D01*
X155697183Y-102445211D01*
X155697124Y-102485180D01*
X155697067Y-102528104D01*
X155697012Y-102573966D01*
X155696960Y-102622750D01*
X155696910Y-102674439D01*
X155696861Y-102729018D01*
X155696816Y-102786469D01*
X155696772Y-102846777D01*
X155696731Y-102909924D01*
X155696692Y-102975895D01*
X155696655Y-103044673D01*
X155696621Y-103116241D01*
X155696588Y-103190584D01*
X155696559Y-103267684D01*
X155696531Y-103347525D01*
X155696506Y-103430091D01*
X155696484Y-103515366D01*
X155696464Y-103603333D01*
X155696446Y-103693975D01*
X155696431Y-103787276D01*
X155696418Y-103883221D01*
X155696408Y-103981791D01*
X155696245Y-105766735D01*
X155431662Y-105766735D01*
X155167079Y-105766735D01*
X155167079Y-103717605D01*
X155167079Y-101668475D01*
X155627808Y-101668475D01*
X155671355Y-101668475D01*
X155713773Y-101668477D01*
X155753223Y-101668482D01*
X155789814Y-101668490D01*
X155823651Y-101668501D01*
X155854844Y-101668517D01*
X155883498Y-101668537D01*
X155909723Y-101668563D01*
X155933624Y-101668596D01*
X155955311Y-101668635D01*
X155974889Y-101668681D01*
X155992467Y-101668736D01*
X156008152Y-101668800D01*
X156022052Y-101668873D01*
X156034274Y-101668957D01*
X156044925Y-101669051D01*
X156054113Y-101669156D01*
X156061946Y-101669274D01*
X156068531Y-101669404D01*
X156073976Y-101669548D01*
X156078387Y-101669705D01*
X156081873Y-101669878D01*
X156084540Y-101670065D01*
X156086497Y-101670269D01*
X156087851Y-101670489D01*
X156088710Y-101670726D01*
X156089180Y-101670982D01*
X156089369Y-101671255D01*
X156089504Y-101671837D01*
X156090279Y-101675255D01*
X156091724Y-101681673D01*
X156093827Y-101691026D01*
X156096572Y-101703251D01*
X156099946Y-101718283D01*
X156103933Y-101736058D01*
X156108520Y-101756511D01*
X156113691Y-101779578D01*
X156119434Y-101805196D01*
X156125732Y-101833298D01*
X156132573Y-101863822D01*
X156139940Y-101896702D01*
X156147821Y-101931875D01*
X156156200Y-101969276D01*
X156165064Y-102008841D01*
X156174397Y-102050505D01*
X156184185Y-102094205D01*
X156194414Y-102139875D01*
X156205070Y-102187451D01*
X156216138Y-102236870D01*
X156227604Y-102288067D01*
X156239453Y-102340977D01*
X156251670Y-102395536D01*
X156264243Y-102451680D01*
X156277155Y-102509344D01*
X156290393Y-102568465D01*
X156303942Y-102628977D01*
X156317788Y-102690817D01*
X156331917Y-102753920D01*
X156346313Y-102818221D01*
X156360963Y-102883658D01*
X156375852Y-102950164D01*
X156390966Y-103017676D01*
X156406291Y-103086130D01*
X156421811Y-103155461D01*
X156437513Y-103225604D01*
X156453382Y-103296496D01*
X156462514Y-103337289D01*
X156478290Y-103407762D01*
X156493892Y-103477451D01*
X156509306Y-103546290D01*
X156524516Y-103614217D01*
X156539508Y-103681165D01*
X156554268Y-103747071D01*
X156568782Y-103811871D01*
X156583035Y-103875499D01*
X156597012Y-103937893D01*
X156610700Y-103998987D01*
X156624083Y-104058717D01*
X156637147Y-104117019D01*
X156649878Y-104173828D01*
X156662262Y-104229080D01*
X156674284Y-104282711D01*
X156685929Y-104334656D01*
X156697183Y-104384851D01*
X156708032Y-104433231D01*
X156718462Y-104479733D01*
X156728457Y-104524292D01*
X156738003Y-104566843D01*
X156747087Y-104607323D01*
X156755693Y-104645666D01*
X156763807Y-104681809D01*
X156771414Y-104715686D01*
X156778501Y-104747235D01*
X156785053Y-104776390D01*
X156791055Y-104803087D01*
X156796493Y-104827262D01*
X156801353Y-104848850D01*
X156805619Y-104867787D01*
X156809279Y-104884009D01*
X156812316Y-104897451D01*
X156814717Y-104908049D01*
X156816468Y-104915738D01*
X156817553Y-104920455D01*
X156817959Y-104922134D01*
X156818908Y-104923812D01*
X156819641Y-104923181D01*
X156820459Y-104919751D01*
X156820596Y-104919119D01*
X156821373Y-104915610D01*
X156822819Y-104909100D01*
X156824920Y-104899653D01*
X156827662Y-104887334D01*
X156831030Y-104872208D01*
X156835009Y-104854339D01*
X156839587Y-104833791D01*
X156844747Y-104810629D01*
X156850476Y-104784918D01*
X156856759Y-104756721D01*
X156863583Y-104726104D01*
X156870932Y-104693131D01*
X156878792Y-104657867D01*
X156887149Y-104620375D01*
X156895988Y-104580720D01*
X156905295Y-104538968D01*
X156915056Y-104495182D01*
X156925257Y-104449427D01*
X156935882Y-104401767D01*
X156946918Y-104352267D01*
X156958350Y-104300992D01*
X156970164Y-104248005D01*
X156982345Y-104193372D01*
X156994880Y-104137157D01*
X157007753Y-104079424D01*
X157020950Y-104020238D01*
X157034457Y-103959663D01*
X157048260Y-103897764D01*
X157062344Y-103834606D01*
X157076695Y-103770252D01*
X157091298Y-103704768D01*
X157106139Y-103638217D01*
X157121203Y-103570665D01*
X157136477Y-103502175D01*
X157151946Y-103432813D01*
X157167595Y-103362643D01*
X157183411Y-103291729D01*
X157545259Y-101669269D01*
X158005643Y-101668869D01*
X158466028Y-101668469D01*
X158466028Y-103717602D01*
G37*
G36*
X154402727Y-103717605D02*
G01*
X154402727Y-105766735D01*
X154121458Y-105766735D01*
X153840189Y-105766735D01*
X153840189Y-104837118D01*
X153840189Y-103907501D01*
X153624471Y-103907509D01*
X153622499Y-103907509D01*
X153594951Y-103907524D01*
X153568113Y-103907561D01*
X153542189Y-103907620D01*
X153517387Y-103907699D01*
X153493912Y-103907797D01*
X153471969Y-103907912D01*
X153451765Y-103908043D01*
X153433504Y-103908190D01*
X153417393Y-103908349D01*
X153403637Y-103908521D01*
X153392442Y-103908704D01*
X153384015Y-103908896D01*
X153378559Y-103909096D01*
X153366262Y-103909796D01*
X153330442Y-103912481D01*
X153295426Y-103916057D01*
X153261547Y-103920466D01*
X153229140Y-103925653D01*
X153198537Y-103931560D01*
X153170074Y-103938129D01*
X153144082Y-103945305D01*
X153120897Y-103953030D01*
X153115759Y-103954969D01*
X153091065Y-103965505D01*
X153066308Y-103977962D01*
X153042298Y-103991876D01*
X153019845Y-104006784D01*
X152999760Y-104022224D01*
X152984215Y-104035893D01*
X152959118Y-104061255D01*
X152935929Y-104089102D01*
X152914643Y-104119443D01*
X152895256Y-104152289D01*
X152877762Y-104187649D01*
X152862158Y-104225533D01*
X152848439Y-104265951D01*
X152836600Y-104308912D01*
X152826637Y-104354426D01*
X152818544Y-104402502D01*
X152817528Y-104409667D01*
X152816564Y-104416886D01*
X152815657Y-104424224D01*
X152814792Y-104431886D01*
X152813955Y-104440075D01*
X152813133Y-104448995D01*
X152812310Y-104458849D01*
X152811472Y-104469841D01*
X152810606Y-104482175D01*
X152809696Y-104496054D01*
X152808729Y-104511682D01*
X152807691Y-104529262D01*
X152806566Y-104548999D01*
X152805341Y-104571095D01*
X152804001Y-104595755D01*
X152802532Y-104623181D01*
X152800920Y-104653578D01*
X152800616Y-104659341D01*
X152799203Y-104685960D01*
X152797644Y-104715190D01*
X152795963Y-104746576D01*
X152794186Y-104779662D01*
X152792336Y-104813992D01*
X152790439Y-104849110D01*
X152788519Y-104884561D01*
X152786601Y-104919889D01*
X152784709Y-104954637D01*
X152782868Y-104988351D01*
X152781103Y-105020574D01*
X152779438Y-105050851D01*
X152778429Y-105069181D01*
X152776358Y-105106763D01*
X152774435Y-105141464D01*
X152772636Y-105173483D01*
X152770937Y-105203020D01*
X152769317Y-105230274D01*
X152767751Y-105255446D01*
X152766215Y-105278734D01*
X152764688Y-105300338D01*
X152763144Y-105320458D01*
X152761561Y-105339294D01*
X152759916Y-105357045D01*
X152758186Y-105373911D01*
X152756346Y-105390092D01*
X152754374Y-105405786D01*
X152752246Y-105421194D01*
X152749939Y-105436516D01*
X152747430Y-105451950D01*
X152744695Y-105467697D01*
X152741711Y-105483957D01*
X152738455Y-105500928D01*
X152734903Y-105518810D01*
X152731032Y-105537804D01*
X152726819Y-105558108D01*
X152722240Y-105579923D01*
X152717272Y-105603448D01*
X152711892Y-105628882D01*
X152682742Y-105766735D01*
X152389850Y-105766735D01*
X152368458Y-105766733D01*
X152333519Y-105766715D01*
X152300622Y-105766683D01*
X152269854Y-105766635D01*
X152241304Y-105766573D01*
X152215058Y-105766497D01*
X152191204Y-105766407D01*
X152169829Y-105766305D01*
X152151020Y-105766189D01*
X152134865Y-105766061D01*
X152121452Y-105765921D01*
X152110867Y-105765770D01*
X152103198Y-105765608D01*
X152098533Y-105765435D01*
X152096959Y-105765253D01*
X152097246Y-105763963D01*
X152098318Y-105759901D01*
X152100088Y-105753441D01*
X152102456Y-105744943D01*
X152105322Y-105734768D01*
X152108584Y-105723275D01*
X152112142Y-105710826D01*
X152122537Y-105674022D01*
X152132861Y-105636207D01*
X152142284Y-105600296D01*
X152150754Y-105566500D01*
X152158218Y-105535029D01*
X152164623Y-105506093D01*
X152169917Y-105479905D01*
X152170049Y-105479214D01*
X152177503Y-105439124D01*
X152184108Y-105401377D01*
X152189963Y-105365290D01*
X152195162Y-105330182D01*
X152199801Y-105295373D01*
X152203976Y-105260181D01*
X152207784Y-105223925D01*
X152211320Y-105185923D01*
X152211610Y-105182607D01*
X152212630Y-105170839D01*
X152213593Y-105159465D01*
X152214510Y-105148313D01*
X152215390Y-105137216D01*
X152216244Y-105126001D01*
X152217080Y-105114500D01*
X152217908Y-105102543D01*
X152218738Y-105089960D01*
X152219580Y-105076581D01*
X152220443Y-105062235D01*
X152221337Y-105046754D01*
X152222272Y-105029967D01*
X152223257Y-105011704D01*
X152224302Y-104991795D01*
X152225417Y-104970071D01*
X152226611Y-104946362D01*
X152227895Y-104920497D01*
X152229277Y-104892307D01*
X152230768Y-104861622D01*
X152232377Y-104828272D01*
X152234113Y-104792087D01*
X152235987Y-104752896D01*
X152236912Y-104733537D01*
X152238682Y-104696553D01*
X152240315Y-104662520D01*
X152241819Y-104631289D01*
X152243201Y-104602711D01*
X152244470Y-104576635D01*
X152245633Y-104552914D01*
X152246698Y-104531396D01*
X152247673Y-104511934D01*
X152248566Y-104494376D01*
X152249384Y-104478574D01*
X152250135Y-104464378D01*
X152250827Y-104451639D01*
X152251467Y-104440207D01*
X152252065Y-104429933D01*
X152252626Y-104420667D01*
X152253159Y-104412259D01*
X152253672Y-104404561D01*
X152254173Y-104397423D01*
X152254669Y-104390695D01*
X152255168Y-104384228D01*
X152257335Y-104358213D01*
X152260559Y-104323729D01*
X152264120Y-104289879D01*
X152267973Y-104256982D01*
X152272073Y-104225354D01*
X152276378Y-104195314D01*
X152280843Y-104167181D01*
X152285424Y-104141272D01*
X152290078Y-104117904D01*
X152294761Y-104097397D01*
X152296995Y-104088587D01*
X152308679Y-104048891D01*
X152322449Y-104011532D01*
X152338355Y-103976420D01*
X152356444Y-103943466D01*
X152376766Y-103912578D01*
X152399368Y-103883666D01*
X152424301Y-103856640D01*
X152442965Y-103839049D01*
X152469859Y-103816905D01*
X152498315Y-103796837D01*
X152527804Y-103779214D01*
X152557795Y-103764403D01*
X152566838Y-103760492D01*
X152592434Y-103750295D01*
X152619567Y-103740733D01*
X152648421Y-103731766D01*
X152679175Y-103723351D01*
X152712011Y-103715448D01*
X152747110Y-103708013D01*
X152784652Y-103701005D01*
X152824819Y-103694382D01*
X152867791Y-103688102D01*
X152913750Y-103682124D01*
X152924080Y-103680854D01*
X152915340Y-103679068D01*
X152913358Y-103678668D01*
X152907770Y-103677557D01*
X152899951Y-103676015D01*
X152890465Y-103674153D01*
X152879879Y-103672081D01*
X152868757Y-103669912D01*
X152858991Y-103667983D01*
X152801678Y-103655549D01*
X152746795Y-103641686D01*
X152694402Y-103626419D01*
X152644561Y-103609770D01*
X152597336Y-103591763D01*
X152552788Y-103572422D01*
X152510979Y-103551770D01*
X152471972Y-103529831D01*
X152435829Y-103506627D01*
X152414039Y-103490875D01*
X152386381Y-103468496D01*
X152360345Y-103444670D01*
X152336320Y-103419781D01*
X152314695Y-103394212D01*
X152295858Y-103368348D01*
X152272864Y-103331469D01*
X152250869Y-103290689D01*
X152230806Y-103247404D01*
X152212676Y-103201626D01*
X152196485Y-103153368D01*
X152182236Y-103102642D01*
X152169932Y-103049461D01*
X152159579Y-102993837D01*
X152151179Y-102935784D01*
X152144737Y-102875315D01*
X152144449Y-102872027D01*
X152140075Y-102810509D01*
X152137598Y-102748879D01*
X152137398Y-102728397D01*
X152701633Y-102728397D01*
X152701709Y-102752589D01*
X152702110Y-102787596D01*
X152702878Y-102820092D01*
X152704041Y-102850473D01*
X152705626Y-102879133D01*
X152707659Y-102906469D01*
X152710167Y-102932874D01*
X152713177Y-102958744D01*
X152716716Y-102984474D01*
X152720811Y-103010460D01*
X152724402Y-103030687D01*
X152731578Y-103064745D01*
X152739821Y-103096268D01*
X152749270Y-103125598D01*
X152760065Y-103153072D01*
X152772343Y-103179031D01*
X152786246Y-103203814D01*
X152801910Y-103227759D01*
X152819477Y-103251207D01*
X152823158Y-103255676D01*
X152831620Y-103265243D01*
X152841521Y-103275761D01*
X152852185Y-103286550D01*
X152862932Y-103296933D01*
X152873086Y-103306231D01*
X152881969Y-103313765D01*
X152891189Y-103320941D01*
X152920852Y-103341507D01*
X152952876Y-103360169D01*
X152987056Y-103376833D01*
X153023188Y-103391406D01*
X153061067Y-103403793D01*
X153100487Y-103413900D01*
X153104605Y-103414809D01*
X153126368Y-103419326D01*
X153148515Y-103423421D01*
X153171446Y-103427148D01*
X153195559Y-103430559D01*
X153221254Y-103433709D01*
X153248929Y-103436651D01*
X153278984Y-103439437D01*
X153311817Y-103442122D01*
X153313311Y-103442223D01*
X153319666Y-103442511D01*
X153328951Y-103442782D01*
X153341189Y-103443036D01*
X153356403Y-103443275D01*
X153374614Y-103443497D01*
X153395845Y-103443703D01*
X153420119Y-103443893D01*
X153447458Y-103444068D01*
X153477886Y-103444227D01*
X153511424Y-103444371D01*
X153548095Y-103444501D01*
X153587922Y-103444616D01*
X153840189Y-103445270D01*
X153840189Y-102788085D01*
X153840189Y-102130899D01*
X153602223Y-102130910D01*
X153577820Y-102130919D01*
X153549819Y-102130949D01*
X153522478Y-102131000D01*
X153496008Y-102131068D01*
X153470617Y-102131154D01*
X153446517Y-102131257D01*
X153423916Y-102131374D01*
X153403025Y-102131506D01*
X153384052Y-102131649D01*
X153367209Y-102131805D01*
X153352705Y-102131970D01*
X153340750Y-102132144D01*
X153331553Y-102132326D01*
X153325325Y-102132515D01*
X153301917Y-102133584D01*
X153250871Y-102136758D01*
X153202785Y-102140968D01*
X153157628Y-102146222D01*
X153115366Y-102152527D01*
X153075967Y-102159891D01*
X153039398Y-102168320D01*
X153005626Y-102177822D01*
X152974619Y-102188404D01*
X152946344Y-102200074D01*
X152920769Y-102212837D01*
X152897860Y-102226703D01*
X152871058Y-102246377D01*
X152845343Y-102269110D01*
X152821690Y-102294238D01*
X152800112Y-102321742D01*
X152780618Y-102351600D01*
X152763221Y-102383791D01*
X152747932Y-102418295D01*
X152734761Y-102455090D01*
X152723719Y-102494157D01*
X152714819Y-102535475D01*
X152708071Y-102579023D01*
X152707989Y-102579669D01*
X152706639Y-102590550D01*
X152705492Y-102600445D01*
X152704533Y-102609731D01*
X152703744Y-102618786D01*
X152703110Y-102627991D01*
X152702615Y-102637723D01*
X152702242Y-102648361D01*
X152701974Y-102660284D01*
X152701795Y-102673871D01*
X152701690Y-102689499D01*
X152701641Y-102707548D01*
X152701633Y-102728397D01*
X152137398Y-102728397D01*
X152136997Y-102687447D01*
X152138251Y-102626524D01*
X152141341Y-102566419D01*
X152146245Y-102507442D01*
X152152943Y-102449903D01*
X152161415Y-102394112D01*
X152171639Y-102340379D01*
X152183596Y-102289014D01*
X152195571Y-102245615D01*
X152211881Y-102195162D01*
X152230149Y-102147149D01*
X152250400Y-102101523D01*
X152272661Y-102058230D01*
X152296959Y-102017214D01*
X152323319Y-101978422D01*
X152351769Y-101941798D01*
X152356475Y-101936302D01*
X152364846Y-101927023D01*
X152374634Y-101916598D01*
X152385277Y-101905597D01*
X152396214Y-101894592D01*
X152406883Y-101884152D01*
X152416721Y-101874849D01*
X152425167Y-101867254D01*
X152425852Y-101866661D01*
X152460477Y-101838830D01*
X152497335Y-101813198D01*
X152536307Y-101789825D01*
X152577277Y-101768773D01*
X152620128Y-101750100D01*
X152664742Y-101733869D01*
X152711001Y-101720138D01*
X152727771Y-101715859D01*
X152762768Y-101707829D01*
X152800114Y-101700348D01*
X152839280Y-101693501D01*
X152879735Y-101687370D01*
X152920949Y-101682040D01*
X152962392Y-101677592D01*
X153003534Y-101674112D01*
X153008473Y-101673757D01*
X153014832Y-101673317D01*
X153021187Y-101672902D01*
X153027637Y-101672511D01*
X153034282Y-101672144D01*
X153041222Y-101671800D01*
X153048555Y-101671479D01*
X153056381Y-101671178D01*
X153064800Y-101670899D01*
X153073911Y-101670639D01*
X153083814Y-101670399D01*
X153094607Y-101670178D01*
X153106391Y-101669974D01*
X153119265Y-101669787D01*
X153133328Y-101669616D01*
X153148679Y-101669461D01*
X153165419Y-101669321D01*
X153183646Y-101669195D01*
X153203461Y-101669082D01*
X153224962Y-101668982D01*
X153248249Y-101668893D01*
X153273421Y-101668816D01*
X153300579Y-101668749D01*
X153329820Y-101668692D01*
X153361245Y-101668643D01*
X153394954Y-101668603D01*
X153431045Y-101668570D01*
X153469618Y-101668544D01*
X153510772Y-101668524D01*
X153554608Y-101668509D01*
X153601224Y-101668498D01*
X153650720Y-101668491D01*
X153703195Y-101668487D01*
X153758749Y-101668485D01*
X154402727Y-101668475D01*
X154402727Y-102130899D01*
X154402727Y-103717605D01*
G37*
G36*
X151447021Y-103717605D02*
G01*
X151447021Y-105766735D01*
X151164958Y-105766735D01*
X150882895Y-105766735D01*
X150882895Y-103717605D01*
X150882895Y-101668475D01*
X151164958Y-101668475D01*
X151447021Y-101668475D01*
X151447021Y-103717605D01*
G37*
G36*
X164219919Y-102368780D02*
G01*
X164223266Y-102372047D01*
X164228683Y-102377387D01*
X164236085Y-102384714D01*
X164245382Y-102393939D01*
X164256488Y-102404974D01*
X164269314Y-102417734D01*
X164283773Y-102432130D01*
X164299777Y-102448074D01*
X164317239Y-102465480D01*
X164336070Y-102484259D01*
X164356183Y-102504326D01*
X164377491Y-102525591D01*
X164399906Y-102547967D01*
X164423339Y-102571368D01*
X164447704Y-102595706D01*
X164472912Y-102620893D01*
X164498876Y-102646842D01*
X164525508Y-102673465D01*
X164552721Y-102700675D01*
X164885714Y-103033677D01*
X164873363Y-103049878D01*
X164870855Y-103053183D01*
X164851225Y-103080104D01*
X164831811Y-103108521D01*
X164812920Y-103137915D01*
X164794856Y-103167769D01*
X164777926Y-103197563D01*
X164762433Y-103226778D01*
X164748685Y-103254897D01*
X164736987Y-103281400D01*
X164733558Y-103289633D01*
X164729529Y-103299224D01*
X164725697Y-103308267D01*
X164722568Y-103315565D01*
X164718338Y-103325771D01*
X164712456Y-103341096D01*
X164706215Y-103358439D01*
X164699810Y-103377194D01*
X164693438Y-103396754D01*
X164687296Y-103416513D01*
X164681579Y-103435867D01*
X164676485Y-103454208D01*
X164672209Y-103470932D01*
X164668642Y-103486085D01*
X164656499Y-103545879D01*
X164647481Y-103605473D01*
X164641591Y-103664820D01*
X164638831Y-103723869D01*
X164639204Y-103782575D01*
X164642712Y-103840888D01*
X164649358Y-103898761D01*
X164651560Y-103913666D01*
X164657813Y-103951180D01*
X164664828Y-103987104D01*
X164672500Y-104020920D01*
X164680722Y-104052108D01*
X164685448Y-104068320D01*
X164703123Y-104123104D01*
X164722891Y-104175831D01*
X164744937Y-104226910D01*
X164769446Y-104276745D01*
X164796600Y-104325744D01*
X164826584Y-104374313D01*
X164826920Y-104374831D01*
X164831356Y-104381628D01*
X164835387Y-104387704D01*
X164839343Y-104393525D01*
X164843554Y-104399559D01*
X164848350Y-104406271D01*
X164854059Y-104414130D01*
X164861012Y-104423601D01*
X164869538Y-104435151D01*
X164885704Y-104457019D01*
X164552515Y-104790078D01*
X164552432Y-104790160D01*
X164525211Y-104817368D01*
X164498573Y-104843988D01*
X164472604Y-104869934D01*
X164447393Y-104895118D01*
X164423027Y-104919453D01*
X164399593Y-104942851D01*
X164377180Y-104965225D01*
X164355875Y-104986488D01*
X164335765Y-105006552D01*
X164316938Y-105025330D01*
X164299483Y-105042735D01*
X164283486Y-105058678D01*
X164269035Y-105073073D01*
X164256217Y-105085833D01*
X164245121Y-105096869D01*
X164235835Y-105106095D01*
X164228444Y-105113423D01*
X164223038Y-105118765D01*
X164219704Y-105122035D01*
X164218530Y-105123145D01*
X164217839Y-105122490D01*
X164214998Y-105119694D01*
X164210018Y-105114759D01*
X164202959Y-105107743D01*
X164193882Y-105098710D01*
X164182848Y-105087718D01*
X164169918Y-105074829D01*
X164155153Y-105060104D01*
X164138613Y-105043603D01*
X164120359Y-105025387D01*
X164100453Y-105005517D01*
X164078955Y-104984054D01*
X164055926Y-104961058D01*
X164031426Y-104936590D01*
X164005517Y-104910712D01*
X163978259Y-104883483D01*
X163949713Y-104854964D01*
X163919941Y-104825217D01*
X163889002Y-104794302D01*
X163856959Y-104762280D01*
X163823870Y-104729212D01*
X163789798Y-104695157D01*
X163754804Y-104660178D01*
X163718947Y-104624335D01*
X163682290Y-104587688D01*
X163644892Y-104550299D01*
X163606815Y-104512228D01*
X163568119Y-104473536D01*
X163528866Y-104434284D01*
X162839997Y-103745414D01*
X163528866Y-103056544D01*
X163558993Y-103026417D01*
X163597826Y-102987588D01*
X163636056Y-102949366D01*
X163673620Y-102911811D01*
X163710460Y-102874985D01*
X163746512Y-102838948D01*
X163781718Y-102803761D01*
X163816016Y-102769484D01*
X163849345Y-102736179D01*
X163881644Y-102703906D01*
X163912852Y-102672727D01*
X163942909Y-102642700D01*
X163971754Y-102613889D01*
X163999326Y-102586353D01*
X164025563Y-102560153D01*
X164050406Y-102535350D01*
X164073793Y-102512004D01*
X164095663Y-102490177D01*
X164115955Y-102469929D01*
X164134610Y-102451321D01*
X164151565Y-102434413D01*
X164166760Y-102419268D01*
X164180134Y-102405944D01*
X164191626Y-102394504D01*
X164201176Y-102385007D01*
X164208722Y-102377515D01*
X164214204Y-102372088D01*
X164217561Y-102368787D01*
X164218731Y-102367674D01*
X164219919Y-102368780D01*
G37*
G36*
X168048117Y-103056376D02*
G01*
X168737105Y-103745309D01*
X168049029Y-104433401D01*
X168019644Y-104462786D01*
X167980816Y-104501607D01*
X167942589Y-104539822D01*
X167905023Y-104577370D01*
X167868178Y-104614191D01*
X167832117Y-104650224D01*
X167796899Y-104685407D01*
X167762586Y-104719681D01*
X167729239Y-104752984D01*
X167696919Y-104785256D01*
X167665686Y-104816435D01*
X167635603Y-104846461D01*
X167606729Y-104875273D01*
X167579126Y-104902810D01*
X167552855Y-104929012D01*
X167527976Y-104953817D01*
X167504552Y-104977165D01*
X167482642Y-104998994D01*
X167462308Y-105019245D01*
X167443610Y-105037856D01*
X167426610Y-105054766D01*
X167411369Y-105069915D01*
X167397948Y-105083242D01*
X167386407Y-105094686D01*
X167376808Y-105104186D01*
X167369212Y-105111681D01*
X167363679Y-105117110D01*
X167360271Y-105120413D01*
X167359048Y-105121529D01*
X167357848Y-105120482D01*
X167354485Y-105117271D01*
X167349051Y-105111983D01*
X167341634Y-105104705D01*
X167332322Y-105095525D01*
X167321203Y-105084531D01*
X167308365Y-105071810D01*
X167293897Y-105057449D01*
X167277886Y-105041538D01*
X167260419Y-105024162D01*
X167241586Y-105005410D01*
X167221475Y-104985369D01*
X167200172Y-104964127D01*
X167177767Y-104941771D01*
X167154347Y-104918390D01*
X167130001Y-104894070D01*
X167104815Y-104868900D01*
X167078880Y-104842966D01*
X167052281Y-104816357D01*
X167025108Y-104789161D01*
X166693074Y-104456756D01*
X166706865Y-104438369D01*
X166722010Y-104417730D01*
X166746569Y-104382252D01*
X166769686Y-104346292D01*
X166791109Y-104310281D01*
X166810585Y-104274650D01*
X166827863Y-104239829D01*
X166842690Y-104206250D01*
X166843128Y-104205190D01*
X166846618Y-104196932D01*
X166850423Y-104188167D01*
X166853795Y-104180624D01*
X166854240Y-104179646D01*
X166857219Y-104172874D01*
X166859910Y-104166417D01*
X166861778Y-104161555D01*
X166862038Y-104160821D01*
X166863961Y-104155537D01*
X166866468Y-104148803D01*
X166869088Y-104141892D01*
X166871133Y-104136368D01*
X166874815Y-104125838D01*
X166878992Y-104113347D01*
X166883455Y-104099565D01*
X166887995Y-104085158D01*
X166892402Y-104070793D01*
X166896468Y-104057138D01*
X166899981Y-104044861D01*
X166902735Y-104034628D01*
X166912451Y-103993917D01*
X166923935Y-103935011D01*
X166932307Y-103876241D01*
X166937584Y-103817398D01*
X166939783Y-103758273D01*
X166938922Y-103698657D01*
X166935016Y-103638342D01*
X166935004Y-103638203D01*
X166932176Y-103611690D01*
X166928330Y-103583424D01*
X166923604Y-103554110D01*
X166918136Y-103524453D01*
X166912063Y-103495156D01*
X166905524Y-103466924D01*
X166898655Y-103440462D01*
X166891596Y-103416473D01*
X166889073Y-103408480D01*
X166886141Y-103399183D01*
X166883437Y-103390603D01*
X166881325Y-103383896D01*
X166878579Y-103375427D01*
X166874066Y-103362263D01*
X166869084Y-103348431D01*
X166863913Y-103334671D01*
X166858834Y-103321725D01*
X166854127Y-103310334D01*
X166850072Y-103301241D01*
X166849830Y-103300726D01*
X166846901Y-103294205D01*
X166843583Y-103286437D01*
X166840549Y-103278994D01*
X166838354Y-103273775D01*
X166834966Y-103266208D01*
X166830791Y-103257197D01*
X166826160Y-103247457D01*
X166821404Y-103237700D01*
X166817991Y-103230844D01*
X166793651Y-103184795D01*
X166767777Y-103140776D01*
X166739836Y-103097922D01*
X166709299Y-103055370D01*
X166692928Y-103033538D01*
X167026028Y-102700491D01*
X167359129Y-102367443D01*
X168048117Y-103056376D01*
G37*
G36*
X166477763Y-101486145D02*
G01*
X167167085Y-102175430D01*
X166834171Y-102508094D01*
X166807141Y-102535103D01*
X166780509Y-102561713D01*
X166754548Y-102587650D01*
X166729346Y-102612828D01*
X166704990Y-102637159D01*
X166681568Y-102660555D01*
X166659168Y-102682930D01*
X166637877Y-102704194D01*
X166617782Y-102724262D01*
X166598972Y-102743045D01*
X166581534Y-102760457D01*
X166565555Y-102776409D01*
X166551124Y-102790814D01*
X166538327Y-102803585D01*
X166527253Y-102814634D01*
X166517989Y-102823874D01*
X166510622Y-102831217D01*
X166505240Y-102836575D01*
X166501931Y-102839862D01*
X166500783Y-102840990D01*
X166500771Y-102840993D01*
X166499296Y-102840104D01*
X166495822Y-102837666D01*
X166490852Y-102834039D01*
X166484892Y-102829585D01*
X166451947Y-102805521D01*
X166411409Y-102778042D01*
X166370713Y-102752744D01*
X166330188Y-102729820D01*
X166290166Y-102709464D01*
X166250975Y-102691872D01*
X166244042Y-102688954D01*
X166235847Y-102685456D01*
X166228548Y-102682290D01*
X166223166Y-102679896D01*
X166217612Y-102677454D01*
X166204964Y-102672324D01*
X166190033Y-102666708D01*
X166173344Y-102660778D01*
X166155427Y-102654706D01*
X166136807Y-102648666D01*
X166118011Y-102642830D01*
X166099568Y-102637372D01*
X166082004Y-102632465D01*
X166065846Y-102628281D01*
X166039291Y-102622048D01*
X165980231Y-102610429D01*
X165921222Y-102601943D01*
X165862083Y-102596574D01*
X165802636Y-102594311D01*
X165742703Y-102595139D01*
X165682104Y-102599044D01*
X165673953Y-102599816D01*
X165643650Y-102603370D01*
X165611771Y-102608082D01*
X165579108Y-102613796D01*
X165546451Y-102620356D01*
X165514592Y-102627606D01*
X165484322Y-102635390D01*
X165456431Y-102643552D01*
X165442617Y-102647912D01*
X165426850Y-102652985D01*
X165412922Y-102657619D01*
X165400157Y-102662063D01*
X165387879Y-102666567D01*
X165375410Y-102671381D01*
X165362075Y-102676755D01*
X165347196Y-102682938D01*
X165330098Y-102690180D01*
X165286297Y-102710122D01*
X165237766Y-102735198D01*
X165189529Y-102763254D01*
X165141765Y-102794187D01*
X165094651Y-102827893D01*
X165076909Y-102841204D01*
X164744681Y-102508696D01*
X164718039Y-102482029D01*
X164691442Y-102455402D01*
X164665517Y-102429443D01*
X164640353Y-102404239D01*
X164616036Y-102379880D01*
X164592654Y-102356452D01*
X164570294Y-102334043D01*
X164549044Y-102312740D01*
X164528992Y-102292633D01*
X164510224Y-102273808D01*
X164492829Y-102256353D01*
X164476894Y-102240356D01*
X164462505Y-102225904D01*
X164449752Y-102213086D01*
X164438720Y-102201990D01*
X164429499Y-102192702D01*
X164422174Y-102185310D01*
X164416834Y-102179904D01*
X164413566Y-102176569D01*
X164412457Y-102175394D01*
X164413097Y-102174719D01*
X164415872Y-102171896D01*
X164420786Y-102166932D01*
X164427778Y-102159888D01*
X164436788Y-102150824D01*
X164447756Y-102139801D01*
X164460619Y-102126880D01*
X164475319Y-102112123D01*
X164491793Y-102095589D01*
X164509982Y-102077340D01*
X164529823Y-102057437D01*
X164551258Y-102035941D01*
X164574224Y-102012912D01*
X164598662Y-101988412D01*
X164624510Y-101962500D01*
X164651707Y-101935240D01*
X164680194Y-101906690D01*
X164709908Y-101876912D01*
X164740790Y-101845968D01*
X164772779Y-101813917D01*
X164805813Y-101780821D01*
X164839833Y-101746740D01*
X164874777Y-101711736D01*
X164910584Y-101675869D01*
X164947195Y-101639201D01*
X164984548Y-101601792D01*
X165022582Y-101563703D01*
X165061236Y-101524995D01*
X165100451Y-101485729D01*
X165788441Y-100796859D01*
X166477763Y-101486145D01*
G37*
%TD*%
M02*
