%TF.GenerationSoftware,KiCad,Pcbnew,7.0.10*%
%TF.CreationDate,2025-02-08T17:23:52-05:00*%
%TF.ProjectId,pcb2,70636232-2e6b-4696-9361-645f70636258,rev?*%
%TF.SameCoordinates,Original*%
%TF.FileFunction,Soldermask,Top*%
%TF.FilePolarity,Negative*%
%FSLAX46Y46*%
G04 Gerber Fmt 4.6, Leading zero omitted, Abs format (unit mm)*
G04 Created by KiCad (PCBNEW 7.0.10) date 2025-02-08 17:23:52*
%MOMM*%
%LPD*%
G01*
G04 APERTURE LIST*
G04 Aperture macros list*
%AMRoundRect*
0 Rectangle with rounded corners*
0 $1 Rounding radius*
0 $2 $3 $4 $5 $6 $7 $8 $9 X,Y pos of 4 corners*
0 Add a 4 corners polygon primitive as box body*
4,1,4,$2,$3,$4,$5,$6,$7,$8,$9,$2,$3,0*
0 Add four circle primitives for the rounded corners*
1,1,$1+$1,$2,$3*
1,1,$1+$1,$4,$5*
1,1,$1+$1,$6,$7*
1,1,$1+$1,$8,$9*
0 Add four rect primitives between the rounded corners*
20,1,$1+$1,$2,$3,$4,$5,0*
20,1,$1+$1,$4,$5,$6,$7,0*
20,1,$1+$1,$6,$7,$8,$9,0*
20,1,$1+$1,$8,$9,$2,$3,0*%
G04 Aperture macros list end*
%ADD10C,0.010000*%
%ADD11C,3.000000*%
%ADD12RoundRect,0.140000X-0.140000X-0.170000X0.140000X-0.170000X0.140000X0.170000X-0.140000X0.170000X0*%
%ADD13RoundRect,0.140000X-0.170000X0.140000X-0.170000X-0.140000X0.170000X-0.140000X0.170000X0.140000X0*%
%ADD14R,1.700000X1.700000*%
%ADD15O,1.700000X1.700000*%
G04 APERTURE END LIST*
%TO.C,U1*%
D10*
X159040500Y-102686000D02*
X159047500Y-102687000D01*
X159053500Y-102688000D01*
X159059500Y-102689000D01*
X159066500Y-102691000D01*
X159072500Y-102693000D01*
X159078500Y-102696000D01*
X159084500Y-102699000D01*
X159090500Y-102702000D01*
X159095500Y-102705000D01*
X159100500Y-102709000D01*
X159106500Y-102713000D01*
X159111500Y-102717000D01*
X159115500Y-102722000D01*
X159120500Y-102726000D01*
X159124500Y-102731000D01*
X159128500Y-102737000D01*
X159132500Y-102742000D01*
X159135500Y-102748000D01*
X159138500Y-102753000D01*
X159141500Y-102759000D01*
X159144500Y-102765000D01*
X159146500Y-102771000D01*
X159148500Y-102778000D01*
X159149500Y-102784000D01*
X159150500Y-102790000D01*
X159151500Y-102797000D01*
X159152500Y-102803000D01*
X159152500Y-102810000D01*
X159152500Y-103010000D01*
X159152500Y-103017000D01*
X159151500Y-103023000D01*
X159150500Y-103030000D01*
X159149500Y-103036000D01*
X159148500Y-103042000D01*
X159146500Y-103049000D01*
X159144500Y-103055000D01*
X159141500Y-103061000D01*
X159138500Y-103067000D01*
X159135500Y-103072000D01*
X159132500Y-103078000D01*
X159128500Y-103083000D01*
X159124500Y-103089000D01*
X159120500Y-103094000D01*
X159115500Y-103098000D01*
X159111500Y-103103000D01*
X159106500Y-103107000D01*
X159100500Y-103111000D01*
X159095500Y-103115000D01*
X159090500Y-103118000D01*
X159084500Y-103121000D01*
X159078500Y-103124000D01*
X159072500Y-103127000D01*
X159066500Y-103129000D01*
X159059500Y-103131000D01*
X159053500Y-103132000D01*
X159047500Y-103133000D01*
X159040500Y-103134000D01*
X159034500Y-103135000D01*
X159027500Y-103135000D01*
X158587500Y-103135000D01*
X158580500Y-103135000D01*
X158574500Y-103134000D01*
X158567500Y-103133000D01*
X158561500Y-103132000D01*
X158555500Y-103131000D01*
X158548500Y-103129000D01*
X158542500Y-103127000D01*
X158536500Y-103124000D01*
X158530500Y-103121000D01*
X158524500Y-103118000D01*
X158519500Y-103115000D01*
X158514500Y-103111000D01*
X158508500Y-103107000D01*
X158503500Y-103103000D01*
X158499500Y-103098000D01*
X158494500Y-103094000D01*
X158490500Y-103089000D01*
X158486500Y-103083000D01*
X158482500Y-103078000D01*
X158479500Y-103072000D01*
X158476500Y-103067000D01*
X158473500Y-103061000D01*
X158470500Y-103055000D01*
X158468500Y-103049000D01*
X158466500Y-103042000D01*
X158465500Y-103036000D01*
X158464500Y-103030000D01*
X158463500Y-103023000D01*
X158462500Y-103017000D01*
X158462500Y-103010000D01*
X158462500Y-102810000D01*
X158462500Y-102803000D01*
X158463500Y-102797000D01*
X158464500Y-102790000D01*
X158465500Y-102784000D01*
X158466500Y-102778000D01*
X158468500Y-102771000D01*
X158470500Y-102765000D01*
X158473500Y-102759000D01*
X158476500Y-102753000D01*
X158479500Y-102748000D01*
X158482500Y-102742000D01*
X158486500Y-102737000D01*
X158490500Y-102731000D01*
X158494500Y-102726000D01*
X158499500Y-102722000D01*
X158503500Y-102717000D01*
X158508500Y-102713000D01*
X158514500Y-102709000D01*
X158519500Y-102705000D01*
X158524500Y-102702000D01*
X158530500Y-102699000D01*
X158536500Y-102696000D01*
X158542500Y-102693000D01*
X158548500Y-102691000D01*
X158555500Y-102689000D01*
X158561500Y-102688000D01*
X158567500Y-102687000D01*
X158574500Y-102686000D01*
X158580500Y-102685000D01*
X158587500Y-102685000D01*
X159027500Y-102685000D01*
X159034500Y-102685000D01*
X159040500Y-102686000D01*
G36*
X159040500Y-102686000D02*
G01*
X159047500Y-102687000D01*
X159053500Y-102688000D01*
X159059500Y-102689000D01*
X159066500Y-102691000D01*
X159072500Y-102693000D01*
X159078500Y-102696000D01*
X159084500Y-102699000D01*
X159090500Y-102702000D01*
X159095500Y-102705000D01*
X159100500Y-102709000D01*
X159106500Y-102713000D01*
X159111500Y-102717000D01*
X159115500Y-102722000D01*
X159120500Y-102726000D01*
X159124500Y-102731000D01*
X159128500Y-102737000D01*
X159132500Y-102742000D01*
X159135500Y-102748000D01*
X159138500Y-102753000D01*
X159141500Y-102759000D01*
X159144500Y-102765000D01*
X159146500Y-102771000D01*
X159148500Y-102778000D01*
X159149500Y-102784000D01*
X159150500Y-102790000D01*
X159151500Y-102797000D01*
X159152500Y-102803000D01*
X159152500Y-102810000D01*
X159152500Y-103010000D01*
X159152500Y-103017000D01*
X159151500Y-103023000D01*
X159150500Y-103030000D01*
X159149500Y-103036000D01*
X159148500Y-103042000D01*
X159146500Y-103049000D01*
X159144500Y-103055000D01*
X159141500Y-103061000D01*
X159138500Y-103067000D01*
X159135500Y-103072000D01*
X159132500Y-103078000D01*
X159128500Y-103083000D01*
X159124500Y-103089000D01*
X159120500Y-103094000D01*
X159115500Y-103098000D01*
X159111500Y-103103000D01*
X159106500Y-103107000D01*
X159100500Y-103111000D01*
X159095500Y-103115000D01*
X159090500Y-103118000D01*
X159084500Y-103121000D01*
X159078500Y-103124000D01*
X159072500Y-103127000D01*
X159066500Y-103129000D01*
X159059500Y-103131000D01*
X159053500Y-103132000D01*
X159047500Y-103133000D01*
X159040500Y-103134000D01*
X159034500Y-103135000D01*
X159027500Y-103135000D01*
X158587500Y-103135000D01*
X158580500Y-103135000D01*
X158574500Y-103134000D01*
X158567500Y-103133000D01*
X158561500Y-103132000D01*
X158555500Y-103131000D01*
X158548500Y-103129000D01*
X158542500Y-103127000D01*
X158536500Y-103124000D01*
X158530500Y-103121000D01*
X158524500Y-103118000D01*
X158519500Y-103115000D01*
X158514500Y-103111000D01*
X158508500Y-103107000D01*
X158503500Y-103103000D01*
X158499500Y-103098000D01*
X158494500Y-103094000D01*
X158490500Y-103089000D01*
X158486500Y-103083000D01*
X158482500Y-103078000D01*
X158479500Y-103072000D01*
X158476500Y-103067000D01*
X158473500Y-103061000D01*
X158470500Y-103055000D01*
X158468500Y-103049000D01*
X158466500Y-103042000D01*
X158465500Y-103036000D01*
X158464500Y-103030000D01*
X158463500Y-103023000D01*
X158462500Y-103017000D01*
X158462500Y-103010000D01*
X158462500Y-102810000D01*
X158462500Y-102803000D01*
X158463500Y-102797000D01*
X158464500Y-102790000D01*
X158465500Y-102784000D01*
X158466500Y-102778000D01*
X158468500Y-102771000D01*
X158470500Y-102765000D01*
X158473500Y-102759000D01*
X158476500Y-102753000D01*
X158479500Y-102748000D01*
X158482500Y-102742000D01*
X158486500Y-102737000D01*
X158490500Y-102731000D01*
X158494500Y-102726000D01*
X158499500Y-102722000D01*
X158503500Y-102717000D01*
X158508500Y-102713000D01*
X158514500Y-102709000D01*
X158519500Y-102705000D01*
X158524500Y-102702000D01*
X158530500Y-102699000D01*
X158536500Y-102696000D01*
X158542500Y-102693000D01*
X158548500Y-102691000D01*
X158555500Y-102689000D01*
X158561500Y-102688000D01*
X158567500Y-102687000D01*
X158574500Y-102686000D01*
X158580500Y-102685000D01*
X158587500Y-102685000D01*
X159027500Y-102685000D01*
X159034500Y-102685000D01*
X159040500Y-102686000D01*
G37*
X159040500Y-103186000D02*
X159047500Y-103187000D01*
X159053500Y-103188000D01*
X159059500Y-103189000D01*
X159066500Y-103191000D01*
X159072500Y-103193000D01*
X159078500Y-103196000D01*
X159084500Y-103199000D01*
X159090500Y-103202000D01*
X159095500Y-103205000D01*
X159100500Y-103209000D01*
X159106500Y-103213000D01*
X159111500Y-103217000D01*
X159115500Y-103222000D01*
X159120500Y-103226000D01*
X159124500Y-103231000D01*
X159128500Y-103237000D01*
X159132500Y-103242000D01*
X159135500Y-103248000D01*
X159138500Y-103253000D01*
X159141500Y-103259000D01*
X159144500Y-103265000D01*
X159146500Y-103271000D01*
X159148500Y-103278000D01*
X159149500Y-103284000D01*
X159150500Y-103290000D01*
X159151500Y-103297000D01*
X159152500Y-103303000D01*
X159152500Y-103310000D01*
X159152500Y-103510000D01*
X159152500Y-103517000D01*
X159151500Y-103523000D01*
X159150500Y-103530000D01*
X159149500Y-103536000D01*
X159148500Y-103542000D01*
X159146500Y-103549000D01*
X159144500Y-103555000D01*
X159141500Y-103561000D01*
X159138500Y-103567000D01*
X159135500Y-103572000D01*
X159132500Y-103578000D01*
X159128500Y-103583000D01*
X159124500Y-103589000D01*
X159120500Y-103594000D01*
X159115500Y-103598000D01*
X159111500Y-103603000D01*
X159106500Y-103607000D01*
X159100500Y-103611000D01*
X159095500Y-103615000D01*
X159090500Y-103618000D01*
X159084500Y-103621000D01*
X159078500Y-103624000D01*
X159072500Y-103627000D01*
X159066500Y-103629000D01*
X159059500Y-103631000D01*
X159053500Y-103632000D01*
X159047500Y-103633000D01*
X159040500Y-103634000D01*
X159034500Y-103635000D01*
X159027500Y-103635000D01*
X158587500Y-103635000D01*
X158580500Y-103635000D01*
X158574500Y-103634000D01*
X158567500Y-103633000D01*
X158561500Y-103632000D01*
X158555500Y-103631000D01*
X158548500Y-103629000D01*
X158542500Y-103627000D01*
X158536500Y-103624000D01*
X158530500Y-103621000D01*
X158524500Y-103618000D01*
X158519500Y-103615000D01*
X158514500Y-103611000D01*
X158508500Y-103607000D01*
X158503500Y-103603000D01*
X158499500Y-103598000D01*
X158494500Y-103594000D01*
X158490500Y-103589000D01*
X158486500Y-103583000D01*
X158482500Y-103578000D01*
X158479500Y-103572000D01*
X158476500Y-103567000D01*
X158473500Y-103561000D01*
X158470500Y-103555000D01*
X158468500Y-103549000D01*
X158466500Y-103542000D01*
X158465500Y-103536000D01*
X158464500Y-103530000D01*
X158463500Y-103523000D01*
X158462500Y-103517000D01*
X158462500Y-103510000D01*
X158462500Y-103310000D01*
X158462500Y-103303000D01*
X158463500Y-103297000D01*
X158464500Y-103290000D01*
X158465500Y-103284000D01*
X158466500Y-103278000D01*
X158468500Y-103271000D01*
X158470500Y-103265000D01*
X158473500Y-103259000D01*
X158476500Y-103253000D01*
X158479500Y-103248000D01*
X158482500Y-103242000D01*
X158486500Y-103237000D01*
X158490500Y-103231000D01*
X158494500Y-103226000D01*
X158499500Y-103222000D01*
X158503500Y-103217000D01*
X158508500Y-103213000D01*
X158514500Y-103209000D01*
X158519500Y-103205000D01*
X158524500Y-103202000D01*
X158530500Y-103199000D01*
X158536500Y-103196000D01*
X158542500Y-103193000D01*
X158548500Y-103191000D01*
X158555500Y-103189000D01*
X158561500Y-103188000D01*
X158567500Y-103187000D01*
X158574500Y-103186000D01*
X158580500Y-103185000D01*
X158587500Y-103185000D01*
X159027500Y-103185000D01*
X159034500Y-103185000D01*
X159040500Y-103186000D01*
G36*
X159040500Y-103186000D02*
G01*
X159047500Y-103187000D01*
X159053500Y-103188000D01*
X159059500Y-103189000D01*
X159066500Y-103191000D01*
X159072500Y-103193000D01*
X159078500Y-103196000D01*
X159084500Y-103199000D01*
X159090500Y-103202000D01*
X159095500Y-103205000D01*
X159100500Y-103209000D01*
X159106500Y-103213000D01*
X159111500Y-103217000D01*
X159115500Y-103222000D01*
X159120500Y-103226000D01*
X159124500Y-103231000D01*
X159128500Y-103237000D01*
X159132500Y-103242000D01*
X159135500Y-103248000D01*
X159138500Y-103253000D01*
X159141500Y-103259000D01*
X159144500Y-103265000D01*
X159146500Y-103271000D01*
X159148500Y-103278000D01*
X159149500Y-103284000D01*
X159150500Y-103290000D01*
X159151500Y-103297000D01*
X159152500Y-103303000D01*
X159152500Y-103310000D01*
X159152500Y-103510000D01*
X159152500Y-103517000D01*
X159151500Y-103523000D01*
X159150500Y-103530000D01*
X159149500Y-103536000D01*
X159148500Y-103542000D01*
X159146500Y-103549000D01*
X159144500Y-103555000D01*
X159141500Y-103561000D01*
X159138500Y-103567000D01*
X159135500Y-103572000D01*
X159132500Y-103578000D01*
X159128500Y-103583000D01*
X159124500Y-103589000D01*
X159120500Y-103594000D01*
X159115500Y-103598000D01*
X159111500Y-103603000D01*
X159106500Y-103607000D01*
X159100500Y-103611000D01*
X159095500Y-103615000D01*
X159090500Y-103618000D01*
X159084500Y-103621000D01*
X159078500Y-103624000D01*
X159072500Y-103627000D01*
X159066500Y-103629000D01*
X159059500Y-103631000D01*
X159053500Y-103632000D01*
X159047500Y-103633000D01*
X159040500Y-103634000D01*
X159034500Y-103635000D01*
X159027500Y-103635000D01*
X158587500Y-103635000D01*
X158580500Y-103635000D01*
X158574500Y-103634000D01*
X158567500Y-103633000D01*
X158561500Y-103632000D01*
X158555500Y-103631000D01*
X158548500Y-103629000D01*
X158542500Y-103627000D01*
X158536500Y-103624000D01*
X158530500Y-103621000D01*
X158524500Y-103618000D01*
X158519500Y-103615000D01*
X158514500Y-103611000D01*
X158508500Y-103607000D01*
X158503500Y-103603000D01*
X158499500Y-103598000D01*
X158494500Y-103594000D01*
X158490500Y-103589000D01*
X158486500Y-103583000D01*
X158482500Y-103578000D01*
X158479500Y-103572000D01*
X158476500Y-103567000D01*
X158473500Y-103561000D01*
X158470500Y-103555000D01*
X158468500Y-103549000D01*
X158466500Y-103542000D01*
X158465500Y-103536000D01*
X158464500Y-103530000D01*
X158463500Y-103523000D01*
X158462500Y-103517000D01*
X158462500Y-103510000D01*
X158462500Y-103310000D01*
X158462500Y-103303000D01*
X158463500Y-103297000D01*
X158464500Y-103290000D01*
X158465500Y-103284000D01*
X158466500Y-103278000D01*
X158468500Y-103271000D01*
X158470500Y-103265000D01*
X158473500Y-103259000D01*
X158476500Y-103253000D01*
X158479500Y-103248000D01*
X158482500Y-103242000D01*
X158486500Y-103237000D01*
X158490500Y-103231000D01*
X158494500Y-103226000D01*
X158499500Y-103222000D01*
X158503500Y-103217000D01*
X158508500Y-103213000D01*
X158514500Y-103209000D01*
X158519500Y-103205000D01*
X158524500Y-103202000D01*
X158530500Y-103199000D01*
X158536500Y-103196000D01*
X158542500Y-103193000D01*
X158548500Y-103191000D01*
X158555500Y-103189000D01*
X158561500Y-103188000D01*
X158567500Y-103187000D01*
X158574500Y-103186000D01*
X158580500Y-103185000D01*
X158587500Y-103185000D01*
X159027500Y-103185000D01*
X159034500Y-103185000D01*
X159040500Y-103186000D01*
G37*
X159040500Y-103686000D02*
X159047500Y-103687000D01*
X159053500Y-103688000D01*
X159059500Y-103689000D01*
X159066500Y-103691000D01*
X159072500Y-103693000D01*
X159078500Y-103696000D01*
X159084500Y-103699000D01*
X159090500Y-103702000D01*
X159095500Y-103705000D01*
X159100500Y-103709000D01*
X159106500Y-103713000D01*
X159111500Y-103717000D01*
X159115500Y-103722000D01*
X159120500Y-103726000D01*
X159124500Y-103731000D01*
X159128500Y-103737000D01*
X159132500Y-103742000D01*
X159135500Y-103748000D01*
X159138500Y-103753000D01*
X159141500Y-103759000D01*
X159144500Y-103765000D01*
X159146500Y-103771000D01*
X159148500Y-103778000D01*
X159149500Y-103784000D01*
X159150500Y-103790000D01*
X159151500Y-103797000D01*
X159152500Y-103803000D01*
X159152500Y-103810000D01*
X159152500Y-104010000D01*
X159152500Y-104017000D01*
X159151500Y-104023000D01*
X159150500Y-104030000D01*
X159149500Y-104036000D01*
X159148500Y-104042000D01*
X159146500Y-104049000D01*
X159144500Y-104055000D01*
X159141500Y-104061000D01*
X159138500Y-104067000D01*
X159135500Y-104072000D01*
X159132500Y-104078000D01*
X159128500Y-104083000D01*
X159124500Y-104089000D01*
X159120500Y-104094000D01*
X159115500Y-104098000D01*
X159111500Y-104103000D01*
X159106500Y-104107000D01*
X159100500Y-104111000D01*
X159095500Y-104115000D01*
X159090500Y-104118000D01*
X159084500Y-104121000D01*
X159078500Y-104124000D01*
X159072500Y-104127000D01*
X159066500Y-104129000D01*
X159059500Y-104131000D01*
X159053500Y-104132000D01*
X159047500Y-104133000D01*
X159040500Y-104134000D01*
X159034500Y-104135000D01*
X159027500Y-104135000D01*
X158587500Y-104135000D01*
X158580500Y-104135000D01*
X158574500Y-104134000D01*
X158567500Y-104133000D01*
X158561500Y-104132000D01*
X158555500Y-104131000D01*
X158548500Y-104129000D01*
X158542500Y-104127000D01*
X158536500Y-104124000D01*
X158530500Y-104121000D01*
X158524500Y-104118000D01*
X158519500Y-104115000D01*
X158514500Y-104111000D01*
X158508500Y-104107000D01*
X158503500Y-104103000D01*
X158499500Y-104098000D01*
X158494500Y-104094000D01*
X158490500Y-104089000D01*
X158486500Y-104083000D01*
X158482500Y-104078000D01*
X158479500Y-104072000D01*
X158476500Y-104067000D01*
X158473500Y-104061000D01*
X158470500Y-104055000D01*
X158468500Y-104049000D01*
X158466500Y-104042000D01*
X158465500Y-104036000D01*
X158464500Y-104030000D01*
X158463500Y-104023000D01*
X158462500Y-104017000D01*
X158462500Y-104010000D01*
X158462500Y-103810000D01*
X158462500Y-103803000D01*
X158463500Y-103797000D01*
X158464500Y-103790000D01*
X158465500Y-103784000D01*
X158466500Y-103778000D01*
X158468500Y-103771000D01*
X158470500Y-103765000D01*
X158473500Y-103759000D01*
X158476500Y-103753000D01*
X158479500Y-103748000D01*
X158482500Y-103742000D01*
X158486500Y-103737000D01*
X158490500Y-103731000D01*
X158494500Y-103726000D01*
X158499500Y-103722000D01*
X158503500Y-103717000D01*
X158508500Y-103713000D01*
X158514500Y-103709000D01*
X158519500Y-103705000D01*
X158524500Y-103702000D01*
X158530500Y-103699000D01*
X158536500Y-103696000D01*
X158542500Y-103693000D01*
X158548500Y-103691000D01*
X158555500Y-103689000D01*
X158561500Y-103688000D01*
X158567500Y-103687000D01*
X158574500Y-103686000D01*
X158580500Y-103685000D01*
X158587500Y-103685000D01*
X159027500Y-103685000D01*
X159034500Y-103685000D01*
X159040500Y-103686000D01*
G36*
X159040500Y-103686000D02*
G01*
X159047500Y-103687000D01*
X159053500Y-103688000D01*
X159059500Y-103689000D01*
X159066500Y-103691000D01*
X159072500Y-103693000D01*
X159078500Y-103696000D01*
X159084500Y-103699000D01*
X159090500Y-103702000D01*
X159095500Y-103705000D01*
X159100500Y-103709000D01*
X159106500Y-103713000D01*
X159111500Y-103717000D01*
X159115500Y-103722000D01*
X159120500Y-103726000D01*
X159124500Y-103731000D01*
X159128500Y-103737000D01*
X159132500Y-103742000D01*
X159135500Y-103748000D01*
X159138500Y-103753000D01*
X159141500Y-103759000D01*
X159144500Y-103765000D01*
X159146500Y-103771000D01*
X159148500Y-103778000D01*
X159149500Y-103784000D01*
X159150500Y-103790000D01*
X159151500Y-103797000D01*
X159152500Y-103803000D01*
X159152500Y-103810000D01*
X159152500Y-104010000D01*
X159152500Y-104017000D01*
X159151500Y-104023000D01*
X159150500Y-104030000D01*
X159149500Y-104036000D01*
X159148500Y-104042000D01*
X159146500Y-104049000D01*
X159144500Y-104055000D01*
X159141500Y-104061000D01*
X159138500Y-104067000D01*
X159135500Y-104072000D01*
X159132500Y-104078000D01*
X159128500Y-104083000D01*
X159124500Y-104089000D01*
X159120500Y-104094000D01*
X159115500Y-104098000D01*
X159111500Y-104103000D01*
X159106500Y-104107000D01*
X159100500Y-104111000D01*
X159095500Y-104115000D01*
X159090500Y-104118000D01*
X159084500Y-104121000D01*
X159078500Y-104124000D01*
X159072500Y-104127000D01*
X159066500Y-104129000D01*
X159059500Y-104131000D01*
X159053500Y-104132000D01*
X159047500Y-104133000D01*
X159040500Y-104134000D01*
X159034500Y-104135000D01*
X159027500Y-104135000D01*
X158587500Y-104135000D01*
X158580500Y-104135000D01*
X158574500Y-104134000D01*
X158567500Y-104133000D01*
X158561500Y-104132000D01*
X158555500Y-104131000D01*
X158548500Y-104129000D01*
X158542500Y-104127000D01*
X158536500Y-104124000D01*
X158530500Y-104121000D01*
X158524500Y-104118000D01*
X158519500Y-104115000D01*
X158514500Y-104111000D01*
X158508500Y-104107000D01*
X158503500Y-104103000D01*
X158499500Y-104098000D01*
X158494500Y-104094000D01*
X158490500Y-104089000D01*
X158486500Y-104083000D01*
X158482500Y-104078000D01*
X158479500Y-104072000D01*
X158476500Y-104067000D01*
X158473500Y-104061000D01*
X158470500Y-104055000D01*
X158468500Y-104049000D01*
X158466500Y-104042000D01*
X158465500Y-104036000D01*
X158464500Y-104030000D01*
X158463500Y-104023000D01*
X158462500Y-104017000D01*
X158462500Y-104010000D01*
X158462500Y-103810000D01*
X158462500Y-103803000D01*
X158463500Y-103797000D01*
X158464500Y-103790000D01*
X158465500Y-103784000D01*
X158466500Y-103778000D01*
X158468500Y-103771000D01*
X158470500Y-103765000D01*
X158473500Y-103759000D01*
X158476500Y-103753000D01*
X158479500Y-103748000D01*
X158482500Y-103742000D01*
X158486500Y-103737000D01*
X158490500Y-103731000D01*
X158494500Y-103726000D01*
X158499500Y-103722000D01*
X158503500Y-103717000D01*
X158508500Y-103713000D01*
X158514500Y-103709000D01*
X158519500Y-103705000D01*
X158524500Y-103702000D01*
X158530500Y-103699000D01*
X158536500Y-103696000D01*
X158542500Y-103693000D01*
X158548500Y-103691000D01*
X158555500Y-103689000D01*
X158561500Y-103688000D01*
X158567500Y-103687000D01*
X158574500Y-103686000D01*
X158580500Y-103685000D01*
X158587500Y-103685000D01*
X159027500Y-103685000D01*
X159034500Y-103685000D01*
X159040500Y-103686000D01*
G37*
X159040500Y-104186000D02*
X159047500Y-104187000D01*
X159053500Y-104188000D01*
X159059500Y-104189000D01*
X159066500Y-104191000D01*
X159072500Y-104193000D01*
X159078500Y-104196000D01*
X159084500Y-104199000D01*
X159090500Y-104202000D01*
X159095500Y-104205000D01*
X159100500Y-104209000D01*
X159106500Y-104213000D01*
X159111500Y-104217000D01*
X159115500Y-104222000D01*
X159120500Y-104226000D01*
X159124500Y-104231000D01*
X159128500Y-104237000D01*
X159132500Y-104242000D01*
X159135500Y-104248000D01*
X159138500Y-104253000D01*
X159141500Y-104259000D01*
X159144500Y-104265000D01*
X159146500Y-104271000D01*
X159148500Y-104278000D01*
X159149500Y-104284000D01*
X159150500Y-104290000D01*
X159151500Y-104297000D01*
X159152500Y-104303000D01*
X159152500Y-104310000D01*
X159152500Y-104510000D01*
X159152500Y-104517000D01*
X159151500Y-104523000D01*
X159150500Y-104530000D01*
X159149500Y-104536000D01*
X159148500Y-104542000D01*
X159146500Y-104549000D01*
X159144500Y-104555000D01*
X159141500Y-104561000D01*
X159138500Y-104567000D01*
X159135500Y-104572000D01*
X159132500Y-104578000D01*
X159128500Y-104583000D01*
X159124500Y-104589000D01*
X159120500Y-104594000D01*
X159115500Y-104598000D01*
X159111500Y-104603000D01*
X159106500Y-104607000D01*
X159100500Y-104611000D01*
X159095500Y-104615000D01*
X159090500Y-104618000D01*
X159084500Y-104621000D01*
X159078500Y-104624000D01*
X159072500Y-104627000D01*
X159066500Y-104629000D01*
X159059500Y-104631000D01*
X159053500Y-104632000D01*
X159047500Y-104633000D01*
X159040500Y-104634000D01*
X159034500Y-104635000D01*
X159027500Y-104635000D01*
X158587500Y-104635000D01*
X158580500Y-104635000D01*
X158574500Y-104634000D01*
X158567500Y-104633000D01*
X158561500Y-104632000D01*
X158555500Y-104631000D01*
X158548500Y-104629000D01*
X158542500Y-104627000D01*
X158536500Y-104624000D01*
X158530500Y-104621000D01*
X158524500Y-104618000D01*
X158519500Y-104615000D01*
X158514500Y-104611000D01*
X158508500Y-104607000D01*
X158503500Y-104603000D01*
X158499500Y-104598000D01*
X158494500Y-104594000D01*
X158490500Y-104589000D01*
X158486500Y-104583000D01*
X158482500Y-104578000D01*
X158479500Y-104572000D01*
X158476500Y-104567000D01*
X158473500Y-104561000D01*
X158470500Y-104555000D01*
X158468500Y-104549000D01*
X158466500Y-104542000D01*
X158465500Y-104536000D01*
X158464500Y-104530000D01*
X158463500Y-104523000D01*
X158462500Y-104517000D01*
X158462500Y-104510000D01*
X158462500Y-104310000D01*
X158462500Y-104303000D01*
X158463500Y-104297000D01*
X158464500Y-104290000D01*
X158465500Y-104284000D01*
X158466500Y-104278000D01*
X158468500Y-104271000D01*
X158470500Y-104265000D01*
X158473500Y-104259000D01*
X158476500Y-104253000D01*
X158479500Y-104248000D01*
X158482500Y-104242000D01*
X158486500Y-104237000D01*
X158490500Y-104231000D01*
X158494500Y-104226000D01*
X158499500Y-104222000D01*
X158503500Y-104217000D01*
X158508500Y-104213000D01*
X158514500Y-104209000D01*
X158519500Y-104205000D01*
X158524500Y-104202000D01*
X158530500Y-104199000D01*
X158536500Y-104196000D01*
X158542500Y-104193000D01*
X158548500Y-104191000D01*
X158555500Y-104189000D01*
X158561500Y-104188000D01*
X158567500Y-104187000D01*
X158574500Y-104186000D01*
X158580500Y-104185000D01*
X158587500Y-104185000D01*
X159027500Y-104185000D01*
X159034500Y-104185000D01*
X159040500Y-104186000D01*
G36*
X159040500Y-104186000D02*
G01*
X159047500Y-104187000D01*
X159053500Y-104188000D01*
X159059500Y-104189000D01*
X159066500Y-104191000D01*
X159072500Y-104193000D01*
X159078500Y-104196000D01*
X159084500Y-104199000D01*
X159090500Y-104202000D01*
X159095500Y-104205000D01*
X159100500Y-104209000D01*
X159106500Y-104213000D01*
X159111500Y-104217000D01*
X159115500Y-104222000D01*
X159120500Y-104226000D01*
X159124500Y-104231000D01*
X159128500Y-104237000D01*
X159132500Y-104242000D01*
X159135500Y-104248000D01*
X159138500Y-104253000D01*
X159141500Y-104259000D01*
X159144500Y-104265000D01*
X159146500Y-104271000D01*
X159148500Y-104278000D01*
X159149500Y-104284000D01*
X159150500Y-104290000D01*
X159151500Y-104297000D01*
X159152500Y-104303000D01*
X159152500Y-104310000D01*
X159152500Y-104510000D01*
X159152500Y-104517000D01*
X159151500Y-104523000D01*
X159150500Y-104530000D01*
X159149500Y-104536000D01*
X159148500Y-104542000D01*
X159146500Y-104549000D01*
X159144500Y-104555000D01*
X159141500Y-104561000D01*
X159138500Y-104567000D01*
X159135500Y-104572000D01*
X159132500Y-104578000D01*
X159128500Y-104583000D01*
X159124500Y-104589000D01*
X159120500Y-104594000D01*
X159115500Y-104598000D01*
X159111500Y-104603000D01*
X159106500Y-104607000D01*
X159100500Y-104611000D01*
X159095500Y-104615000D01*
X159090500Y-104618000D01*
X159084500Y-104621000D01*
X159078500Y-104624000D01*
X159072500Y-104627000D01*
X159066500Y-104629000D01*
X159059500Y-104631000D01*
X159053500Y-104632000D01*
X159047500Y-104633000D01*
X159040500Y-104634000D01*
X159034500Y-104635000D01*
X159027500Y-104635000D01*
X158587500Y-104635000D01*
X158580500Y-104635000D01*
X158574500Y-104634000D01*
X158567500Y-104633000D01*
X158561500Y-104632000D01*
X158555500Y-104631000D01*
X158548500Y-104629000D01*
X158542500Y-104627000D01*
X158536500Y-104624000D01*
X158530500Y-104621000D01*
X158524500Y-104618000D01*
X158519500Y-104615000D01*
X158514500Y-104611000D01*
X158508500Y-104607000D01*
X158503500Y-104603000D01*
X158499500Y-104598000D01*
X158494500Y-104594000D01*
X158490500Y-104589000D01*
X158486500Y-104583000D01*
X158482500Y-104578000D01*
X158479500Y-104572000D01*
X158476500Y-104567000D01*
X158473500Y-104561000D01*
X158470500Y-104555000D01*
X158468500Y-104549000D01*
X158466500Y-104542000D01*
X158465500Y-104536000D01*
X158464500Y-104530000D01*
X158463500Y-104523000D01*
X158462500Y-104517000D01*
X158462500Y-104510000D01*
X158462500Y-104310000D01*
X158462500Y-104303000D01*
X158463500Y-104297000D01*
X158464500Y-104290000D01*
X158465500Y-104284000D01*
X158466500Y-104278000D01*
X158468500Y-104271000D01*
X158470500Y-104265000D01*
X158473500Y-104259000D01*
X158476500Y-104253000D01*
X158479500Y-104248000D01*
X158482500Y-104242000D01*
X158486500Y-104237000D01*
X158490500Y-104231000D01*
X158494500Y-104226000D01*
X158499500Y-104222000D01*
X158503500Y-104217000D01*
X158508500Y-104213000D01*
X158514500Y-104209000D01*
X158519500Y-104205000D01*
X158524500Y-104202000D01*
X158530500Y-104199000D01*
X158536500Y-104196000D01*
X158542500Y-104193000D01*
X158548500Y-104191000D01*
X158555500Y-104189000D01*
X158561500Y-104188000D01*
X158567500Y-104187000D01*
X158574500Y-104186000D01*
X158580500Y-104185000D01*
X158587500Y-104185000D01*
X159027500Y-104185000D01*
X159034500Y-104185000D01*
X159040500Y-104186000D01*
G37*
X159585500Y-102401000D02*
X159592500Y-102402000D01*
X159598500Y-102403000D01*
X159604500Y-102404000D01*
X159611500Y-102406000D01*
X159617500Y-102408000D01*
X159623500Y-102411000D01*
X159629500Y-102414000D01*
X159634500Y-102417000D01*
X159640500Y-102420000D01*
X159645500Y-102424000D01*
X159651500Y-102428000D01*
X159656500Y-102432000D01*
X159660500Y-102437000D01*
X159665500Y-102441000D01*
X159669500Y-102446000D01*
X159673500Y-102452000D01*
X159677500Y-102457000D01*
X159680500Y-102462000D01*
X159683500Y-102468000D01*
X159686500Y-102474000D01*
X159689500Y-102480000D01*
X159691500Y-102486000D01*
X159693500Y-102493000D01*
X159694500Y-102499000D01*
X159695500Y-102505000D01*
X159696500Y-102512000D01*
X159697500Y-102518000D01*
X159697500Y-102525000D01*
X159697500Y-102965000D01*
X159697500Y-102972000D01*
X159696500Y-102978000D01*
X159695500Y-102985000D01*
X159694500Y-102991000D01*
X159693500Y-102997000D01*
X159691500Y-103004000D01*
X159689500Y-103010000D01*
X159686500Y-103016000D01*
X159683500Y-103022000D01*
X159680500Y-103028000D01*
X159677500Y-103033000D01*
X159673500Y-103038000D01*
X159669500Y-103044000D01*
X159665500Y-103049000D01*
X159660500Y-103053000D01*
X159656500Y-103058000D01*
X159651500Y-103062000D01*
X159645500Y-103066000D01*
X159640500Y-103070000D01*
X159634500Y-103073000D01*
X159629500Y-103076000D01*
X159623500Y-103079000D01*
X159617500Y-103082000D01*
X159611500Y-103084000D01*
X159604500Y-103086000D01*
X159598500Y-103087000D01*
X159592500Y-103088000D01*
X159585500Y-103089000D01*
X159579500Y-103090000D01*
X159572500Y-103090000D01*
X159372500Y-103090000D01*
X159365500Y-103090000D01*
X159359500Y-103089000D01*
X159352500Y-103088000D01*
X159346500Y-103087000D01*
X159340500Y-103086000D01*
X159333500Y-103084000D01*
X159327500Y-103082000D01*
X159321500Y-103079000D01*
X159315500Y-103076000D01*
X159309500Y-103073000D01*
X159304500Y-103070000D01*
X159299500Y-103066000D01*
X159293500Y-103062000D01*
X159288500Y-103058000D01*
X159284500Y-103053000D01*
X159279500Y-103049000D01*
X159275500Y-103044000D01*
X159271500Y-103038000D01*
X159267500Y-103033000D01*
X159264500Y-103028000D01*
X159261500Y-103022000D01*
X159258500Y-103016000D01*
X159255500Y-103010000D01*
X159253500Y-103004000D01*
X159251500Y-102997000D01*
X159250500Y-102991000D01*
X159249500Y-102985000D01*
X159248500Y-102978000D01*
X159247500Y-102972000D01*
X159247500Y-102965000D01*
X159247500Y-102525000D01*
X159247500Y-102518000D01*
X159248500Y-102512000D01*
X159249500Y-102505000D01*
X159250500Y-102499000D01*
X159251500Y-102493000D01*
X159253500Y-102486000D01*
X159255500Y-102480000D01*
X159258500Y-102474000D01*
X159261500Y-102468000D01*
X159264500Y-102462000D01*
X159267500Y-102457000D01*
X159271500Y-102452000D01*
X159275500Y-102446000D01*
X159279500Y-102441000D01*
X159284500Y-102437000D01*
X159288500Y-102432000D01*
X159293500Y-102428000D01*
X159299500Y-102424000D01*
X159304500Y-102420000D01*
X159310500Y-102417000D01*
X159315500Y-102414000D01*
X159321500Y-102411000D01*
X159327500Y-102408000D01*
X159333500Y-102406000D01*
X159340500Y-102404000D01*
X159346500Y-102403000D01*
X159352500Y-102402000D01*
X159359500Y-102401000D01*
X159365500Y-102400000D01*
X159372500Y-102400000D01*
X159572500Y-102400000D01*
X159579500Y-102400000D01*
X159585500Y-102401000D01*
G36*
X159585500Y-102401000D02*
G01*
X159592500Y-102402000D01*
X159598500Y-102403000D01*
X159604500Y-102404000D01*
X159611500Y-102406000D01*
X159617500Y-102408000D01*
X159623500Y-102411000D01*
X159629500Y-102414000D01*
X159634500Y-102417000D01*
X159640500Y-102420000D01*
X159645500Y-102424000D01*
X159651500Y-102428000D01*
X159656500Y-102432000D01*
X159660500Y-102437000D01*
X159665500Y-102441000D01*
X159669500Y-102446000D01*
X159673500Y-102452000D01*
X159677500Y-102457000D01*
X159680500Y-102462000D01*
X159683500Y-102468000D01*
X159686500Y-102474000D01*
X159689500Y-102480000D01*
X159691500Y-102486000D01*
X159693500Y-102493000D01*
X159694500Y-102499000D01*
X159695500Y-102505000D01*
X159696500Y-102512000D01*
X159697500Y-102518000D01*
X159697500Y-102525000D01*
X159697500Y-102965000D01*
X159697500Y-102972000D01*
X159696500Y-102978000D01*
X159695500Y-102985000D01*
X159694500Y-102991000D01*
X159693500Y-102997000D01*
X159691500Y-103004000D01*
X159689500Y-103010000D01*
X159686500Y-103016000D01*
X159683500Y-103022000D01*
X159680500Y-103028000D01*
X159677500Y-103033000D01*
X159673500Y-103038000D01*
X159669500Y-103044000D01*
X159665500Y-103049000D01*
X159660500Y-103053000D01*
X159656500Y-103058000D01*
X159651500Y-103062000D01*
X159645500Y-103066000D01*
X159640500Y-103070000D01*
X159634500Y-103073000D01*
X159629500Y-103076000D01*
X159623500Y-103079000D01*
X159617500Y-103082000D01*
X159611500Y-103084000D01*
X159604500Y-103086000D01*
X159598500Y-103087000D01*
X159592500Y-103088000D01*
X159585500Y-103089000D01*
X159579500Y-103090000D01*
X159572500Y-103090000D01*
X159372500Y-103090000D01*
X159365500Y-103090000D01*
X159359500Y-103089000D01*
X159352500Y-103088000D01*
X159346500Y-103087000D01*
X159340500Y-103086000D01*
X159333500Y-103084000D01*
X159327500Y-103082000D01*
X159321500Y-103079000D01*
X159315500Y-103076000D01*
X159309500Y-103073000D01*
X159304500Y-103070000D01*
X159299500Y-103066000D01*
X159293500Y-103062000D01*
X159288500Y-103058000D01*
X159284500Y-103053000D01*
X159279500Y-103049000D01*
X159275500Y-103044000D01*
X159271500Y-103038000D01*
X159267500Y-103033000D01*
X159264500Y-103028000D01*
X159261500Y-103022000D01*
X159258500Y-103016000D01*
X159255500Y-103010000D01*
X159253500Y-103004000D01*
X159251500Y-102997000D01*
X159250500Y-102991000D01*
X159249500Y-102985000D01*
X159248500Y-102978000D01*
X159247500Y-102972000D01*
X159247500Y-102965000D01*
X159247500Y-102525000D01*
X159247500Y-102518000D01*
X159248500Y-102512000D01*
X159249500Y-102505000D01*
X159250500Y-102499000D01*
X159251500Y-102493000D01*
X159253500Y-102486000D01*
X159255500Y-102480000D01*
X159258500Y-102474000D01*
X159261500Y-102468000D01*
X159264500Y-102462000D01*
X159267500Y-102457000D01*
X159271500Y-102452000D01*
X159275500Y-102446000D01*
X159279500Y-102441000D01*
X159284500Y-102437000D01*
X159288500Y-102432000D01*
X159293500Y-102428000D01*
X159299500Y-102424000D01*
X159304500Y-102420000D01*
X159310500Y-102417000D01*
X159315500Y-102414000D01*
X159321500Y-102411000D01*
X159327500Y-102408000D01*
X159333500Y-102406000D01*
X159340500Y-102404000D01*
X159346500Y-102403000D01*
X159352500Y-102402000D01*
X159359500Y-102401000D01*
X159365500Y-102400000D01*
X159372500Y-102400000D01*
X159572500Y-102400000D01*
X159579500Y-102400000D01*
X159585500Y-102401000D01*
G37*
X159585500Y-104231000D02*
X159592500Y-104232000D01*
X159598500Y-104233000D01*
X159604500Y-104234000D01*
X159611500Y-104236000D01*
X159617500Y-104238000D01*
X159623500Y-104241000D01*
X159629500Y-104244000D01*
X159634500Y-104247000D01*
X159640500Y-104250000D01*
X159645500Y-104254000D01*
X159651500Y-104258000D01*
X159656500Y-104262000D01*
X159660500Y-104267000D01*
X159665500Y-104271000D01*
X159669500Y-104276000D01*
X159673500Y-104282000D01*
X159677500Y-104287000D01*
X159680500Y-104292000D01*
X159683500Y-104298000D01*
X159686500Y-104304000D01*
X159689500Y-104310000D01*
X159691500Y-104316000D01*
X159693500Y-104323000D01*
X159694500Y-104329000D01*
X159695500Y-104335000D01*
X159696500Y-104342000D01*
X159697500Y-104348000D01*
X159697500Y-104355000D01*
X159697500Y-104795000D01*
X159697500Y-104802000D01*
X159696500Y-104808000D01*
X159695500Y-104815000D01*
X159694500Y-104821000D01*
X159693500Y-104827000D01*
X159691500Y-104834000D01*
X159689500Y-104840000D01*
X159686500Y-104846000D01*
X159683500Y-104852000D01*
X159680500Y-104858000D01*
X159677500Y-104863000D01*
X159673500Y-104868000D01*
X159669500Y-104874000D01*
X159665500Y-104879000D01*
X159660500Y-104883000D01*
X159656500Y-104888000D01*
X159651500Y-104892000D01*
X159645500Y-104896000D01*
X159640500Y-104900000D01*
X159634500Y-104903000D01*
X159629500Y-104906000D01*
X159623500Y-104909000D01*
X159617500Y-104912000D01*
X159611500Y-104914000D01*
X159604500Y-104916000D01*
X159598500Y-104917000D01*
X159592500Y-104918000D01*
X159585500Y-104919000D01*
X159579500Y-104920000D01*
X159572500Y-104920000D01*
X159372500Y-104920000D01*
X159365500Y-104920000D01*
X159359500Y-104919000D01*
X159352500Y-104918000D01*
X159346500Y-104917000D01*
X159340500Y-104916000D01*
X159333500Y-104914000D01*
X159327500Y-104912000D01*
X159321500Y-104909000D01*
X159315500Y-104906000D01*
X159309500Y-104903000D01*
X159304500Y-104900000D01*
X159299500Y-104896000D01*
X159293500Y-104892000D01*
X159288500Y-104888000D01*
X159284500Y-104883000D01*
X159279500Y-104879000D01*
X159275500Y-104874000D01*
X159271500Y-104868000D01*
X159267500Y-104863000D01*
X159264500Y-104858000D01*
X159261500Y-104852000D01*
X159258500Y-104846000D01*
X159255500Y-104840000D01*
X159253500Y-104834000D01*
X159251500Y-104827000D01*
X159250500Y-104821000D01*
X159249500Y-104815000D01*
X159248500Y-104808000D01*
X159247500Y-104802000D01*
X159247500Y-104795000D01*
X159247500Y-104355000D01*
X159247500Y-104348000D01*
X159248500Y-104342000D01*
X159249500Y-104335000D01*
X159250500Y-104329000D01*
X159251500Y-104323000D01*
X159253500Y-104316000D01*
X159255500Y-104310000D01*
X159258500Y-104304000D01*
X159261500Y-104298000D01*
X159264500Y-104292000D01*
X159267500Y-104287000D01*
X159271500Y-104282000D01*
X159275500Y-104276000D01*
X159279500Y-104271000D01*
X159284500Y-104267000D01*
X159288500Y-104262000D01*
X159293500Y-104258000D01*
X159299500Y-104254000D01*
X159304500Y-104250000D01*
X159310500Y-104247000D01*
X159315500Y-104244000D01*
X159321500Y-104241000D01*
X159327500Y-104238000D01*
X159333500Y-104236000D01*
X159340500Y-104234000D01*
X159346500Y-104233000D01*
X159352500Y-104232000D01*
X159359500Y-104231000D01*
X159365500Y-104230000D01*
X159372500Y-104230000D01*
X159572500Y-104230000D01*
X159579500Y-104230000D01*
X159585500Y-104231000D01*
G36*
X159585500Y-104231000D02*
G01*
X159592500Y-104232000D01*
X159598500Y-104233000D01*
X159604500Y-104234000D01*
X159611500Y-104236000D01*
X159617500Y-104238000D01*
X159623500Y-104241000D01*
X159629500Y-104244000D01*
X159634500Y-104247000D01*
X159640500Y-104250000D01*
X159645500Y-104254000D01*
X159651500Y-104258000D01*
X159656500Y-104262000D01*
X159660500Y-104267000D01*
X159665500Y-104271000D01*
X159669500Y-104276000D01*
X159673500Y-104282000D01*
X159677500Y-104287000D01*
X159680500Y-104292000D01*
X159683500Y-104298000D01*
X159686500Y-104304000D01*
X159689500Y-104310000D01*
X159691500Y-104316000D01*
X159693500Y-104323000D01*
X159694500Y-104329000D01*
X159695500Y-104335000D01*
X159696500Y-104342000D01*
X159697500Y-104348000D01*
X159697500Y-104355000D01*
X159697500Y-104795000D01*
X159697500Y-104802000D01*
X159696500Y-104808000D01*
X159695500Y-104815000D01*
X159694500Y-104821000D01*
X159693500Y-104827000D01*
X159691500Y-104834000D01*
X159689500Y-104840000D01*
X159686500Y-104846000D01*
X159683500Y-104852000D01*
X159680500Y-104858000D01*
X159677500Y-104863000D01*
X159673500Y-104868000D01*
X159669500Y-104874000D01*
X159665500Y-104879000D01*
X159660500Y-104883000D01*
X159656500Y-104888000D01*
X159651500Y-104892000D01*
X159645500Y-104896000D01*
X159640500Y-104900000D01*
X159634500Y-104903000D01*
X159629500Y-104906000D01*
X159623500Y-104909000D01*
X159617500Y-104912000D01*
X159611500Y-104914000D01*
X159604500Y-104916000D01*
X159598500Y-104917000D01*
X159592500Y-104918000D01*
X159585500Y-104919000D01*
X159579500Y-104920000D01*
X159572500Y-104920000D01*
X159372500Y-104920000D01*
X159365500Y-104920000D01*
X159359500Y-104919000D01*
X159352500Y-104918000D01*
X159346500Y-104917000D01*
X159340500Y-104916000D01*
X159333500Y-104914000D01*
X159327500Y-104912000D01*
X159321500Y-104909000D01*
X159315500Y-104906000D01*
X159309500Y-104903000D01*
X159304500Y-104900000D01*
X159299500Y-104896000D01*
X159293500Y-104892000D01*
X159288500Y-104888000D01*
X159284500Y-104883000D01*
X159279500Y-104879000D01*
X159275500Y-104874000D01*
X159271500Y-104868000D01*
X159267500Y-104863000D01*
X159264500Y-104858000D01*
X159261500Y-104852000D01*
X159258500Y-104846000D01*
X159255500Y-104840000D01*
X159253500Y-104834000D01*
X159251500Y-104827000D01*
X159250500Y-104821000D01*
X159249500Y-104815000D01*
X159248500Y-104808000D01*
X159247500Y-104802000D01*
X159247500Y-104795000D01*
X159247500Y-104355000D01*
X159247500Y-104348000D01*
X159248500Y-104342000D01*
X159249500Y-104335000D01*
X159250500Y-104329000D01*
X159251500Y-104323000D01*
X159253500Y-104316000D01*
X159255500Y-104310000D01*
X159258500Y-104304000D01*
X159261500Y-104298000D01*
X159264500Y-104292000D01*
X159267500Y-104287000D01*
X159271500Y-104282000D01*
X159275500Y-104276000D01*
X159279500Y-104271000D01*
X159284500Y-104267000D01*
X159288500Y-104262000D01*
X159293500Y-104258000D01*
X159299500Y-104254000D01*
X159304500Y-104250000D01*
X159310500Y-104247000D01*
X159315500Y-104244000D01*
X159321500Y-104241000D01*
X159327500Y-104238000D01*
X159333500Y-104236000D01*
X159340500Y-104234000D01*
X159346500Y-104233000D01*
X159352500Y-104232000D01*
X159359500Y-104231000D01*
X159365500Y-104230000D01*
X159372500Y-104230000D01*
X159572500Y-104230000D01*
X159579500Y-104230000D01*
X159585500Y-104231000D01*
G37*
X160085500Y-102401000D02*
X160092500Y-102402000D01*
X160098500Y-102403000D01*
X160104500Y-102404000D01*
X160111500Y-102406000D01*
X160117500Y-102408000D01*
X160123500Y-102411000D01*
X160129500Y-102414000D01*
X160135500Y-102417000D01*
X160140500Y-102420000D01*
X160145500Y-102424000D01*
X160151500Y-102428000D01*
X160156500Y-102432000D01*
X160160500Y-102437000D01*
X160165500Y-102441000D01*
X160169500Y-102446000D01*
X160173500Y-102452000D01*
X160177500Y-102457000D01*
X160180500Y-102462000D01*
X160183500Y-102468000D01*
X160186500Y-102474000D01*
X160189500Y-102480000D01*
X160191500Y-102486000D01*
X160193500Y-102493000D01*
X160194500Y-102499000D01*
X160195500Y-102505000D01*
X160196500Y-102512000D01*
X160197500Y-102518000D01*
X160197500Y-102525000D01*
X160197500Y-102965000D01*
X160197500Y-102972000D01*
X160196500Y-102978000D01*
X160195500Y-102985000D01*
X160194500Y-102991000D01*
X160193500Y-102997000D01*
X160191500Y-103004000D01*
X160189500Y-103010000D01*
X160186500Y-103016000D01*
X160183500Y-103022000D01*
X160180500Y-103028000D01*
X160177500Y-103033000D01*
X160173500Y-103038000D01*
X160169500Y-103044000D01*
X160165500Y-103049000D01*
X160160500Y-103053000D01*
X160156500Y-103058000D01*
X160151500Y-103062000D01*
X160145500Y-103066000D01*
X160140500Y-103070000D01*
X160135500Y-103073000D01*
X160129500Y-103076000D01*
X160123500Y-103079000D01*
X160117500Y-103082000D01*
X160111500Y-103084000D01*
X160104500Y-103086000D01*
X160098500Y-103087000D01*
X160092500Y-103088000D01*
X160085500Y-103089000D01*
X160079500Y-103090000D01*
X160072500Y-103090000D01*
X159872500Y-103090000D01*
X159865500Y-103090000D01*
X159859500Y-103089000D01*
X159852500Y-103088000D01*
X159846500Y-103087000D01*
X159840500Y-103086000D01*
X159833500Y-103084000D01*
X159827500Y-103082000D01*
X159821500Y-103079000D01*
X159815500Y-103076000D01*
X159809500Y-103073000D01*
X159804500Y-103070000D01*
X159799500Y-103066000D01*
X159793500Y-103062000D01*
X159788500Y-103058000D01*
X159784500Y-103053000D01*
X159779500Y-103049000D01*
X159775500Y-103044000D01*
X159771500Y-103038000D01*
X159767500Y-103033000D01*
X159764500Y-103028000D01*
X159761500Y-103022000D01*
X159758500Y-103016000D01*
X159755500Y-103010000D01*
X159753500Y-103004000D01*
X159751500Y-102997000D01*
X159750500Y-102991000D01*
X159749500Y-102985000D01*
X159748500Y-102978000D01*
X159747500Y-102972000D01*
X159747500Y-102965000D01*
X159747500Y-102525000D01*
X159747500Y-102518000D01*
X159748500Y-102512000D01*
X159749500Y-102505000D01*
X159750500Y-102499000D01*
X159751500Y-102493000D01*
X159753500Y-102486000D01*
X159755500Y-102480000D01*
X159758500Y-102474000D01*
X159761500Y-102468000D01*
X159764500Y-102462000D01*
X159767500Y-102457000D01*
X159771500Y-102452000D01*
X159775500Y-102446000D01*
X159779500Y-102441000D01*
X159784500Y-102437000D01*
X159788500Y-102432000D01*
X159793500Y-102428000D01*
X159799500Y-102424000D01*
X159804500Y-102420000D01*
X159810500Y-102417000D01*
X159815500Y-102414000D01*
X159821500Y-102411000D01*
X159827500Y-102408000D01*
X159833500Y-102406000D01*
X159840500Y-102404000D01*
X159846500Y-102403000D01*
X159852500Y-102402000D01*
X159859500Y-102401000D01*
X159865500Y-102400000D01*
X159872500Y-102400000D01*
X160072500Y-102400000D01*
X160079500Y-102400000D01*
X160085500Y-102401000D01*
G36*
X160085500Y-102401000D02*
G01*
X160092500Y-102402000D01*
X160098500Y-102403000D01*
X160104500Y-102404000D01*
X160111500Y-102406000D01*
X160117500Y-102408000D01*
X160123500Y-102411000D01*
X160129500Y-102414000D01*
X160135500Y-102417000D01*
X160140500Y-102420000D01*
X160145500Y-102424000D01*
X160151500Y-102428000D01*
X160156500Y-102432000D01*
X160160500Y-102437000D01*
X160165500Y-102441000D01*
X160169500Y-102446000D01*
X160173500Y-102452000D01*
X160177500Y-102457000D01*
X160180500Y-102462000D01*
X160183500Y-102468000D01*
X160186500Y-102474000D01*
X160189500Y-102480000D01*
X160191500Y-102486000D01*
X160193500Y-102493000D01*
X160194500Y-102499000D01*
X160195500Y-102505000D01*
X160196500Y-102512000D01*
X160197500Y-102518000D01*
X160197500Y-102525000D01*
X160197500Y-102965000D01*
X160197500Y-102972000D01*
X160196500Y-102978000D01*
X160195500Y-102985000D01*
X160194500Y-102991000D01*
X160193500Y-102997000D01*
X160191500Y-103004000D01*
X160189500Y-103010000D01*
X160186500Y-103016000D01*
X160183500Y-103022000D01*
X160180500Y-103028000D01*
X160177500Y-103033000D01*
X160173500Y-103038000D01*
X160169500Y-103044000D01*
X160165500Y-103049000D01*
X160160500Y-103053000D01*
X160156500Y-103058000D01*
X160151500Y-103062000D01*
X160145500Y-103066000D01*
X160140500Y-103070000D01*
X160135500Y-103073000D01*
X160129500Y-103076000D01*
X160123500Y-103079000D01*
X160117500Y-103082000D01*
X160111500Y-103084000D01*
X160104500Y-103086000D01*
X160098500Y-103087000D01*
X160092500Y-103088000D01*
X160085500Y-103089000D01*
X160079500Y-103090000D01*
X160072500Y-103090000D01*
X159872500Y-103090000D01*
X159865500Y-103090000D01*
X159859500Y-103089000D01*
X159852500Y-103088000D01*
X159846500Y-103087000D01*
X159840500Y-103086000D01*
X159833500Y-103084000D01*
X159827500Y-103082000D01*
X159821500Y-103079000D01*
X159815500Y-103076000D01*
X159809500Y-103073000D01*
X159804500Y-103070000D01*
X159799500Y-103066000D01*
X159793500Y-103062000D01*
X159788500Y-103058000D01*
X159784500Y-103053000D01*
X159779500Y-103049000D01*
X159775500Y-103044000D01*
X159771500Y-103038000D01*
X159767500Y-103033000D01*
X159764500Y-103028000D01*
X159761500Y-103022000D01*
X159758500Y-103016000D01*
X159755500Y-103010000D01*
X159753500Y-103004000D01*
X159751500Y-102997000D01*
X159750500Y-102991000D01*
X159749500Y-102985000D01*
X159748500Y-102978000D01*
X159747500Y-102972000D01*
X159747500Y-102965000D01*
X159747500Y-102525000D01*
X159747500Y-102518000D01*
X159748500Y-102512000D01*
X159749500Y-102505000D01*
X159750500Y-102499000D01*
X159751500Y-102493000D01*
X159753500Y-102486000D01*
X159755500Y-102480000D01*
X159758500Y-102474000D01*
X159761500Y-102468000D01*
X159764500Y-102462000D01*
X159767500Y-102457000D01*
X159771500Y-102452000D01*
X159775500Y-102446000D01*
X159779500Y-102441000D01*
X159784500Y-102437000D01*
X159788500Y-102432000D01*
X159793500Y-102428000D01*
X159799500Y-102424000D01*
X159804500Y-102420000D01*
X159810500Y-102417000D01*
X159815500Y-102414000D01*
X159821500Y-102411000D01*
X159827500Y-102408000D01*
X159833500Y-102406000D01*
X159840500Y-102404000D01*
X159846500Y-102403000D01*
X159852500Y-102402000D01*
X159859500Y-102401000D01*
X159865500Y-102400000D01*
X159872500Y-102400000D01*
X160072500Y-102400000D01*
X160079500Y-102400000D01*
X160085500Y-102401000D01*
G37*
X160085500Y-104231000D02*
X160092500Y-104232000D01*
X160098500Y-104233000D01*
X160104500Y-104234000D01*
X160111500Y-104236000D01*
X160117500Y-104238000D01*
X160123500Y-104241000D01*
X160129500Y-104244000D01*
X160135500Y-104247000D01*
X160140500Y-104250000D01*
X160145500Y-104254000D01*
X160151500Y-104258000D01*
X160156500Y-104262000D01*
X160160500Y-104267000D01*
X160165500Y-104271000D01*
X160169500Y-104276000D01*
X160173500Y-104282000D01*
X160177500Y-104287000D01*
X160180500Y-104292000D01*
X160183500Y-104298000D01*
X160186500Y-104304000D01*
X160189500Y-104310000D01*
X160191500Y-104316000D01*
X160193500Y-104323000D01*
X160194500Y-104329000D01*
X160195500Y-104335000D01*
X160196500Y-104342000D01*
X160197500Y-104348000D01*
X160197500Y-104355000D01*
X160197500Y-104795000D01*
X160197500Y-104802000D01*
X160196500Y-104808000D01*
X160195500Y-104815000D01*
X160194500Y-104821000D01*
X160193500Y-104827000D01*
X160191500Y-104834000D01*
X160189500Y-104840000D01*
X160186500Y-104846000D01*
X160183500Y-104852000D01*
X160180500Y-104858000D01*
X160177500Y-104863000D01*
X160173500Y-104868000D01*
X160169500Y-104874000D01*
X160165500Y-104879000D01*
X160160500Y-104883000D01*
X160156500Y-104888000D01*
X160151500Y-104892000D01*
X160145500Y-104896000D01*
X160140500Y-104900000D01*
X160135500Y-104903000D01*
X160129500Y-104906000D01*
X160123500Y-104909000D01*
X160117500Y-104912000D01*
X160111500Y-104914000D01*
X160104500Y-104916000D01*
X160098500Y-104917000D01*
X160092500Y-104918000D01*
X160085500Y-104919000D01*
X160079500Y-104920000D01*
X160072500Y-104920000D01*
X159872500Y-104920000D01*
X159865500Y-104920000D01*
X159859500Y-104919000D01*
X159852500Y-104918000D01*
X159846500Y-104917000D01*
X159840500Y-104916000D01*
X159833500Y-104914000D01*
X159827500Y-104912000D01*
X159821500Y-104909000D01*
X159815500Y-104906000D01*
X159809500Y-104903000D01*
X159804500Y-104900000D01*
X159799500Y-104896000D01*
X159793500Y-104892000D01*
X159788500Y-104888000D01*
X159784500Y-104883000D01*
X159779500Y-104879000D01*
X159775500Y-104874000D01*
X159771500Y-104868000D01*
X159767500Y-104863000D01*
X159764500Y-104858000D01*
X159761500Y-104852000D01*
X159758500Y-104846000D01*
X159755500Y-104840000D01*
X159753500Y-104834000D01*
X159751500Y-104827000D01*
X159750500Y-104821000D01*
X159749500Y-104815000D01*
X159748500Y-104808000D01*
X159747500Y-104802000D01*
X159747500Y-104795000D01*
X159747500Y-104355000D01*
X159747500Y-104348000D01*
X159748500Y-104342000D01*
X159749500Y-104335000D01*
X159750500Y-104329000D01*
X159751500Y-104323000D01*
X159753500Y-104316000D01*
X159755500Y-104310000D01*
X159758500Y-104304000D01*
X159761500Y-104298000D01*
X159764500Y-104292000D01*
X159767500Y-104287000D01*
X159771500Y-104282000D01*
X159775500Y-104276000D01*
X159779500Y-104271000D01*
X159784500Y-104267000D01*
X159788500Y-104262000D01*
X159793500Y-104258000D01*
X159799500Y-104254000D01*
X159804500Y-104250000D01*
X159810500Y-104247000D01*
X159815500Y-104244000D01*
X159821500Y-104241000D01*
X159827500Y-104238000D01*
X159833500Y-104236000D01*
X159840500Y-104234000D01*
X159846500Y-104233000D01*
X159852500Y-104232000D01*
X159859500Y-104231000D01*
X159865500Y-104230000D01*
X159872500Y-104230000D01*
X160072500Y-104230000D01*
X160079500Y-104230000D01*
X160085500Y-104231000D01*
G36*
X160085500Y-104231000D02*
G01*
X160092500Y-104232000D01*
X160098500Y-104233000D01*
X160104500Y-104234000D01*
X160111500Y-104236000D01*
X160117500Y-104238000D01*
X160123500Y-104241000D01*
X160129500Y-104244000D01*
X160135500Y-104247000D01*
X160140500Y-104250000D01*
X160145500Y-104254000D01*
X160151500Y-104258000D01*
X160156500Y-104262000D01*
X160160500Y-104267000D01*
X160165500Y-104271000D01*
X160169500Y-104276000D01*
X160173500Y-104282000D01*
X160177500Y-104287000D01*
X160180500Y-104292000D01*
X160183500Y-104298000D01*
X160186500Y-104304000D01*
X160189500Y-104310000D01*
X160191500Y-104316000D01*
X160193500Y-104323000D01*
X160194500Y-104329000D01*
X160195500Y-104335000D01*
X160196500Y-104342000D01*
X160197500Y-104348000D01*
X160197500Y-104355000D01*
X160197500Y-104795000D01*
X160197500Y-104802000D01*
X160196500Y-104808000D01*
X160195500Y-104815000D01*
X160194500Y-104821000D01*
X160193500Y-104827000D01*
X160191500Y-104834000D01*
X160189500Y-104840000D01*
X160186500Y-104846000D01*
X160183500Y-104852000D01*
X160180500Y-104858000D01*
X160177500Y-104863000D01*
X160173500Y-104868000D01*
X160169500Y-104874000D01*
X160165500Y-104879000D01*
X160160500Y-104883000D01*
X160156500Y-104888000D01*
X160151500Y-104892000D01*
X160145500Y-104896000D01*
X160140500Y-104900000D01*
X160135500Y-104903000D01*
X160129500Y-104906000D01*
X160123500Y-104909000D01*
X160117500Y-104912000D01*
X160111500Y-104914000D01*
X160104500Y-104916000D01*
X160098500Y-104917000D01*
X160092500Y-104918000D01*
X160085500Y-104919000D01*
X160079500Y-104920000D01*
X160072500Y-104920000D01*
X159872500Y-104920000D01*
X159865500Y-104920000D01*
X159859500Y-104919000D01*
X159852500Y-104918000D01*
X159846500Y-104917000D01*
X159840500Y-104916000D01*
X159833500Y-104914000D01*
X159827500Y-104912000D01*
X159821500Y-104909000D01*
X159815500Y-104906000D01*
X159809500Y-104903000D01*
X159804500Y-104900000D01*
X159799500Y-104896000D01*
X159793500Y-104892000D01*
X159788500Y-104888000D01*
X159784500Y-104883000D01*
X159779500Y-104879000D01*
X159775500Y-104874000D01*
X159771500Y-104868000D01*
X159767500Y-104863000D01*
X159764500Y-104858000D01*
X159761500Y-104852000D01*
X159758500Y-104846000D01*
X159755500Y-104840000D01*
X159753500Y-104834000D01*
X159751500Y-104827000D01*
X159750500Y-104821000D01*
X159749500Y-104815000D01*
X159748500Y-104808000D01*
X159747500Y-104802000D01*
X159747500Y-104795000D01*
X159747500Y-104355000D01*
X159747500Y-104348000D01*
X159748500Y-104342000D01*
X159749500Y-104335000D01*
X159750500Y-104329000D01*
X159751500Y-104323000D01*
X159753500Y-104316000D01*
X159755500Y-104310000D01*
X159758500Y-104304000D01*
X159761500Y-104298000D01*
X159764500Y-104292000D01*
X159767500Y-104287000D01*
X159771500Y-104282000D01*
X159775500Y-104276000D01*
X159779500Y-104271000D01*
X159784500Y-104267000D01*
X159788500Y-104262000D01*
X159793500Y-104258000D01*
X159799500Y-104254000D01*
X159804500Y-104250000D01*
X159810500Y-104247000D01*
X159815500Y-104244000D01*
X159821500Y-104241000D01*
X159827500Y-104238000D01*
X159833500Y-104236000D01*
X159840500Y-104234000D01*
X159846500Y-104233000D01*
X159852500Y-104232000D01*
X159859500Y-104231000D01*
X159865500Y-104230000D01*
X159872500Y-104230000D01*
X160072500Y-104230000D01*
X160079500Y-104230000D01*
X160085500Y-104231000D01*
G37*
X160585500Y-102401000D02*
X160592500Y-102402000D01*
X160598500Y-102403000D01*
X160604500Y-102404000D01*
X160611500Y-102406000D01*
X160617500Y-102408000D01*
X160623500Y-102411000D01*
X160629500Y-102414000D01*
X160634500Y-102417000D01*
X160640500Y-102420000D01*
X160645500Y-102424000D01*
X160651500Y-102428000D01*
X160656500Y-102432000D01*
X160660500Y-102437000D01*
X160665500Y-102441000D01*
X160669500Y-102446000D01*
X160673500Y-102452000D01*
X160677500Y-102457000D01*
X160680500Y-102462000D01*
X160683500Y-102468000D01*
X160686500Y-102474000D01*
X160689500Y-102480000D01*
X160691500Y-102486000D01*
X160693500Y-102493000D01*
X160694500Y-102499000D01*
X160695500Y-102505000D01*
X160696500Y-102512000D01*
X160697500Y-102518000D01*
X160697500Y-102525000D01*
X160697500Y-102965000D01*
X160697500Y-102972000D01*
X160696500Y-102978000D01*
X160695500Y-102985000D01*
X160694500Y-102991000D01*
X160693500Y-102997000D01*
X160691500Y-103004000D01*
X160689500Y-103010000D01*
X160686500Y-103016000D01*
X160683500Y-103022000D01*
X160680500Y-103028000D01*
X160677500Y-103033000D01*
X160673500Y-103038000D01*
X160669500Y-103044000D01*
X160665500Y-103049000D01*
X160660500Y-103053000D01*
X160656500Y-103058000D01*
X160651500Y-103062000D01*
X160645500Y-103066000D01*
X160640500Y-103070000D01*
X160634500Y-103073000D01*
X160629500Y-103076000D01*
X160623500Y-103079000D01*
X160617500Y-103082000D01*
X160611500Y-103084000D01*
X160604500Y-103086000D01*
X160598500Y-103087000D01*
X160592500Y-103088000D01*
X160585500Y-103089000D01*
X160579500Y-103090000D01*
X160572500Y-103090000D01*
X160372500Y-103090000D01*
X160365500Y-103090000D01*
X160359500Y-103089000D01*
X160352500Y-103088000D01*
X160346500Y-103087000D01*
X160340500Y-103086000D01*
X160333500Y-103084000D01*
X160327500Y-103082000D01*
X160321500Y-103079000D01*
X160315500Y-103076000D01*
X160309500Y-103073000D01*
X160304500Y-103070000D01*
X160299500Y-103066000D01*
X160293500Y-103062000D01*
X160288500Y-103058000D01*
X160284500Y-103053000D01*
X160279500Y-103049000D01*
X160275500Y-103044000D01*
X160271500Y-103038000D01*
X160267500Y-103033000D01*
X160264500Y-103028000D01*
X160261500Y-103022000D01*
X160258500Y-103016000D01*
X160255500Y-103010000D01*
X160253500Y-103004000D01*
X160251500Y-102997000D01*
X160250500Y-102991000D01*
X160249500Y-102985000D01*
X160248500Y-102978000D01*
X160247500Y-102972000D01*
X160247500Y-102965000D01*
X160247500Y-102525000D01*
X160247500Y-102518000D01*
X160248500Y-102512000D01*
X160249500Y-102505000D01*
X160250500Y-102499000D01*
X160251500Y-102493000D01*
X160253500Y-102486000D01*
X160255500Y-102480000D01*
X160258500Y-102474000D01*
X160261500Y-102468000D01*
X160264500Y-102462000D01*
X160267500Y-102457000D01*
X160271500Y-102452000D01*
X160275500Y-102446000D01*
X160279500Y-102441000D01*
X160284500Y-102437000D01*
X160288500Y-102432000D01*
X160293500Y-102428000D01*
X160299500Y-102424000D01*
X160304500Y-102420000D01*
X160310500Y-102417000D01*
X160315500Y-102414000D01*
X160321500Y-102411000D01*
X160327500Y-102408000D01*
X160333500Y-102406000D01*
X160340500Y-102404000D01*
X160346500Y-102403000D01*
X160352500Y-102402000D01*
X160359500Y-102401000D01*
X160365500Y-102400000D01*
X160372500Y-102400000D01*
X160572500Y-102400000D01*
X160579500Y-102400000D01*
X160585500Y-102401000D01*
G36*
X160585500Y-102401000D02*
G01*
X160592500Y-102402000D01*
X160598500Y-102403000D01*
X160604500Y-102404000D01*
X160611500Y-102406000D01*
X160617500Y-102408000D01*
X160623500Y-102411000D01*
X160629500Y-102414000D01*
X160634500Y-102417000D01*
X160640500Y-102420000D01*
X160645500Y-102424000D01*
X160651500Y-102428000D01*
X160656500Y-102432000D01*
X160660500Y-102437000D01*
X160665500Y-102441000D01*
X160669500Y-102446000D01*
X160673500Y-102452000D01*
X160677500Y-102457000D01*
X160680500Y-102462000D01*
X160683500Y-102468000D01*
X160686500Y-102474000D01*
X160689500Y-102480000D01*
X160691500Y-102486000D01*
X160693500Y-102493000D01*
X160694500Y-102499000D01*
X160695500Y-102505000D01*
X160696500Y-102512000D01*
X160697500Y-102518000D01*
X160697500Y-102525000D01*
X160697500Y-102965000D01*
X160697500Y-102972000D01*
X160696500Y-102978000D01*
X160695500Y-102985000D01*
X160694500Y-102991000D01*
X160693500Y-102997000D01*
X160691500Y-103004000D01*
X160689500Y-103010000D01*
X160686500Y-103016000D01*
X160683500Y-103022000D01*
X160680500Y-103028000D01*
X160677500Y-103033000D01*
X160673500Y-103038000D01*
X160669500Y-103044000D01*
X160665500Y-103049000D01*
X160660500Y-103053000D01*
X160656500Y-103058000D01*
X160651500Y-103062000D01*
X160645500Y-103066000D01*
X160640500Y-103070000D01*
X160634500Y-103073000D01*
X160629500Y-103076000D01*
X160623500Y-103079000D01*
X160617500Y-103082000D01*
X160611500Y-103084000D01*
X160604500Y-103086000D01*
X160598500Y-103087000D01*
X160592500Y-103088000D01*
X160585500Y-103089000D01*
X160579500Y-103090000D01*
X160572500Y-103090000D01*
X160372500Y-103090000D01*
X160365500Y-103090000D01*
X160359500Y-103089000D01*
X160352500Y-103088000D01*
X160346500Y-103087000D01*
X160340500Y-103086000D01*
X160333500Y-103084000D01*
X160327500Y-103082000D01*
X160321500Y-103079000D01*
X160315500Y-103076000D01*
X160309500Y-103073000D01*
X160304500Y-103070000D01*
X160299500Y-103066000D01*
X160293500Y-103062000D01*
X160288500Y-103058000D01*
X160284500Y-103053000D01*
X160279500Y-103049000D01*
X160275500Y-103044000D01*
X160271500Y-103038000D01*
X160267500Y-103033000D01*
X160264500Y-103028000D01*
X160261500Y-103022000D01*
X160258500Y-103016000D01*
X160255500Y-103010000D01*
X160253500Y-103004000D01*
X160251500Y-102997000D01*
X160250500Y-102991000D01*
X160249500Y-102985000D01*
X160248500Y-102978000D01*
X160247500Y-102972000D01*
X160247500Y-102965000D01*
X160247500Y-102525000D01*
X160247500Y-102518000D01*
X160248500Y-102512000D01*
X160249500Y-102505000D01*
X160250500Y-102499000D01*
X160251500Y-102493000D01*
X160253500Y-102486000D01*
X160255500Y-102480000D01*
X160258500Y-102474000D01*
X160261500Y-102468000D01*
X160264500Y-102462000D01*
X160267500Y-102457000D01*
X160271500Y-102452000D01*
X160275500Y-102446000D01*
X160279500Y-102441000D01*
X160284500Y-102437000D01*
X160288500Y-102432000D01*
X160293500Y-102428000D01*
X160299500Y-102424000D01*
X160304500Y-102420000D01*
X160310500Y-102417000D01*
X160315500Y-102414000D01*
X160321500Y-102411000D01*
X160327500Y-102408000D01*
X160333500Y-102406000D01*
X160340500Y-102404000D01*
X160346500Y-102403000D01*
X160352500Y-102402000D01*
X160359500Y-102401000D01*
X160365500Y-102400000D01*
X160372500Y-102400000D01*
X160572500Y-102400000D01*
X160579500Y-102400000D01*
X160585500Y-102401000D01*
G37*
X160585500Y-104231000D02*
X160592500Y-104232000D01*
X160598500Y-104233000D01*
X160604500Y-104234000D01*
X160611500Y-104236000D01*
X160617500Y-104238000D01*
X160623500Y-104241000D01*
X160629500Y-104244000D01*
X160634500Y-104247000D01*
X160640500Y-104250000D01*
X160645500Y-104254000D01*
X160651500Y-104258000D01*
X160656500Y-104262000D01*
X160660500Y-104267000D01*
X160665500Y-104271000D01*
X160669500Y-104276000D01*
X160673500Y-104282000D01*
X160677500Y-104287000D01*
X160680500Y-104292000D01*
X160683500Y-104298000D01*
X160686500Y-104304000D01*
X160689500Y-104310000D01*
X160691500Y-104316000D01*
X160693500Y-104323000D01*
X160694500Y-104329000D01*
X160695500Y-104335000D01*
X160696500Y-104342000D01*
X160697500Y-104348000D01*
X160697500Y-104355000D01*
X160697500Y-104795000D01*
X160697500Y-104802000D01*
X160696500Y-104808000D01*
X160695500Y-104815000D01*
X160694500Y-104821000D01*
X160693500Y-104827000D01*
X160691500Y-104834000D01*
X160689500Y-104840000D01*
X160686500Y-104846000D01*
X160683500Y-104852000D01*
X160680500Y-104858000D01*
X160677500Y-104863000D01*
X160673500Y-104868000D01*
X160669500Y-104874000D01*
X160665500Y-104879000D01*
X160660500Y-104883000D01*
X160656500Y-104888000D01*
X160651500Y-104892000D01*
X160645500Y-104896000D01*
X160640500Y-104900000D01*
X160634500Y-104903000D01*
X160629500Y-104906000D01*
X160623500Y-104909000D01*
X160617500Y-104912000D01*
X160611500Y-104914000D01*
X160604500Y-104916000D01*
X160598500Y-104917000D01*
X160592500Y-104918000D01*
X160585500Y-104919000D01*
X160579500Y-104920000D01*
X160572500Y-104920000D01*
X160372500Y-104920000D01*
X160365500Y-104920000D01*
X160359500Y-104919000D01*
X160352500Y-104918000D01*
X160346500Y-104917000D01*
X160340500Y-104916000D01*
X160333500Y-104914000D01*
X160327500Y-104912000D01*
X160321500Y-104909000D01*
X160315500Y-104906000D01*
X160309500Y-104903000D01*
X160304500Y-104900000D01*
X160299500Y-104896000D01*
X160293500Y-104892000D01*
X160288500Y-104888000D01*
X160284500Y-104883000D01*
X160279500Y-104879000D01*
X160275500Y-104874000D01*
X160271500Y-104868000D01*
X160267500Y-104863000D01*
X160264500Y-104858000D01*
X160261500Y-104852000D01*
X160258500Y-104846000D01*
X160255500Y-104840000D01*
X160253500Y-104834000D01*
X160251500Y-104827000D01*
X160250500Y-104821000D01*
X160249500Y-104815000D01*
X160248500Y-104808000D01*
X160247500Y-104802000D01*
X160247500Y-104795000D01*
X160247500Y-104355000D01*
X160247500Y-104348000D01*
X160248500Y-104342000D01*
X160249500Y-104335000D01*
X160250500Y-104329000D01*
X160251500Y-104323000D01*
X160253500Y-104316000D01*
X160255500Y-104310000D01*
X160258500Y-104304000D01*
X160261500Y-104298000D01*
X160264500Y-104292000D01*
X160267500Y-104287000D01*
X160271500Y-104282000D01*
X160275500Y-104276000D01*
X160279500Y-104271000D01*
X160284500Y-104267000D01*
X160288500Y-104262000D01*
X160293500Y-104258000D01*
X160299500Y-104254000D01*
X160304500Y-104250000D01*
X160310500Y-104247000D01*
X160315500Y-104244000D01*
X160321500Y-104241000D01*
X160327500Y-104238000D01*
X160333500Y-104236000D01*
X160340500Y-104234000D01*
X160346500Y-104233000D01*
X160352500Y-104232000D01*
X160359500Y-104231000D01*
X160365500Y-104230000D01*
X160372500Y-104230000D01*
X160572500Y-104230000D01*
X160579500Y-104230000D01*
X160585500Y-104231000D01*
G36*
X160585500Y-104231000D02*
G01*
X160592500Y-104232000D01*
X160598500Y-104233000D01*
X160604500Y-104234000D01*
X160611500Y-104236000D01*
X160617500Y-104238000D01*
X160623500Y-104241000D01*
X160629500Y-104244000D01*
X160634500Y-104247000D01*
X160640500Y-104250000D01*
X160645500Y-104254000D01*
X160651500Y-104258000D01*
X160656500Y-104262000D01*
X160660500Y-104267000D01*
X160665500Y-104271000D01*
X160669500Y-104276000D01*
X160673500Y-104282000D01*
X160677500Y-104287000D01*
X160680500Y-104292000D01*
X160683500Y-104298000D01*
X160686500Y-104304000D01*
X160689500Y-104310000D01*
X160691500Y-104316000D01*
X160693500Y-104323000D01*
X160694500Y-104329000D01*
X160695500Y-104335000D01*
X160696500Y-104342000D01*
X160697500Y-104348000D01*
X160697500Y-104355000D01*
X160697500Y-104795000D01*
X160697500Y-104802000D01*
X160696500Y-104808000D01*
X160695500Y-104815000D01*
X160694500Y-104821000D01*
X160693500Y-104827000D01*
X160691500Y-104834000D01*
X160689500Y-104840000D01*
X160686500Y-104846000D01*
X160683500Y-104852000D01*
X160680500Y-104858000D01*
X160677500Y-104863000D01*
X160673500Y-104868000D01*
X160669500Y-104874000D01*
X160665500Y-104879000D01*
X160660500Y-104883000D01*
X160656500Y-104888000D01*
X160651500Y-104892000D01*
X160645500Y-104896000D01*
X160640500Y-104900000D01*
X160634500Y-104903000D01*
X160629500Y-104906000D01*
X160623500Y-104909000D01*
X160617500Y-104912000D01*
X160611500Y-104914000D01*
X160604500Y-104916000D01*
X160598500Y-104917000D01*
X160592500Y-104918000D01*
X160585500Y-104919000D01*
X160579500Y-104920000D01*
X160572500Y-104920000D01*
X160372500Y-104920000D01*
X160365500Y-104920000D01*
X160359500Y-104919000D01*
X160352500Y-104918000D01*
X160346500Y-104917000D01*
X160340500Y-104916000D01*
X160333500Y-104914000D01*
X160327500Y-104912000D01*
X160321500Y-104909000D01*
X160315500Y-104906000D01*
X160309500Y-104903000D01*
X160304500Y-104900000D01*
X160299500Y-104896000D01*
X160293500Y-104892000D01*
X160288500Y-104888000D01*
X160284500Y-104883000D01*
X160279500Y-104879000D01*
X160275500Y-104874000D01*
X160271500Y-104868000D01*
X160267500Y-104863000D01*
X160264500Y-104858000D01*
X160261500Y-104852000D01*
X160258500Y-104846000D01*
X160255500Y-104840000D01*
X160253500Y-104834000D01*
X160251500Y-104827000D01*
X160250500Y-104821000D01*
X160249500Y-104815000D01*
X160248500Y-104808000D01*
X160247500Y-104802000D01*
X160247500Y-104795000D01*
X160247500Y-104355000D01*
X160247500Y-104348000D01*
X160248500Y-104342000D01*
X160249500Y-104335000D01*
X160250500Y-104329000D01*
X160251500Y-104323000D01*
X160253500Y-104316000D01*
X160255500Y-104310000D01*
X160258500Y-104304000D01*
X160261500Y-104298000D01*
X160264500Y-104292000D01*
X160267500Y-104287000D01*
X160271500Y-104282000D01*
X160275500Y-104276000D01*
X160279500Y-104271000D01*
X160284500Y-104267000D01*
X160288500Y-104262000D01*
X160293500Y-104258000D01*
X160299500Y-104254000D01*
X160304500Y-104250000D01*
X160310500Y-104247000D01*
X160315500Y-104244000D01*
X160321500Y-104241000D01*
X160327500Y-104238000D01*
X160333500Y-104236000D01*
X160340500Y-104234000D01*
X160346500Y-104233000D01*
X160352500Y-104232000D01*
X160359500Y-104231000D01*
X160365500Y-104230000D01*
X160372500Y-104230000D01*
X160572500Y-104230000D01*
X160579500Y-104230000D01*
X160585500Y-104231000D01*
G37*
X161370500Y-102686000D02*
X161377500Y-102687000D01*
X161383500Y-102688000D01*
X161389500Y-102689000D01*
X161396500Y-102691000D01*
X161402500Y-102693000D01*
X161408500Y-102696000D01*
X161414500Y-102699000D01*
X161420500Y-102702000D01*
X161425500Y-102705000D01*
X161430500Y-102709000D01*
X161436500Y-102713000D01*
X161441500Y-102717000D01*
X161445500Y-102722000D01*
X161450500Y-102726000D01*
X161454500Y-102731000D01*
X161458500Y-102737000D01*
X161462500Y-102742000D01*
X161465500Y-102748000D01*
X161468500Y-102753000D01*
X161471500Y-102759000D01*
X161474500Y-102765000D01*
X161476500Y-102771000D01*
X161478500Y-102778000D01*
X161479500Y-102784000D01*
X161480500Y-102790000D01*
X161481500Y-102797000D01*
X161482500Y-102803000D01*
X161482500Y-102810000D01*
X161482500Y-103010000D01*
X161482500Y-103017000D01*
X161481500Y-103023000D01*
X161480500Y-103030000D01*
X161479500Y-103036000D01*
X161478500Y-103042000D01*
X161476500Y-103049000D01*
X161474500Y-103055000D01*
X161471500Y-103061000D01*
X161468500Y-103067000D01*
X161465500Y-103072000D01*
X161462500Y-103078000D01*
X161458500Y-103083000D01*
X161454500Y-103089000D01*
X161450500Y-103094000D01*
X161445500Y-103098000D01*
X161441500Y-103103000D01*
X161436500Y-103107000D01*
X161430500Y-103111000D01*
X161425500Y-103115000D01*
X161420500Y-103118000D01*
X161414500Y-103121000D01*
X161408500Y-103124000D01*
X161402500Y-103127000D01*
X161396500Y-103129000D01*
X161389500Y-103131000D01*
X161383500Y-103132000D01*
X161377500Y-103133000D01*
X161370500Y-103134000D01*
X161364500Y-103135000D01*
X161357500Y-103135000D01*
X160917500Y-103135000D01*
X160910500Y-103135000D01*
X160904500Y-103134000D01*
X160897500Y-103133000D01*
X160891500Y-103132000D01*
X160885500Y-103131000D01*
X160878500Y-103129000D01*
X160872500Y-103127000D01*
X160866500Y-103124000D01*
X160860500Y-103121000D01*
X160854500Y-103118000D01*
X160849500Y-103115000D01*
X160844500Y-103111000D01*
X160838500Y-103107000D01*
X160833500Y-103103000D01*
X160829500Y-103098000D01*
X160824500Y-103094000D01*
X160820500Y-103089000D01*
X160816500Y-103083000D01*
X160812500Y-103078000D01*
X160809500Y-103072000D01*
X160806500Y-103067000D01*
X160803500Y-103061000D01*
X160800500Y-103055000D01*
X160798500Y-103049000D01*
X160796500Y-103042000D01*
X160795500Y-103036000D01*
X160794500Y-103030000D01*
X160793500Y-103023000D01*
X160792500Y-103017000D01*
X160792500Y-103010000D01*
X160792500Y-102810000D01*
X160792500Y-102803000D01*
X160793500Y-102797000D01*
X160794500Y-102790000D01*
X160795500Y-102784000D01*
X160796500Y-102778000D01*
X160798500Y-102771000D01*
X160800500Y-102765000D01*
X160803500Y-102759000D01*
X160806500Y-102753000D01*
X160809500Y-102748000D01*
X160812500Y-102742000D01*
X160816500Y-102737000D01*
X160820500Y-102731000D01*
X160824500Y-102726000D01*
X160829500Y-102722000D01*
X160833500Y-102717000D01*
X160838500Y-102713000D01*
X160844500Y-102709000D01*
X160849500Y-102705000D01*
X160854500Y-102702000D01*
X160860500Y-102699000D01*
X160866500Y-102696000D01*
X160872500Y-102693000D01*
X160878500Y-102691000D01*
X160885500Y-102689000D01*
X160891500Y-102688000D01*
X160897500Y-102687000D01*
X160904500Y-102686000D01*
X160910500Y-102685000D01*
X160917500Y-102685000D01*
X161357500Y-102685000D01*
X161364500Y-102685000D01*
X161370500Y-102686000D01*
G36*
X161370500Y-102686000D02*
G01*
X161377500Y-102687000D01*
X161383500Y-102688000D01*
X161389500Y-102689000D01*
X161396500Y-102691000D01*
X161402500Y-102693000D01*
X161408500Y-102696000D01*
X161414500Y-102699000D01*
X161420500Y-102702000D01*
X161425500Y-102705000D01*
X161430500Y-102709000D01*
X161436500Y-102713000D01*
X161441500Y-102717000D01*
X161445500Y-102722000D01*
X161450500Y-102726000D01*
X161454500Y-102731000D01*
X161458500Y-102737000D01*
X161462500Y-102742000D01*
X161465500Y-102748000D01*
X161468500Y-102753000D01*
X161471500Y-102759000D01*
X161474500Y-102765000D01*
X161476500Y-102771000D01*
X161478500Y-102778000D01*
X161479500Y-102784000D01*
X161480500Y-102790000D01*
X161481500Y-102797000D01*
X161482500Y-102803000D01*
X161482500Y-102810000D01*
X161482500Y-103010000D01*
X161482500Y-103017000D01*
X161481500Y-103023000D01*
X161480500Y-103030000D01*
X161479500Y-103036000D01*
X161478500Y-103042000D01*
X161476500Y-103049000D01*
X161474500Y-103055000D01*
X161471500Y-103061000D01*
X161468500Y-103067000D01*
X161465500Y-103072000D01*
X161462500Y-103078000D01*
X161458500Y-103083000D01*
X161454500Y-103089000D01*
X161450500Y-103094000D01*
X161445500Y-103098000D01*
X161441500Y-103103000D01*
X161436500Y-103107000D01*
X161430500Y-103111000D01*
X161425500Y-103115000D01*
X161420500Y-103118000D01*
X161414500Y-103121000D01*
X161408500Y-103124000D01*
X161402500Y-103127000D01*
X161396500Y-103129000D01*
X161389500Y-103131000D01*
X161383500Y-103132000D01*
X161377500Y-103133000D01*
X161370500Y-103134000D01*
X161364500Y-103135000D01*
X161357500Y-103135000D01*
X160917500Y-103135000D01*
X160910500Y-103135000D01*
X160904500Y-103134000D01*
X160897500Y-103133000D01*
X160891500Y-103132000D01*
X160885500Y-103131000D01*
X160878500Y-103129000D01*
X160872500Y-103127000D01*
X160866500Y-103124000D01*
X160860500Y-103121000D01*
X160854500Y-103118000D01*
X160849500Y-103115000D01*
X160844500Y-103111000D01*
X160838500Y-103107000D01*
X160833500Y-103103000D01*
X160829500Y-103098000D01*
X160824500Y-103094000D01*
X160820500Y-103089000D01*
X160816500Y-103083000D01*
X160812500Y-103078000D01*
X160809500Y-103072000D01*
X160806500Y-103067000D01*
X160803500Y-103061000D01*
X160800500Y-103055000D01*
X160798500Y-103049000D01*
X160796500Y-103042000D01*
X160795500Y-103036000D01*
X160794500Y-103030000D01*
X160793500Y-103023000D01*
X160792500Y-103017000D01*
X160792500Y-103010000D01*
X160792500Y-102810000D01*
X160792500Y-102803000D01*
X160793500Y-102797000D01*
X160794500Y-102790000D01*
X160795500Y-102784000D01*
X160796500Y-102778000D01*
X160798500Y-102771000D01*
X160800500Y-102765000D01*
X160803500Y-102759000D01*
X160806500Y-102753000D01*
X160809500Y-102748000D01*
X160812500Y-102742000D01*
X160816500Y-102737000D01*
X160820500Y-102731000D01*
X160824500Y-102726000D01*
X160829500Y-102722000D01*
X160833500Y-102717000D01*
X160838500Y-102713000D01*
X160844500Y-102709000D01*
X160849500Y-102705000D01*
X160854500Y-102702000D01*
X160860500Y-102699000D01*
X160866500Y-102696000D01*
X160872500Y-102693000D01*
X160878500Y-102691000D01*
X160885500Y-102689000D01*
X160891500Y-102688000D01*
X160897500Y-102687000D01*
X160904500Y-102686000D01*
X160910500Y-102685000D01*
X160917500Y-102685000D01*
X161357500Y-102685000D01*
X161364500Y-102685000D01*
X161370500Y-102686000D01*
G37*
X161370500Y-103186000D02*
X161377500Y-103187000D01*
X161383500Y-103188000D01*
X161389500Y-103189000D01*
X161396500Y-103191000D01*
X161402500Y-103193000D01*
X161408500Y-103196000D01*
X161414500Y-103199000D01*
X161420500Y-103202000D01*
X161425500Y-103205000D01*
X161430500Y-103209000D01*
X161436500Y-103213000D01*
X161441500Y-103217000D01*
X161445500Y-103222000D01*
X161450500Y-103226000D01*
X161454500Y-103231000D01*
X161458500Y-103237000D01*
X161462500Y-103242000D01*
X161465500Y-103248000D01*
X161468500Y-103253000D01*
X161471500Y-103259000D01*
X161474500Y-103265000D01*
X161476500Y-103271000D01*
X161478500Y-103278000D01*
X161479500Y-103284000D01*
X161480500Y-103290000D01*
X161481500Y-103297000D01*
X161482500Y-103303000D01*
X161482500Y-103310000D01*
X161482500Y-103510000D01*
X161482500Y-103517000D01*
X161481500Y-103523000D01*
X161480500Y-103530000D01*
X161479500Y-103536000D01*
X161478500Y-103542000D01*
X161476500Y-103549000D01*
X161474500Y-103555000D01*
X161471500Y-103561000D01*
X161468500Y-103567000D01*
X161465500Y-103572000D01*
X161462500Y-103578000D01*
X161458500Y-103583000D01*
X161454500Y-103589000D01*
X161450500Y-103594000D01*
X161445500Y-103598000D01*
X161441500Y-103603000D01*
X161436500Y-103607000D01*
X161430500Y-103611000D01*
X161425500Y-103615000D01*
X161420500Y-103618000D01*
X161414500Y-103621000D01*
X161408500Y-103624000D01*
X161402500Y-103627000D01*
X161396500Y-103629000D01*
X161389500Y-103631000D01*
X161383500Y-103632000D01*
X161377500Y-103633000D01*
X161370500Y-103634000D01*
X161364500Y-103635000D01*
X161357500Y-103635000D01*
X160917500Y-103635000D01*
X160910500Y-103635000D01*
X160904500Y-103634000D01*
X160897500Y-103633000D01*
X160891500Y-103632000D01*
X160885500Y-103631000D01*
X160878500Y-103629000D01*
X160872500Y-103627000D01*
X160866500Y-103624000D01*
X160860500Y-103621000D01*
X160854500Y-103618000D01*
X160849500Y-103615000D01*
X160844500Y-103611000D01*
X160838500Y-103607000D01*
X160833500Y-103603000D01*
X160829500Y-103598000D01*
X160824500Y-103594000D01*
X160820500Y-103589000D01*
X160816500Y-103583000D01*
X160812500Y-103578000D01*
X160809500Y-103572000D01*
X160806500Y-103567000D01*
X160803500Y-103561000D01*
X160800500Y-103555000D01*
X160798500Y-103549000D01*
X160796500Y-103542000D01*
X160795500Y-103536000D01*
X160794500Y-103530000D01*
X160793500Y-103523000D01*
X160792500Y-103517000D01*
X160792500Y-103510000D01*
X160792500Y-103310000D01*
X160792500Y-103303000D01*
X160793500Y-103297000D01*
X160794500Y-103290000D01*
X160795500Y-103284000D01*
X160796500Y-103278000D01*
X160798500Y-103271000D01*
X160800500Y-103265000D01*
X160803500Y-103259000D01*
X160806500Y-103253000D01*
X160809500Y-103248000D01*
X160812500Y-103242000D01*
X160816500Y-103237000D01*
X160820500Y-103231000D01*
X160824500Y-103226000D01*
X160829500Y-103222000D01*
X160833500Y-103217000D01*
X160838500Y-103213000D01*
X160844500Y-103209000D01*
X160849500Y-103205000D01*
X160854500Y-103202000D01*
X160860500Y-103199000D01*
X160866500Y-103196000D01*
X160872500Y-103193000D01*
X160878500Y-103191000D01*
X160885500Y-103189000D01*
X160891500Y-103188000D01*
X160897500Y-103187000D01*
X160904500Y-103186000D01*
X160910500Y-103185000D01*
X160917500Y-103185000D01*
X161357500Y-103185000D01*
X161364500Y-103185000D01*
X161370500Y-103186000D01*
G36*
X161370500Y-103186000D02*
G01*
X161377500Y-103187000D01*
X161383500Y-103188000D01*
X161389500Y-103189000D01*
X161396500Y-103191000D01*
X161402500Y-103193000D01*
X161408500Y-103196000D01*
X161414500Y-103199000D01*
X161420500Y-103202000D01*
X161425500Y-103205000D01*
X161430500Y-103209000D01*
X161436500Y-103213000D01*
X161441500Y-103217000D01*
X161445500Y-103222000D01*
X161450500Y-103226000D01*
X161454500Y-103231000D01*
X161458500Y-103237000D01*
X161462500Y-103242000D01*
X161465500Y-103248000D01*
X161468500Y-103253000D01*
X161471500Y-103259000D01*
X161474500Y-103265000D01*
X161476500Y-103271000D01*
X161478500Y-103278000D01*
X161479500Y-103284000D01*
X161480500Y-103290000D01*
X161481500Y-103297000D01*
X161482500Y-103303000D01*
X161482500Y-103310000D01*
X161482500Y-103510000D01*
X161482500Y-103517000D01*
X161481500Y-103523000D01*
X161480500Y-103530000D01*
X161479500Y-103536000D01*
X161478500Y-103542000D01*
X161476500Y-103549000D01*
X161474500Y-103555000D01*
X161471500Y-103561000D01*
X161468500Y-103567000D01*
X161465500Y-103572000D01*
X161462500Y-103578000D01*
X161458500Y-103583000D01*
X161454500Y-103589000D01*
X161450500Y-103594000D01*
X161445500Y-103598000D01*
X161441500Y-103603000D01*
X161436500Y-103607000D01*
X161430500Y-103611000D01*
X161425500Y-103615000D01*
X161420500Y-103618000D01*
X161414500Y-103621000D01*
X161408500Y-103624000D01*
X161402500Y-103627000D01*
X161396500Y-103629000D01*
X161389500Y-103631000D01*
X161383500Y-103632000D01*
X161377500Y-103633000D01*
X161370500Y-103634000D01*
X161364500Y-103635000D01*
X161357500Y-103635000D01*
X160917500Y-103635000D01*
X160910500Y-103635000D01*
X160904500Y-103634000D01*
X160897500Y-103633000D01*
X160891500Y-103632000D01*
X160885500Y-103631000D01*
X160878500Y-103629000D01*
X160872500Y-103627000D01*
X160866500Y-103624000D01*
X160860500Y-103621000D01*
X160854500Y-103618000D01*
X160849500Y-103615000D01*
X160844500Y-103611000D01*
X160838500Y-103607000D01*
X160833500Y-103603000D01*
X160829500Y-103598000D01*
X160824500Y-103594000D01*
X160820500Y-103589000D01*
X160816500Y-103583000D01*
X160812500Y-103578000D01*
X160809500Y-103572000D01*
X160806500Y-103567000D01*
X160803500Y-103561000D01*
X160800500Y-103555000D01*
X160798500Y-103549000D01*
X160796500Y-103542000D01*
X160795500Y-103536000D01*
X160794500Y-103530000D01*
X160793500Y-103523000D01*
X160792500Y-103517000D01*
X160792500Y-103510000D01*
X160792500Y-103310000D01*
X160792500Y-103303000D01*
X160793500Y-103297000D01*
X160794500Y-103290000D01*
X160795500Y-103284000D01*
X160796500Y-103278000D01*
X160798500Y-103271000D01*
X160800500Y-103265000D01*
X160803500Y-103259000D01*
X160806500Y-103253000D01*
X160809500Y-103248000D01*
X160812500Y-103242000D01*
X160816500Y-103237000D01*
X160820500Y-103231000D01*
X160824500Y-103226000D01*
X160829500Y-103222000D01*
X160833500Y-103217000D01*
X160838500Y-103213000D01*
X160844500Y-103209000D01*
X160849500Y-103205000D01*
X160854500Y-103202000D01*
X160860500Y-103199000D01*
X160866500Y-103196000D01*
X160872500Y-103193000D01*
X160878500Y-103191000D01*
X160885500Y-103189000D01*
X160891500Y-103188000D01*
X160897500Y-103187000D01*
X160904500Y-103186000D01*
X160910500Y-103185000D01*
X160917500Y-103185000D01*
X161357500Y-103185000D01*
X161364500Y-103185000D01*
X161370500Y-103186000D01*
G37*
X161370500Y-103686000D02*
X161377500Y-103687000D01*
X161383500Y-103688000D01*
X161389500Y-103689000D01*
X161396500Y-103691000D01*
X161402500Y-103693000D01*
X161408500Y-103696000D01*
X161414500Y-103699000D01*
X161420500Y-103702000D01*
X161425500Y-103705000D01*
X161430500Y-103709000D01*
X161436500Y-103713000D01*
X161441500Y-103717000D01*
X161445500Y-103722000D01*
X161450500Y-103726000D01*
X161454500Y-103731000D01*
X161458500Y-103737000D01*
X161462500Y-103742000D01*
X161465500Y-103748000D01*
X161468500Y-103753000D01*
X161471500Y-103759000D01*
X161474500Y-103765000D01*
X161476500Y-103771000D01*
X161478500Y-103778000D01*
X161479500Y-103784000D01*
X161480500Y-103790000D01*
X161481500Y-103797000D01*
X161482500Y-103803000D01*
X161482500Y-103810000D01*
X161482500Y-104010000D01*
X161482500Y-104017000D01*
X161481500Y-104023000D01*
X161480500Y-104030000D01*
X161479500Y-104036000D01*
X161478500Y-104042000D01*
X161476500Y-104049000D01*
X161474500Y-104055000D01*
X161471500Y-104061000D01*
X161468500Y-104067000D01*
X161465500Y-104072000D01*
X161462500Y-104078000D01*
X161458500Y-104083000D01*
X161454500Y-104089000D01*
X161450500Y-104094000D01*
X161445500Y-104098000D01*
X161441500Y-104103000D01*
X161436500Y-104107000D01*
X161430500Y-104111000D01*
X161425500Y-104115000D01*
X161420500Y-104118000D01*
X161414500Y-104121000D01*
X161408500Y-104124000D01*
X161402500Y-104127000D01*
X161396500Y-104129000D01*
X161389500Y-104131000D01*
X161383500Y-104132000D01*
X161377500Y-104133000D01*
X161370500Y-104134000D01*
X161364500Y-104135000D01*
X161357500Y-104135000D01*
X160917500Y-104135000D01*
X160910500Y-104135000D01*
X160904500Y-104134000D01*
X160897500Y-104133000D01*
X160891500Y-104132000D01*
X160885500Y-104131000D01*
X160878500Y-104129000D01*
X160872500Y-104127000D01*
X160866500Y-104124000D01*
X160860500Y-104121000D01*
X160854500Y-104118000D01*
X160849500Y-104115000D01*
X160844500Y-104111000D01*
X160838500Y-104107000D01*
X160833500Y-104103000D01*
X160829500Y-104098000D01*
X160824500Y-104094000D01*
X160820500Y-104089000D01*
X160816500Y-104083000D01*
X160812500Y-104078000D01*
X160809500Y-104072000D01*
X160806500Y-104067000D01*
X160803500Y-104061000D01*
X160800500Y-104055000D01*
X160798500Y-104049000D01*
X160796500Y-104042000D01*
X160795500Y-104036000D01*
X160794500Y-104030000D01*
X160793500Y-104023000D01*
X160792500Y-104017000D01*
X160792500Y-104010000D01*
X160792500Y-103810000D01*
X160792500Y-103803000D01*
X160793500Y-103797000D01*
X160794500Y-103790000D01*
X160795500Y-103784000D01*
X160796500Y-103778000D01*
X160798500Y-103771000D01*
X160800500Y-103765000D01*
X160803500Y-103759000D01*
X160806500Y-103753000D01*
X160809500Y-103748000D01*
X160812500Y-103742000D01*
X160816500Y-103737000D01*
X160820500Y-103731000D01*
X160824500Y-103726000D01*
X160829500Y-103722000D01*
X160833500Y-103717000D01*
X160838500Y-103713000D01*
X160844500Y-103709000D01*
X160849500Y-103705000D01*
X160854500Y-103702000D01*
X160860500Y-103699000D01*
X160866500Y-103696000D01*
X160872500Y-103693000D01*
X160878500Y-103691000D01*
X160885500Y-103689000D01*
X160891500Y-103688000D01*
X160897500Y-103687000D01*
X160904500Y-103686000D01*
X160910500Y-103685000D01*
X160917500Y-103685000D01*
X161357500Y-103685000D01*
X161364500Y-103685000D01*
X161370500Y-103686000D01*
G36*
X161370500Y-103686000D02*
G01*
X161377500Y-103687000D01*
X161383500Y-103688000D01*
X161389500Y-103689000D01*
X161396500Y-103691000D01*
X161402500Y-103693000D01*
X161408500Y-103696000D01*
X161414500Y-103699000D01*
X161420500Y-103702000D01*
X161425500Y-103705000D01*
X161430500Y-103709000D01*
X161436500Y-103713000D01*
X161441500Y-103717000D01*
X161445500Y-103722000D01*
X161450500Y-103726000D01*
X161454500Y-103731000D01*
X161458500Y-103737000D01*
X161462500Y-103742000D01*
X161465500Y-103748000D01*
X161468500Y-103753000D01*
X161471500Y-103759000D01*
X161474500Y-103765000D01*
X161476500Y-103771000D01*
X161478500Y-103778000D01*
X161479500Y-103784000D01*
X161480500Y-103790000D01*
X161481500Y-103797000D01*
X161482500Y-103803000D01*
X161482500Y-103810000D01*
X161482500Y-104010000D01*
X161482500Y-104017000D01*
X161481500Y-104023000D01*
X161480500Y-104030000D01*
X161479500Y-104036000D01*
X161478500Y-104042000D01*
X161476500Y-104049000D01*
X161474500Y-104055000D01*
X161471500Y-104061000D01*
X161468500Y-104067000D01*
X161465500Y-104072000D01*
X161462500Y-104078000D01*
X161458500Y-104083000D01*
X161454500Y-104089000D01*
X161450500Y-104094000D01*
X161445500Y-104098000D01*
X161441500Y-104103000D01*
X161436500Y-104107000D01*
X161430500Y-104111000D01*
X161425500Y-104115000D01*
X161420500Y-104118000D01*
X161414500Y-104121000D01*
X161408500Y-104124000D01*
X161402500Y-104127000D01*
X161396500Y-104129000D01*
X161389500Y-104131000D01*
X161383500Y-104132000D01*
X161377500Y-104133000D01*
X161370500Y-104134000D01*
X161364500Y-104135000D01*
X161357500Y-104135000D01*
X160917500Y-104135000D01*
X160910500Y-104135000D01*
X160904500Y-104134000D01*
X160897500Y-104133000D01*
X160891500Y-104132000D01*
X160885500Y-104131000D01*
X160878500Y-104129000D01*
X160872500Y-104127000D01*
X160866500Y-104124000D01*
X160860500Y-104121000D01*
X160854500Y-104118000D01*
X160849500Y-104115000D01*
X160844500Y-104111000D01*
X160838500Y-104107000D01*
X160833500Y-104103000D01*
X160829500Y-104098000D01*
X160824500Y-104094000D01*
X160820500Y-104089000D01*
X160816500Y-104083000D01*
X160812500Y-104078000D01*
X160809500Y-104072000D01*
X160806500Y-104067000D01*
X160803500Y-104061000D01*
X160800500Y-104055000D01*
X160798500Y-104049000D01*
X160796500Y-104042000D01*
X160795500Y-104036000D01*
X160794500Y-104030000D01*
X160793500Y-104023000D01*
X160792500Y-104017000D01*
X160792500Y-104010000D01*
X160792500Y-103810000D01*
X160792500Y-103803000D01*
X160793500Y-103797000D01*
X160794500Y-103790000D01*
X160795500Y-103784000D01*
X160796500Y-103778000D01*
X160798500Y-103771000D01*
X160800500Y-103765000D01*
X160803500Y-103759000D01*
X160806500Y-103753000D01*
X160809500Y-103748000D01*
X160812500Y-103742000D01*
X160816500Y-103737000D01*
X160820500Y-103731000D01*
X160824500Y-103726000D01*
X160829500Y-103722000D01*
X160833500Y-103717000D01*
X160838500Y-103713000D01*
X160844500Y-103709000D01*
X160849500Y-103705000D01*
X160854500Y-103702000D01*
X160860500Y-103699000D01*
X160866500Y-103696000D01*
X160872500Y-103693000D01*
X160878500Y-103691000D01*
X160885500Y-103689000D01*
X160891500Y-103688000D01*
X160897500Y-103687000D01*
X160904500Y-103686000D01*
X160910500Y-103685000D01*
X160917500Y-103685000D01*
X161357500Y-103685000D01*
X161364500Y-103685000D01*
X161370500Y-103686000D01*
G37*
X161370500Y-104186000D02*
X161377500Y-104187000D01*
X161383500Y-104188000D01*
X161389500Y-104189000D01*
X161396500Y-104191000D01*
X161402500Y-104193000D01*
X161408500Y-104196000D01*
X161414500Y-104199000D01*
X161420500Y-104202000D01*
X161425500Y-104205000D01*
X161430500Y-104209000D01*
X161436500Y-104213000D01*
X161441500Y-104217000D01*
X161445500Y-104222000D01*
X161450500Y-104226000D01*
X161454500Y-104231000D01*
X161458500Y-104237000D01*
X161462500Y-104242000D01*
X161465500Y-104248000D01*
X161468500Y-104253000D01*
X161471500Y-104259000D01*
X161474500Y-104265000D01*
X161476500Y-104271000D01*
X161478500Y-104278000D01*
X161479500Y-104284000D01*
X161480500Y-104290000D01*
X161481500Y-104297000D01*
X161482500Y-104303000D01*
X161482500Y-104310000D01*
X161482500Y-104510000D01*
X161482500Y-104517000D01*
X161481500Y-104523000D01*
X161480500Y-104530000D01*
X161479500Y-104536000D01*
X161478500Y-104542000D01*
X161476500Y-104549000D01*
X161474500Y-104555000D01*
X161471500Y-104561000D01*
X161468500Y-104567000D01*
X161465500Y-104572000D01*
X161462500Y-104578000D01*
X161458500Y-104583000D01*
X161454500Y-104589000D01*
X161450500Y-104594000D01*
X161445500Y-104598000D01*
X161441500Y-104603000D01*
X161436500Y-104607000D01*
X161430500Y-104611000D01*
X161425500Y-104615000D01*
X161420500Y-104618000D01*
X161414500Y-104621000D01*
X161408500Y-104624000D01*
X161402500Y-104627000D01*
X161396500Y-104629000D01*
X161389500Y-104631000D01*
X161383500Y-104632000D01*
X161377500Y-104633000D01*
X161370500Y-104634000D01*
X161364500Y-104635000D01*
X161357500Y-104635000D01*
X160917500Y-104635000D01*
X160910500Y-104635000D01*
X160904500Y-104634000D01*
X160897500Y-104633000D01*
X160891500Y-104632000D01*
X160885500Y-104631000D01*
X160878500Y-104629000D01*
X160872500Y-104627000D01*
X160866500Y-104624000D01*
X160860500Y-104621000D01*
X160854500Y-104618000D01*
X160849500Y-104615000D01*
X160844500Y-104611000D01*
X160838500Y-104607000D01*
X160833500Y-104603000D01*
X160829500Y-104598000D01*
X160824500Y-104594000D01*
X160820500Y-104589000D01*
X160816500Y-104583000D01*
X160812500Y-104578000D01*
X160809500Y-104572000D01*
X160806500Y-104567000D01*
X160803500Y-104561000D01*
X160800500Y-104555000D01*
X160798500Y-104549000D01*
X160796500Y-104542000D01*
X160795500Y-104536000D01*
X160794500Y-104530000D01*
X160793500Y-104523000D01*
X160792500Y-104517000D01*
X160792500Y-104510000D01*
X160792500Y-104310000D01*
X160792500Y-104303000D01*
X160793500Y-104297000D01*
X160794500Y-104290000D01*
X160795500Y-104284000D01*
X160796500Y-104278000D01*
X160798500Y-104271000D01*
X160800500Y-104265000D01*
X160803500Y-104259000D01*
X160806500Y-104253000D01*
X160809500Y-104248000D01*
X160812500Y-104242000D01*
X160816500Y-104237000D01*
X160820500Y-104231000D01*
X160824500Y-104226000D01*
X160829500Y-104222000D01*
X160833500Y-104217000D01*
X160838500Y-104213000D01*
X160844500Y-104209000D01*
X160849500Y-104205000D01*
X160854500Y-104202000D01*
X160860500Y-104199000D01*
X160866500Y-104196000D01*
X160872500Y-104193000D01*
X160878500Y-104191000D01*
X160885500Y-104189000D01*
X160891500Y-104188000D01*
X160897500Y-104187000D01*
X160904500Y-104186000D01*
X160910500Y-104185000D01*
X160917500Y-104185000D01*
X161357500Y-104185000D01*
X161364500Y-104185000D01*
X161370500Y-104186000D01*
G36*
X161370500Y-104186000D02*
G01*
X161377500Y-104187000D01*
X161383500Y-104188000D01*
X161389500Y-104189000D01*
X161396500Y-104191000D01*
X161402500Y-104193000D01*
X161408500Y-104196000D01*
X161414500Y-104199000D01*
X161420500Y-104202000D01*
X161425500Y-104205000D01*
X161430500Y-104209000D01*
X161436500Y-104213000D01*
X161441500Y-104217000D01*
X161445500Y-104222000D01*
X161450500Y-104226000D01*
X161454500Y-104231000D01*
X161458500Y-104237000D01*
X161462500Y-104242000D01*
X161465500Y-104248000D01*
X161468500Y-104253000D01*
X161471500Y-104259000D01*
X161474500Y-104265000D01*
X161476500Y-104271000D01*
X161478500Y-104278000D01*
X161479500Y-104284000D01*
X161480500Y-104290000D01*
X161481500Y-104297000D01*
X161482500Y-104303000D01*
X161482500Y-104310000D01*
X161482500Y-104510000D01*
X161482500Y-104517000D01*
X161481500Y-104523000D01*
X161480500Y-104530000D01*
X161479500Y-104536000D01*
X161478500Y-104542000D01*
X161476500Y-104549000D01*
X161474500Y-104555000D01*
X161471500Y-104561000D01*
X161468500Y-104567000D01*
X161465500Y-104572000D01*
X161462500Y-104578000D01*
X161458500Y-104583000D01*
X161454500Y-104589000D01*
X161450500Y-104594000D01*
X161445500Y-104598000D01*
X161441500Y-104603000D01*
X161436500Y-104607000D01*
X161430500Y-104611000D01*
X161425500Y-104615000D01*
X161420500Y-104618000D01*
X161414500Y-104621000D01*
X161408500Y-104624000D01*
X161402500Y-104627000D01*
X161396500Y-104629000D01*
X161389500Y-104631000D01*
X161383500Y-104632000D01*
X161377500Y-104633000D01*
X161370500Y-104634000D01*
X161364500Y-104635000D01*
X161357500Y-104635000D01*
X160917500Y-104635000D01*
X160910500Y-104635000D01*
X160904500Y-104634000D01*
X160897500Y-104633000D01*
X160891500Y-104632000D01*
X160885500Y-104631000D01*
X160878500Y-104629000D01*
X160872500Y-104627000D01*
X160866500Y-104624000D01*
X160860500Y-104621000D01*
X160854500Y-104618000D01*
X160849500Y-104615000D01*
X160844500Y-104611000D01*
X160838500Y-104607000D01*
X160833500Y-104603000D01*
X160829500Y-104598000D01*
X160824500Y-104594000D01*
X160820500Y-104589000D01*
X160816500Y-104583000D01*
X160812500Y-104578000D01*
X160809500Y-104572000D01*
X160806500Y-104567000D01*
X160803500Y-104561000D01*
X160800500Y-104555000D01*
X160798500Y-104549000D01*
X160796500Y-104542000D01*
X160795500Y-104536000D01*
X160794500Y-104530000D01*
X160793500Y-104523000D01*
X160792500Y-104517000D01*
X160792500Y-104510000D01*
X160792500Y-104310000D01*
X160792500Y-104303000D01*
X160793500Y-104297000D01*
X160794500Y-104290000D01*
X160795500Y-104284000D01*
X160796500Y-104278000D01*
X160798500Y-104271000D01*
X160800500Y-104265000D01*
X160803500Y-104259000D01*
X160806500Y-104253000D01*
X160809500Y-104248000D01*
X160812500Y-104242000D01*
X160816500Y-104237000D01*
X160820500Y-104231000D01*
X160824500Y-104226000D01*
X160829500Y-104222000D01*
X160833500Y-104217000D01*
X160838500Y-104213000D01*
X160844500Y-104209000D01*
X160849500Y-104205000D01*
X160854500Y-104202000D01*
X160860500Y-104199000D01*
X160866500Y-104196000D01*
X160872500Y-104193000D01*
X160878500Y-104191000D01*
X160885500Y-104189000D01*
X160891500Y-104188000D01*
X160897500Y-104187000D01*
X160904500Y-104186000D01*
X160910500Y-104185000D01*
X160917500Y-104185000D01*
X161357500Y-104185000D01*
X161364500Y-104185000D01*
X161370500Y-104186000D01*
G37*
%TD*%
D11*
%TO.C,H4*%
X167010000Y-110910000D03*
%TD*%
D12*
%TO.C,C3*%
X160480000Y-105820000D03*
X159520000Y-105820000D03*
%TD*%
D11*
%TO.C,H3*%
X152510000Y-110910000D03*
%TD*%
%TO.C,H2*%
X167010000Y-96410000D03*
%TD*%
D13*
%TO.C,C2*%
X162340000Y-104450000D03*
X162340000Y-105410000D03*
%TD*%
D14*
%TO.C,J2*%
X155950000Y-96410000D03*
D15*
X158490000Y-96410000D03*
X161030000Y-96410000D03*
X163570000Y-96410000D03*
%TD*%
%TO.C,J1*%
X155950000Y-110910000D03*
X158490000Y-110910000D03*
X161030000Y-110910000D03*
D14*
X163570000Y-110910000D03*
%TD*%
D11*
%TO.C,H1*%
X152510000Y-96410000D03*
%TD*%
D13*
%TO.C,C1*%
X163350000Y-104450000D03*
X163350000Y-105410000D03*
%TD*%
M02*
