%TF.GenerationSoftware,KiCad,Pcbnew,7.0.10*%
%TF.CreationDate,2025-02-08T17:23:52-05:00*%
%TF.ProjectId,pcb2,70636232-2e6b-4696-9361-645f70636258,rev?*%
%TF.SameCoordinates,Original*%
%TF.FileFunction,Legend,Top*%
%TF.FilePolarity,Positive*%
%FSLAX46Y46*%
G04 Gerber Fmt 4.6, Leading zero omitted, Abs format (unit mm)*
G04 Created by KiCad (PCBNEW 7.0.10) date 2025-02-08 17:23:52*
%MOMM*%
%LPD*%
G01*
G04 APERTURE LIST*
%ADD10C,0.150000*%
%ADD11C,0.200000*%
%ADD12C,0.127000*%
%ADD13C,0.120000*%
G04 APERTURE END LIST*
D10*
X156093628Y-101521428D02*
X156569819Y-101521428D01*
X155569819Y-101721428D02*
X156093628Y-101521428D01*
X156093628Y-101521428D02*
X155569819Y-101321428D01*
X156188866Y-101121427D02*
X156188866Y-100664285D01*
X157328571Y-100746569D02*
X157728571Y-101746569D01*
X157728571Y-100746569D02*
X157328571Y-101746569D01*
X157957143Y-101365616D02*
X158414286Y-101365616D01*
X161750000Y-101275000D02*
X159350000Y-101275000D01*
X156193628Y-106621428D02*
X156669819Y-106621428D01*
X155669819Y-106821428D02*
X156193628Y-106621428D01*
X156193628Y-106621428D02*
X155669819Y-106421428D01*
X156288866Y-106221427D02*
X156288866Y-105764285D01*
X156669819Y-105992856D02*
X155907914Y-105992856D01*
X162678571Y-100746569D02*
X163078571Y-101746569D01*
X163078571Y-100746569D02*
X162678571Y-101746569D01*
X163307143Y-101365616D02*
X163764286Y-101365616D01*
X163535714Y-101746569D02*
X163535714Y-100984664D01*
X156200000Y-104950000D02*
X156200000Y-102550000D01*
X156600000Y-102550000D02*
X155750000Y-102550000D01*
X156200000Y-101900000D01*
X156600000Y-102550000D01*
G36*
X156600000Y-102550000D02*
G01*
X155750000Y-102550000D01*
X156200000Y-101900000D01*
X156600000Y-102550000D01*
G37*
X156200000Y-105500000D02*
X155800000Y-104850000D01*
X156650000Y-104850000D01*
X156200000Y-105500000D01*
G36*
X156200000Y-105500000D02*
G01*
X155800000Y-104850000D01*
X156650000Y-104850000D01*
X156200000Y-105500000D01*
G37*
X159350000Y-101700000D02*
X158700000Y-101250000D01*
X159350000Y-100850000D01*
X159350000Y-101700000D01*
G36*
X159350000Y-101700000D02*
G01*
X158700000Y-101250000D01*
X159350000Y-100850000D01*
X159350000Y-101700000D01*
G37*
X162450000Y-101300000D02*
X161800000Y-101700000D01*
X161800000Y-100850000D01*
X162450000Y-101300000D01*
G36*
X162450000Y-101300000D02*
G01*
X161800000Y-101700000D01*
X161800000Y-100850000D01*
X162450000Y-101300000D01*
G37*
X163700000Y-103800000D02*
X162400000Y-103850000D01*
D11*
X163600000Y-102550000D02*
X162000000Y-102200000D01*
D10*
X149750000Y-112550000D02*
G75*
G03*
X150850000Y-113650000I1100000J0D01*
G01*
X168650000Y-113650000D02*
G75*
G03*
X169750000Y-112550000I0J1100000D01*
G01*
X168650000Y-113650000D02*
X150850000Y-113650000D01*
X150850000Y-93600000D02*
G75*
G03*
X149750000Y-94700000I0J-1100000D01*
G01*
X149750000Y-112550000D02*
X149750000Y-94700000D01*
X169750000Y-94700000D02*
G75*
G03*
X168650000Y-93600000I-1100000J0D01*
G01*
X169750000Y-94700000D02*
X169750000Y-112550000D01*
X150850000Y-93600000D02*
X168650000Y-93600000D01*
X164024580Y-98957142D02*
X164072200Y-98985714D01*
X164072200Y-98985714D02*
X164119819Y-99071428D01*
X164119819Y-99071428D02*
X164119819Y-99128571D01*
X164119819Y-99128571D02*
X164072200Y-99214285D01*
X164072200Y-99214285D02*
X163976961Y-99271428D01*
X163976961Y-99271428D02*
X163881723Y-99299999D01*
X163881723Y-99299999D02*
X163691247Y-99328571D01*
X163691247Y-99328571D02*
X163548390Y-99328571D01*
X163548390Y-99328571D02*
X163357914Y-99299999D01*
X163357914Y-99299999D02*
X163262676Y-99271428D01*
X163262676Y-99271428D02*
X163167438Y-99214285D01*
X163167438Y-99214285D02*
X163119819Y-99128571D01*
X163119819Y-99128571D02*
X163119819Y-99071428D01*
X163119819Y-99071428D02*
X163167438Y-98985714D01*
X163167438Y-98985714D02*
X163215057Y-98957142D01*
X164072200Y-98728571D02*
X164119819Y-98642857D01*
X164119819Y-98642857D02*
X164119819Y-98499999D01*
X164119819Y-98499999D02*
X164072200Y-98442857D01*
X164072200Y-98442857D02*
X164024580Y-98414285D01*
X164024580Y-98414285D02*
X163929342Y-98385714D01*
X163929342Y-98385714D02*
X163834104Y-98385714D01*
X163834104Y-98385714D02*
X163738866Y-98414285D01*
X163738866Y-98414285D02*
X163691247Y-98442857D01*
X163691247Y-98442857D02*
X163643628Y-98499999D01*
X163643628Y-98499999D02*
X163596009Y-98614285D01*
X163596009Y-98614285D02*
X163548390Y-98671428D01*
X163548390Y-98671428D02*
X163500771Y-98699999D01*
X163500771Y-98699999D02*
X163405533Y-98728571D01*
X163405533Y-98728571D02*
X163310295Y-98728571D01*
X163310295Y-98728571D02*
X163215057Y-98699999D01*
X163215057Y-98699999D02*
X163167438Y-98671428D01*
X163167438Y-98671428D02*
X163119819Y-98614285D01*
X163119819Y-98614285D02*
X163119819Y-98471428D01*
X163119819Y-98471428D02*
X163167438Y-98385714D01*
X159019819Y-100299998D02*
X158019819Y-100299998D01*
X158019819Y-100299998D02*
X158734104Y-100099998D01*
X158734104Y-100099998D02*
X158019819Y-99899998D01*
X158019819Y-99899998D02*
X159019819Y-99899998D01*
X158019819Y-99499999D02*
X158019819Y-99385713D01*
X158019819Y-99385713D02*
X158067438Y-99328570D01*
X158067438Y-99328570D02*
X158162676Y-99271427D01*
X158162676Y-99271427D02*
X158353152Y-99242856D01*
X158353152Y-99242856D02*
X158686485Y-99242856D01*
X158686485Y-99242856D02*
X158876961Y-99271427D01*
X158876961Y-99271427D02*
X158972200Y-99328570D01*
X158972200Y-99328570D02*
X159019819Y-99385713D01*
X159019819Y-99385713D02*
X159019819Y-99499999D01*
X159019819Y-99499999D02*
X158972200Y-99557142D01*
X158972200Y-99557142D02*
X158876961Y-99614284D01*
X158876961Y-99614284D02*
X158686485Y-99642856D01*
X158686485Y-99642856D02*
X158353152Y-99642856D01*
X158353152Y-99642856D02*
X158162676Y-99614284D01*
X158162676Y-99614284D02*
X158067438Y-99557142D01*
X158067438Y-99557142D02*
X158019819Y-99499999D01*
X158972200Y-99014285D02*
X159019819Y-98928571D01*
X159019819Y-98928571D02*
X159019819Y-98785713D01*
X159019819Y-98785713D02*
X158972200Y-98728571D01*
X158972200Y-98728571D02*
X158924580Y-98699999D01*
X158924580Y-98699999D02*
X158829342Y-98671428D01*
X158829342Y-98671428D02*
X158734104Y-98671428D01*
X158734104Y-98671428D02*
X158638866Y-98699999D01*
X158638866Y-98699999D02*
X158591247Y-98728571D01*
X158591247Y-98728571D02*
X158543628Y-98785713D01*
X158543628Y-98785713D02*
X158496009Y-98899999D01*
X158496009Y-98899999D02*
X158448390Y-98957142D01*
X158448390Y-98957142D02*
X158400771Y-98985713D01*
X158400771Y-98985713D02*
X158305533Y-99014285D01*
X158305533Y-99014285D02*
X158210295Y-99014285D01*
X158210295Y-99014285D02*
X158115057Y-98985713D01*
X158115057Y-98985713D02*
X158067438Y-98957142D01*
X158067438Y-98957142D02*
X158019819Y-98899999D01*
X158019819Y-98899999D02*
X158019819Y-98757142D01*
X158019819Y-98757142D02*
X158067438Y-98671428D01*
X159019819Y-98414284D02*
X158019819Y-98414284D01*
X161472200Y-100414285D02*
X161519819Y-100328571D01*
X161519819Y-100328571D02*
X161519819Y-100185713D01*
X161519819Y-100185713D02*
X161472200Y-100128571D01*
X161472200Y-100128571D02*
X161424580Y-100099999D01*
X161424580Y-100099999D02*
X161329342Y-100071428D01*
X161329342Y-100071428D02*
X161234104Y-100071428D01*
X161234104Y-100071428D02*
X161138866Y-100099999D01*
X161138866Y-100099999D02*
X161091247Y-100128571D01*
X161091247Y-100128571D02*
X161043628Y-100185713D01*
X161043628Y-100185713D02*
X160996009Y-100299999D01*
X160996009Y-100299999D02*
X160948390Y-100357142D01*
X160948390Y-100357142D02*
X160900771Y-100385713D01*
X160900771Y-100385713D02*
X160805533Y-100414285D01*
X160805533Y-100414285D02*
X160710295Y-100414285D01*
X160710295Y-100414285D02*
X160615057Y-100385713D01*
X160615057Y-100385713D02*
X160567438Y-100357142D01*
X160567438Y-100357142D02*
X160519819Y-100299999D01*
X160519819Y-100299999D02*
X160519819Y-100157142D01*
X160519819Y-100157142D02*
X160567438Y-100071428D01*
X161424580Y-99471427D02*
X161472200Y-99499999D01*
X161472200Y-99499999D02*
X161519819Y-99585713D01*
X161519819Y-99585713D02*
X161519819Y-99642856D01*
X161519819Y-99642856D02*
X161472200Y-99728570D01*
X161472200Y-99728570D02*
X161376961Y-99785713D01*
X161376961Y-99785713D02*
X161281723Y-99814284D01*
X161281723Y-99814284D02*
X161091247Y-99842856D01*
X161091247Y-99842856D02*
X160948390Y-99842856D01*
X160948390Y-99842856D02*
X160757914Y-99814284D01*
X160757914Y-99814284D02*
X160662676Y-99785713D01*
X160662676Y-99785713D02*
X160567438Y-99728570D01*
X160567438Y-99728570D02*
X160519819Y-99642856D01*
X160519819Y-99642856D02*
X160519819Y-99585713D01*
X160519819Y-99585713D02*
X160567438Y-99499999D01*
X160567438Y-99499999D02*
X160615057Y-99471427D01*
X161519819Y-98928570D02*
X161519819Y-99214284D01*
X161519819Y-99214284D02*
X160519819Y-99214284D01*
X161519819Y-98728570D02*
X160519819Y-98728570D01*
X161519819Y-98385713D02*
X160948390Y-98642856D01*
X160519819Y-98385713D02*
X161091247Y-98728570D01*
X156519819Y-100299998D02*
X155519819Y-100299998D01*
X155519819Y-100299998D02*
X156234104Y-100099998D01*
X156234104Y-100099998D02*
X155519819Y-99899998D01*
X155519819Y-99899998D02*
X156519819Y-99899998D01*
X156519819Y-99614284D02*
X155519819Y-99614284D01*
X156472200Y-99357142D02*
X156519819Y-99271428D01*
X156519819Y-99271428D02*
X156519819Y-99128570D01*
X156519819Y-99128570D02*
X156472200Y-99071428D01*
X156472200Y-99071428D02*
X156424580Y-99042856D01*
X156424580Y-99042856D02*
X156329342Y-99014285D01*
X156329342Y-99014285D02*
X156234104Y-99014285D01*
X156234104Y-99014285D02*
X156138866Y-99042856D01*
X156138866Y-99042856D02*
X156091247Y-99071428D01*
X156091247Y-99071428D02*
X156043628Y-99128570D01*
X156043628Y-99128570D02*
X155996009Y-99242856D01*
X155996009Y-99242856D02*
X155948390Y-99299999D01*
X155948390Y-99299999D02*
X155900771Y-99328570D01*
X155900771Y-99328570D02*
X155805533Y-99357142D01*
X155805533Y-99357142D02*
X155710295Y-99357142D01*
X155710295Y-99357142D02*
X155615057Y-99328570D01*
X155615057Y-99328570D02*
X155567438Y-99299999D01*
X155567438Y-99299999D02*
X155519819Y-99242856D01*
X155519819Y-99242856D02*
X155519819Y-99099999D01*
X155519819Y-99099999D02*
X155567438Y-99014285D01*
X155519819Y-98642856D02*
X155519819Y-98528570D01*
X155519819Y-98528570D02*
X155567438Y-98471427D01*
X155567438Y-98471427D02*
X155662676Y-98414284D01*
X155662676Y-98414284D02*
X155853152Y-98385713D01*
X155853152Y-98385713D02*
X156186485Y-98385713D01*
X156186485Y-98385713D02*
X156376961Y-98414284D01*
X156376961Y-98414284D02*
X156472200Y-98471427D01*
X156472200Y-98471427D02*
X156519819Y-98528570D01*
X156519819Y-98528570D02*
X156519819Y-98642856D01*
X156519819Y-98642856D02*
X156472200Y-98699999D01*
X156472200Y-98699999D02*
X156376961Y-98757141D01*
X156376961Y-98757141D02*
X156186485Y-98785713D01*
X156186485Y-98785713D02*
X155853152Y-98785713D01*
X155853152Y-98785713D02*
X155662676Y-98757141D01*
X155662676Y-98757141D02*
X155567438Y-98699999D01*
X155567438Y-98699999D02*
X155519819Y-98642856D01*
X163119819Y-108950000D02*
X164119819Y-108750000D01*
X164119819Y-108750000D02*
X163119819Y-108550000D01*
X164119819Y-108349999D02*
X163119819Y-108349999D01*
X163119819Y-108349999D02*
X163119819Y-108207142D01*
X163119819Y-108207142D02*
X163167438Y-108121428D01*
X163167438Y-108121428D02*
X163262676Y-108064285D01*
X163262676Y-108064285D02*
X163357914Y-108035714D01*
X163357914Y-108035714D02*
X163548390Y-108007142D01*
X163548390Y-108007142D02*
X163691247Y-108007142D01*
X163691247Y-108007142D02*
X163881723Y-108035714D01*
X163881723Y-108035714D02*
X163976961Y-108064285D01*
X163976961Y-108064285D02*
X164072200Y-108121428D01*
X164072200Y-108121428D02*
X164119819Y-108207142D01*
X164119819Y-108207142D02*
X164119819Y-108349999D01*
X164119819Y-107749999D02*
X163119819Y-107749999D01*
X163119819Y-107749999D02*
X163119819Y-107607142D01*
X163119819Y-107607142D02*
X163167438Y-107521428D01*
X163167438Y-107521428D02*
X163262676Y-107464285D01*
X163262676Y-107464285D02*
X163357914Y-107435714D01*
X163357914Y-107435714D02*
X163548390Y-107407142D01*
X163548390Y-107407142D02*
X163691247Y-107407142D01*
X163691247Y-107407142D02*
X163881723Y-107435714D01*
X163881723Y-107435714D02*
X163976961Y-107464285D01*
X163976961Y-107464285D02*
X164072200Y-107521428D01*
X164072200Y-107521428D02*
X164119819Y-107607142D01*
X164119819Y-107607142D02*
X164119819Y-107749999D01*
X160617438Y-108614285D02*
X160569819Y-108671428D01*
X160569819Y-108671428D02*
X160569819Y-108757142D01*
X160569819Y-108757142D02*
X160617438Y-108842856D01*
X160617438Y-108842856D02*
X160712676Y-108899999D01*
X160712676Y-108899999D02*
X160807914Y-108928570D01*
X160807914Y-108928570D02*
X160998390Y-108957142D01*
X160998390Y-108957142D02*
X161141247Y-108957142D01*
X161141247Y-108957142D02*
X161331723Y-108928570D01*
X161331723Y-108928570D02*
X161426961Y-108899999D01*
X161426961Y-108899999D02*
X161522200Y-108842856D01*
X161522200Y-108842856D02*
X161569819Y-108757142D01*
X161569819Y-108757142D02*
X161569819Y-108699999D01*
X161569819Y-108699999D02*
X161522200Y-108614285D01*
X161522200Y-108614285D02*
X161474580Y-108585713D01*
X161474580Y-108585713D02*
X161141247Y-108585713D01*
X161141247Y-108585713D02*
X161141247Y-108699999D01*
X161569819Y-108328570D02*
X160569819Y-108328570D01*
X160569819Y-108328570D02*
X161569819Y-107985713D01*
X161569819Y-107985713D02*
X160569819Y-107985713D01*
X161569819Y-107699999D02*
X160569819Y-107699999D01*
X160569819Y-107699999D02*
X160569819Y-107557142D01*
X160569819Y-107557142D02*
X160617438Y-107471428D01*
X160617438Y-107471428D02*
X160712676Y-107414285D01*
X160712676Y-107414285D02*
X160807914Y-107385714D01*
X160807914Y-107385714D02*
X160998390Y-107357142D01*
X160998390Y-107357142D02*
X161141247Y-107357142D01*
X161141247Y-107357142D02*
X161331723Y-107385714D01*
X161331723Y-107385714D02*
X161426961Y-107414285D01*
X161426961Y-107414285D02*
X161522200Y-107471428D01*
X161522200Y-107471428D02*
X161569819Y-107557142D01*
X161569819Y-107557142D02*
X161569819Y-107699999D01*
X159019819Y-108928570D02*
X158019819Y-108928570D01*
X159019819Y-108642856D02*
X158019819Y-108642856D01*
X158019819Y-108642856D02*
X159019819Y-108299999D01*
X159019819Y-108299999D02*
X158019819Y-108299999D01*
X158019819Y-108100000D02*
X158019819Y-107757143D01*
X159019819Y-107928571D02*
X158019819Y-107928571D01*
X159019819Y-107242857D02*
X159019819Y-107585714D01*
X159019819Y-107414285D02*
X158019819Y-107414285D01*
X158019819Y-107414285D02*
X158162676Y-107471428D01*
X158162676Y-107471428D02*
X158257914Y-107528571D01*
X158257914Y-107528571D02*
X158305533Y-107585714D01*
X156469819Y-108928570D02*
X155469819Y-108928570D01*
X156469819Y-108642856D02*
X155469819Y-108642856D01*
X155469819Y-108642856D02*
X156469819Y-108299999D01*
X156469819Y-108299999D02*
X155469819Y-108299999D01*
X155469819Y-108100000D02*
X155469819Y-107757143D01*
X156469819Y-107928571D02*
X155469819Y-107928571D01*
X155565057Y-107585714D02*
X155517438Y-107557142D01*
X155517438Y-107557142D02*
X155469819Y-107500000D01*
X155469819Y-107500000D02*
X155469819Y-107357142D01*
X155469819Y-107357142D02*
X155517438Y-107300000D01*
X155517438Y-107300000D02*
X155565057Y-107271428D01*
X155565057Y-107271428D02*
X155660295Y-107242857D01*
X155660295Y-107242857D02*
X155755533Y-107242857D01*
X155755533Y-107242857D02*
X155898390Y-107271428D01*
X155898390Y-107271428D02*
X156469819Y-107614285D01*
X156469819Y-107614285D02*
X156469819Y-107242857D01*
X150847759Y-108074286D02*
X150895378Y-107988572D01*
X150895378Y-107988572D02*
X150942997Y-107960001D01*
X150942997Y-107960001D02*
X151038235Y-107931429D01*
X151038235Y-107931429D02*
X151181092Y-107931429D01*
X151181092Y-107931429D02*
X151276330Y-107960001D01*
X151276330Y-107960001D02*
X151323950Y-107988572D01*
X151323950Y-107988572D02*
X151371569Y-108045715D01*
X151371569Y-108045715D02*
X151371569Y-108274286D01*
X151371569Y-108274286D02*
X150371569Y-108274286D01*
X150371569Y-108274286D02*
X150371569Y-108074286D01*
X150371569Y-108074286D02*
X150419188Y-108017144D01*
X150419188Y-108017144D02*
X150466807Y-107988572D01*
X150466807Y-107988572D02*
X150562045Y-107960001D01*
X150562045Y-107960001D02*
X150657283Y-107960001D01*
X150657283Y-107960001D02*
X150752521Y-107988572D01*
X150752521Y-107988572D02*
X150800140Y-108017144D01*
X150800140Y-108017144D02*
X150847759Y-108074286D01*
X150847759Y-108074286D02*
X150847759Y-108274286D01*
X151371569Y-107674286D02*
X150704902Y-107674286D01*
X150895378Y-107674286D02*
X150800140Y-107645715D01*
X150800140Y-107645715D02*
X150752521Y-107617144D01*
X150752521Y-107617144D02*
X150704902Y-107560001D01*
X150704902Y-107560001D02*
X150704902Y-107502858D01*
X151371569Y-107045715D02*
X150847759Y-107045715D01*
X150847759Y-107045715D02*
X150752521Y-107074286D01*
X150752521Y-107074286D02*
X150704902Y-107131429D01*
X150704902Y-107131429D02*
X150704902Y-107245715D01*
X150704902Y-107245715D02*
X150752521Y-107302857D01*
X151323950Y-107045715D02*
X151371569Y-107102857D01*
X151371569Y-107102857D02*
X151371569Y-107245715D01*
X151371569Y-107245715D02*
X151323950Y-107302857D01*
X151323950Y-107302857D02*
X151228711Y-107331429D01*
X151228711Y-107331429D02*
X151133473Y-107331429D01*
X151133473Y-107331429D02*
X151038235Y-107302857D01*
X151038235Y-107302857D02*
X150990616Y-107245715D01*
X150990616Y-107245715D02*
X150990616Y-107102857D01*
X150990616Y-107102857D02*
X150942997Y-107045715D01*
X151323950Y-106531429D02*
X151371569Y-106588572D01*
X151371569Y-106588572D02*
X151371569Y-106702858D01*
X151371569Y-106702858D02*
X151323950Y-106760000D01*
X151323950Y-106760000D02*
X151228711Y-106788572D01*
X151228711Y-106788572D02*
X150847759Y-106788572D01*
X150847759Y-106788572D02*
X150752521Y-106760000D01*
X150752521Y-106760000D02*
X150704902Y-106702858D01*
X150704902Y-106702858D02*
X150704902Y-106588572D01*
X150704902Y-106588572D02*
X150752521Y-106531429D01*
X150752521Y-106531429D02*
X150847759Y-106502858D01*
X150847759Y-106502858D02*
X150942997Y-106502858D01*
X150942997Y-106502858D02*
X151038235Y-106788572D01*
X151371569Y-105988572D02*
X150371569Y-105988572D01*
X151323950Y-105988572D02*
X151371569Y-106045714D01*
X151371569Y-106045714D02*
X151371569Y-106160000D01*
X151371569Y-106160000D02*
X151323950Y-106217143D01*
X151323950Y-106217143D02*
X151276330Y-106245714D01*
X151276330Y-106245714D02*
X151181092Y-106274286D01*
X151181092Y-106274286D02*
X150895378Y-106274286D01*
X150895378Y-106274286D02*
X150800140Y-106245714D01*
X150800140Y-106245714D02*
X150752521Y-106217143D01*
X150752521Y-106217143D02*
X150704902Y-106160000D01*
X150704902Y-106160000D02*
X150704902Y-106045714D01*
X150704902Y-106045714D02*
X150752521Y-105988572D01*
X151323950Y-105474286D02*
X151371569Y-105531429D01*
X151371569Y-105531429D02*
X151371569Y-105645715D01*
X151371569Y-105645715D02*
X151323950Y-105702857D01*
X151323950Y-105702857D02*
X151228711Y-105731429D01*
X151228711Y-105731429D02*
X150847759Y-105731429D01*
X150847759Y-105731429D02*
X150752521Y-105702857D01*
X150752521Y-105702857D02*
X150704902Y-105645715D01*
X150704902Y-105645715D02*
X150704902Y-105531429D01*
X150704902Y-105531429D02*
X150752521Y-105474286D01*
X150752521Y-105474286D02*
X150847759Y-105445715D01*
X150847759Y-105445715D02*
X150942997Y-105445715D01*
X150942997Y-105445715D02*
X151038235Y-105731429D01*
X150704902Y-105188571D02*
X151371569Y-105188571D01*
X150800140Y-105188571D02*
X150752521Y-105160000D01*
X150752521Y-105160000D02*
X150704902Y-105102857D01*
X150704902Y-105102857D02*
X150704902Y-105017143D01*
X150704902Y-105017143D02*
X150752521Y-104960000D01*
X150752521Y-104960000D02*
X150847759Y-104931429D01*
X150847759Y-104931429D02*
X151371569Y-104931429D01*
X151276330Y-103845714D02*
X151323950Y-103874286D01*
X151323950Y-103874286D02*
X151371569Y-103960000D01*
X151371569Y-103960000D02*
X151371569Y-104017143D01*
X151371569Y-104017143D02*
X151323950Y-104102857D01*
X151323950Y-104102857D02*
X151228711Y-104160000D01*
X151228711Y-104160000D02*
X151133473Y-104188571D01*
X151133473Y-104188571D02*
X150942997Y-104217143D01*
X150942997Y-104217143D02*
X150800140Y-104217143D01*
X150800140Y-104217143D02*
X150609664Y-104188571D01*
X150609664Y-104188571D02*
X150514426Y-104160000D01*
X150514426Y-104160000D02*
X150419188Y-104102857D01*
X150419188Y-104102857D02*
X150371569Y-104017143D01*
X150371569Y-104017143D02*
X150371569Y-103960000D01*
X150371569Y-103960000D02*
X150419188Y-103874286D01*
X150419188Y-103874286D02*
X150466807Y-103845714D01*
X151371569Y-103502857D02*
X151323950Y-103560000D01*
X151323950Y-103560000D02*
X151276330Y-103588571D01*
X151276330Y-103588571D02*
X151181092Y-103617143D01*
X151181092Y-103617143D02*
X150895378Y-103617143D01*
X150895378Y-103617143D02*
X150800140Y-103588571D01*
X150800140Y-103588571D02*
X150752521Y-103560000D01*
X150752521Y-103560000D02*
X150704902Y-103502857D01*
X150704902Y-103502857D02*
X150704902Y-103417143D01*
X150704902Y-103417143D02*
X150752521Y-103360000D01*
X150752521Y-103360000D02*
X150800140Y-103331429D01*
X150800140Y-103331429D02*
X150895378Y-103302857D01*
X150895378Y-103302857D02*
X151181092Y-103302857D01*
X151181092Y-103302857D02*
X151276330Y-103331429D01*
X151276330Y-103331429D02*
X151323950Y-103360000D01*
X151323950Y-103360000D02*
X151371569Y-103417143D01*
X151371569Y-103417143D02*
X151371569Y-103502857D01*
X151371569Y-102960000D02*
X151323950Y-103017143D01*
X151323950Y-103017143D02*
X151276330Y-103045714D01*
X151276330Y-103045714D02*
X151181092Y-103074286D01*
X151181092Y-103074286D02*
X150895378Y-103074286D01*
X150895378Y-103074286D02*
X150800140Y-103045714D01*
X150800140Y-103045714D02*
X150752521Y-103017143D01*
X150752521Y-103017143D02*
X150704902Y-102960000D01*
X150704902Y-102960000D02*
X150704902Y-102874286D01*
X150704902Y-102874286D02*
X150752521Y-102817143D01*
X150752521Y-102817143D02*
X150800140Y-102788572D01*
X150800140Y-102788572D02*
X150895378Y-102760000D01*
X150895378Y-102760000D02*
X151181092Y-102760000D01*
X151181092Y-102760000D02*
X151276330Y-102788572D01*
X151276330Y-102788572D02*
X151323950Y-102817143D01*
X151323950Y-102817143D02*
X151371569Y-102874286D01*
X151371569Y-102874286D02*
X151371569Y-102960000D01*
X151371569Y-102502857D02*
X150371569Y-102502857D01*
X150990616Y-102445715D02*
X151371569Y-102274286D01*
X150704902Y-102274286D02*
X151085854Y-102502857D01*
X151323950Y-101788572D02*
X151371569Y-101845715D01*
X151371569Y-101845715D02*
X151371569Y-101960001D01*
X151371569Y-101960001D02*
X151323950Y-102017143D01*
X151323950Y-102017143D02*
X151228711Y-102045715D01*
X151228711Y-102045715D02*
X150847759Y-102045715D01*
X150847759Y-102045715D02*
X150752521Y-102017143D01*
X150752521Y-102017143D02*
X150704902Y-101960001D01*
X150704902Y-101960001D02*
X150704902Y-101845715D01*
X150704902Y-101845715D02*
X150752521Y-101788572D01*
X150752521Y-101788572D02*
X150847759Y-101760001D01*
X150847759Y-101760001D02*
X150942997Y-101760001D01*
X150942997Y-101760001D02*
X151038235Y-102045715D01*
X150466807Y-101074286D02*
X150419188Y-101045714D01*
X150419188Y-101045714D02*
X150371569Y-100988572D01*
X150371569Y-100988572D02*
X150371569Y-100845714D01*
X150371569Y-100845714D02*
X150419188Y-100788572D01*
X150419188Y-100788572D02*
X150466807Y-100760000D01*
X150466807Y-100760000D02*
X150562045Y-100731429D01*
X150562045Y-100731429D02*
X150657283Y-100731429D01*
X150657283Y-100731429D02*
X150800140Y-100760000D01*
X150800140Y-100760000D02*
X151371569Y-101102857D01*
X151371569Y-101102857D02*
X151371569Y-100731429D01*
X150371569Y-100360000D02*
X150371569Y-100302857D01*
X150371569Y-100302857D02*
X150419188Y-100245714D01*
X150419188Y-100245714D02*
X150466807Y-100217143D01*
X150466807Y-100217143D02*
X150562045Y-100188571D01*
X150562045Y-100188571D02*
X150752521Y-100160000D01*
X150752521Y-100160000D02*
X150990616Y-100160000D01*
X150990616Y-100160000D02*
X151181092Y-100188571D01*
X151181092Y-100188571D02*
X151276330Y-100217143D01*
X151276330Y-100217143D02*
X151323950Y-100245714D01*
X151323950Y-100245714D02*
X151371569Y-100302857D01*
X151371569Y-100302857D02*
X151371569Y-100360000D01*
X151371569Y-100360000D02*
X151323950Y-100417143D01*
X151323950Y-100417143D02*
X151276330Y-100445714D01*
X151276330Y-100445714D02*
X151181092Y-100474285D01*
X151181092Y-100474285D02*
X150990616Y-100502857D01*
X150990616Y-100502857D02*
X150752521Y-100502857D01*
X150752521Y-100502857D02*
X150562045Y-100474285D01*
X150562045Y-100474285D02*
X150466807Y-100445714D01*
X150466807Y-100445714D02*
X150419188Y-100417143D01*
X150419188Y-100417143D02*
X150371569Y-100360000D01*
X150466807Y-99931428D02*
X150419188Y-99902856D01*
X150419188Y-99902856D02*
X150371569Y-99845714D01*
X150371569Y-99845714D02*
X150371569Y-99702856D01*
X150371569Y-99702856D02*
X150419188Y-99645714D01*
X150419188Y-99645714D02*
X150466807Y-99617142D01*
X150466807Y-99617142D02*
X150562045Y-99588571D01*
X150562045Y-99588571D02*
X150657283Y-99588571D01*
X150657283Y-99588571D02*
X150800140Y-99617142D01*
X150800140Y-99617142D02*
X151371569Y-99959999D01*
X151371569Y-99959999D02*
X151371569Y-99588571D01*
X150371569Y-99045713D02*
X150371569Y-99331427D01*
X150371569Y-99331427D02*
X150847759Y-99359999D01*
X150847759Y-99359999D02*
X150800140Y-99331427D01*
X150800140Y-99331427D02*
X150752521Y-99274285D01*
X150752521Y-99274285D02*
X150752521Y-99131427D01*
X150752521Y-99131427D02*
X150800140Y-99074285D01*
X150800140Y-99074285D02*
X150847759Y-99045713D01*
X150847759Y-99045713D02*
X150942997Y-99017142D01*
X150942997Y-99017142D02*
X151181092Y-99017142D01*
X151181092Y-99017142D02*
X151276330Y-99045713D01*
X151276330Y-99045713D02*
X151323950Y-99074285D01*
X151323950Y-99074285D02*
X151371569Y-99131427D01*
X151371569Y-99131427D02*
X151371569Y-99274285D01*
X151371569Y-99274285D02*
X151323950Y-99331427D01*
X151323950Y-99331427D02*
X151276330Y-99359999D01*
X152981569Y-108202857D02*
X151981569Y-108202857D01*
X151981569Y-108202857D02*
X152695854Y-108002857D01*
X152695854Y-108002857D02*
X151981569Y-107802857D01*
X151981569Y-107802857D02*
X152981569Y-107802857D01*
X152981569Y-107517143D02*
X151981569Y-107517143D01*
X151981569Y-107517143D02*
X152695854Y-107317143D01*
X152695854Y-107317143D02*
X151981569Y-107117143D01*
X151981569Y-107117143D02*
X152981569Y-107117143D01*
X152981569Y-106488572D02*
X152505378Y-106688572D01*
X152981569Y-106831429D02*
X151981569Y-106831429D01*
X151981569Y-106831429D02*
X151981569Y-106602858D01*
X151981569Y-106602858D02*
X152029188Y-106545715D01*
X152029188Y-106545715D02*
X152076807Y-106517144D01*
X152076807Y-106517144D02*
X152172045Y-106488572D01*
X152172045Y-106488572D02*
X152314902Y-106488572D01*
X152314902Y-106488572D02*
X152410140Y-106517144D01*
X152410140Y-106517144D02*
X152457759Y-106545715D01*
X152457759Y-106545715D02*
X152505378Y-106602858D01*
X152505378Y-106602858D02*
X152505378Y-106831429D01*
X152981569Y-106231429D02*
X151981569Y-106231429D01*
X152981569Y-105488572D02*
X151981569Y-105488572D01*
X152886330Y-104860001D02*
X152933950Y-104888573D01*
X152933950Y-104888573D02*
X152981569Y-104974287D01*
X152981569Y-104974287D02*
X152981569Y-105031430D01*
X152981569Y-105031430D02*
X152933950Y-105117144D01*
X152933950Y-105117144D02*
X152838711Y-105174287D01*
X152838711Y-105174287D02*
X152743473Y-105202858D01*
X152743473Y-105202858D02*
X152552997Y-105231430D01*
X152552997Y-105231430D02*
X152410140Y-105231430D01*
X152410140Y-105231430D02*
X152219664Y-105202858D01*
X152219664Y-105202858D02*
X152124426Y-105174287D01*
X152124426Y-105174287D02*
X152029188Y-105117144D01*
X152029188Y-105117144D02*
X151981569Y-105031430D01*
X151981569Y-105031430D02*
X151981569Y-104974287D01*
X151981569Y-104974287D02*
X152029188Y-104888573D01*
X152029188Y-104888573D02*
X152076807Y-104860001D01*
X152981569Y-104602858D02*
X151981569Y-104602858D01*
X151981569Y-104602858D02*
X152695854Y-104402858D01*
X152695854Y-104402858D02*
X151981569Y-104202858D01*
X151981569Y-104202858D02*
X152981569Y-104202858D01*
X152600616Y-103917144D02*
X152600616Y-103460002D01*
X152314902Y-102917145D02*
X152981569Y-102917145D01*
X151933950Y-103060002D02*
X152648235Y-103202859D01*
X152648235Y-103202859D02*
X152648235Y-102831430D01*
X152076807Y-102631430D02*
X152029188Y-102602858D01*
X152029188Y-102602858D02*
X151981569Y-102545716D01*
X151981569Y-102545716D02*
X151981569Y-102402858D01*
X151981569Y-102402858D02*
X152029188Y-102345716D01*
X152029188Y-102345716D02*
X152076807Y-102317144D01*
X152076807Y-102317144D02*
X152172045Y-102288573D01*
X152172045Y-102288573D02*
X152267283Y-102288573D01*
X152267283Y-102288573D02*
X152410140Y-102317144D01*
X152410140Y-102317144D02*
X152981569Y-102660001D01*
X152981569Y-102660001D02*
X152981569Y-102288573D01*
X151981569Y-101774287D02*
X151981569Y-101888572D01*
X151981569Y-101888572D02*
X152029188Y-101945715D01*
X152029188Y-101945715D02*
X152076807Y-101974287D01*
X152076807Y-101974287D02*
X152219664Y-102031429D01*
X152219664Y-102031429D02*
X152410140Y-102060001D01*
X152410140Y-102060001D02*
X152791092Y-102060001D01*
X152791092Y-102060001D02*
X152886330Y-102031429D01*
X152886330Y-102031429D02*
X152933950Y-102002858D01*
X152933950Y-102002858D02*
X152981569Y-101945715D01*
X152981569Y-101945715D02*
X152981569Y-101831429D01*
X152981569Y-101831429D02*
X152933950Y-101774287D01*
X152933950Y-101774287D02*
X152886330Y-101745715D01*
X152886330Y-101745715D02*
X152791092Y-101717144D01*
X152791092Y-101717144D02*
X152552997Y-101717144D01*
X152552997Y-101717144D02*
X152457759Y-101745715D01*
X152457759Y-101745715D02*
X152410140Y-101774287D01*
X152410140Y-101774287D02*
X152362521Y-101831429D01*
X152362521Y-101831429D02*
X152362521Y-101945715D01*
X152362521Y-101945715D02*
X152410140Y-102002858D01*
X152410140Y-102002858D02*
X152457759Y-102031429D01*
X152457759Y-102031429D02*
X152552997Y-102060001D01*
X152410140Y-101374286D02*
X152362521Y-101431429D01*
X152362521Y-101431429D02*
X152314902Y-101460000D01*
X152314902Y-101460000D02*
X152219664Y-101488572D01*
X152219664Y-101488572D02*
X152172045Y-101488572D01*
X152172045Y-101488572D02*
X152076807Y-101460000D01*
X152076807Y-101460000D02*
X152029188Y-101431429D01*
X152029188Y-101431429D02*
X151981569Y-101374286D01*
X151981569Y-101374286D02*
X151981569Y-101260000D01*
X151981569Y-101260000D02*
X152029188Y-101202858D01*
X152029188Y-101202858D02*
X152076807Y-101174286D01*
X152076807Y-101174286D02*
X152172045Y-101145715D01*
X152172045Y-101145715D02*
X152219664Y-101145715D01*
X152219664Y-101145715D02*
X152314902Y-101174286D01*
X152314902Y-101174286D02*
X152362521Y-101202858D01*
X152362521Y-101202858D02*
X152410140Y-101260000D01*
X152410140Y-101260000D02*
X152410140Y-101374286D01*
X152410140Y-101374286D02*
X152457759Y-101431429D01*
X152457759Y-101431429D02*
X152505378Y-101460000D01*
X152505378Y-101460000D02*
X152600616Y-101488572D01*
X152600616Y-101488572D02*
X152791092Y-101488572D01*
X152791092Y-101488572D02*
X152886330Y-101460000D01*
X152886330Y-101460000D02*
X152933950Y-101431429D01*
X152933950Y-101431429D02*
X152981569Y-101374286D01*
X152981569Y-101374286D02*
X152981569Y-101260000D01*
X152981569Y-101260000D02*
X152933950Y-101202858D01*
X152933950Y-101202858D02*
X152886330Y-101174286D01*
X152886330Y-101174286D02*
X152791092Y-101145715D01*
X152791092Y-101145715D02*
X152600616Y-101145715D01*
X152600616Y-101145715D02*
X152505378Y-101174286D01*
X152505378Y-101174286D02*
X152457759Y-101202858D01*
X152457759Y-101202858D02*
X152410140Y-101260000D01*
X152410140Y-100802857D02*
X152362521Y-100860000D01*
X152362521Y-100860000D02*
X152314902Y-100888571D01*
X152314902Y-100888571D02*
X152219664Y-100917143D01*
X152219664Y-100917143D02*
X152172045Y-100917143D01*
X152172045Y-100917143D02*
X152076807Y-100888571D01*
X152076807Y-100888571D02*
X152029188Y-100860000D01*
X152029188Y-100860000D02*
X151981569Y-100802857D01*
X151981569Y-100802857D02*
X151981569Y-100688571D01*
X151981569Y-100688571D02*
X152029188Y-100631429D01*
X152029188Y-100631429D02*
X152076807Y-100602857D01*
X152076807Y-100602857D02*
X152172045Y-100574286D01*
X152172045Y-100574286D02*
X152219664Y-100574286D01*
X152219664Y-100574286D02*
X152314902Y-100602857D01*
X152314902Y-100602857D02*
X152362521Y-100631429D01*
X152362521Y-100631429D02*
X152410140Y-100688571D01*
X152410140Y-100688571D02*
X152410140Y-100802857D01*
X152410140Y-100802857D02*
X152457759Y-100860000D01*
X152457759Y-100860000D02*
X152505378Y-100888571D01*
X152505378Y-100888571D02*
X152600616Y-100917143D01*
X152600616Y-100917143D02*
X152791092Y-100917143D01*
X152791092Y-100917143D02*
X152886330Y-100888571D01*
X152886330Y-100888571D02*
X152933950Y-100860000D01*
X152933950Y-100860000D02*
X152981569Y-100802857D01*
X152981569Y-100802857D02*
X152981569Y-100688571D01*
X152981569Y-100688571D02*
X152933950Y-100631429D01*
X152933950Y-100631429D02*
X152886330Y-100602857D01*
X152886330Y-100602857D02*
X152791092Y-100574286D01*
X152791092Y-100574286D02*
X152600616Y-100574286D01*
X152600616Y-100574286D02*
X152505378Y-100602857D01*
X152505378Y-100602857D02*
X152457759Y-100631429D01*
X152457759Y-100631429D02*
X152410140Y-100688571D01*
X152314902Y-99917142D02*
X152981569Y-99774285D01*
X152981569Y-99774285D02*
X152314902Y-99631428D01*
X151981569Y-99288571D02*
X151981569Y-99231428D01*
X151981569Y-99231428D02*
X152029188Y-99174285D01*
X152029188Y-99174285D02*
X152076807Y-99145714D01*
X152076807Y-99145714D02*
X152172045Y-99117142D01*
X152172045Y-99117142D02*
X152362521Y-99088571D01*
X152362521Y-99088571D02*
X152600616Y-99088571D01*
X152600616Y-99088571D02*
X152791092Y-99117142D01*
X152791092Y-99117142D02*
X152886330Y-99145714D01*
X152886330Y-99145714D02*
X152933950Y-99174285D01*
X152933950Y-99174285D02*
X152981569Y-99231428D01*
X152981569Y-99231428D02*
X152981569Y-99288571D01*
X152981569Y-99288571D02*
X152933950Y-99345714D01*
X152933950Y-99345714D02*
X152886330Y-99374285D01*
X152886330Y-99374285D02*
X152791092Y-99402856D01*
X152791092Y-99402856D02*
X152600616Y-99431428D01*
X152600616Y-99431428D02*
X152362521Y-99431428D01*
X152362521Y-99431428D02*
X152172045Y-99402856D01*
X152172045Y-99402856D02*
X152076807Y-99374285D01*
X152076807Y-99374285D02*
X152029188Y-99345714D01*
X152029188Y-99345714D02*
X151981569Y-99288571D01*
X153591569Y-106431428D02*
X154305854Y-106431428D01*
X154305854Y-106431428D02*
X154448711Y-106459999D01*
X154448711Y-106459999D02*
X154543950Y-106517142D01*
X154543950Y-106517142D02*
X154591569Y-106602856D01*
X154591569Y-106602856D02*
X154591569Y-106659999D01*
X154591569Y-105859999D02*
X154591569Y-106145713D01*
X154591569Y-106145713D02*
X153591569Y-106145713D01*
X154496330Y-105317142D02*
X154543950Y-105345714D01*
X154543950Y-105345714D02*
X154591569Y-105431428D01*
X154591569Y-105431428D02*
X154591569Y-105488571D01*
X154591569Y-105488571D02*
X154543950Y-105574285D01*
X154543950Y-105574285D02*
X154448711Y-105631428D01*
X154448711Y-105631428D02*
X154353473Y-105659999D01*
X154353473Y-105659999D02*
X154162997Y-105688571D01*
X154162997Y-105688571D02*
X154020140Y-105688571D01*
X154020140Y-105688571D02*
X153829664Y-105659999D01*
X153829664Y-105659999D02*
X153734426Y-105631428D01*
X153734426Y-105631428D02*
X153639188Y-105574285D01*
X153639188Y-105574285D02*
X153591569Y-105488571D01*
X153591569Y-105488571D02*
X153591569Y-105431428D01*
X153591569Y-105431428D02*
X153639188Y-105345714D01*
X153639188Y-105345714D02*
X153686807Y-105317142D01*
X153591569Y-104888571D02*
X154305854Y-104888571D01*
X154305854Y-104888571D02*
X154448711Y-104917142D01*
X154448711Y-104917142D02*
X154543950Y-104974285D01*
X154543950Y-104974285D02*
X154591569Y-105059999D01*
X154591569Y-105059999D02*
X154591569Y-105117142D01*
X154591569Y-104317142D02*
X154591569Y-104602856D01*
X154591569Y-104602856D02*
X153591569Y-104602856D01*
X154496330Y-103774285D02*
X154543950Y-103802857D01*
X154543950Y-103802857D02*
X154591569Y-103888571D01*
X154591569Y-103888571D02*
X154591569Y-103945714D01*
X154591569Y-103945714D02*
X154543950Y-104031428D01*
X154543950Y-104031428D02*
X154448711Y-104088571D01*
X154448711Y-104088571D02*
X154353473Y-104117142D01*
X154353473Y-104117142D02*
X154162997Y-104145714D01*
X154162997Y-104145714D02*
X154020140Y-104145714D01*
X154020140Y-104145714D02*
X153829664Y-104117142D01*
X153829664Y-104117142D02*
X153734426Y-104088571D01*
X153734426Y-104088571D02*
X153639188Y-104031428D01*
X153639188Y-104031428D02*
X153591569Y-103945714D01*
X153591569Y-103945714D02*
X153591569Y-103888571D01*
X153591569Y-103888571D02*
X153639188Y-103802857D01*
X153639188Y-103802857D02*
X153686807Y-103774285D01*
X153591569Y-103345714D02*
X154305854Y-103345714D01*
X154305854Y-103345714D02*
X154448711Y-103374285D01*
X154448711Y-103374285D02*
X154543950Y-103431428D01*
X154543950Y-103431428D02*
X154591569Y-103517142D01*
X154591569Y-103517142D02*
X154591569Y-103574285D01*
X154591569Y-102774285D02*
X154591569Y-103059999D01*
X154591569Y-103059999D02*
X153591569Y-103059999D01*
X154496330Y-102231428D02*
X154543950Y-102260000D01*
X154543950Y-102260000D02*
X154591569Y-102345714D01*
X154591569Y-102345714D02*
X154591569Y-102402857D01*
X154591569Y-102402857D02*
X154543950Y-102488571D01*
X154543950Y-102488571D02*
X154448711Y-102545714D01*
X154448711Y-102545714D02*
X154353473Y-102574285D01*
X154353473Y-102574285D02*
X154162997Y-102602857D01*
X154162997Y-102602857D02*
X154020140Y-102602857D01*
X154020140Y-102602857D02*
X153829664Y-102574285D01*
X153829664Y-102574285D02*
X153734426Y-102545714D01*
X153734426Y-102545714D02*
X153639188Y-102488571D01*
X153639188Y-102488571D02*
X153591569Y-102402857D01*
X153591569Y-102402857D02*
X153591569Y-102345714D01*
X153591569Y-102345714D02*
X153639188Y-102260000D01*
X153639188Y-102260000D02*
X153686807Y-102231428D01*
X153591569Y-101802857D02*
X154305854Y-101802857D01*
X154305854Y-101802857D02*
X154448711Y-101831428D01*
X154448711Y-101831428D02*
X154543950Y-101888571D01*
X154543950Y-101888571D02*
X154591569Y-101974285D01*
X154591569Y-101974285D02*
X154591569Y-102031428D01*
X154591569Y-101231428D02*
X154591569Y-101517142D01*
X154591569Y-101517142D02*
X153591569Y-101517142D01*
X154496330Y-100688571D02*
X154543950Y-100717143D01*
X154543950Y-100717143D02*
X154591569Y-100802857D01*
X154591569Y-100802857D02*
X154591569Y-100860000D01*
X154591569Y-100860000D02*
X154543950Y-100945714D01*
X154543950Y-100945714D02*
X154448711Y-101002857D01*
X154448711Y-101002857D02*
X154353473Y-101031428D01*
X154353473Y-101031428D02*
X154162997Y-101060000D01*
X154162997Y-101060000D02*
X154020140Y-101060000D01*
X154020140Y-101060000D02*
X153829664Y-101031428D01*
X153829664Y-101031428D02*
X153734426Y-101002857D01*
X153734426Y-101002857D02*
X153639188Y-100945714D01*
X153639188Y-100945714D02*
X153591569Y-100860000D01*
X153591569Y-100860000D02*
X153591569Y-100802857D01*
X153591569Y-100802857D02*
X153639188Y-100717143D01*
X153639188Y-100717143D02*
X153686807Y-100688571D01*
X163904819Y-102907142D02*
X164714342Y-102907142D01*
X164714342Y-102907142D02*
X164809580Y-102878571D01*
X164809580Y-102878571D02*
X164857200Y-102850000D01*
X164857200Y-102850000D02*
X164904819Y-102792857D01*
X164904819Y-102792857D02*
X164904819Y-102678571D01*
X164904819Y-102678571D02*
X164857200Y-102621428D01*
X164857200Y-102621428D02*
X164809580Y-102592857D01*
X164809580Y-102592857D02*
X164714342Y-102564285D01*
X164714342Y-102564285D02*
X163904819Y-102564285D01*
X164904819Y-101964286D02*
X164904819Y-102307143D01*
X164904819Y-102135714D02*
X163904819Y-102135714D01*
X163904819Y-102135714D02*
X164047676Y-102192857D01*
X164047676Y-102192857D02*
X164142914Y-102250000D01*
X164142914Y-102250000D02*
X164190533Y-102307143D01*
X158300000Y-106309580D02*
X158271428Y-106357200D01*
X158271428Y-106357200D02*
X158185714Y-106404819D01*
X158185714Y-106404819D02*
X158128571Y-106404819D01*
X158128571Y-106404819D02*
X158042857Y-106357200D01*
X158042857Y-106357200D02*
X157985714Y-106261961D01*
X157985714Y-106261961D02*
X157957143Y-106166723D01*
X157957143Y-106166723D02*
X157928571Y-105976247D01*
X157928571Y-105976247D02*
X157928571Y-105833390D01*
X157928571Y-105833390D02*
X157957143Y-105642914D01*
X157957143Y-105642914D02*
X157985714Y-105547676D01*
X157985714Y-105547676D02*
X158042857Y-105452438D01*
X158042857Y-105452438D02*
X158128571Y-105404819D01*
X158128571Y-105404819D02*
X158185714Y-105404819D01*
X158185714Y-105404819D02*
X158271428Y-105452438D01*
X158271428Y-105452438D02*
X158300000Y-105500057D01*
X158500000Y-105404819D02*
X158871428Y-105404819D01*
X158871428Y-105404819D02*
X158671428Y-105785771D01*
X158671428Y-105785771D02*
X158757143Y-105785771D01*
X158757143Y-105785771D02*
X158814286Y-105833390D01*
X158814286Y-105833390D02*
X158842857Y-105881009D01*
X158842857Y-105881009D02*
X158871428Y-105976247D01*
X158871428Y-105976247D02*
X158871428Y-106214342D01*
X158871428Y-106214342D02*
X158842857Y-106309580D01*
X158842857Y-106309580D02*
X158814286Y-106357200D01*
X158814286Y-106357200D02*
X158757143Y-106404819D01*
X158757143Y-106404819D02*
X158585714Y-106404819D01*
X158585714Y-106404819D02*
X158528571Y-106357200D01*
X158528571Y-106357200D02*
X158500000Y-106309580D01*
X164859580Y-103949999D02*
X164907200Y-103978571D01*
X164907200Y-103978571D02*
X164954819Y-104064285D01*
X164954819Y-104064285D02*
X164954819Y-104121428D01*
X164954819Y-104121428D02*
X164907200Y-104207142D01*
X164907200Y-104207142D02*
X164811961Y-104264285D01*
X164811961Y-104264285D02*
X164716723Y-104292856D01*
X164716723Y-104292856D02*
X164526247Y-104321428D01*
X164526247Y-104321428D02*
X164383390Y-104321428D01*
X164383390Y-104321428D02*
X164192914Y-104292856D01*
X164192914Y-104292856D02*
X164097676Y-104264285D01*
X164097676Y-104264285D02*
X164002438Y-104207142D01*
X164002438Y-104207142D02*
X163954819Y-104121428D01*
X163954819Y-104121428D02*
X163954819Y-104064285D01*
X163954819Y-104064285D02*
X164002438Y-103978571D01*
X164002438Y-103978571D02*
X164050057Y-103949999D01*
X164050057Y-103721428D02*
X164002438Y-103692856D01*
X164002438Y-103692856D02*
X163954819Y-103635714D01*
X163954819Y-103635714D02*
X163954819Y-103492856D01*
X163954819Y-103492856D02*
X164002438Y-103435714D01*
X164002438Y-103435714D02*
X164050057Y-103407142D01*
X164050057Y-103407142D02*
X164145295Y-103378571D01*
X164145295Y-103378571D02*
X164240533Y-103378571D01*
X164240533Y-103378571D02*
X164383390Y-103407142D01*
X164383390Y-103407142D02*
X164954819Y-103749999D01*
X164954819Y-103749999D02*
X164954819Y-103378571D01*
X164909580Y-105449999D02*
X164957200Y-105478571D01*
X164957200Y-105478571D02*
X165004819Y-105564285D01*
X165004819Y-105564285D02*
X165004819Y-105621428D01*
X165004819Y-105621428D02*
X164957200Y-105707142D01*
X164957200Y-105707142D02*
X164861961Y-105764285D01*
X164861961Y-105764285D02*
X164766723Y-105792856D01*
X164766723Y-105792856D02*
X164576247Y-105821428D01*
X164576247Y-105821428D02*
X164433390Y-105821428D01*
X164433390Y-105821428D02*
X164242914Y-105792856D01*
X164242914Y-105792856D02*
X164147676Y-105764285D01*
X164147676Y-105764285D02*
X164052438Y-105707142D01*
X164052438Y-105707142D02*
X164004819Y-105621428D01*
X164004819Y-105621428D02*
X164004819Y-105564285D01*
X164004819Y-105564285D02*
X164052438Y-105478571D01*
X164052438Y-105478571D02*
X164100057Y-105449999D01*
X165004819Y-104878571D02*
X165004819Y-105221428D01*
X165004819Y-105049999D02*
X164004819Y-105049999D01*
X164004819Y-105049999D02*
X164147676Y-105107142D01*
X164147676Y-105107142D02*
X164242914Y-105164285D01*
X164242914Y-105164285D02*
X164290533Y-105221428D01*
D12*
%TO.C,U1*%
X158472500Y-102410000D02*
X158982500Y-102410000D01*
X158472500Y-104910000D02*
X158982500Y-104910000D01*
X160962500Y-102410000D02*
X161472500Y-102410000D01*
X161472500Y-104910000D02*
X160962500Y-104910000D01*
D11*
X158072500Y-102860000D02*
G75*
G03*
X157872500Y-102860000I-100000J0D01*
G01*
X157872500Y-102860000D02*
G75*
G03*
X158072500Y-102860000I100000J0D01*
G01*
%TO.C,G\u002A\u002A\u002A*%
G36*
X168105870Y-99221452D02*
G01*
X168105870Y-99372295D01*
X167010347Y-99372295D01*
X165914824Y-99372295D01*
X165914824Y-99221452D01*
X165914824Y-99070609D01*
X167010347Y-99070609D01*
X168105870Y-99070609D01*
X168105870Y-99221452D01*
G37*
G36*
X166398039Y-106443245D02*
G01*
X166562886Y-106608092D01*
X166552387Y-106622132D01*
X166532676Y-106650492D01*
X166514371Y-106680857D01*
X166497742Y-106712691D01*
X166483061Y-106745460D01*
X166470599Y-106778631D01*
X166466232Y-106792098D01*
X166455846Y-106830338D01*
X166448174Y-106868971D01*
X166443204Y-106907860D01*
X166440926Y-106946870D01*
X166441331Y-106985863D01*
X166444408Y-107024704D01*
X166450148Y-107063256D01*
X166458540Y-107101384D01*
X166469575Y-107138950D01*
X166483241Y-107175818D01*
X166496785Y-107206225D01*
X166513606Y-107238675D01*
X166531883Y-107269159D01*
X166551445Y-107297396D01*
X166553399Y-107299997D01*
X166557124Y-107304942D01*
X166560137Y-107308979D01*
X166562097Y-107311652D01*
X166562684Y-107312512D01*
X166561718Y-107313504D01*
X166558887Y-107316361D01*
X166554293Y-107320979D01*
X166548037Y-107327258D01*
X166540222Y-107335095D01*
X166530949Y-107344389D01*
X166520319Y-107355037D01*
X166508435Y-107366938D01*
X166495398Y-107379991D01*
X166481310Y-107394092D01*
X166466272Y-107409141D01*
X166450386Y-107425036D01*
X166433755Y-107441674D01*
X166416478Y-107458954D01*
X166398659Y-107476774D01*
X166397938Y-107477496D01*
X166233191Y-107642238D01*
X165892232Y-107301278D01*
X165551273Y-106960319D01*
X165892233Y-106619359D01*
X166233193Y-106278399D01*
X166398039Y-106443245D01*
G37*
G36*
X168128114Y-106619011D02*
G01*
X168153872Y-106644771D01*
X168179123Y-106670028D01*
X168203795Y-106694709D01*
X168227819Y-106718746D01*
X168251122Y-106742065D01*
X168273634Y-106764598D01*
X168295286Y-106786272D01*
X168316005Y-106807017D01*
X168335721Y-106826762D01*
X168354363Y-106845436D01*
X168371862Y-106862969D01*
X168388145Y-106879288D01*
X168403142Y-106894325D01*
X168416783Y-106908007D01*
X168428997Y-106920263D01*
X168439712Y-106931024D01*
X168448859Y-106940218D01*
X168456367Y-106947773D01*
X168462164Y-106953620D01*
X168466181Y-106957688D01*
X168468346Y-106959905D01*
X168468727Y-106960319D01*
X168467755Y-106961343D01*
X168464888Y-106964262D01*
X168460196Y-106969005D01*
X168453749Y-106975501D01*
X168445618Y-106983679D01*
X168435875Y-106993469D01*
X168424589Y-107004798D01*
X168411832Y-107017598D01*
X168397674Y-107031796D01*
X168382187Y-107047322D01*
X168365440Y-107064105D01*
X168347504Y-107082073D01*
X168328451Y-107101157D01*
X168308350Y-107121286D01*
X168287273Y-107142387D01*
X168265291Y-107164391D01*
X168242474Y-107187227D01*
X168218892Y-107210824D01*
X168194617Y-107235111D01*
X168169720Y-107260016D01*
X168144270Y-107285470D01*
X168128114Y-107301627D01*
X167787500Y-107642238D01*
X167622654Y-107477392D01*
X167457808Y-107312546D01*
X167468092Y-107298745D01*
X167490298Y-107266641D01*
X167510125Y-107233190D01*
X167527539Y-107198538D01*
X167542507Y-107162832D01*
X167554995Y-107126217D01*
X167564970Y-107088840D01*
X167572398Y-107050848D01*
X167577246Y-107012385D01*
X167579480Y-106973599D01*
X167579067Y-106934636D01*
X167575973Y-106895642D01*
X167570165Y-106856763D01*
X167569845Y-106855053D01*
X167561546Y-106818086D01*
X167550692Y-106781515D01*
X167537414Y-106745635D01*
X167521842Y-106710742D01*
X167504107Y-106677132D01*
X167484339Y-106645099D01*
X167465931Y-106619197D01*
X167457639Y-106608261D01*
X167622570Y-106443330D01*
X167787500Y-106278400D01*
X168128114Y-106619011D01*
G37*
G36*
X166666457Y-107414232D02*
G01*
X166671303Y-107417943D01*
X166678022Y-107422748D01*
X166686105Y-107428312D01*
X166695042Y-107434297D01*
X166704323Y-107440366D01*
X166713438Y-107446184D01*
X166721877Y-107451413D01*
X166729129Y-107455717D01*
X166730379Y-107456429D01*
X166764569Y-107474185D01*
X166800214Y-107489666D01*
X166837050Y-107502783D01*
X166874813Y-107513448D01*
X166913239Y-107521571D01*
X166933188Y-107524733D01*
X166971673Y-107528746D01*
X167010398Y-107530042D01*
X167049175Y-107528651D01*
X167087816Y-107524604D01*
X167126133Y-107517930D01*
X167163937Y-107508659D01*
X167201041Y-107496822D01*
X167237255Y-107482449D01*
X167258508Y-107472606D01*
X167283257Y-107459922D01*
X167305869Y-107447077D01*
X167326978Y-107433685D01*
X167347220Y-107419363D01*
X167350161Y-107417157D01*
X167362569Y-107407778D01*
X167527071Y-107572276D01*
X167544899Y-107590107D01*
X167562188Y-107607407D01*
X167578836Y-107624075D01*
X167594741Y-107640006D01*
X167609802Y-107655100D01*
X167623917Y-107669254D01*
X167636984Y-107682366D01*
X167648901Y-107694333D01*
X167659567Y-107705053D01*
X167668879Y-107714425D01*
X167676735Y-107722345D01*
X167683035Y-107728712D01*
X167687675Y-107733423D01*
X167690555Y-107736376D01*
X167691572Y-107737469D01*
X167691573Y-107737472D01*
X167690602Y-107738496D01*
X167687734Y-107741415D01*
X167683042Y-107746158D01*
X167676595Y-107752654D01*
X167668464Y-107760832D01*
X167658721Y-107770622D01*
X167647435Y-107781952D01*
X167634678Y-107794751D01*
X167620521Y-107808949D01*
X167605033Y-107824475D01*
X167588286Y-107841258D01*
X167570350Y-107859227D01*
X167551297Y-107878311D01*
X167531196Y-107898439D01*
X167510119Y-107919541D01*
X167488137Y-107941545D01*
X167465320Y-107964381D01*
X167441738Y-107987978D01*
X167417463Y-108012264D01*
X167392566Y-108037170D01*
X167367116Y-108062624D01*
X167350960Y-108078781D01*
X167010346Y-108419392D01*
X166669387Y-108078433D01*
X166328427Y-107737473D01*
X166493370Y-107572530D01*
X166658314Y-107407586D01*
X166666457Y-107414232D01*
G37*
G36*
X167350960Y-105841857D02*
G01*
X167376718Y-105867617D01*
X167401969Y-105892874D01*
X167426641Y-105917555D01*
X167450664Y-105941592D01*
X167473966Y-105964911D01*
X167496478Y-105987443D01*
X167518128Y-106009117D01*
X167538847Y-106029862D01*
X167558562Y-106049607D01*
X167577203Y-106068281D01*
X167594700Y-106085814D01*
X167610982Y-106102133D01*
X167625978Y-106117170D01*
X167639618Y-106130852D01*
X167651830Y-106143108D01*
X167662545Y-106153869D01*
X167671690Y-106163063D01*
X167679196Y-106170618D01*
X167684992Y-106176465D01*
X167689007Y-106180533D01*
X167691170Y-106182750D01*
X167691550Y-106183164D01*
X167690583Y-106184207D01*
X167687752Y-106187116D01*
X167683160Y-106191787D01*
X167676908Y-106198118D01*
X167669099Y-106206008D01*
X167659834Y-106215353D01*
X167649214Y-106226051D01*
X167637342Y-106238001D01*
X167624319Y-106251098D01*
X167610247Y-106265242D01*
X167595227Y-106280330D01*
X167579362Y-106296258D01*
X167562753Y-106312926D01*
X167545502Y-106330230D01*
X167527710Y-106348068D01*
X167527287Y-106348493D01*
X167506243Y-106369585D01*
X167487073Y-106388795D01*
X167469688Y-106406208D01*
X167453997Y-106421911D01*
X167439913Y-106435992D01*
X167427345Y-106448536D01*
X167416206Y-106459631D01*
X167406404Y-106469363D01*
X167397853Y-106477819D01*
X167390461Y-106485086D01*
X167384140Y-106491249D01*
X167378801Y-106496397D01*
X167374355Y-106500615D01*
X167370713Y-106503990D01*
X167367784Y-106506609D01*
X167365481Y-106508559D01*
X167363715Y-106509926D01*
X167362394Y-106510797D01*
X167361432Y-106511258D01*
X167360738Y-106511397D01*
X167360224Y-106511299D01*
X167359948Y-106511153D01*
X167357694Y-106509626D01*
X167353710Y-106506839D01*
X167348520Y-106503161D01*
X167342646Y-106498962D01*
X167341389Y-106498058D01*
X167308701Y-106476202D01*
X167274843Y-106456825D01*
X167239769Y-106439912D01*
X167203435Y-106425446D01*
X167165797Y-106413408D01*
X167126810Y-106403782D01*
X167086431Y-106396551D01*
X167074994Y-106394969D01*
X167066746Y-106394141D01*
X167056268Y-106393462D01*
X167044083Y-106392938D01*
X167030719Y-106392569D01*
X167016701Y-106392360D01*
X167002554Y-106392314D01*
X166988805Y-106392434D01*
X166975980Y-106392723D01*
X166964603Y-106393184D01*
X166955202Y-106393821D01*
X166951261Y-106394224D01*
X166910394Y-106400407D01*
X166870800Y-106409058D01*
X166832449Y-106420188D01*
X166795309Y-106433811D01*
X166759350Y-106449938D01*
X166724540Y-106468581D01*
X166690848Y-106489752D01*
X166670964Y-106503816D01*
X166665949Y-106507437D01*
X166661721Y-106510341D01*
X166658796Y-106512181D01*
X166657755Y-106512656D01*
X166656632Y-106511691D01*
X166653674Y-106508879D01*
X166649005Y-106504344D01*
X166642748Y-106498212D01*
X166635030Y-106490606D01*
X166625975Y-106481652D01*
X166615707Y-106471475D01*
X166604350Y-106460198D01*
X166592030Y-106447947D01*
X166578871Y-106434846D01*
X166564998Y-106421020D01*
X166550534Y-106406594D01*
X166535606Y-106391692D01*
X166520337Y-106376439D01*
X166504853Y-106360960D01*
X166489277Y-106345379D01*
X166473734Y-106329821D01*
X166458349Y-106314410D01*
X166443247Y-106299272D01*
X166428552Y-106284531D01*
X166414388Y-106270312D01*
X166400881Y-106256739D01*
X166388155Y-106243937D01*
X166376334Y-106232030D01*
X166365544Y-106221144D01*
X166355908Y-106211404D01*
X166347552Y-106202932D01*
X166340600Y-106195855D01*
X166335177Y-106190298D01*
X166331406Y-106186384D01*
X166329414Y-106184238D01*
X166329121Y-106183857D01*
X166330093Y-106182780D01*
X166332961Y-106179809D01*
X166337654Y-106175015D01*
X166344102Y-106168469D01*
X166352235Y-106160242D01*
X166361980Y-106150405D01*
X166373268Y-106139028D01*
X166386028Y-106126184D01*
X166400188Y-106111943D01*
X166415679Y-106096376D01*
X166432430Y-106079555D01*
X166450369Y-106061549D01*
X166469426Y-106042431D01*
X166489530Y-106022271D01*
X166510611Y-106001141D01*
X166532597Y-105979111D01*
X166555419Y-105956252D01*
X166579004Y-105932636D01*
X166603283Y-105908334D01*
X166628185Y-105883416D01*
X166653638Y-105857954D01*
X166669734Y-105841857D01*
X167010347Y-105501246D01*
X167350960Y-105841857D01*
G37*
G36*
X168105870Y-103674446D02*
G01*
X168105870Y-103815557D01*
X167151921Y-103815557D01*
X167100532Y-103815558D01*
X167049833Y-103815562D01*
X166999897Y-103815567D01*
X166950793Y-103815575D01*
X166902594Y-103815585D01*
X166855369Y-103815596D01*
X166809191Y-103815610D01*
X166764129Y-103815626D01*
X166720255Y-103815643D01*
X166677640Y-103815662D01*
X166636355Y-103815683D01*
X166596471Y-103815706D01*
X166558058Y-103815730D01*
X166521189Y-103815756D01*
X166485933Y-103815783D01*
X166452362Y-103815812D01*
X166420546Y-103815841D01*
X166390558Y-103815873D01*
X166362466Y-103815905D01*
X166336344Y-103815939D01*
X166312261Y-103815974D01*
X166290289Y-103816010D01*
X166270498Y-103816047D01*
X166252960Y-103816084D01*
X166237746Y-103816123D01*
X166224926Y-103816163D01*
X166214571Y-103816203D01*
X166206753Y-103816244D01*
X166201543Y-103816286D01*
X166199011Y-103816328D01*
X166198763Y-103816347D01*
X166200147Y-103816706D01*
X166204169Y-103817686D01*
X166210761Y-103819273D01*
X166219854Y-103821449D01*
X166231379Y-103824199D01*
X166245269Y-103827506D01*
X166261456Y-103831355D01*
X166279870Y-103835728D01*
X166300444Y-103840610D01*
X166323109Y-103845985D01*
X166347797Y-103851837D01*
X166374439Y-103858148D01*
X166402968Y-103864904D01*
X166433314Y-103872088D01*
X166465409Y-103879684D01*
X166499186Y-103887676D01*
X166534576Y-103896046D01*
X166571510Y-103904781D01*
X166609920Y-103913862D01*
X166649737Y-103923274D01*
X166690894Y-103933001D01*
X166733323Y-103943027D01*
X166776953Y-103953335D01*
X166821718Y-103963910D01*
X166867550Y-103974735D01*
X166914378Y-103985793D01*
X166962136Y-103997070D01*
X167010755Y-104008548D01*
X167060167Y-104020211D01*
X167110303Y-104032044D01*
X167152364Y-104041969D01*
X168105175Y-104266802D01*
X168105528Y-104415063D01*
X168105583Y-104438609D01*
X168105626Y-104459530D01*
X168105655Y-104477981D01*
X168105668Y-104494118D01*
X168105663Y-104508096D01*
X168105638Y-104520071D01*
X168105590Y-104530199D01*
X168105518Y-104538633D01*
X168105419Y-104545531D01*
X168105291Y-104551048D01*
X168105132Y-104555338D01*
X168104940Y-104558558D01*
X168104712Y-104560862D01*
X168104446Y-104562407D01*
X168104141Y-104563348D01*
X168103793Y-104563840D01*
X168103443Y-104564027D01*
X168101971Y-104564381D01*
X168097860Y-104565357D01*
X168091181Y-104566939D01*
X168082002Y-104569111D01*
X168070390Y-104571857D01*
X168056415Y-104575159D01*
X168040145Y-104579003D01*
X168021649Y-104583372D01*
X168000995Y-104588250D01*
X167978252Y-104593620D01*
X167953489Y-104599467D01*
X167926774Y-104605774D01*
X167898175Y-104612525D01*
X167867762Y-104619703D01*
X167835602Y-104627294D01*
X167801765Y-104635280D01*
X167766319Y-104643645D01*
X167729332Y-104652374D01*
X167690874Y-104661449D01*
X167651012Y-104670856D01*
X167609815Y-104680576D01*
X167567353Y-104690595D01*
X167523692Y-104700897D01*
X167478903Y-104711464D01*
X167433053Y-104722281D01*
X167386212Y-104733332D01*
X167338447Y-104744601D01*
X167289828Y-104756070D01*
X167240422Y-104767725D01*
X167190299Y-104779548D01*
X167150244Y-104788997D01*
X166199484Y-105013264D01*
X167152677Y-105013612D01*
X168105870Y-105013961D01*
X168105870Y-105155071D01*
X168105870Y-105296181D01*
X167010347Y-105296181D01*
X165914824Y-105296181D01*
X165914824Y-105050393D01*
X165914824Y-104804604D01*
X166784083Y-104610839D01*
X166832550Y-104600034D01*
X166880345Y-104589378D01*
X166927396Y-104578885D01*
X166973631Y-104568573D01*
X167018978Y-104558456D01*
X167063366Y-104548553D01*
X167106722Y-104538877D01*
X167148974Y-104529446D01*
X167190052Y-104520276D01*
X167229882Y-104511382D01*
X167268393Y-104502781D01*
X167305512Y-104494488D01*
X167341169Y-104486520D01*
X167375292Y-104478894D01*
X167407807Y-104471624D01*
X167438644Y-104464727D01*
X167467731Y-104458220D01*
X167494995Y-104452117D01*
X167520365Y-104446436D01*
X167543769Y-104441192D01*
X167565135Y-104436402D01*
X167584391Y-104432081D01*
X167601465Y-104428246D01*
X167616286Y-104424912D01*
X167628781Y-104422096D01*
X167638878Y-104419814D01*
X167646507Y-104418081D01*
X167651594Y-104416915D01*
X167654068Y-104416331D01*
X167654310Y-104416263D01*
X167653019Y-104415917D01*
X167649087Y-104414980D01*
X167642584Y-104413469D01*
X167633583Y-104411399D01*
X167622155Y-104408787D01*
X167608371Y-104405648D01*
X167592304Y-104402000D01*
X167574025Y-104397857D01*
X167553605Y-104393237D01*
X167531116Y-104388155D01*
X167506631Y-104382627D01*
X167480219Y-104376670D01*
X167451954Y-104370300D01*
X167421906Y-104363532D01*
X167390148Y-104356383D01*
X167356751Y-104348870D01*
X167321786Y-104341007D01*
X167285325Y-104332812D01*
X167247441Y-104324300D01*
X167208204Y-104315487D01*
X167167685Y-104306390D01*
X167125958Y-104297025D01*
X167083093Y-104287408D01*
X167039162Y-104277555D01*
X166994236Y-104267481D01*
X166948388Y-104257204D01*
X166901689Y-104246740D01*
X166854210Y-104236104D01*
X166806023Y-104225312D01*
X166785399Y-104220694D01*
X165915519Y-104025935D01*
X165915168Y-103779635D01*
X165914817Y-103533335D01*
X167010343Y-103533335D01*
X168105870Y-103533335D01*
X168105870Y-103674446D01*
G37*
G36*
X168105870Y-101502864D02*
G01*
X168105870Y-101643975D01*
X167151921Y-101643975D01*
X167100532Y-101643976D01*
X167049833Y-101643980D01*
X166999897Y-101643985D01*
X166950793Y-101643993D01*
X166902594Y-101644003D01*
X166855369Y-101644015D01*
X166809191Y-101644028D01*
X166764129Y-101644044D01*
X166720255Y-101644061D01*
X166677640Y-101644080D01*
X166636355Y-101644101D01*
X166596471Y-101644124D01*
X166558058Y-101644148D01*
X166521189Y-101644174D01*
X166485933Y-101644201D01*
X166452362Y-101644230D01*
X166420546Y-101644260D01*
X166390558Y-101644291D01*
X166362466Y-101644323D01*
X166336344Y-101644357D01*
X166312261Y-101644392D01*
X166290289Y-101644428D01*
X166270498Y-101644465D01*
X166252960Y-101644503D01*
X166237746Y-101644541D01*
X166224926Y-101644581D01*
X166214571Y-101644621D01*
X166206753Y-101644662D01*
X166201543Y-101644704D01*
X166199011Y-101644746D01*
X166198763Y-101644765D01*
X166200147Y-101645124D01*
X166204169Y-101646105D01*
X166210761Y-101647691D01*
X166219854Y-101649867D01*
X166231379Y-101652617D01*
X166245269Y-101655924D01*
X166261456Y-101659773D01*
X166279870Y-101664146D01*
X166300444Y-101669029D01*
X166323109Y-101674403D01*
X166347797Y-101680255D01*
X166374439Y-101686567D01*
X166402968Y-101693323D01*
X166433314Y-101700507D01*
X166465409Y-101708102D01*
X166499186Y-101716094D01*
X166534576Y-101724465D01*
X166571510Y-101733199D01*
X166609920Y-101742280D01*
X166649737Y-101751693D01*
X166690894Y-101761420D01*
X166733323Y-101771445D01*
X166776953Y-101781754D01*
X166821718Y-101792328D01*
X166867550Y-101803153D01*
X166914378Y-101814211D01*
X166962136Y-101825488D01*
X167010755Y-101836966D01*
X167060167Y-101848629D01*
X167110303Y-101860462D01*
X167152364Y-101870387D01*
X168105175Y-102095220D01*
X168105528Y-102243481D01*
X168105583Y-102267027D01*
X168105626Y-102287948D01*
X168105655Y-102306399D01*
X168105668Y-102322536D01*
X168105663Y-102336514D01*
X168105638Y-102348489D01*
X168105590Y-102358617D01*
X168105518Y-102367052D01*
X168105419Y-102373949D01*
X168105291Y-102379466D01*
X168105132Y-102383756D01*
X168104940Y-102386976D01*
X168104712Y-102389281D01*
X168104446Y-102390825D01*
X168104141Y-102391766D01*
X168103793Y-102392258D01*
X168103443Y-102392445D01*
X168101971Y-102392799D01*
X168097860Y-102393775D01*
X168091181Y-102395358D01*
X168082002Y-102397529D01*
X168070390Y-102400275D01*
X168056415Y-102403577D01*
X168040145Y-102407421D01*
X168021649Y-102411790D01*
X168000995Y-102416668D01*
X167978252Y-102422038D01*
X167953489Y-102427885D01*
X167926774Y-102434192D01*
X167898175Y-102440943D01*
X167867762Y-102448122D01*
X167835602Y-102455712D01*
X167801765Y-102463698D01*
X167766319Y-102472064D01*
X167729332Y-102480792D01*
X167690874Y-102489868D01*
X167651012Y-102499274D01*
X167609815Y-102508994D01*
X167567353Y-102519014D01*
X167523692Y-102529315D01*
X167478903Y-102539882D01*
X167433053Y-102550700D01*
X167386212Y-102561750D01*
X167338447Y-102573019D01*
X167289828Y-102584488D01*
X167240422Y-102596143D01*
X167190299Y-102607967D01*
X167150244Y-102617415D01*
X166199484Y-102841682D01*
X167152677Y-102842030D01*
X168105870Y-102842379D01*
X168105870Y-102983489D01*
X168105870Y-103124599D01*
X167010347Y-103124599D01*
X165914824Y-103124599D01*
X165914824Y-102878811D01*
X165914824Y-102633023D01*
X166784083Y-102439257D01*
X166832550Y-102428452D01*
X166880345Y-102417796D01*
X166927396Y-102407303D01*
X166973631Y-102396991D01*
X167018978Y-102386875D01*
X167063366Y-102376971D01*
X167106722Y-102367295D01*
X167148974Y-102357864D01*
X167190052Y-102348694D01*
X167229882Y-102339800D01*
X167268393Y-102331199D01*
X167305512Y-102322906D01*
X167341169Y-102314939D01*
X167375292Y-102307312D01*
X167407807Y-102300042D01*
X167438644Y-102293145D01*
X167467731Y-102286638D01*
X167494995Y-102280535D01*
X167520365Y-102274854D01*
X167543769Y-102269610D01*
X167565135Y-102264820D01*
X167584391Y-102260499D01*
X167601465Y-102256664D01*
X167616286Y-102253330D01*
X167628781Y-102250514D01*
X167638878Y-102248232D01*
X167646507Y-102246500D01*
X167651594Y-102245333D01*
X167654068Y-102244749D01*
X167654310Y-102244681D01*
X167653019Y-102244335D01*
X167649087Y-102243398D01*
X167642584Y-102241887D01*
X167633583Y-102239817D01*
X167622155Y-102237205D01*
X167608371Y-102234067D01*
X167592304Y-102230418D01*
X167574025Y-102226276D01*
X167553605Y-102221655D01*
X167531116Y-102216573D01*
X167506631Y-102211046D01*
X167480219Y-102205089D01*
X167451954Y-102198718D01*
X167421906Y-102191950D01*
X167390148Y-102184802D01*
X167356751Y-102177288D01*
X167321786Y-102169425D01*
X167285325Y-102161230D01*
X167247441Y-102152718D01*
X167208204Y-102143905D01*
X167167685Y-102134808D01*
X167125958Y-102125443D01*
X167083093Y-102115826D01*
X167039162Y-102105973D01*
X166994236Y-102095900D01*
X166948388Y-102085623D01*
X166901689Y-102075158D01*
X166854210Y-102064522D01*
X166806023Y-102053730D01*
X166785399Y-102049112D01*
X165915519Y-101854354D01*
X165915168Y-101608053D01*
X165914817Y-101361753D01*
X167010343Y-101361753D01*
X168105870Y-101361753D01*
X168105870Y-101502864D01*
G37*
G36*
X168105528Y-99875330D02*
G01*
X168105572Y-99895940D01*
X168105607Y-99915762D01*
X168105636Y-99934619D01*
X168105656Y-99952336D01*
X168105669Y-99968737D01*
X168105674Y-99983646D01*
X168105671Y-99996887D01*
X168105661Y-100008284D01*
X168105643Y-100017660D01*
X168105617Y-100024840D01*
X168105584Y-100029649D01*
X168105543Y-100031909D01*
X168105528Y-100032065D01*
X168104057Y-100032481D01*
X168100146Y-100033389D01*
X168094081Y-100034731D01*
X168086149Y-100036448D01*
X168076634Y-100038479D01*
X168065823Y-100040767D01*
X168054001Y-100043251D01*
X168041454Y-100045872D01*
X168028468Y-100048572D01*
X168015329Y-100051290D01*
X168002322Y-100053968D01*
X167989733Y-100056547D01*
X167977847Y-100058966D01*
X167966951Y-100061167D01*
X167957331Y-100063091D01*
X167949271Y-100064678D01*
X167943058Y-100065869D01*
X167938986Y-100066604D01*
X167921633Y-100069249D01*
X167902128Y-100071752D01*
X167881098Y-100074038D01*
X167862518Y-100075753D01*
X167858519Y-100076049D01*
X167851903Y-100076483D01*
X167842831Y-100077046D01*
X167831464Y-100077730D01*
X167817961Y-100078524D01*
X167802483Y-100079421D01*
X167785191Y-100080411D01*
X167766244Y-100081486D01*
X167745803Y-100082635D01*
X167724028Y-100083852D01*
X167701080Y-100085125D01*
X167677118Y-100086447D01*
X167652304Y-100087809D01*
X167626797Y-100089201D01*
X167600758Y-100090614D01*
X167574347Y-100092041D01*
X167547724Y-100093471D01*
X167521050Y-100094895D01*
X167501803Y-100095918D01*
X167479056Y-100097143D01*
X167458843Y-100098281D01*
X167440918Y-100099360D01*
X167425037Y-100100406D01*
X167410954Y-100101447D01*
X167398424Y-100102510D01*
X167387203Y-100103623D01*
X167377045Y-100104813D01*
X167367707Y-100106106D01*
X167358941Y-100107531D01*
X167350505Y-100109114D01*
X167342153Y-100110882D01*
X167333639Y-100112864D01*
X167324719Y-100115086D01*
X167321069Y-100116026D01*
X167292303Y-100124591D01*
X167265780Y-100134789D01*
X167241486Y-100146632D01*
X167219407Y-100160130D01*
X167199529Y-100175292D01*
X167181837Y-100192129D01*
X167166318Y-100210651D01*
X167152958Y-100230869D01*
X167146235Y-100243291D01*
X167139984Y-100257006D01*
X167134408Y-100271949D01*
X167129440Y-100288386D01*
X167125014Y-100306586D01*
X167121063Y-100326815D01*
X167117520Y-100349341D01*
X167115077Y-100368018D01*
X167114687Y-100371610D01*
X167114338Y-100375697D01*
X167114029Y-100380463D01*
X167113754Y-100386088D01*
X167113512Y-100392753D01*
X167113298Y-100400642D01*
X167113108Y-100409935D01*
X167112941Y-100420814D01*
X167112791Y-100433461D01*
X167112657Y-100448058D01*
X167112533Y-100464786D01*
X167112418Y-100483827D01*
X167112307Y-100505362D01*
X167112244Y-100518910D01*
X167111648Y-100651332D01*
X167608759Y-100651332D01*
X168105870Y-100651332D01*
X168105870Y-100801479D01*
X168105870Y-100951627D01*
X167010298Y-100951627D01*
X166162081Y-100951627D01*
X165914725Y-100951627D01*
X165915135Y-100651332D01*
X166162081Y-100651332D01*
X166513319Y-100651332D01*
X166864557Y-100651332D01*
X166863960Y-100509873D01*
X166863831Y-100483260D01*
X166863678Y-100458873D01*
X166863504Y-100436773D01*
X166863308Y-100417024D01*
X166863091Y-100399687D01*
X166862855Y-100384825D01*
X166862599Y-100372501D01*
X166862326Y-100362777D01*
X166862035Y-100355716D01*
X166861764Y-100351731D01*
X166858843Y-100324299D01*
X166855554Y-100299382D01*
X166851846Y-100276731D01*
X166847667Y-100256097D01*
X166842963Y-100237233D01*
X166837683Y-100219890D01*
X166831774Y-100203819D01*
X166829347Y-100197981D01*
X166817742Y-100174131D01*
X166804290Y-100152352D01*
X166788958Y-100132609D01*
X166771712Y-100114865D01*
X166752519Y-100099085D01*
X166731346Y-100085232D01*
X166718762Y-100078379D01*
X166701020Y-100070486D01*
X166680696Y-100063558D01*
X166657786Y-100057595D01*
X166632287Y-100052596D01*
X166604194Y-100048561D01*
X166573506Y-100045489D01*
X166540218Y-100043380D01*
X166504326Y-100042233D01*
X166480659Y-100042005D01*
X166465179Y-100042031D01*
X166452042Y-100042179D01*
X166440811Y-100042462D01*
X166431051Y-100042896D01*
X166422326Y-100043497D01*
X166414199Y-100044278D01*
X166414037Y-100044296D01*
X166384523Y-100048410D01*
X166357266Y-100054006D01*
X166332141Y-100061138D01*
X166309018Y-100069862D01*
X166287770Y-100080232D01*
X166268269Y-100092304D01*
X166250387Y-100106131D01*
X166234359Y-100121387D01*
X166224049Y-100133132D01*
X166214731Y-100145741D01*
X166206344Y-100159398D01*
X166198830Y-100174286D01*
X166192129Y-100190589D01*
X166186182Y-100208491D01*
X166180931Y-100228175D01*
X166176315Y-100249825D01*
X166172276Y-100273626D01*
X166168754Y-100299760D01*
X166165691Y-100328412D01*
X166164888Y-100337133D01*
X166164618Y-100341574D01*
X166164358Y-100348683D01*
X166164108Y-100358349D01*
X166163870Y-100370459D01*
X166163646Y-100384903D01*
X166163436Y-100401567D01*
X166163243Y-100420339D01*
X166163068Y-100441109D01*
X166162912Y-100463764D01*
X166162777Y-100488192D01*
X166162710Y-100502922D01*
X166162081Y-100651332D01*
X165915135Y-100651332D01*
X165915223Y-100587032D01*
X165915276Y-100548938D01*
X165915328Y-100513520D01*
X165915381Y-100480673D01*
X165915435Y-100450294D01*
X165915490Y-100422278D01*
X165915547Y-100396520D01*
X165915608Y-100372917D01*
X165915672Y-100351363D01*
X165915741Y-100331754D01*
X165915816Y-100313986D01*
X165915896Y-100297955D01*
X165915983Y-100283555D01*
X165916078Y-100270684D01*
X165916181Y-100259235D01*
X165916293Y-100249105D01*
X165916415Y-100240190D01*
X165916548Y-100232385D01*
X165916692Y-100225585D01*
X165916848Y-100219686D01*
X165917017Y-100214584D01*
X165917199Y-100210175D01*
X165917396Y-100206354D01*
X165917608Y-100203016D01*
X165917835Y-100200057D01*
X165918009Y-100198108D01*
X165921667Y-100163451D01*
X165925887Y-100131374D01*
X165930695Y-100101729D01*
X165936119Y-100074365D01*
X165942185Y-100049135D01*
X165948921Y-100025890D01*
X165949824Y-100023077D01*
X165961151Y-99992443D01*
X165974671Y-99963510D01*
X165990368Y-99936294D01*
X166008226Y-99910808D01*
X166028230Y-99887066D01*
X166050364Y-99865082D01*
X166074612Y-99844869D01*
X166100958Y-99826441D01*
X166129387Y-99809812D01*
X166159882Y-99794996D01*
X166192427Y-99782007D01*
X166227007Y-99770858D01*
X166245010Y-99765990D01*
X166281196Y-99757728D01*
X166318195Y-99751152D01*
X166356300Y-99746231D01*
X166395808Y-99742936D01*
X166437012Y-99741235D01*
X166480207Y-99741098D01*
X166485525Y-99741185D01*
X166527572Y-99742670D01*
X166567334Y-99745556D01*
X166604940Y-99749870D01*
X166640522Y-99755640D01*
X166674212Y-99762891D01*
X166706141Y-99771653D01*
X166736440Y-99781951D01*
X166765240Y-99793813D01*
X166784990Y-99803270D01*
X166807168Y-99815421D01*
X166827164Y-99828324D01*
X166845345Y-99842317D01*
X166862074Y-99857736D01*
X166877716Y-99874919D01*
X166892637Y-99894201D01*
X166907202Y-99915921D01*
X166907477Y-99916358D01*
X166919588Y-99937281D01*
X166931237Y-99960647D01*
X166942314Y-99986143D01*
X166952710Y-100013453D01*
X166962315Y-100042264D01*
X166971021Y-100072260D01*
X166978717Y-100103129D01*
X166985296Y-100134554D01*
X166987438Y-100146337D01*
X166988500Y-100152159D01*
X166989429Y-100156743D01*
X166990107Y-100159544D01*
X166990383Y-100160144D01*
X166990708Y-100158680D01*
X166991310Y-100154931D01*
X166992119Y-100149371D01*
X166993064Y-100142473D01*
X166993715Y-100137536D01*
X166998431Y-100104874D01*
X167003843Y-100074204D01*
X167009913Y-100045681D01*
X167016608Y-100019460D01*
X167023891Y-99995695D01*
X167029888Y-99979142D01*
X167040798Y-99954820D01*
X167053790Y-99932336D01*
X167068839Y-99911713D01*
X167085920Y-99892976D01*
X167105007Y-99876147D01*
X167126076Y-99861250D01*
X167149101Y-99848309D01*
X167174058Y-99837348D01*
X167185078Y-99833350D01*
X167196896Y-99829560D01*
X167209250Y-99826112D01*
X167222470Y-99822943D01*
X167236887Y-99819989D01*
X167252828Y-99817187D01*
X167270626Y-99814473D01*
X167290608Y-99811784D01*
X167308409Y-99809606D01*
X167316358Y-99808685D01*
X167324102Y-99807827D01*
X167331822Y-99807023D01*
X167339702Y-99806259D01*
X167347923Y-99805524D01*
X167356666Y-99804807D01*
X167366115Y-99804096D01*
X167376450Y-99803380D01*
X167387855Y-99802647D01*
X167400510Y-99801886D01*
X167414598Y-99801084D01*
X167430301Y-99800231D01*
X167447801Y-99799316D01*
X167467280Y-99798325D01*
X167488919Y-99797249D01*
X167512901Y-99796075D01*
X167539408Y-99794791D01*
X167550462Y-99794259D01*
X167579906Y-99792839D01*
X167606748Y-99791536D01*
X167631165Y-99790336D01*
X167653332Y-99789231D01*
X167673427Y-99788207D01*
X167691624Y-99787255D01*
X167708099Y-99786362D01*
X167723030Y-99785519D01*
X167736592Y-99784713D01*
X167748961Y-99783934D01*
X167760314Y-99783169D01*
X167770825Y-99782409D01*
X167780672Y-99781643D01*
X167790031Y-99780857D01*
X167799077Y-99780043D01*
X167807986Y-99779188D01*
X167816936Y-99778281D01*
X167826101Y-99777312D01*
X167835658Y-99776269D01*
X167837550Y-99776059D01*
X167888464Y-99769349D01*
X167940069Y-99760424D01*
X167992578Y-99749240D01*
X168046205Y-99735753D01*
X168077369Y-99727013D01*
X168105175Y-99718933D01*
X168105528Y-99875330D01*
G37*
D13*
%TO.C,C3*%
X159892164Y-106180000D02*
X160107836Y-106180000D01*
X159892164Y-105460000D02*
X160107836Y-105460000D01*
%TO.C,C2*%
X162700000Y-104822164D02*
X162700000Y-105037836D01*
X161980000Y-104822164D02*
X161980000Y-105037836D01*
%TO.C,J2*%
X154620000Y-97740000D02*
X154620000Y-96410000D01*
X155950000Y-97740000D02*
X154620000Y-97740000D01*
X157220000Y-97740000D02*
X164900000Y-97740000D01*
X157220000Y-97740000D02*
X157220000Y-95080000D01*
X164900000Y-97740000D02*
X164900000Y-95080000D01*
X157220000Y-95080000D02*
X164900000Y-95080000D01*
%TO.C,J1*%
X162300000Y-112240000D02*
X154620000Y-112240000D01*
X154620000Y-109580000D02*
X154620000Y-112240000D01*
X162300000Y-109580000D02*
X162300000Y-112240000D01*
X162300000Y-109580000D02*
X154620000Y-109580000D01*
X163570000Y-109580000D02*
X164900000Y-109580000D01*
X164900000Y-109580000D02*
X164900000Y-110910000D01*
%TO.C,C1*%
X163710000Y-104822164D02*
X163710000Y-105037836D01*
X162990000Y-104822164D02*
X162990000Y-105037836D01*
%TD*%
M02*
