%TF.GenerationSoftware,KiCad,Pcbnew,7.0.10*%
%TF.CreationDate,2025-02-08T17:54:20-05:00*%
%TF.ProjectId,pcb2,70636232-2e6b-4696-9361-645f70636258,rev?*%
%TF.SameCoordinates,Original*%
%TF.FileFunction,Drillmap*%
%TF.FilePolarity,Positive*%
%FSLAX45Y45*%
G04 Gerber Fmt 4.5, Leading zero omitted, Abs format (unit mm)*
G04 Created by KiCad (PCBNEW 7.0.10) date 2025-02-08 17:54:20*
%MOMM*%
%LPD*%
G01*
G04 APERTURE LIST*
%ADD10C,0.200000*%
%ADD11C,0.100000*%
G04 APERTURE END LIST*
D10*
X15070000Y-9350000D02*
G75*
G03*
X14960000Y-9460000I0J-110000D01*
G01*
X16992000Y-9460000D02*
G75*
G03*
X16882000Y-9350000I-110000J0D01*
G01*
X15070000Y-9350000D02*
X16882000Y-9350000D01*
X14960000Y-11272000D02*
G75*
G03*
X15070000Y-11382000I110000J0D01*
G01*
X14960000Y-11272000D02*
X14960000Y-9460000D01*
X16882000Y-11382000D02*
G75*
G03*
X16992000Y-11272000I0J110000D01*
G01*
X16992000Y-9460000D02*
X16992000Y-11272000D01*
X16882000Y-11382000D02*
X15070000Y-11382000D01*
D11*
X15760000Y-10370000D02*
X15800000Y-10410000D01*
X15800000Y-10370000D02*
X15760000Y-10410000D01*
X15995000Y-10345000D02*
X16035000Y-10385000D01*
X16035000Y-10345000D02*
X15995000Y-10385000D01*
X16115000Y-10647500D02*
X16155000Y-10687500D01*
X16155000Y-10647500D02*
X16115000Y-10687500D01*
X16201000Y-10271000D02*
X16241000Y-10311000D01*
X16241000Y-10271000D02*
X16201000Y-10311000D01*
X16215000Y-10627500D02*
X16255000Y-10667500D01*
X16255000Y-10627500D02*
X16215000Y-10667500D01*
X16315000Y-10627500D02*
X16355000Y-10667500D01*
X16355000Y-10627500D02*
X16315000Y-10667500D01*
X15645000Y-9641000D02*
G75*
G03*
X15545000Y-9641000I-50000J0D01*
G01*
X15545000Y-9641000D02*
G75*
G03*
X15645000Y-9641000I50000J0D01*
G01*
X15645000Y-11091000D02*
G75*
G03*
X15545000Y-11091000I-50000J0D01*
G01*
X15545000Y-11091000D02*
G75*
G03*
X15645000Y-11091000I50000J0D01*
G01*
X15899000Y-9641000D02*
G75*
G03*
X15799000Y-9641000I-50000J0D01*
G01*
X15799000Y-9641000D02*
G75*
G03*
X15899000Y-9641000I50000J0D01*
G01*
X15899000Y-11091000D02*
G75*
G03*
X15799000Y-11091000I-50000J0D01*
G01*
X15799000Y-11091000D02*
G75*
G03*
X15899000Y-11091000I50000J0D01*
G01*
X16153000Y-9641000D02*
G75*
G03*
X16053000Y-9641000I-50000J0D01*
G01*
X16053000Y-9641000D02*
G75*
G03*
X16153000Y-9641000I50000J0D01*
G01*
X16153000Y-11091000D02*
G75*
G03*
X16053000Y-11091000I-50000J0D01*
G01*
X16053000Y-11091000D02*
G75*
G03*
X16153000Y-11091000I50000J0D01*
G01*
X16407000Y-9641000D02*
G75*
G03*
X16307000Y-9641000I-50000J0D01*
G01*
X16307000Y-9641000D02*
G75*
G03*
X16407000Y-9641000I50000J0D01*
G01*
X16407000Y-11091000D02*
G75*
G03*
X16307000Y-11091000I-50000J0D01*
G01*
X16307000Y-11091000D02*
G75*
G03*
X16407000Y-11091000I50000J0D01*
G01*
D10*
X15210777Y-11703484D02*
X15210777Y-11503484D01*
X15210777Y-11503484D02*
X15258396Y-11503484D01*
X15258396Y-11503484D02*
X15286967Y-11513008D01*
X15286967Y-11513008D02*
X15306015Y-11532055D01*
X15306015Y-11532055D02*
X15315539Y-11551103D01*
X15315539Y-11551103D02*
X15325062Y-11589198D01*
X15325062Y-11589198D02*
X15325062Y-11617769D01*
X15325062Y-11617769D02*
X15315539Y-11655865D01*
X15315539Y-11655865D02*
X15306015Y-11674912D01*
X15306015Y-11674912D02*
X15286967Y-11693960D01*
X15286967Y-11693960D02*
X15258396Y-11703484D01*
X15258396Y-11703484D02*
X15210777Y-11703484D01*
X15410777Y-11703484D02*
X15410777Y-11570150D01*
X15410777Y-11608246D02*
X15420301Y-11589198D01*
X15420301Y-11589198D02*
X15429824Y-11579674D01*
X15429824Y-11579674D02*
X15448872Y-11570150D01*
X15448872Y-11570150D02*
X15467920Y-11570150D01*
X15534586Y-11703484D02*
X15534586Y-11570150D01*
X15534586Y-11503484D02*
X15525062Y-11513008D01*
X15525062Y-11513008D02*
X15534586Y-11522531D01*
X15534586Y-11522531D02*
X15544110Y-11513008D01*
X15544110Y-11513008D02*
X15534586Y-11503484D01*
X15534586Y-11503484D02*
X15534586Y-11522531D01*
X15658396Y-11703484D02*
X15639348Y-11693960D01*
X15639348Y-11693960D02*
X15629824Y-11674912D01*
X15629824Y-11674912D02*
X15629824Y-11503484D01*
X15763158Y-11703484D02*
X15744110Y-11693960D01*
X15744110Y-11693960D02*
X15734586Y-11674912D01*
X15734586Y-11674912D02*
X15734586Y-11503484D01*
X15991729Y-11703484D02*
X15991729Y-11503484D01*
X15991729Y-11503484D02*
X16058396Y-11646341D01*
X16058396Y-11646341D02*
X16125062Y-11503484D01*
X16125062Y-11503484D02*
X16125062Y-11703484D01*
X16306015Y-11703484D02*
X16306015Y-11598722D01*
X16306015Y-11598722D02*
X16296491Y-11579674D01*
X16296491Y-11579674D02*
X16277443Y-11570150D01*
X16277443Y-11570150D02*
X16239348Y-11570150D01*
X16239348Y-11570150D02*
X16220301Y-11579674D01*
X16306015Y-11693960D02*
X16286967Y-11703484D01*
X16286967Y-11703484D02*
X16239348Y-11703484D01*
X16239348Y-11703484D02*
X16220301Y-11693960D01*
X16220301Y-11693960D02*
X16210777Y-11674912D01*
X16210777Y-11674912D02*
X16210777Y-11655865D01*
X16210777Y-11655865D02*
X16220301Y-11636817D01*
X16220301Y-11636817D02*
X16239348Y-11627293D01*
X16239348Y-11627293D02*
X16286967Y-11627293D01*
X16286967Y-11627293D02*
X16306015Y-11617769D01*
X16401253Y-11570150D02*
X16401253Y-11770150D01*
X16401253Y-11579674D02*
X16420301Y-11570150D01*
X16420301Y-11570150D02*
X16458396Y-11570150D01*
X16458396Y-11570150D02*
X16477443Y-11579674D01*
X16477443Y-11579674D02*
X16486967Y-11589198D01*
X16486967Y-11589198D02*
X16496491Y-11608246D01*
X16496491Y-11608246D02*
X16496491Y-11665388D01*
X16496491Y-11665388D02*
X16486967Y-11684436D01*
X16486967Y-11684436D02*
X16477443Y-11693960D01*
X16477443Y-11693960D02*
X16458396Y-11703484D01*
X16458396Y-11703484D02*
X16420301Y-11703484D01*
X16420301Y-11703484D02*
X16401253Y-11693960D01*
X16582205Y-11684436D02*
X16591729Y-11693960D01*
X16591729Y-11693960D02*
X16582205Y-11703484D01*
X16582205Y-11703484D02*
X16572682Y-11693960D01*
X16572682Y-11693960D02*
X16582205Y-11684436D01*
X16582205Y-11684436D02*
X16582205Y-11703484D01*
X16582205Y-11579674D02*
X16591729Y-11589198D01*
X16591729Y-11589198D02*
X16582205Y-11598722D01*
X16582205Y-11598722D02*
X16572682Y-11589198D01*
X16572682Y-11589198D02*
X16582205Y-11579674D01*
X16582205Y-11579674D02*
X16582205Y-11598722D01*
D11*
X14910000Y-12012000D02*
X14950000Y-12052000D01*
X14950000Y-12012000D02*
X14910000Y-12052000D01*
D10*
X15248872Y-11923484D02*
X15267920Y-11923484D01*
X15267920Y-11923484D02*
X15286967Y-11933008D01*
X15286967Y-11933008D02*
X15296491Y-11942531D01*
X15296491Y-11942531D02*
X15306015Y-11961579D01*
X15306015Y-11961579D02*
X15315539Y-11999674D01*
X15315539Y-11999674D02*
X15315539Y-12047293D01*
X15315539Y-12047293D02*
X15306015Y-12085388D01*
X15306015Y-12085388D02*
X15296491Y-12104436D01*
X15296491Y-12104436D02*
X15286967Y-12113960D01*
X15286967Y-12113960D02*
X15267920Y-12123484D01*
X15267920Y-12123484D02*
X15248872Y-12123484D01*
X15248872Y-12123484D02*
X15229824Y-12113960D01*
X15229824Y-12113960D02*
X15220301Y-12104436D01*
X15220301Y-12104436D02*
X15210777Y-12085388D01*
X15210777Y-12085388D02*
X15201253Y-12047293D01*
X15201253Y-12047293D02*
X15201253Y-11999674D01*
X15201253Y-11999674D02*
X15210777Y-11961579D01*
X15210777Y-11961579D02*
X15220301Y-11942531D01*
X15220301Y-11942531D02*
X15229824Y-11933008D01*
X15229824Y-11933008D02*
X15248872Y-11923484D01*
X15401253Y-12104436D02*
X15410777Y-12113960D01*
X15410777Y-12113960D02*
X15401253Y-12123484D01*
X15401253Y-12123484D02*
X15391729Y-12113960D01*
X15391729Y-12113960D02*
X15401253Y-12104436D01*
X15401253Y-12104436D02*
X15401253Y-12123484D01*
X15582205Y-11990150D02*
X15582205Y-12123484D01*
X15534586Y-11913960D02*
X15486967Y-12056817D01*
X15486967Y-12056817D02*
X15610777Y-12056817D01*
X15725062Y-11923484D02*
X15744110Y-11923484D01*
X15744110Y-11923484D02*
X15763158Y-11933008D01*
X15763158Y-11933008D02*
X15772682Y-11942531D01*
X15772682Y-11942531D02*
X15782205Y-11961579D01*
X15782205Y-11961579D02*
X15791729Y-11999674D01*
X15791729Y-11999674D02*
X15791729Y-12047293D01*
X15791729Y-12047293D02*
X15782205Y-12085388D01*
X15782205Y-12085388D02*
X15772682Y-12104436D01*
X15772682Y-12104436D02*
X15763158Y-12113960D01*
X15763158Y-12113960D02*
X15744110Y-12123484D01*
X15744110Y-12123484D02*
X15725062Y-12123484D01*
X15725062Y-12123484D02*
X15706015Y-12113960D01*
X15706015Y-12113960D02*
X15696491Y-12104436D01*
X15696491Y-12104436D02*
X15686967Y-12085388D01*
X15686967Y-12085388D02*
X15677443Y-12047293D01*
X15677443Y-12047293D02*
X15677443Y-11999674D01*
X15677443Y-11999674D02*
X15686967Y-11961579D01*
X15686967Y-11961579D02*
X15696491Y-11942531D01*
X15696491Y-11942531D02*
X15706015Y-11933008D01*
X15706015Y-11933008D02*
X15725062Y-11923484D01*
X15915539Y-11923484D02*
X15934586Y-11923484D01*
X15934586Y-11923484D02*
X15953634Y-11933008D01*
X15953634Y-11933008D02*
X15963158Y-11942531D01*
X15963158Y-11942531D02*
X15972682Y-11961579D01*
X15972682Y-11961579D02*
X15982205Y-11999674D01*
X15982205Y-11999674D02*
X15982205Y-12047293D01*
X15982205Y-12047293D02*
X15972682Y-12085388D01*
X15972682Y-12085388D02*
X15963158Y-12104436D01*
X15963158Y-12104436D02*
X15953634Y-12113960D01*
X15953634Y-12113960D02*
X15934586Y-12123484D01*
X15934586Y-12123484D02*
X15915539Y-12123484D01*
X15915539Y-12123484D02*
X15896491Y-12113960D01*
X15896491Y-12113960D02*
X15886967Y-12104436D01*
X15886967Y-12104436D02*
X15877443Y-12085388D01*
X15877443Y-12085388D02*
X15867920Y-12047293D01*
X15867920Y-12047293D02*
X15867920Y-11999674D01*
X15867920Y-11999674D02*
X15877443Y-11961579D01*
X15877443Y-11961579D02*
X15886967Y-11942531D01*
X15886967Y-11942531D02*
X15896491Y-11933008D01*
X15896491Y-11933008D02*
X15915539Y-11923484D01*
X16067920Y-12123484D02*
X16067920Y-11990150D01*
X16067920Y-12009198D02*
X16077443Y-11999674D01*
X16077443Y-11999674D02*
X16096491Y-11990150D01*
X16096491Y-11990150D02*
X16125063Y-11990150D01*
X16125063Y-11990150D02*
X16144110Y-11999674D01*
X16144110Y-11999674D02*
X16153634Y-12018722D01*
X16153634Y-12018722D02*
X16153634Y-12123484D01*
X16153634Y-12018722D02*
X16163158Y-11999674D01*
X16163158Y-11999674D02*
X16182205Y-11990150D01*
X16182205Y-11990150D02*
X16210777Y-11990150D01*
X16210777Y-11990150D02*
X16229824Y-11999674D01*
X16229824Y-11999674D02*
X16239348Y-12018722D01*
X16239348Y-12018722D02*
X16239348Y-12123484D01*
X16334586Y-12123484D02*
X16334586Y-11990150D01*
X16334586Y-12009198D02*
X16344110Y-11999674D01*
X16344110Y-11999674D02*
X16363158Y-11990150D01*
X16363158Y-11990150D02*
X16391729Y-11990150D01*
X16391729Y-11990150D02*
X16410777Y-11999674D01*
X16410777Y-11999674D02*
X16420301Y-12018722D01*
X16420301Y-12018722D02*
X16420301Y-12123484D01*
X16420301Y-12018722D02*
X16429824Y-11999674D01*
X16429824Y-11999674D02*
X16448872Y-11990150D01*
X16448872Y-11990150D02*
X16477443Y-11990150D01*
X16477443Y-11990150D02*
X16496491Y-11999674D01*
X16496491Y-11999674D02*
X16506015Y-12018722D01*
X16506015Y-12018722D02*
X16506015Y-12123484D01*
X16896491Y-11913960D02*
X16725063Y-12171103D01*
X17153634Y-11923484D02*
X17172682Y-11923484D01*
X17172682Y-11923484D02*
X17191729Y-11933008D01*
X17191729Y-11933008D02*
X17201253Y-11942531D01*
X17201253Y-11942531D02*
X17210777Y-11961579D01*
X17210777Y-11961579D02*
X17220301Y-11999674D01*
X17220301Y-11999674D02*
X17220301Y-12047293D01*
X17220301Y-12047293D02*
X17210777Y-12085388D01*
X17210777Y-12085388D02*
X17201253Y-12104436D01*
X17201253Y-12104436D02*
X17191729Y-12113960D01*
X17191729Y-12113960D02*
X17172682Y-12123484D01*
X17172682Y-12123484D02*
X17153634Y-12123484D01*
X17153634Y-12123484D02*
X17134587Y-12113960D01*
X17134587Y-12113960D02*
X17125063Y-12104436D01*
X17125063Y-12104436D02*
X17115539Y-12085388D01*
X17115539Y-12085388D02*
X17106015Y-12047293D01*
X17106015Y-12047293D02*
X17106015Y-11999674D01*
X17106015Y-11999674D02*
X17115539Y-11961579D01*
X17115539Y-11961579D02*
X17125063Y-11942531D01*
X17125063Y-11942531D02*
X17134587Y-11933008D01*
X17134587Y-11933008D02*
X17153634Y-11923484D01*
X17306015Y-12104436D02*
X17315539Y-12113960D01*
X17315539Y-12113960D02*
X17306015Y-12123484D01*
X17306015Y-12123484D02*
X17296491Y-12113960D01*
X17296491Y-12113960D02*
X17306015Y-12104436D01*
X17306015Y-12104436D02*
X17306015Y-12123484D01*
X17439348Y-11923484D02*
X17458396Y-11923484D01*
X17458396Y-11923484D02*
X17477444Y-11933008D01*
X17477444Y-11933008D02*
X17486968Y-11942531D01*
X17486968Y-11942531D02*
X17496491Y-11961579D01*
X17496491Y-11961579D02*
X17506015Y-11999674D01*
X17506015Y-11999674D02*
X17506015Y-12047293D01*
X17506015Y-12047293D02*
X17496491Y-12085388D01*
X17496491Y-12085388D02*
X17486968Y-12104436D01*
X17486968Y-12104436D02*
X17477444Y-12113960D01*
X17477444Y-12113960D02*
X17458396Y-12123484D01*
X17458396Y-12123484D02*
X17439348Y-12123484D01*
X17439348Y-12123484D02*
X17420301Y-12113960D01*
X17420301Y-12113960D02*
X17410777Y-12104436D01*
X17410777Y-12104436D02*
X17401253Y-12085388D01*
X17401253Y-12085388D02*
X17391729Y-12047293D01*
X17391729Y-12047293D02*
X17391729Y-11999674D01*
X17391729Y-11999674D02*
X17401253Y-11961579D01*
X17401253Y-11961579D02*
X17410777Y-11942531D01*
X17410777Y-11942531D02*
X17420301Y-11933008D01*
X17420301Y-11933008D02*
X17439348Y-11923484D01*
X17696491Y-12123484D02*
X17582206Y-12123484D01*
X17639348Y-12123484D02*
X17639348Y-11923484D01*
X17639348Y-11923484D02*
X17620301Y-11952055D01*
X17620301Y-11952055D02*
X17601253Y-11971103D01*
X17601253Y-11971103D02*
X17582206Y-11980627D01*
X17877444Y-11923484D02*
X17782206Y-11923484D01*
X17782206Y-11923484D02*
X17772682Y-12018722D01*
X17772682Y-12018722D02*
X17782206Y-12009198D01*
X17782206Y-12009198D02*
X17801253Y-11999674D01*
X17801253Y-11999674D02*
X17848872Y-11999674D01*
X17848872Y-11999674D02*
X17867920Y-12009198D01*
X17867920Y-12009198D02*
X17877444Y-12018722D01*
X17877444Y-12018722D02*
X17886968Y-12037769D01*
X17886968Y-12037769D02*
X17886968Y-12085388D01*
X17886968Y-12085388D02*
X17877444Y-12104436D01*
X17877444Y-12104436D02*
X17867920Y-12113960D01*
X17867920Y-12113960D02*
X17848872Y-12123484D01*
X17848872Y-12123484D02*
X17801253Y-12123484D01*
X17801253Y-12123484D02*
X17782206Y-12113960D01*
X17782206Y-12113960D02*
X17772682Y-12104436D01*
X17953634Y-11923484D02*
X18086968Y-11923484D01*
X18086968Y-11923484D02*
X18001253Y-12123484D01*
X18153634Y-11923484D02*
X18153634Y-11961579D01*
X18229825Y-11923484D02*
X18229825Y-11961579D01*
X18525063Y-12199674D02*
X18515539Y-12190150D01*
X18515539Y-12190150D02*
X18496491Y-12161579D01*
X18496491Y-12161579D02*
X18486968Y-12142531D01*
X18486968Y-12142531D02*
X18477444Y-12113960D01*
X18477444Y-12113960D02*
X18467920Y-12066341D01*
X18467920Y-12066341D02*
X18467920Y-12028246D01*
X18467920Y-12028246D02*
X18477444Y-11980627D01*
X18477444Y-11980627D02*
X18486968Y-11952055D01*
X18486968Y-11952055D02*
X18496491Y-11933008D01*
X18496491Y-11933008D02*
X18515539Y-11904436D01*
X18515539Y-11904436D02*
X18525063Y-11894912D01*
X18686968Y-11923484D02*
X18648872Y-11923484D01*
X18648872Y-11923484D02*
X18629825Y-11933008D01*
X18629825Y-11933008D02*
X18620301Y-11942531D01*
X18620301Y-11942531D02*
X18601253Y-11971103D01*
X18601253Y-11971103D02*
X18591730Y-12009198D01*
X18591730Y-12009198D02*
X18591730Y-12085388D01*
X18591730Y-12085388D02*
X18601253Y-12104436D01*
X18601253Y-12104436D02*
X18610777Y-12113960D01*
X18610777Y-12113960D02*
X18629825Y-12123484D01*
X18629825Y-12123484D02*
X18667920Y-12123484D01*
X18667920Y-12123484D02*
X18686968Y-12113960D01*
X18686968Y-12113960D02*
X18696491Y-12104436D01*
X18696491Y-12104436D02*
X18706015Y-12085388D01*
X18706015Y-12085388D02*
X18706015Y-12037769D01*
X18706015Y-12037769D02*
X18696491Y-12018722D01*
X18696491Y-12018722D02*
X18686968Y-12009198D01*
X18686968Y-12009198D02*
X18667920Y-11999674D01*
X18667920Y-11999674D02*
X18629825Y-11999674D01*
X18629825Y-11999674D02*
X18610777Y-12009198D01*
X18610777Y-12009198D02*
X18601253Y-12018722D01*
X18601253Y-12018722D02*
X18591730Y-12037769D01*
X18944111Y-12123484D02*
X18944111Y-11923484D01*
X19029825Y-12123484D02*
X19029825Y-12018722D01*
X19029825Y-12018722D02*
X19020301Y-11999674D01*
X19020301Y-11999674D02*
X19001253Y-11990150D01*
X19001253Y-11990150D02*
X18972682Y-11990150D01*
X18972682Y-11990150D02*
X18953634Y-11999674D01*
X18953634Y-11999674D02*
X18944111Y-12009198D01*
X19153634Y-12123484D02*
X19134587Y-12113960D01*
X19134587Y-12113960D02*
X19125063Y-12104436D01*
X19125063Y-12104436D02*
X19115539Y-12085388D01*
X19115539Y-12085388D02*
X19115539Y-12028246D01*
X19115539Y-12028246D02*
X19125063Y-12009198D01*
X19125063Y-12009198D02*
X19134587Y-11999674D01*
X19134587Y-11999674D02*
X19153634Y-11990150D01*
X19153634Y-11990150D02*
X19182206Y-11990150D01*
X19182206Y-11990150D02*
X19201253Y-11999674D01*
X19201253Y-11999674D02*
X19210777Y-12009198D01*
X19210777Y-12009198D02*
X19220301Y-12028246D01*
X19220301Y-12028246D02*
X19220301Y-12085388D01*
X19220301Y-12085388D02*
X19210777Y-12104436D01*
X19210777Y-12104436D02*
X19201253Y-12113960D01*
X19201253Y-12113960D02*
X19182206Y-12123484D01*
X19182206Y-12123484D02*
X19153634Y-12123484D01*
X19334587Y-12123484D02*
X19315539Y-12113960D01*
X19315539Y-12113960D02*
X19306015Y-12094912D01*
X19306015Y-12094912D02*
X19306015Y-11923484D01*
X19486968Y-12113960D02*
X19467920Y-12123484D01*
X19467920Y-12123484D02*
X19429825Y-12123484D01*
X19429825Y-12123484D02*
X19410777Y-12113960D01*
X19410777Y-12113960D02*
X19401253Y-12094912D01*
X19401253Y-12094912D02*
X19401253Y-12018722D01*
X19401253Y-12018722D02*
X19410777Y-11999674D01*
X19410777Y-11999674D02*
X19429825Y-11990150D01*
X19429825Y-11990150D02*
X19467920Y-11990150D01*
X19467920Y-11990150D02*
X19486968Y-11999674D01*
X19486968Y-11999674D02*
X19496492Y-12018722D01*
X19496492Y-12018722D02*
X19496492Y-12037769D01*
X19496492Y-12037769D02*
X19401253Y-12056817D01*
X19572682Y-12113960D02*
X19591730Y-12123484D01*
X19591730Y-12123484D02*
X19629825Y-12123484D01*
X19629825Y-12123484D02*
X19648873Y-12113960D01*
X19648873Y-12113960D02*
X19658396Y-12094912D01*
X19658396Y-12094912D02*
X19658396Y-12085388D01*
X19658396Y-12085388D02*
X19648873Y-12066341D01*
X19648873Y-12066341D02*
X19629825Y-12056817D01*
X19629825Y-12056817D02*
X19601253Y-12056817D01*
X19601253Y-12056817D02*
X19582206Y-12047293D01*
X19582206Y-12047293D02*
X19572682Y-12028246D01*
X19572682Y-12028246D02*
X19572682Y-12018722D01*
X19572682Y-12018722D02*
X19582206Y-11999674D01*
X19582206Y-11999674D02*
X19601253Y-11990150D01*
X19601253Y-11990150D02*
X19629825Y-11990150D01*
X19629825Y-11990150D02*
X19648873Y-11999674D01*
X19725063Y-12199674D02*
X19734587Y-12190150D01*
X19734587Y-12190150D02*
X19753634Y-12161579D01*
X19753634Y-12161579D02*
X19763158Y-12142531D01*
X19763158Y-12142531D02*
X19772682Y-12113960D01*
X19772682Y-12113960D02*
X19782206Y-12066341D01*
X19782206Y-12066341D02*
X19782206Y-12028246D01*
X19782206Y-12028246D02*
X19772682Y-11980627D01*
X19772682Y-11980627D02*
X19763158Y-11952055D01*
X19763158Y-11952055D02*
X19753634Y-11933008D01*
X19753634Y-11933008D02*
X19734587Y-11904436D01*
X19734587Y-11904436D02*
X19725063Y-11894912D01*
D11*
X14950000Y-12296000D02*
G75*
G03*
X14850000Y-12296000I-50000J0D01*
G01*
X14850000Y-12296000D02*
G75*
G03*
X14950000Y-12296000I50000J0D01*
G01*
D10*
X15315539Y-12387484D02*
X15201253Y-12387484D01*
X15258396Y-12387484D02*
X15258396Y-12187484D01*
X15258396Y-12187484D02*
X15239348Y-12216055D01*
X15239348Y-12216055D02*
X15220301Y-12235103D01*
X15220301Y-12235103D02*
X15201253Y-12244627D01*
X15401253Y-12368436D02*
X15410777Y-12377960D01*
X15410777Y-12377960D02*
X15401253Y-12387484D01*
X15401253Y-12387484D02*
X15391729Y-12377960D01*
X15391729Y-12377960D02*
X15401253Y-12368436D01*
X15401253Y-12368436D02*
X15401253Y-12387484D01*
X15534586Y-12187484D02*
X15553634Y-12187484D01*
X15553634Y-12187484D02*
X15572682Y-12197008D01*
X15572682Y-12197008D02*
X15582205Y-12206531D01*
X15582205Y-12206531D02*
X15591729Y-12225579D01*
X15591729Y-12225579D02*
X15601253Y-12263674D01*
X15601253Y-12263674D02*
X15601253Y-12311293D01*
X15601253Y-12311293D02*
X15591729Y-12349388D01*
X15591729Y-12349388D02*
X15582205Y-12368436D01*
X15582205Y-12368436D02*
X15572682Y-12377960D01*
X15572682Y-12377960D02*
X15553634Y-12387484D01*
X15553634Y-12387484D02*
X15534586Y-12387484D01*
X15534586Y-12387484D02*
X15515539Y-12377960D01*
X15515539Y-12377960D02*
X15506015Y-12368436D01*
X15506015Y-12368436D02*
X15496491Y-12349388D01*
X15496491Y-12349388D02*
X15486967Y-12311293D01*
X15486967Y-12311293D02*
X15486967Y-12263674D01*
X15486967Y-12263674D02*
X15496491Y-12225579D01*
X15496491Y-12225579D02*
X15506015Y-12206531D01*
X15506015Y-12206531D02*
X15515539Y-12197008D01*
X15515539Y-12197008D02*
X15534586Y-12187484D01*
X15725062Y-12187484D02*
X15744110Y-12187484D01*
X15744110Y-12187484D02*
X15763158Y-12197008D01*
X15763158Y-12197008D02*
X15772682Y-12206531D01*
X15772682Y-12206531D02*
X15782205Y-12225579D01*
X15782205Y-12225579D02*
X15791729Y-12263674D01*
X15791729Y-12263674D02*
X15791729Y-12311293D01*
X15791729Y-12311293D02*
X15782205Y-12349388D01*
X15782205Y-12349388D02*
X15772682Y-12368436D01*
X15772682Y-12368436D02*
X15763158Y-12377960D01*
X15763158Y-12377960D02*
X15744110Y-12387484D01*
X15744110Y-12387484D02*
X15725062Y-12387484D01*
X15725062Y-12387484D02*
X15706015Y-12377960D01*
X15706015Y-12377960D02*
X15696491Y-12368436D01*
X15696491Y-12368436D02*
X15686967Y-12349388D01*
X15686967Y-12349388D02*
X15677443Y-12311293D01*
X15677443Y-12311293D02*
X15677443Y-12263674D01*
X15677443Y-12263674D02*
X15686967Y-12225579D01*
X15686967Y-12225579D02*
X15696491Y-12206531D01*
X15696491Y-12206531D02*
X15706015Y-12197008D01*
X15706015Y-12197008D02*
X15725062Y-12187484D01*
X15915539Y-12187484D02*
X15934586Y-12187484D01*
X15934586Y-12187484D02*
X15953634Y-12197008D01*
X15953634Y-12197008D02*
X15963158Y-12206531D01*
X15963158Y-12206531D02*
X15972682Y-12225579D01*
X15972682Y-12225579D02*
X15982205Y-12263674D01*
X15982205Y-12263674D02*
X15982205Y-12311293D01*
X15982205Y-12311293D02*
X15972682Y-12349388D01*
X15972682Y-12349388D02*
X15963158Y-12368436D01*
X15963158Y-12368436D02*
X15953634Y-12377960D01*
X15953634Y-12377960D02*
X15934586Y-12387484D01*
X15934586Y-12387484D02*
X15915539Y-12387484D01*
X15915539Y-12387484D02*
X15896491Y-12377960D01*
X15896491Y-12377960D02*
X15886967Y-12368436D01*
X15886967Y-12368436D02*
X15877443Y-12349388D01*
X15877443Y-12349388D02*
X15867920Y-12311293D01*
X15867920Y-12311293D02*
X15867920Y-12263674D01*
X15867920Y-12263674D02*
X15877443Y-12225579D01*
X15877443Y-12225579D02*
X15886967Y-12206531D01*
X15886967Y-12206531D02*
X15896491Y-12197008D01*
X15896491Y-12197008D02*
X15915539Y-12187484D01*
X16067920Y-12387484D02*
X16067920Y-12254150D01*
X16067920Y-12273198D02*
X16077443Y-12263674D01*
X16077443Y-12263674D02*
X16096491Y-12254150D01*
X16096491Y-12254150D02*
X16125063Y-12254150D01*
X16125063Y-12254150D02*
X16144110Y-12263674D01*
X16144110Y-12263674D02*
X16153634Y-12282722D01*
X16153634Y-12282722D02*
X16153634Y-12387484D01*
X16153634Y-12282722D02*
X16163158Y-12263674D01*
X16163158Y-12263674D02*
X16182205Y-12254150D01*
X16182205Y-12254150D02*
X16210777Y-12254150D01*
X16210777Y-12254150D02*
X16229824Y-12263674D01*
X16229824Y-12263674D02*
X16239348Y-12282722D01*
X16239348Y-12282722D02*
X16239348Y-12387484D01*
X16334586Y-12387484D02*
X16334586Y-12254150D01*
X16334586Y-12273198D02*
X16344110Y-12263674D01*
X16344110Y-12263674D02*
X16363158Y-12254150D01*
X16363158Y-12254150D02*
X16391729Y-12254150D01*
X16391729Y-12254150D02*
X16410777Y-12263674D01*
X16410777Y-12263674D02*
X16420301Y-12282722D01*
X16420301Y-12282722D02*
X16420301Y-12387484D01*
X16420301Y-12282722D02*
X16429824Y-12263674D01*
X16429824Y-12263674D02*
X16448872Y-12254150D01*
X16448872Y-12254150D02*
X16477443Y-12254150D01*
X16477443Y-12254150D02*
X16496491Y-12263674D01*
X16496491Y-12263674D02*
X16506015Y-12282722D01*
X16506015Y-12282722D02*
X16506015Y-12387484D01*
X16896491Y-12177960D02*
X16725063Y-12435103D01*
X17153634Y-12187484D02*
X17172682Y-12187484D01*
X17172682Y-12187484D02*
X17191729Y-12197008D01*
X17191729Y-12197008D02*
X17201253Y-12206531D01*
X17201253Y-12206531D02*
X17210777Y-12225579D01*
X17210777Y-12225579D02*
X17220301Y-12263674D01*
X17220301Y-12263674D02*
X17220301Y-12311293D01*
X17220301Y-12311293D02*
X17210777Y-12349388D01*
X17210777Y-12349388D02*
X17201253Y-12368436D01*
X17201253Y-12368436D02*
X17191729Y-12377960D01*
X17191729Y-12377960D02*
X17172682Y-12387484D01*
X17172682Y-12387484D02*
X17153634Y-12387484D01*
X17153634Y-12387484D02*
X17134587Y-12377960D01*
X17134587Y-12377960D02*
X17125063Y-12368436D01*
X17125063Y-12368436D02*
X17115539Y-12349388D01*
X17115539Y-12349388D02*
X17106015Y-12311293D01*
X17106015Y-12311293D02*
X17106015Y-12263674D01*
X17106015Y-12263674D02*
X17115539Y-12225579D01*
X17115539Y-12225579D02*
X17125063Y-12206531D01*
X17125063Y-12206531D02*
X17134587Y-12197008D01*
X17134587Y-12197008D02*
X17153634Y-12187484D01*
X17306015Y-12368436D02*
X17315539Y-12377960D01*
X17315539Y-12377960D02*
X17306015Y-12387484D01*
X17306015Y-12387484D02*
X17296491Y-12377960D01*
X17296491Y-12377960D02*
X17306015Y-12368436D01*
X17306015Y-12368436D02*
X17306015Y-12387484D01*
X17439348Y-12187484D02*
X17458396Y-12187484D01*
X17458396Y-12187484D02*
X17477444Y-12197008D01*
X17477444Y-12197008D02*
X17486968Y-12206531D01*
X17486968Y-12206531D02*
X17496491Y-12225579D01*
X17496491Y-12225579D02*
X17506015Y-12263674D01*
X17506015Y-12263674D02*
X17506015Y-12311293D01*
X17506015Y-12311293D02*
X17496491Y-12349388D01*
X17496491Y-12349388D02*
X17486968Y-12368436D01*
X17486968Y-12368436D02*
X17477444Y-12377960D01*
X17477444Y-12377960D02*
X17458396Y-12387484D01*
X17458396Y-12387484D02*
X17439348Y-12387484D01*
X17439348Y-12387484D02*
X17420301Y-12377960D01*
X17420301Y-12377960D02*
X17410777Y-12368436D01*
X17410777Y-12368436D02*
X17401253Y-12349388D01*
X17401253Y-12349388D02*
X17391729Y-12311293D01*
X17391729Y-12311293D02*
X17391729Y-12263674D01*
X17391729Y-12263674D02*
X17401253Y-12225579D01*
X17401253Y-12225579D02*
X17410777Y-12206531D01*
X17410777Y-12206531D02*
X17420301Y-12197008D01*
X17420301Y-12197008D02*
X17439348Y-12187484D01*
X17572682Y-12187484D02*
X17696491Y-12187484D01*
X17696491Y-12187484D02*
X17629825Y-12263674D01*
X17629825Y-12263674D02*
X17658396Y-12263674D01*
X17658396Y-12263674D02*
X17677444Y-12273198D01*
X17677444Y-12273198D02*
X17686968Y-12282722D01*
X17686968Y-12282722D02*
X17696491Y-12301769D01*
X17696491Y-12301769D02*
X17696491Y-12349388D01*
X17696491Y-12349388D02*
X17686968Y-12368436D01*
X17686968Y-12368436D02*
X17677444Y-12377960D01*
X17677444Y-12377960D02*
X17658396Y-12387484D01*
X17658396Y-12387484D02*
X17601253Y-12387484D01*
X17601253Y-12387484D02*
X17582206Y-12377960D01*
X17582206Y-12377960D02*
X17572682Y-12368436D01*
X17791729Y-12387484D02*
X17829825Y-12387484D01*
X17829825Y-12387484D02*
X17848872Y-12377960D01*
X17848872Y-12377960D02*
X17858396Y-12368436D01*
X17858396Y-12368436D02*
X17877444Y-12339865D01*
X17877444Y-12339865D02*
X17886968Y-12301769D01*
X17886968Y-12301769D02*
X17886968Y-12225579D01*
X17886968Y-12225579D02*
X17877444Y-12206531D01*
X17877444Y-12206531D02*
X17867920Y-12197008D01*
X17867920Y-12197008D02*
X17848872Y-12187484D01*
X17848872Y-12187484D02*
X17810777Y-12187484D01*
X17810777Y-12187484D02*
X17791729Y-12197008D01*
X17791729Y-12197008D02*
X17782206Y-12206531D01*
X17782206Y-12206531D02*
X17772682Y-12225579D01*
X17772682Y-12225579D02*
X17772682Y-12273198D01*
X17772682Y-12273198D02*
X17782206Y-12292246D01*
X17782206Y-12292246D02*
X17791729Y-12301769D01*
X17791729Y-12301769D02*
X17810777Y-12311293D01*
X17810777Y-12311293D02*
X17848872Y-12311293D01*
X17848872Y-12311293D02*
X17867920Y-12301769D01*
X17867920Y-12301769D02*
X17877444Y-12292246D01*
X17877444Y-12292246D02*
X17886968Y-12273198D01*
X18058396Y-12254150D02*
X18058396Y-12387484D01*
X18010777Y-12177960D02*
X17963158Y-12320817D01*
X17963158Y-12320817D02*
X18086968Y-12320817D01*
X18153634Y-12187484D02*
X18153634Y-12225579D01*
X18229825Y-12187484D02*
X18229825Y-12225579D01*
X18525063Y-12463674D02*
X18515539Y-12454150D01*
X18515539Y-12454150D02*
X18496491Y-12425579D01*
X18496491Y-12425579D02*
X18486968Y-12406531D01*
X18486968Y-12406531D02*
X18477444Y-12377960D01*
X18477444Y-12377960D02*
X18467920Y-12330341D01*
X18467920Y-12330341D02*
X18467920Y-12292246D01*
X18467920Y-12292246D02*
X18477444Y-12244627D01*
X18477444Y-12244627D02*
X18486968Y-12216055D01*
X18486968Y-12216055D02*
X18496491Y-12197008D01*
X18496491Y-12197008D02*
X18515539Y-12168436D01*
X18515539Y-12168436D02*
X18525063Y-12158912D01*
X18629825Y-12273198D02*
X18610777Y-12263674D01*
X18610777Y-12263674D02*
X18601253Y-12254150D01*
X18601253Y-12254150D02*
X18591730Y-12235103D01*
X18591730Y-12235103D02*
X18591730Y-12225579D01*
X18591730Y-12225579D02*
X18601253Y-12206531D01*
X18601253Y-12206531D02*
X18610777Y-12197008D01*
X18610777Y-12197008D02*
X18629825Y-12187484D01*
X18629825Y-12187484D02*
X18667920Y-12187484D01*
X18667920Y-12187484D02*
X18686968Y-12197008D01*
X18686968Y-12197008D02*
X18696491Y-12206531D01*
X18696491Y-12206531D02*
X18706015Y-12225579D01*
X18706015Y-12225579D02*
X18706015Y-12235103D01*
X18706015Y-12235103D02*
X18696491Y-12254150D01*
X18696491Y-12254150D02*
X18686968Y-12263674D01*
X18686968Y-12263674D02*
X18667920Y-12273198D01*
X18667920Y-12273198D02*
X18629825Y-12273198D01*
X18629825Y-12273198D02*
X18610777Y-12282722D01*
X18610777Y-12282722D02*
X18601253Y-12292246D01*
X18601253Y-12292246D02*
X18591730Y-12311293D01*
X18591730Y-12311293D02*
X18591730Y-12349388D01*
X18591730Y-12349388D02*
X18601253Y-12368436D01*
X18601253Y-12368436D02*
X18610777Y-12377960D01*
X18610777Y-12377960D02*
X18629825Y-12387484D01*
X18629825Y-12387484D02*
X18667920Y-12387484D01*
X18667920Y-12387484D02*
X18686968Y-12377960D01*
X18686968Y-12377960D02*
X18696491Y-12368436D01*
X18696491Y-12368436D02*
X18706015Y-12349388D01*
X18706015Y-12349388D02*
X18706015Y-12311293D01*
X18706015Y-12311293D02*
X18696491Y-12292246D01*
X18696491Y-12292246D02*
X18686968Y-12282722D01*
X18686968Y-12282722D02*
X18667920Y-12273198D01*
X18944111Y-12387484D02*
X18944111Y-12187484D01*
X19029825Y-12387484D02*
X19029825Y-12282722D01*
X19029825Y-12282722D02*
X19020301Y-12263674D01*
X19020301Y-12263674D02*
X19001253Y-12254150D01*
X19001253Y-12254150D02*
X18972682Y-12254150D01*
X18972682Y-12254150D02*
X18953634Y-12263674D01*
X18953634Y-12263674D02*
X18944111Y-12273198D01*
X19153634Y-12387484D02*
X19134587Y-12377960D01*
X19134587Y-12377960D02*
X19125063Y-12368436D01*
X19125063Y-12368436D02*
X19115539Y-12349388D01*
X19115539Y-12349388D02*
X19115539Y-12292246D01*
X19115539Y-12292246D02*
X19125063Y-12273198D01*
X19125063Y-12273198D02*
X19134587Y-12263674D01*
X19134587Y-12263674D02*
X19153634Y-12254150D01*
X19153634Y-12254150D02*
X19182206Y-12254150D01*
X19182206Y-12254150D02*
X19201253Y-12263674D01*
X19201253Y-12263674D02*
X19210777Y-12273198D01*
X19210777Y-12273198D02*
X19220301Y-12292246D01*
X19220301Y-12292246D02*
X19220301Y-12349388D01*
X19220301Y-12349388D02*
X19210777Y-12368436D01*
X19210777Y-12368436D02*
X19201253Y-12377960D01*
X19201253Y-12377960D02*
X19182206Y-12387484D01*
X19182206Y-12387484D02*
X19153634Y-12387484D01*
X19334587Y-12387484D02*
X19315539Y-12377960D01*
X19315539Y-12377960D02*
X19306015Y-12358912D01*
X19306015Y-12358912D02*
X19306015Y-12187484D01*
X19486968Y-12377960D02*
X19467920Y-12387484D01*
X19467920Y-12387484D02*
X19429825Y-12387484D01*
X19429825Y-12387484D02*
X19410777Y-12377960D01*
X19410777Y-12377960D02*
X19401253Y-12358912D01*
X19401253Y-12358912D02*
X19401253Y-12282722D01*
X19401253Y-12282722D02*
X19410777Y-12263674D01*
X19410777Y-12263674D02*
X19429825Y-12254150D01*
X19429825Y-12254150D02*
X19467920Y-12254150D01*
X19467920Y-12254150D02*
X19486968Y-12263674D01*
X19486968Y-12263674D02*
X19496492Y-12282722D01*
X19496492Y-12282722D02*
X19496492Y-12301769D01*
X19496492Y-12301769D02*
X19401253Y-12320817D01*
X19572682Y-12377960D02*
X19591730Y-12387484D01*
X19591730Y-12387484D02*
X19629825Y-12387484D01*
X19629825Y-12387484D02*
X19648873Y-12377960D01*
X19648873Y-12377960D02*
X19658396Y-12358912D01*
X19658396Y-12358912D02*
X19658396Y-12349388D01*
X19658396Y-12349388D02*
X19648873Y-12330341D01*
X19648873Y-12330341D02*
X19629825Y-12320817D01*
X19629825Y-12320817D02*
X19601253Y-12320817D01*
X19601253Y-12320817D02*
X19582206Y-12311293D01*
X19582206Y-12311293D02*
X19572682Y-12292246D01*
X19572682Y-12292246D02*
X19572682Y-12282722D01*
X19572682Y-12282722D02*
X19582206Y-12263674D01*
X19582206Y-12263674D02*
X19601253Y-12254150D01*
X19601253Y-12254150D02*
X19629825Y-12254150D01*
X19629825Y-12254150D02*
X19648873Y-12263674D01*
X19725063Y-12463674D02*
X19734587Y-12454150D01*
X19734587Y-12454150D02*
X19753634Y-12425579D01*
X19753634Y-12425579D02*
X19763158Y-12406531D01*
X19763158Y-12406531D02*
X19772682Y-12377960D01*
X19772682Y-12377960D02*
X19782206Y-12330341D01*
X19782206Y-12330341D02*
X19782206Y-12292246D01*
X19782206Y-12292246D02*
X19772682Y-12244627D01*
X19772682Y-12244627D02*
X19763158Y-12216055D01*
X19763158Y-12216055D02*
X19753634Y-12197008D01*
X19753634Y-12197008D02*
X19734587Y-12168436D01*
X19734587Y-12168436D02*
X19725063Y-12158912D01*
M02*
